<svg xmlns="http://www.w3.org/2000/svg" width="32" height="23.467" viewBox="0 0 32 23.467">
  <g id="layer2" transform="translate(-0.265 -1.323)">
    <path id="rect892" d="M3.471,1.323a3.225,3.225,0,0,0-3.206,3.2V21.584A3.227,3.227,0,0,0,3.471,24.79h25.6a3.218,3.218,0,0,0,3.2-3.205V4.526a3.216,3.216,0,0,0-3.2-3.2Zm0,2.133h25.6A1.048,1.048,0,0,1,30.14,4.526V7.721H2.4V4.526A1.05,1.05,0,0,1,3.471,3.456ZM2.4,9.856H30.14v2.133H2.4Zm0,4.266H30.14v7.463a1.048,1.048,0,0,1-1.071,1.071H3.471A1.05,1.05,0,0,1,2.4,21.584Zm15.9,4.268a1.068,1.068,0,0,0,.1,2.133h2.135a1.067,1.067,0,0,0,0-2.133H18.4q-.051,0-.1,0Zm6.4,0a1.068,1.068,0,0,0,.1,2.133h2.133a1.067,1.067,0,0,0,0-2.133H24.8q-.051,0-.1,0Z" transform="translate(0 0)" fill="#c645ff"/>
  </g>
</svg>
