<svg xmlns="http://www.w3.org/2000/svg" xmlns:xlink="http://www.w3.org/1999/xlink" width="1565" height="508" viewBox="0 0 1565 508">
  <defs>
    <clipPath id="clip-path">
      <rect id="Rectangle_444" data-name="Rectangle 444" width="1565" height="508" fill="#fff" stroke="#707070" stroke-width="1"/>
    </clipPath>
    <linearGradient id="linear-gradient" x1="0.5" y1="1" x2="0.5" gradientUnits="objectBoundingBox">
      <stop offset="0" stop-color="#0069f7"/>
      <stop offset="0.112" stop-color="#3d5ef9"/>
      <stop offset="0.37" stop-color="#7753fc"/>
      <stop offset="0.627" stop-color="#a24cfe"/>
      <stop offset="0.802" stop-color="#bc47ff"/>
      <stop offset="0.892" stop-color="#c645ff"/>
      <stop offset="1" stop-color="#c645ff"/>
    </linearGradient>
  </defs>
  <g id="Mask_Group_17" data-name="Mask Group 17" clip-path="url(#clip-path)">
    <path id="Path_8201" data-name="Path 8201" d="M36.253,507.325c3.65.308,6.359-3.637,6.051-8.811L13.229,9.934C12.921,4.76,9.713.316,6.063.009S-.3,3.645.012,8.819L29.088,497.4C29.4,502.573,32.6,507.017,36.253,507.325Z" transform="translate(1311.742 507.452) rotate(-169)" opacity="0.11" fill="url(#linear-gradient)"/>
    <path id="Path_8202" data-name="Path 8202" d="M36.253,507.325c3.65.308,6.359-3.637,6.051-8.811L13.229,9.934C12.921,4.76,9.713.316,6.063.009S-.3,3.645.012,8.819L29.088,497.4C29.4,502.573,32.6,507.017,36.253,507.325Z" transform="translate(1515.742 507.452) rotate(-169)" opacity="0.11" fill="url(#linear-gradient)"/>
    <path id="Path_8203" data-name="Path 8203" d="M36.253,507.325c3.65.308,6.359-3.637,6.051-8.811L13.229,9.934C12.921,4.76,9.713.316,6.063.009S-.3,3.645.012,8.819L29.088,497.4C29.4,502.573,32.6,507.017,36.253,507.325Z" transform="translate(1581.742 507.452) rotate(-169)" opacity="0.11" fill="url(#linear-gradient)"/>
    <path id="Path_8204" data-name="Path 8204" d="M36.253,507.325c3.65.308,6.359-3.637,6.051-8.811L13.229,9.934C12.921,4.76,9.713.316,6.063.009S-.3,3.645.012,8.819L29.088,497.4C29.4,502.573,32.6,507.017,36.253,507.325Z" transform="translate(1277.742 507.452) rotate(-169)" opacity="0.11" fill="url(#linear-gradient)"/>
    <path id="Path_8205" data-name="Path 8205" d="M36.253,507.325c3.65.308,6.359-3.637,6.051-8.811L13.229,9.934C12.921,4.76,9.713.316,6.063.009S-.3,3.645.012,8.819L29.088,497.4C29.4,502.573,32.6,507.017,36.253,507.325Z" transform="translate(1481.742 507.452) rotate(-169)" opacity="0.11" fill="url(#linear-gradient)"/>
    <path id="Path_8206" data-name="Path 8206" d="M36.253,507.325c3.65.308,6.359-3.637,6.051-8.811L13.229,9.934C12.921,4.76,9.713.316,6.063.009S-.3,3.645.012,8.819L29.088,497.4C29.4,502.573,32.6,507.017,36.253,507.325Z" transform="translate(1547.742 507.452) rotate(-169)" opacity="0.11" fill="url(#linear-gradient)"/>
    <path id="Path_8207" data-name="Path 8207" d="M36.253,507.325c3.65.308,6.359-3.637,6.051-8.811L13.229,9.934C12.921,4.76,9.713.316,6.063.009S-.3,3.645.012,8.819L29.088,497.4C29.4,502.573,32.6,507.017,36.253,507.325Z" transform="translate(1243.742 507.452) rotate(-169)" opacity="0.11" fill="url(#linear-gradient)"/>
    <path id="Path_8208" data-name="Path 8208" d="M36.253,507.325c3.65.308,6.359-3.637,6.051-8.811L13.229,9.934C12.921,4.76,9.713.316,6.063.009S-.3,3.645.012,8.819L29.088,497.4C29.4,502.573,32.6,507.017,36.253,507.325Z" transform="translate(1447.742 507.452) rotate(-169)" opacity="0.11" fill="url(#linear-gradient)"/>
    <path id="Path_8209" data-name="Path 8209" d="M36.253,507.325c3.65.308,6.359-3.637,6.051-8.811L13.229,9.934C12.921,4.76,9.713.316,6.063.009S-.3,3.645.012,8.819L29.088,497.4C29.4,502.573,32.6,507.017,36.253,507.325Z" transform="translate(1209.742 507.452) rotate(-169)" opacity="0.11" fill="url(#linear-gradient)"/>
    <path id="Path_8210" data-name="Path 8210" d="M36.253,507.325c3.65.308,6.359-3.637,6.051-8.811L13.229,9.934C12.921,4.76,9.713.316,6.063.009S-.3,3.645.012,8.819L29.088,497.4C29.4,502.573,32.6,507.017,36.253,507.325Z" transform="translate(1413.742 507.452) rotate(-169)" opacity="0.11" fill="url(#linear-gradient)"/>
    <path id="Path_8211" data-name="Path 8211" d="M36.253,507.325c3.65.308,6.359-3.637,6.051-8.811L13.229,9.934C12.921,4.76,9.713.316,6.063.009S-.3,3.645.012,8.819L29.088,497.4C29.4,502.573,32.6,507.017,36.253,507.325Z" transform="translate(1175.742 507.452) rotate(-169)" opacity="0.11" fill="url(#linear-gradient)"/>
    <path id="Path_8212" data-name="Path 8212" d="M36.253,507.325c3.65.308,6.359-3.637,6.051-8.811L13.229,9.934C12.921,4.76,9.713.316,6.063.009S-.3,3.645.012,8.819L29.088,497.4C29.4,502.573,32.6,507.017,36.253,507.325Z" transform="translate(1379.742 507.452) rotate(-169)" opacity="0.11" fill="url(#linear-gradient)"/>
    <path id="Path_8213" data-name="Path 8213" d="M36.253,507.325c3.65.308,6.359-3.637,6.051-8.811L13.229,9.934C12.921,4.76,9.713.316,6.063.009S-.3,3.645.012,8.819L29.088,497.4C29.4,502.573,32.6,507.017,36.253,507.325Z" transform="translate(1141.742 507.452) rotate(-169)" opacity="0.11" fill="url(#linear-gradient)"/>
    <path id="Path_8214" data-name="Path 8214" d="M36.253,507.325c3.65.308,6.359-3.637,6.051-8.811L13.229,9.934C12.921,4.76,9.713.316,6.063.009S-.3,3.645.012,8.819L29.088,497.4C29.4,502.573,32.6,507.017,36.253,507.325Z" transform="translate(1345.742 507.452) rotate(-169)" opacity="0.11" fill="url(#linear-gradient)"/>
    <path id="Path_8215" data-name="Path 8215" d="M36.253,507.325c3.65.308,6.359-3.637,6.051-8.811L13.229,9.934C12.921,4.76,9.713.316,6.063.009S-.3,3.645.012,8.819L29.088,497.4C29.4,502.573,32.6,507.017,36.253,507.325Z" transform="translate(1107.742 507.452) rotate(-169)" opacity="0.11" fill="url(#linear-gradient)"/>
    <path id="Path_8216" data-name="Path 8216" d="M36.253,507.325c3.65.308,6.359-3.637,6.051-8.811L13.229,9.934C12.921,4.76,9.713.316,6.063.009S-.3,3.645.012,8.819L29.088,497.4C29.4,502.573,32.6,507.017,36.253,507.325Z" transform="translate(1073.742 507.452) rotate(-169)" opacity="0.11" fill="url(#linear-gradient)"/>
    <path id="Path_8217" data-name="Path 8217" d="M36.253,507.325c3.65.308,6.359-3.637,6.051-8.811L13.229,9.934C12.921,4.76,9.713.316,6.063.009S-.3,3.645.012,8.819L29.088,497.4C29.4,502.573,32.6,507.017,36.253,507.325Z" transform="translate(1039.742 507.452) rotate(-169)" opacity="0.11" fill="url(#linear-gradient)"/>
    <path id="Path_8218" data-name="Path 8218" d="M36.253,507.325c3.65.308,6.359-3.637,6.051-8.811L13.229,9.934C12.921,4.76,9.713.316,6.063.009S-.3,3.645.012,8.819L29.088,497.4C29.4,502.573,32.6,507.017,36.253,507.325Z" transform="translate(1005.742 507.452) rotate(-169)" opacity="0.11" fill="url(#linear-gradient)"/>
    <path id="Path_8219" data-name="Path 8219" d="M36.253,507.325c3.65.308,6.359-3.637,6.051-8.811L13.229,9.934C12.921,4.76,9.713.316,6.063.009S-.3,3.645.012,8.819L29.088,497.4C29.4,502.573,32.6,507.017,36.253,507.325Z" transform="translate(971.742 507.452) rotate(-169)" opacity="0.11" fill="url(#linear-gradient)"/>
    <path id="Path_8220" data-name="Path 8220" d="M36.253,507.325c3.65.308,6.359-3.637,6.051-8.811L13.229,9.934C12.921,4.76,9.713.316,6.063.009S-.3,3.645.012,8.819L29.088,497.4C29.4,502.573,32.6,507.017,36.253,507.325Z" transform="translate(937.742 507.452) rotate(-169)" opacity="0.11" fill="url(#linear-gradient)"/>
    <path id="Path_8221" data-name="Path 8221" d="M36.253,507.325c3.65.308,6.359-3.637,6.051-8.811L13.229,9.934C12.921,4.76,9.713.316,6.063.009S-.3,3.645.012,8.819L29.088,497.4C29.4,502.573,32.6,507.017,36.253,507.325Z" transform="translate(903.742 507.452) rotate(-169)" opacity="0.11" fill="url(#linear-gradient)"/>
    <path id="Path_8222" data-name="Path 8222" d="M36.253,507.325c3.65.308,6.359-3.637,6.051-8.811L13.229,9.934C12.921,4.76,9.713.316,6.063.009S-.3,3.645.012,8.819L29.088,497.4C29.4,502.573,32.6,507.017,36.253,507.325Z" transform="translate(869.742 507.452) rotate(-169)" opacity="0.11" fill="url(#linear-gradient)"/>
    <path id="Path_8223" data-name="Path 8223" d="M36.253,507.325c3.65.308,6.359-3.637,6.051-8.811L13.229,9.934C12.921,4.76,9.713.316,6.063.009S-.3,3.645.012,8.819L29.088,497.4C29.4,502.573,32.6,507.017,36.253,507.325Z" transform="translate(835.742 507.452) rotate(-169)" opacity="0.11" fill="url(#linear-gradient)"/>
    <path id="Path_8224" data-name="Path 8224" d="M36.253,507.325c3.65.308,6.359-3.637,6.051-8.811L13.229,9.934C12.921,4.76,9.713.316,6.063.009S-.3,3.645.012,8.819L29.088,497.4C29.4,502.573,32.6,507.017,36.253,507.325Z" transform="translate(801.742 507.452) rotate(-169)" opacity="0.11" fill="url(#linear-gradient)"/>
    <path id="Path_8225" data-name="Path 8225" d="M36.253,507.325c3.65.308,6.359-3.637,6.051-8.811L13.229,9.934C12.921,4.76,9.713.316,6.063.009S-.3,3.645.012,8.819L29.088,497.4C29.4,502.573,32.6,507.017,36.253,507.325Z" transform="translate(767.742 507.452) rotate(-169)" opacity="0.11" fill="url(#linear-gradient)"/>
    <path id="Path_8226" data-name="Path 8226" d="M36.253,507.325c3.65.308,6.359-3.637,6.051-8.811L13.229,9.934C12.921,4.76,9.713.316,6.063.009S-.3,3.645.012,8.819L29.088,497.4C29.4,502.573,32.6,507.017,36.253,507.325Z" transform="translate(733.742 507.452) rotate(-169)" opacity="0.11" fill="url(#linear-gradient)"/>
    <path id="Path_8227" data-name="Path 8227" d="M36.253,507.325c3.65.308,6.359-3.637,6.051-8.811L13.229,9.934C12.921,4.76,9.713.316,6.063.009S-.3,3.645.012,8.819L29.088,497.4C29.4,502.573,32.6,507.017,36.253,507.325Z" transform="translate(699.742 507.452) rotate(-169)" opacity="0.11" fill="url(#linear-gradient)"/>
    <path id="Path_8228" data-name="Path 8228" d="M36.253,507.325c3.65.308,6.359-3.637,6.051-8.811L13.229,9.934C12.921,4.76,9.713.316,6.063.009S-.3,3.645.012,8.819L29.088,497.4C29.4,502.573,32.6,507.017,36.253,507.325Z" transform="translate(665.742 507.452) rotate(-169)" opacity="0.11" fill="url(#linear-gradient)"/>
    <path id="Path_8229" data-name="Path 8229" d="M36.253,507.325c3.65.308,6.359-3.637,6.051-8.811L13.229,9.934C12.921,4.76,9.713.316,6.063.009S-.3,3.645.012,8.819L29.088,497.4C29.4,502.573,32.6,507.017,36.253,507.325Z" transform="translate(631.742 507.452) rotate(-169)" opacity="0.11" fill="url(#linear-gradient)"/>
    <path id="Path_8230" data-name="Path 8230" d="M36.253,507.325c3.65.308,6.359-3.637,6.051-8.811L13.229,9.934C12.921,4.76,9.713.316,6.063.009S-.3,3.645.012,8.819L29.088,497.4C29.4,502.573,32.6,507.017,36.253,507.325Z" transform="translate(597.742 507.452) rotate(-169)" opacity="0.11" fill="url(#linear-gradient)"/>
    <path id="Path_8231" data-name="Path 8231" d="M36.253,507.325c3.65.308,6.359-3.637,6.051-8.811L13.229,9.934C12.921,4.76,9.713.316,6.063.009S-.3,3.645.012,8.819L29.088,497.4C29.4,502.573,32.6,507.017,36.253,507.325Z" transform="translate(563.742 507.452) rotate(-169)" opacity="0.11" fill="url(#linear-gradient)"/>
    <path id="Path_8232" data-name="Path 8232" d="M36.253,507.325c3.65.308,6.359-3.637,6.051-8.811L13.229,9.934C12.921,4.76,9.713.316,6.063.009S-.3,3.645.012,8.819L29.088,497.4C29.4,502.573,32.6,507.017,36.253,507.325Z" transform="translate(529.742 507.452) rotate(-169)" opacity="0.11" fill="url(#linear-gradient)"/>
    <path id="Path_8233" data-name="Path 8233" d="M36.253,507.325c3.65.308,6.359-3.637,6.051-8.811L13.229,9.934C12.921,4.76,9.713.316,6.063.009S-.3,3.645.012,8.819L29.088,497.4C29.4,502.573,32.6,507.017,36.253,507.325Z" transform="translate(495.742 507.452) rotate(-169)" opacity="0.11" fill="url(#linear-gradient)"/>
    <path id="Path_8234" data-name="Path 8234" d="M36.253,507.325c3.65.308,6.359-3.637,6.051-8.811L13.229,9.934C12.921,4.76,9.713.316,6.063.009S-.3,3.645.012,8.819L29.088,497.4C29.4,502.573,32.6,507.017,36.253,507.325Z" transform="translate(461.742 507.452) rotate(-169)" opacity="0.11" fill="url(#linear-gradient)"/>
    <path id="Path_8235" data-name="Path 8235" d="M36.253,507.325c3.65.308,6.359-3.637,6.051-8.811L13.229,9.934C12.921,4.76,9.713.316,6.063.009S-.3,3.645.012,8.819L29.088,497.4C29.4,502.573,32.6,507.017,36.253,507.325Z" transform="translate(427.742 507.452) rotate(-169)" opacity="0.11" fill="url(#linear-gradient)"/>
    <path id="Path_8236" data-name="Path 8236" d="M36.253,507.325c3.65.308,6.359-3.637,6.051-8.811L13.229,9.934C12.921,4.76,9.713.316,6.063.009S-.3,3.645.012,8.819L29.088,497.4C29.4,502.573,32.6,507.017,36.253,507.325Z" transform="translate(393.742 507.452) rotate(-169)" opacity="0.11" fill="url(#linear-gradient)"/>
    <path id="Path_8237" data-name="Path 8237" d="M36.253,507.325c3.65.308,6.359-3.637,6.051-8.811L13.229,9.934C12.921,4.76,9.713.316,6.063.009S-.3,3.645.012,8.819L29.088,497.4C29.4,502.573,32.6,507.017,36.253,507.325Z" transform="translate(359.742 507.452) rotate(-169)" opacity="0.11" fill="url(#linear-gradient)"/>
    <path id="Path_8238" data-name="Path 8238" d="M36.253,507.325c3.65.308,6.359-3.637,6.051-8.811L13.229,9.934C12.921,4.76,9.713.316,6.063.009S-.3,3.645.012,8.819L29.088,497.4C29.4,502.573,32.6,507.017,36.253,507.325Z" transform="translate(325.742 507.452) rotate(-169)" opacity="0.11" fill="url(#linear-gradient)"/>
    <path id="Path_8239" data-name="Path 8239" d="M36.253,507.325c3.65.308,6.359-3.637,6.051-8.811L13.229,9.934C12.921,4.76,9.713.316,6.063.009S-.3,3.645.012,8.819L29.088,497.4C29.4,502.573,32.6,507.017,36.253,507.325Z" transform="translate(291.742 507.452) rotate(-169)" opacity="0.11" fill="url(#linear-gradient)"/>
    <path id="Path_8240" data-name="Path 8240" d="M36.253,507.325c3.65.308,6.359-3.637,6.051-8.811L13.229,9.934C12.921,4.76,9.713.316,6.063.009S-.3,3.645.012,8.819L29.088,497.4C29.4,502.573,32.6,507.017,36.253,507.325Z" transform="translate(257.742 507.452) rotate(-169)" opacity="0.11" fill="url(#linear-gradient)"/>
    <path id="Path_8241" data-name="Path 8241" d="M36.253,507.325c3.65.308,6.359-3.637,6.051-8.811L13.229,9.934C12.921,4.76,9.713.316,6.063.009S-.3,3.645.012,8.819L29.088,497.4C29.4,502.573,32.6,507.017,36.253,507.325Z" transform="translate(223.742 507.452) rotate(-169)" opacity="0.11" fill="url(#linear-gradient)"/>
    <path id="Path_8242" data-name="Path 8242" d="M36.253,507.325c3.65.308,6.359-3.637,6.051-8.811L13.229,9.934C12.921,4.76,9.713.316,6.063.009S-.3,3.645.012,8.819L29.088,497.4C29.4,502.573,32.6,507.017,36.253,507.325Z" transform="translate(189.742 507.452) rotate(-169)" opacity="0.11" fill="url(#linear-gradient)"/>
    <path id="Path_8243" data-name="Path 8243" d="M36.253,507.325c3.65.308,6.359-3.637,6.051-8.811L13.229,9.934C12.921,4.76,9.713.316,6.063.009S-.3,3.645.012,8.819L29.088,497.4C29.4,502.573,32.6,507.017,36.253,507.325Z" transform="translate(155.742 507.452) rotate(-169)" opacity="0.11" fill="url(#linear-gradient)"/>
    <path id="Path_8244" data-name="Path 8244" d="M36.253,507.325c3.65.308,6.359-3.637,6.051-8.811L13.229,9.934C12.921,4.76,9.713.316,6.063.009S-.3,3.645.012,8.819L29.088,497.4C29.4,502.573,32.6,507.017,36.253,507.325Z" transform="translate(121.742 507.452) rotate(-169)" opacity="0.11" fill="url(#linear-gradient)"/>
    <path id="Path_8245" data-name="Path 8245" d="M36.253,507.325c3.65.308,6.359-3.637,6.051-8.811L13.229,9.934C12.921,4.76,9.713.316,6.063.009S-.3,3.645.012,8.819L29.088,497.4C29.4,502.573,32.6,507.017,36.253,507.325Z" transform="translate(87.742 507.452) rotate(-169)" opacity="0.11" fill="url(#linear-gradient)"/>
    <path id="Path_8246" data-name="Path 8246" d="M36.253,507.325c3.65.308,6.359-3.637,6.051-8.811L13.229,9.934C12.921,4.76,9.713.316,6.063.009S-.3,3.645.012,8.819L29.088,497.4C29.4,502.573,32.6,507.017,36.253,507.325Z" transform="translate(53.743 507.452) rotate(-169)" opacity="0.11" fill="url(#linear-gradient)"/>
    <path id="Path_8247" data-name="Path 8247" d="M36.253,507.325c3.65.308,6.359-3.637,6.051-8.811L13.229,9.934C12.921,4.76,9.713.316,6.063.009S-.3,3.645.012,8.819L29.088,497.4C29.4,502.573,32.6,507.017,36.253,507.325Z" transform="translate(19.742 507.452) rotate(-169)" opacity="0.11" fill="url(#linear-gradient)"/>
  </g>
</svg>
