<svg xmlns="http://www.w3.org/2000/svg" xmlns:xlink="http://www.w3.org/1999/xlink" width="969.972" height="336.355" viewBox="0 0 969.972 336.355">
  <defs>
    <linearGradient id="linear-gradient" x1="0.5" y1="1" x2="0.5" gradientUnits="objectBoundingBox">
      <stop offset="0" stop-color="#0069f7"/>
      <stop offset="0.112" stop-color="#3d5ef9"/>
      <stop offset="0.37" stop-color="#7753fc"/>
      <stop offset="0.627" stop-color="#a24cfe"/>
      <stop offset="0.802" stop-color="#bc47ff"/>
      <stop offset="0.892" stop-color="#c645ff"/>
      <stop offset="1" stop-color="#c645ff"/>
    </linearGradient>
    <linearGradient id="linear-gradient-45" x1="1" y1="0.554" x2="0" y2="0.552" gradientUnits="objectBoundingBox">
      <stop offset="0" stop-color="#fff"/>
      <stop offset="1" stop-color="#fff" stop-opacity="0"/>
    </linearGradient>
  </defs>
  <g id="Group_18144" data-name="Group 18144" transform="translate(-0.001)">
    <path id="Path_10960" data-name="Path 10960" d="M21.5,302.241c2.18.182,3.8-2.169,3.618-5.251L7.91,5.921C7.727,2.839,5.812.192,3.632.01S-.168,2.179.014,5.261L17.222,296.33C17.4,299.412,19.32,302.059,21.5,302.241Z" transform="translate(796.597 336.356) rotate(-169)" opacity="0.1" fill="url(#linear-gradient)"/>
    <path id="Path_10962" data-name="Path 10962" d="M21.5,302.241c2.18.182,3.8-2.169,3.618-5.251L7.91,5.921C7.727,2.839,5.812.192,3.632.01S-.168,2.179.014,5.261L17.222,296.33C17.4,299.412,19.32,302.059,21.5,302.241Z" transform="translate(776.284 336.356) rotate(-169)" opacity="0.1" fill="url(#linear-gradient)"/>
    <path id="Path_10963" data-name="Path 10963" d="M21.5,302.241c2.18.182,3.8-2.169,3.618-5.251L7.91,5.921C7.727,2.839,5.812.192,3.632.01S-.168,2.179.014,5.261L17.222,296.33C17.4,299.412,19.32,302.059,21.5,302.241Z" transform="translate(912.3 336.356) rotate(-169)" opacity="0.1" fill="url(#linear-gradient)"/>
    <path id="Path_10966" data-name="Path 10966" d="M21.5,302.241c2.18.182,3.8-2.169,3.618-5.251L7.91,5.921C7.727,2.839,5.812.192,3.632.01S-.168,2.179.014,5.261L17.222,296.33C17.4,299.412,19.32,302.059,21.5,302.241Z" transform="translate(755.968 336.356) rotate(-169)" opacity="0.1" fill="url(#linear-gradient)"/>
    <path id="Path_10967" data-name="Path 10967" d="M21.5,302.241c2.18.182,3.8-2.169,3.618-5.251L7.91,5.921C7.727,2.839,5.812.192,3.632.01S-.168,2.179.014,5.261L17.222,296.33C17.4,299.412,19.32,302.059,21.5,302.241Z" transform="translate(891.984 336.356) rotate(-169)" opacity="0.1" fill="url(#linear-gradient)"/>
    <path id="Path_10968" data-name="Path 10968" d="M21.5,302.241c2.18.182,3.8-2.169,3.618-5.251L7.91,5.921C7.727,2.839,5.812.192,3.632.01S-.168,2.179.014,5.261L17.222,296.33C17.4,299.412,19.32,302.059,21.5,302.241Z" transform="translate(735.655 336.356) rotate(-169)" opacity="0.1" fill="url(#linear-gradient)"/>
    <path id="Path_10969" data-name="Path 10969" d="M21.5,302.241c2.18.182,3.8-2.169,3.618-5.251L7.91,5.921C7.727,2.839,5.812.192,3.632.01S-.168,2.179.014,5.261L17.222,296.33C17.4,299.412,19.32,302.059,21.5,302.241Z" transform="translate(871.671 336.356) rotate(-169)" opacity="0.1" fill="url(#linear-gradient)"/>
    <path id="Path_10970" data-name="Path 10970" d="M21.5,302.241c2.18.182,3.8-2.169,3.618-5.251L7.91,5.921C7.727,2.839,5.812.192,3.632.01S-.168,2.179.014,5.261L17.222,296.33C17.4,299.412,19.32,302.059,21.5,302.241Z" transform="translate(715.343 336.356) rotate(-169)" opacity="0.1" fill="url(#linear-gradient)"/>
    <path id="Path_10971" data-name="Path 10971" d="M21.5,302.241c2.18.182,3.8-2.169,3.618-5.251L7.91,5.921C7.727,2.839,5.812.192,3.632.01S-.168,2.179.014,5.261L17.222,296.33C17.4,299.412,19.32,302.059,21.5,302.241Z" transform="translate(837.226 336.356) rotate(-169)" opacity="0.1" fill="url(#linear-gradient)"/>
    <path id="Path_10972" data-name="Path 10972" d="M21.5,302.241c2.18.182,3.8-2.169,3.618-5.251L7.91,5.921C7.727,2.839,5.812.192,3.632.01S-.168,2.179.014,5.261L17.222,296.33C17.4,299.412,19.32,302.059,21.5,302.241Z" transform="translate(695.026 336.356) rotate(-169)" opacity="0.1" fill="url(#linear-gradient)"/>
    <path id="Path_10973" data-name="Path 10973" d="M21.5,302.241c2.18.182,3.8-2.169,3.618-5.251L7.91,5.921C7.727,2.839,5.812.192,3.632.01S-.168,2.179.014,5.261L17.222,296.33C17.4,299.412,19.32,302.059,21.5,302.241Z" transform="translate(816.909 336.356) rotate(-169)" opacity="0.1" fill="url(#linear-gradient)"/>
    <path id="Path_10974" data-name="Path 10974" d="M21.5,302.241c2.18.182,3.8-2.169,3.618-5.251L7.91,5.921C7.727,2.839,5.812.192,3.632.01S-.168,2.179.014,5.261L17.222,296.33C17.4,299.412,19.32,302.059,21.5,302.241Z" transform="translate(674.714 336.356) rotate(-169)" opacity="0.1" fill="url(#linear-gradient)"/>
    <path id="Path_10975" data-name="Path 10975" d="M21.5,302.241c2.18.182,3.8-2.169,3.618-5.251L7.91,5.921C7.727,2.839,5.812.192,3.632.01S-.168,2.179.014,5.261L17.222,296.33C17.4,299.412,19.32,302.059,21.5,302.241Z" transform="translate(654.401 336.356) rotate(-169)" opacity="0.11" fill="url(#linear-gradient)"/>
    <path id="Path_10976" data-name="Path 10976" d="M21.5,302.241c2.18.182,3.8-2.169,3.618-5.251L7.91,5.921C7.727,2.839,5.812.192,3.632.01S-.168,2.179.014,5.261L17.222,296.33C17.4,299.412,19.32,302.059,21.5,302.241Z" transform="translate(634.085 336.356) rotate(-169)" opacity="0.11" fill="url(#linear-gradient)"/>
    <path id="Path_10977" data-name="Path 10977" d="M21.5,302.241c2.18.182,3.8-2.169,3.618-5.251L7.91,5.921C7.727,2.839,5.812.192,3.632.01S-.168,2.179.014,5.261L17.222,296.33C17.4,299.412,19.32,302.059,21.5,302.241Z" transform="translate(613.772 336.356) rotate(-169)" opacity="0.11" fill="url(#linear-gradient)"/>
    <path id="Path_10978" data-name="Path 10978" d="M21.5,302.241c2.18.182,3.8-2.169,3.618-5.251L7.91,5.921C7.727,2.839,5.812.192,3.632.01S-.168,2.179.014,5.261L17.222,296.33C17.4,299.412,19.32,302.059,21.5,302.241Z" transform="translate(593.46 336.356) rotate(-169)" opacity="0.11" fill="url(#linear-gradient)"/>
    <path id="Path_10979" data-name="Path 10979" d="M21.5,302.241c2.18.182,3.8-2.169,3.618-5.251L7.91,5.921C7.727,2.839,5.812.192,3.632.01S-.168,2.179.014,5.261L17.222,296.33C17.4,299.412,19.32,302.059,21.5,302.241Z" transform="translate(573.144 336.356) rotate(-169)" opacity="0.11" fill="url(#linear-gradient)"/>
    <path id="Path_10980" data-name="Path 10980" d="M21.5,302.241c2.18.182,3.8-2.169,3.618-5.251L7.91,5.921C7.727,2.839,5.812.192,3.632.01S-.168,2.179.014,5.261L17.222,296.33C17.4,299.412,19.32,302.059,21.5,302.241Z" transform="translate(552.831 336.356) rotate(-169)" opacity="0.11" fill="url(#linear-gradient)"/>
    <path id="Path_10981" data-name="Path 10981" d="M21.5,302.241c2.18.182,3.8-2.169,3.618-5.251L7.91,5.921C7.727,2.839,5.812.192,3.632.01S-.168,2.179.014,5.261L17.222,296.33C17.4,299.412,19.32,302.059,21.5,302.241Z" transform="translate(532.519 336.356) rotate(-169)" opacity="0.11" fill="url(#linear-gradient)"/>
    <path id="Path_10982" data-name="Path 10982" d="M21.5,302.241c2.18.182,3.8-2.169,3.618-5.251L7.91,5.921C7.727,2.839,5.812.192,3.632.01S-.168,2.179.014,5.261L17.222,296.33C17.4,299.412,19.32,302.059,21.5,302.241Z" transform="translate(512.202 336.356) rotate(-169)" opacity="0.11" fill="url(#linear-gradient)"/>
    <path id="Path_10983" data-name="Path 10983" d="M21.5,302.241c2.18.182,3.8-2.169,3.618-5.251L7.91,5.921C7.727,2.839,5.812.192,3.632.01S-.168,2.179.014,5.261L17.222,296.33C17.4,299.412,19.32,302.059,21.5,302.241Z" transform="translate(491.89 336.356) rotate(-169)" opacity="0.11" fill="url(#linear-gradient)"/>
    <path id="Path_10984" data-name="Path 10984" d="M21.5,302.241c2.18.182,3.8-2.169,3.618-5.251L7.91,5.921C7.727,2.839,5.812.192,3.632.01S-.168,2.179.014,5.261L17.222,296.33C17.4,299.412,19.32,302.059,21.5,302.241Z" transform="translate(471.577 336.356) rotate(-169)" opacity="0.11" fill="url(#linear-gradient)"/>
    <path id="Path_10985" data-name="Path 10985" d="M21.5,302.241c2.18.182,3.8-2.169,3.618-5.251L7.91,5.921C7.727,2.839,5.812.192,3.632.01S-.168,2.179.014,5.261L17.222,296.33C17.4,299.412,19.32,302.059,21.5,302.241Z" transform="translate(451.261 336.356) rotate(-169)" opacity="0.11" fill="url(#linear-gradient)"/>
    <path id="Path_10986" data-name="Path 10986" d="M21.5,302.241c2.18.182,3.8-2.169,3.618-5.251L7.91,5.921C7.727,2.839,5.812.192,3.632.01S-.168,2.179.014,5.261L17.222,296.33C17.4,299.412,19.32,302.059,21.5,302.241Z" transform="translate(430.948 336.356) rotate(-169)" opacity="0.11" fill="url(#linear-gradient)"/>
    <path id="Path_10987" data-name="Path 10987" d="M21.5,302.241c2.18.182,3.8-2.169,3.618-5.251L7.91,5.921C7.727,2.839,5.812.192,3.632.01S-.168,2.179.014,5.261L17.222,296.33C17.4,299.412,19.32,302.059,21.5,302.241Z" transform="translate(410.636 336.356) rotate(-169)" opacity="0.11" fill="url(#linear-gradient)"/>
    <path id="Path_10988" data-name="Path 10988" d="M21.5,302.241c2.18.182,3.8-2.169,3.618-5.251L7.91,5.921C7.727,2.839,5.812.192,3.632.01S-.168,2.179.014,5.261L17.222,296.33C17.4,299.412,19.32,302.059,21.5,302.241Z" transform="translate(390.319 336.356) rotate(-169)" opacity="0.11" fill="url(#linear-gradient)"/>
    <path id="Path_10989" data-name="Path 10989" d="M21.5,302.241c2.18.182,3.8-2.169,3.618-5.251L7.91,5.921C7.727,2.839,5.812.192,3.632.01S-.168,2.179.014,5.261L17.222,296.33C17.4,299.412,19.32,302.059,21.5,302.241Z" transform="translate(370.007 336.356) rotate(-169)" opacity="0.11" fill="url(#linear-gradient)"/>
    <path id="Path_10990" data-name="Path 10990" d="M21.5,302.241c2.18.182,3.8-2.169,3.618-5.251L7.91,5.921C7.727,2.839,5.812.192,3.632.01S-.168,2.179.014,5.261L17.222,296.33C17.4,299.412,19.32,302.059,21.5,302.241Z" transform="translate(349.694 336.356) rotate(-169)" opacity="0.11" fill="url(#linear-gradient)"/>
    <path id="Path_10991" data-name="Path 10991" d="M21.5,302.241c2.18.182,3.8-2.169,3.618-5.251L7.91,5.921C7.727,2.839,5.812.192,3.632.01S-.168,2.179.014,5.261L17.222,296.33C17.4,299.412,19.32,302.059,21.5,302.241Z" transform="translate(329.378 336.356) rotate(-169)" opacity="0.11" fill="url(#linear-gradient)"/>
    <path id="Path_10992" data-name="Path 10992" d="M21.5,302.241c2.18.182,3.8-2.169,3.618-5.251L7.91,5.921C7.727,2.839,5.812.192,3.632.01S-.168,2.179.014,5.261L17.222,296.33C17.4,299.412,19.32,302.059,21.5,302.241Z" transform="translate(309.065 336.356) rotate(-169)" opacity="0.11" fill="url(#linear-gradient)"/>
    <path id="Path_10993" data-name="Path 10993" d="M21.5,302.241c2.18.182,3.8-2.169,3.618-5.251L7.91,5.921C7.727,2.839,5.812.192,3.632.01S-.168,2.179.014,5.261L17.222,296.33C17.4,299.412,19.32,302.059,21.5,302.241Z" transform="translate(288.753 336.356) rotate(-169)" opacity="0.11" fill="url(#linear-gradient)"/>
    <path id="Path_10994" data-name="Path 10994" d="M21.5,302.241c2.18.182,3.8-2.169,3.618-5.251L7.91,5.921C7.727,2.839,5.812.192,3.632.01S-.168,2.179.014,5.261L17.222,296.33C17.4,299.412,19.32,302.059,21.5,302.241Z" transform="translate(268.436 336.356) rotate(-169)" opacity="0.11" fill="url(#linear-gradient)"/>
    <path id="Path_10995" data-name="Path 10995" d="M21.5,302.241c2.18.182,3.8-2.169,3.618-5.251L7.91,5.921C7.727,2.839,5.812.192,3.632.01S-.168,2.179.014,5.261L17.222,296.33C17.4,299.412,19.32,302.059,21.5,302.241Z" transform="translate(248.124 336.356) rotate(-169)" opacity="0.11" fill="url(#linear-gradient)"/>
    <path id="Path_10996" data-name="Path 10996" d="M21.5,302.241c2.18.182,3.8-2.169,3.618-5.251L7.91,5.921C7.727,2.839,5.812.192,3.632.01S-.168,2.179.014,5.261L17.222,296.33C17.4,299.412,19.32,302.059,21.5,302.241Z" transform="translate(227.811 336.356) rotate(-169)" opacity="0.11" fill="url(#linear-gradient)"/>
    <path id="Path_10997" data-name="Path 10997" d="M21.5,302.241c2.18.182,3.8-2.169,3.618-5.251L7.91,5.921C7.727,2.839,5.812.192,3.632.01S-.168,2.179.014,5.261L17.222,296.33C17.4,299.412,19.32,302.059,21.5,302.241Z" transform="translate(207.495 336.356) rotate(-169)" opacity="0.11" fill="url(#linear-gradient)"/>
    <path id="Path_10998" data-name="Path 10998" d="M21.5,302.241c2.18.182,3.8-2.169,3.618-5.251L7.91,5.921C7.727,2.839,5.812.192,3.632.01S-.168,2.179.014,5.261L17.222,296.33C17.4,299.412,19.32,302.059,21.5,302.241Z" transform="translate(187.182 336.356) rotate(-169)" opacity="0.11" fill="url(#linear-gradient)"/>
    <path id="Path_10999" data-name="Path 10999" d="M21.5,302.241c2.18.182,3.8-2.169,3.618-5.251L7.91,5.921C7.727,2.839,5.812.192,3.632.01S-.168,2.179.014,5.261L17.222,296.33C17.4,299.412,19.32,302.059,21.5,302.241Z" transform="translate(166.87 336.356) rotate(-169)" opacity="0.11" fill="url(#linear-gradient)"/>
    <path id="Path_11000" data-name="Path 11000" d="M21.5,302.241c2.18.182,3.8-2.169,3.618-5.251L7.91,5.921C7.727,2.839,5.812.192,3.632.01S-.168,2.179.014,5.261L17.222,296.33C17.4,299.412,19.32,302.059,21.5,302.241Z" transform="translate(146.553 336.356) rotate(-169)" opacity="0.11" fill="url(#linear-gradient)"/>
    <path id="Path_11001" data-name="Path 11001" d="M21.5,302.241c2.18.182,3.8-2.169,3.618-5.251L7.91,5.921C7.727,2.839,5.812.192,3.632.01S-.168,2.179.014,5.261L17.222,296.33C17.4,299.412,19.32,302.059,21.5,302.241Z" transform="translate(126.241 336.356) rotate(-169)" opacity="0.11" fill="url(#linear-gradient)"/>
    <path id="Path_11002" data-name="Path 11002" d="M21.5,302.241c2.18.182,3.8-2.169,3.618-5.251L7.91,5.921C7.727,2.839,5.812.192,3.632.01S-.168,2.179.014,5.261L17.222,296.33C17.4,299.412,19.32,302.059,21.5,302.241Z" transform="translate(105.928 336.356) rotate(-169)" opacity="0.11" fill="url(#linear-gradient)"/>
    <path id="Path_11003" data-name="Path 11003" d="M21.5,302.241c2.18.182,3.8-2.169,3.618-5.251L7.91,5.921C7.727,2.839,5.812.192,3.632.01S-.168,2.179.014,5.261L17.222,296.33C17.4,299.412,19.32,302.059,21.5,302.241Z" transform="translate(85.612 336.356) rotate(-169)" opacity="0.11" fill="url(#linear-gradient)"/>
    <path id="Path_11004" data-name="Path 11004" d="M21.5,302.241c2.18.182,3.8-2.169,3.618-5.251L7.91,5.921C7.727,2.839,5.812.192,3.632.01S-.168,2.179.014,5.261L17.222,296.33C17.4,299.412,19.32,302.059,21.5,302.241Z" transform="translate(65.299 336.356) rotate(-169)" opacity="0.11" fill="url(#linear-gradient)"/>
    <path id="Path_11005" data-name="Path 11005" d="M21.5,302.241c2.18.182,3.8-2.169,3.618-5.251L7.91,5.921C7.727,2.839,5.812.192,3.632.01S-.168,2.179.014,5.261L17.222,296.33C17.4,299.412,19.32,302.059,21.5,302.241Z" transform="translate(44.987 336.356) rotate(-169)" opacity="0.11" fill="url(#linear-gradient)"/>
    <path id="Path_11006" data-name="Path 11006" d="M21.5,302.241c2.18.182,3.8-2.169,3.618-5.251L7.91,5.921C7.727,2.839,5.812.192,3.632.01S-.168,2.179.014,5.261L17.222,296.33C17.4,299.412,19.32,302.059,21.5,302.241Z" transform="translate(24.671 336.356) rotate(-169)" opacity="0.11" fill="url(#linear-gradient)"/>
    <rect id="Rectangle_5372" data-name="Rectangle 5372" width="644.27" height="336.355" transform="translate(325.703 0)" fill="url(#linear-gradient-45)"/>
  </g>
</svg>
