<svg xmlns="http://www.w3.org/2000/svg" xmlns:xlink="http://www.w3.org/1999/xlink" width="1565" height="506.5" viewBox="0 0 1565 506.5">
  <defs>
    <clipPath id="clip-path">
      <rect id="Rectangle_443" data-name="Rectangle 443" width="1565" height="506.5" transform="translate(-170)" fill="#fff" stroke="#707070" stroke-width="1"/>
    </clipPath>
    <linearGradient id="linear-gradient" x1="0.5" x2="0.5" y2="1" gradientUnits="objectBoundingBox">
      <stop offset="0" stop-color="#0069f7"/>
      <stop offset="0.112" stop-color="#3d5ef9"/>
      <stop offset="0.37" stop-color="#7753fc"/>
      <stop offset="0.627" stop-color="#a24cfe"/>
      <stop offset="0.802" stop-color="#bc47ff"/>
      <stop offset="0.892" stop-color="#c645ff"/>
      <stop offset="1" stop-color="#c645ff"/>
    </linearGradient>
  </defs>
  <g id="Mask_Group_15" data-name="Mask Group 15" transform="translate(170)" clip-path="url(#clip-path)">
    <path id="Path_8154" data-name="Path 8154" d="M37,.092c3.649-.305,6.36,3.63,6.055,8.789L14.25,496.055c-.305,5.159-3.51,9.588-7.16,9.893s-6.36-3.63-6.055-8.789L29.838,9.985C30.143,4.826,33.348.4,37,.092Z" transform="translate(-14.293 9.492) rotate(-11)" opacity="0.11" fill="url(#linear-gradient)"/>
    <path id="Path_8155" data-name="Path 8155" d="M37,.092c3.649-.305,6.36,3.63,6.055,8.789L14.25,496.055c-.305,5.159-3.51,9.588-7.16,9.893s-6.36-3.63-6.055-8.789L29.838,9.985C30.143,4.826,33.348.4,37,.092Z" transform="translate(-218.293 9.492) rotate(-11)" opacity="0.11" fill="url(#linear-gradient)"/>
    <path id="Path_8156" data-name="Path 8156" d="M37,.092c3.649-.305,6.36,3.63,6.055,8.789L14.25,496.055c-.305,5.159-3.51,9.588-7.16,9.893s-6.36-3.63-6.055-8.789L29.838,9.985C30.143,4.826,33.348.4,37,.092Z" transform="translate(-284.293 9.492) rotate(-11)" opacity="0.11" fill="url(#linear-gradient)"/>
    <path id="Path_8157" data-name="Path 8157" d="M37,.092c3.649-.305,6.36,3.63,6.055,8.789L14.25,496.055c-.305,5.159-3.51,9.588-7.16,9.893s-6.36-3.63-6.055-8.789L29.838,9.985C30.143,4.826,33.348.4,37,.092Z" transform="translate(19.707 9.492) rotate(-11)" opacity="0.11" fill="url(#linear-gradient)"/>
    <path id="Path_8158" data-name="Path 8158" d="M37,.092c3.649-.305,6.36,3.63,6.055,8.789L14.25,496.055c-.305,5.159-3.51,9.588-7.16,9.893s-6.36-3.63-6.055-8.789L29.838,9.985C30.143,4.826,33.348.4,37,.092Z" transform="translate(-184.293 9.492) rotate(-11)" opacity="0.11" fill="url(#linear-gradient)"/>
    <path id="Path_8159" data-name="Path 8159" d="M37,.092c3.649-.305,6.36,3.63,6.055,8.789L14.25,496.055c-.305,5.159-3.51,9.588-7.16,9.893s-6.36-3.63-6.055-8.789L29.838,9.985C30.143,4.826,33.348.4,37,.092Z" transform="translate(-250.293 9.492) rotate(-11)" opacity="0.11" fill="url(#linear-gradient)"/>
    <path id="Path_8160" data-name="Path 8160" d="M37,.092c3.649-.305,6.36,3.63,6.055,8.789L14.25,496.055c-.305,5.159-3.51,9.588-7.16,9.893s-6.36-3.63-6.055-8.789L29.838,9.985C30.143,4.826,33.348.4,37,.092Z" transform="translate(53.707 9.492) rotate(-11)" opacity="0.11" fill="url(#linear-gradient)"/>
    <path id="Path_8161" data-name="Path 8161" d="M37,.092c3.649-.305,6.36,3.63,6.055,8.789L14.25,496.055c-.305,5.159-3.51,9.588-7.16,9.893s-6.36-3.63-6.055-8.789L29.838,9.985C30.143,4.826,33.348.4,37,.092Z" transform="translate(-150.293 9.492) rotate(-11)" opacity="0.11" fill="url(#linear-gradient)"/>
    <path id="Path_8162" data-name="Path 8162" d="M37,.092c3.649-.305,6.36,3.63,6.055,8.789L14.25,496.055c-.305,5.159-3.51,9.588-7.16,9.893s-6.36-3.63-6.055-8.789L29.838,9.985C30.143,4.826,33.348.4,37,.092Z" transform="translate(87.707 9.492) rotate(-11)" opacity="0.11" fill="url(#linear-gradient)"/>
    <path id="Path_8163" data-name="Path 8163" d="M37,.092c3.649-.305,6.36,3.63,6.055,8.789L14.25,496.055c-.305,5.159-3.51,9.588-7.16,9.893s-6.36-3.63-6.055-8.789L29.838,9.985C30.143,4.826,33.348.4,37,.092Z" transform="translate(-116.293 9.492) rotate(-11)" opacity="0.11" fill="url(#linear-gradient)"/>
    <path id="Path_8164" data-name="Path 8164" d="M37,.092c3.649-.305,6.36,3.63,6.055,8.789L14.25,496.055c-.305,5.159-3.51,9.588-7.16,9.893s-6.36-3.63-6.055-8.789L29.838,9.985C30.143,4.826,33.348.4,37,.092Z" transform="translate(121.707 9.492) rotate(-11)" opacity="0.11" fill="url(#linear-gradient)"/>
    <path id="Path_8165" data-name="Path 8165" d="M37,.092c3.649-.305,6.36,3.63,6.055,8.789L14.25,496.055c-.305,5.159-3.51,9.588-7.16,9.893s-6.36-3.63-6.055-8.789L29.838,9.985C30.143,4.826,33.348.4,37,.092Z" transform="translate(-82.293 9.492) rotate(-11)" opacity="0.11" fill="url(#linear-gradient)"/>
    <path id="Path_8166" data-name="Path 8166" d="M37,.092c3.649-.305,6.36,3.63,6.055,8.789L14.25,496.055c-.305,5.159-3.51,9.588-7.16,9.893s-6.36-3.63-6.055-8.789L29.838,9.985C30.143,4.826,33.348.4,37,.092Z" transform="translate(155.707 9.492) rotate(-11)" opacity="0.11" fill="url(#linear-gradient)"/>
    <path id="Path_8167" data-name="Path 8167" d="M37,.092c3.649-.305,6.36,3.63,6.055,8.789L14.25,496.055c-.305,5.159-3.51,9.588-7.16,9.893s-6.36-3.63-6.055-8.789L29.838,9.985C30.143,4.826,33.348.4,37,.092Z" transform="translate(-48.293 9.492) rotate(-11)" opacity="0.11" fill="url(#linear-gradient)"/>
    <path id="Path_8168" data-name="Path 8168" d="M37,.092c3.649-.305,6.36,3.63,6.055,8.789L14.25,496.055c-.305,5.159-3.51,9.588-7.16,9.893s-6.36-3.63-6.055-8.789L29.838,9.985C30.143,4.826,33.348.4,37,.092Z" transform="translate(189.707 9.492) rotate(-11)" opacity="0.11" fill="url(#linear-gradient)"/>
    <path id="Path_8169" data-name="Path 8169" d="M37,.092c3.649-.305,6.36,3.63,6.055,8.789L14.25,496.055c-.305,5.159-3.51,9.588-7.16,9.893s-6.36-3.63-6.055-8.789L29.838,9.985C30.143,4.826,33.348.4,37,.092Z" transform="translate(223.707 9.492) rotate(-11)" opacity="0.11" fill="url(#linear-gradient)"/>
    <path id="Path_8170" data-name="Path 8170" d="M37,.092c3.649-.305,6.36,3.63,6.055,8.789L14.25,496.055c-.305,5.159-3.51,9.588-7.16,9.893s-6.36-3.63-6.055-8.789L29.838,9.985C30.143,4.826,33.348.4,37,.092Z" transform="translate(257.707 9.492) rotate(-11)" opacity="0.11" fill="url(#linear-gradient)"/>
    <path id="Path_8171" data-name="Path 8171" d="M37,.092c3.649-.305,6.36,3.63,6.055,8.789L14.25,496.055c-.305,5.159-3.51,9.588-7.16,9.893s-6.36-3.63-6.055-8.789L29.838,9.985C30.143,4.826,33.348.4,37,.092Z" transform="translate(291.707 9.492) rotate(-11)" opacity="0.11" fill="url(#linear-gradient)"/>
    <path id="Path_8172" data-name="Path 8172" d="M37,.092c3.649-.305,6.36,3.63,6.055,8.789L14.25,496.055c-.305,5.159-3.51,9.588-7.16,9.893s-6.36-3.63-6.055-8.789L29.838,9.985C30.143,4.826,33.348.4,37,.092Z" transform="translate(325.707 9.492) rotate(-11)" opacity="0.11" fill="url(#linear-gradient)"/>
    <path id="Path_8173" data-name="Path 8173" d="M37,.092c3.649-.305,6.36,3.63,6.055,8.789L14.25,496.055c-.305,5.159-3.51,9.588-7.16,9.893s-6.36-3.63-6.055-8.789L29.838,9.985C30.143,4.826,33.348.4,37,.092Z" transform="translate(359.707 9.492) rotate(-11)" opacity="0.11" fill="url(#linear-gradient)"/>
    <path id="Path_8174" data-name="Path 8174" d="M37,.092c3.649-.305,6.36,3.63,6.055,8.789L14.25,496.055c-.305,5.159-3.51,9.588-7.16,9.893s-6.36-3.63-6.055-8.789L29.838,9.985C30.143,4.826,33.348.4,37,.092Z" transform="translate(393.707 9.492) rotate(-11)" opacity="0.11" fill="url(#linear-gradient)"/>
    <path id="Path_8175" data-name="Path 8175" d="M37,.092c3.649-.305,6.36,3.63,6.055,8.789L14.25,496.055c-.305,5.159-3.51,9.588-7.16,9.893s-6.36-3.63-6.055-8.789L29.838,9.985C30.143,4.826,33.348.4,37,.092Z" transform="translate(427.707 9.492) rotate(-11)" opacity="0.11" fill="url(#linear-gradient)"/>
    <path id="Path_8176" data-name="Path 8176" d="M37,.092c3.649-.305,6.36,3.63,6.055,8.789L14.25,496.055c-.305,5.159-3.51,9.588-7.16,9.893s-6.36-3.63-6.055-8.789L29.838,9.985C30.143,4.826,33.348.4,37,.092Z" transform="translate(461.707 9.492) rotate(-11)" opacity="0.11" fill="url(#linear-gradient)"/>
    <path id="Path_8177" data-name="Path 8177" d="M37,.092c3.649-.305,6.36,3.63,6.055,8.789L14.25,496.055c-.305,5.159-3.51,9.588-7.16,9.893s-6.36-3.63-6.055-8.789L29.838,9.985C30.143,4.826,33.348.4,37,.092Z" transform="translate(495.707 9.492) rotate(-11)" opacity="0.11" fill="url(#linear-gradient)"/>
    <path id="Path_8178" data-name="Path 8178" d="M37,.092c3.649-.305,6.36,3.63,6.055,8.789L14.25,496.055c-.305,5.159-3.51,9.588-7.16,9.893s-6.36-3.63-6.055-8.789L29.838,9.985C30.143,4.826,33.348.4,37,.092Z" transform="translate(529.707 9.492) rotate(-11)" opacity="0.11" fill="url(#linear-gradient)"/>
    <path id="Path_8179" data-name="Path 8179" d="M37,.092c3.649-.305,6.36,3.63,6.055,8.789L14.25,496.055c-.305,5.159-3.51,9.588-7.16,9.893s-6.36-3.63-6.055-8.789L29.838,9.985C30.143,4.826,33.348.4,37,.092Z" transform="translate(563.707 9.492) rotate(-11)" opacity="0.11" fill="url(#linear-gradient)"/>
    <path id="Path_8180" data-name="Path 8180" d="M37,.092c3.649-.305,6.36,3.63,6.055,8.789L14.25,496.055c-.305,5.159-3.51,9.588-7.16,9.893s-6.36-3.63-6.055-8.789L29.838,9.985C30.143,4.826,33.348.4,37,.092Z" transform="translate(597.707 9.492) rotate(-11)" opacity="0.11" fill="url(#linear-gradient)"/>
    <path id="Path_8181" data-name="Path 8181" d="M37,.092c3.649-.305,6.36,3.63,6.055,8.789L14.25,496.055c-.305,5.159-3.51,9.588-7.16,9.893s-6.36-3.63-6.055-8.789L29.838,9.985C30.143,4.826,33.348.4,37,.092Z" transform="translate(631.707 9.492) rotate(-11)" opacity="0.11" fill="url(#linear-gradient)"/>
    <path id="Path_8182" data-name="Path 8182" d="M37,.092c3.649-.305,6.36,3.63,6.055,8.789L14.25,496.055c-.305,5.159-3.51,9.588-7.16,9.893s-6.36-3.63-6.055-8.789L29.838,9.985C30.143,4.826,33.348.4,37,.092Z" transform="translate(665.707 9.492) rotate(-11)" opacity="0.11" fill="url(#linear-gradient)"/>
    <path id="Path_8183" data-name="Path 8183" d="M37,.092c3.649-.305,6.36,3.63,6.055,8.789L14.25,496.055c-.305,5.159-3.51,9.588-7.16,9.893s-6.36-3.63-6.055-8.789L29.838,9.985C30.143,4.826,33.348.4,37,.092Z" transform="translate(699.707 9.492) rotate(-11)" opacity="0.11" fill="url(#linear-gradient)"/>
    <path id="Path_8184" data-name="Path 8184" d="M37,.092c3.649-.305,6.36,3.63,6.055,8.789L14.25,496.055c-.305,5.159-3.51,9.588-7.16,9.893s-6.36-3.63-6.055-8.789L29.838,9.985C30.143,4.826,33.348.4,37,.092Z" transform="translate(733.707 9.492) rotate(-11)" opacity="0.11" fill="url(#linear-gradient)"/>
    <path id="Path_8185" data-name="Path 8185" d="M37,.092c3.649-.305,6.36,3.63,6.055,8.789L14.25,496.055c-.305,5.159-3.51,9.588-7.16,9.893s-6.36-3.63-6.055-8.789L29.838,9.985C30.143,4.826,33.348.4,37,.092Z" transform="translate(767.707 9.492) rotate(-11)" opacity="0.11" fill="url(#linear-gradient)"/>
    <path id="Path_8186" data-name="Path 8186" d="M37,.092c3.649-.305,6.36,3.63,6.055,8.789L14.25,496.055c-.305,5.159-3.51,9.588-7.16,9.893s-6.36-3.63-6.055-8.789L29.838,9.985C30.143,4.826,33.348.4,37,.092Z" transform="translate(801.707 9.492) rotate(-11)" opacity="0.11" fill="url(#linear-gradient)"/>
    <path id="Path_8187" data-name="Path 8187" d="M37,.092c3.649-.305,6.36,3.63,6.055,8.789L14.25,496.055c-.305,5.159-3.51,9.588-7.16,9.893s-6.36-3.63-6.055-8.789L29.838,9.985C30.143,4.826,33.348.4,37,.092Z" transform="translate(835.707 9.492) rotate(-11)" opacity="0.11" fill="url(#linear-gradient)"/>
    <path id="Path_8188" data-name="Path 8188" d="M37,.092c3.649-.305,6.36,3.63,6.055,8.789L14.25,496.055c-.305,5.159-3.51,9.588-7.16,9.893s-6.36-3.63-6.055-8.789L29.838,9.985C30.143,4.826,33.348.4,37,.092Z" transform="translate(869.707 9.492) rotate(-11)" opacity="0.11" fill="url(#linear-gradient)"/>
    <path id="Path_8189" data-name="Path 8189" d="M37,.092c3.649-.305,6.36,3.63,6.055,8.789L14.25,496.055c-.305,5.159-3.51,9.588-7.16,9.893s-6.36-3.63-6.055-8.789L29.838,9.985C30.143,4.826,33.348.4,37,.092Z" transform="translate(903.707 9.492) rotate(-11)" opacity="0.11" fill="url(#linear-gradient)"/>
    <path id="Path_8190" data-name="Path 8190" d="M37,.092c3.649-.305,6.36,3.63,6.055,8.789L14.25,496.055c-.305,5.159-3.51,9.588-7.16,9.893s-6.36-3.63-6.055-8.789L29.838,9.985C30.143,4.826,33.348.4,37,.092Z" transform="translate(937.707 9.492) rotate(-11)" opacity="0.11" fill="url(#linear-gradient)"/>
    <path id="Path_8191" data-name="Path 8191" d="M37,.092c3.649-.305,6.36,3.63,6.055,8.789L14.25,496.055c-.305,5.159-3.51,9.588-7.16,9.893s-6.36-3.63-6.055-8.789L29.838,9.985C30.143,4.826,33.348.4,37,.092Z" transform="translate(971.707 9.492) rotate(-11)" opacity="0.11" fill="url(#linear-gradient)"/>
    <path id="Path_8192" data-name="Path 8192" d="M37,.092c3.649-.305,6.36,3.63,6.055,8.789L14.25,496.055c-.305,5.159-3.51,9.588-7.16,9.893s-6.36-3.63-6.055-8.789L29.838,9.985C30.143,4.826,33.348.4,37,.092Z" transform="translate(1005.707 9.492) rotate(-11)" opacity="0.11" fill="url(#linear-gradient)"/>
    <path id="Path_8193" data-name="Path 8193" d="M37,.092c3.649-.305,6.36,3.63,6.055,8.789L14.25,496.055c-.305,5.159-3.51,9.588-7.16,9.893s-6.36-3.63-6.055-8.789L29.838,9.985C30.143,4.826,33.348.4,37,.092Z" transform="translate(1039.707 9.492) rotate(-11)" opacity="0.11" fill="url(#linear-gradient)"/>
    <path id="Path_8194" data-name="Path 8194" d="M37,.092c3.649-.305,6.36,3.63,6.055,8.789L14.25,496.055c-.305,5.159-3.51,9.588-7.16,9.893s-6.36-3.63-6.055-8.789L29.838,9.985C30.143,4.826,33.348.4,37,.092Z" transform="translate(1073.707 9.492) rotate(-11)" opacity="0.11" fill="url(#linear-gradient)"/>
    <path id="Path_8195" data-name="Path 8195" d="M37,.092c3.649-.305,6.36,3.63,6.055,8.789L14.25,496.055c-.305,5.159-3.51,9.588-7.16,9.893s-6.36-3.63-6.055-8.789L29.838,9.985C30.143,4.826,33.348.4,37,.092Z" transform="translate(1107.707 9.492) rotate(-11)" opacity="0.11" fill="url(#linear-gradient)"/>
    <path id="Path_8196" data-name="Path 8196" d="M37,.092c3.649-.305,6.36,3.63,6.055,8.789L14.25,496.055c-.305,5.159-3.51,9.588-7.16,9.893s-6.36-3.63-6.055-8.789L29.838,9.985C30.143,4.826,33.348.4,37,.092Z" transform="translate(1141.707 9.492) rotate(-11)" opacity="0.11" fill="url(#linear-gradient)"/>
    <path id="Path_8197" data-name="Path 8197" d="M37,.092c3.649-.305,6.36,3.63,6.055,8.789L14.25,496.055c-.305,5.159-3.51,9.588-7.16,9.893s-6.36-3.63-6.055-8.789L29.838,9.985C30.143,4.826,33.348.4,37,.092Z" transform="translate(1175.707 9.492) rotate(-11)" opacity="0.11" fill="url(#linear-gradient)"/>
    <path id="Path_8198" data-name="Path 8198" d="M37,.092c3.649-.305,6.36,3.63,6.055,8.789L14.25,496.055c-.305,5.159-3.51,9.588-7.16,9.893s-6.36-3.63-6.055-8.789L29.838,9.985C30.143,4.826,33.348.4,37,.092Z" transform="translate(1209.707 9.492) rotate(-11)" opacity="0.11" fill="url(#linear-gradient)"/>
    <path id="Path_8199" data-name="Path 8199" d="M37,.092c3.649-.305,6.36,3.63,6.055,8.789L14.25,496.055c-.305,5.159-3.51,9.588-7.16,9.893s-6.36-3.63-6.055-8.789L29.838,9.985C30.143,4.826,33.348.4,37,.092Z" transform="translate(1243.707 9.492) rotate(-11)" opacity="0.11" fill="url(#linear-gradient)"/>
    <path id="Path_8200" data-name="Path 8200" d="M37,.092c3.649-.305,6.36,3.63,6.055,8.789L14.25,496.055c-.305,5.159-3.51,9.588-7.16,9.893s-6.36-3.63-6.055-8.789L29.838,9.985C30.143,4.826,33.348.4,37,.092Z" transform="translate(1277.707 9.492) rotate(-11)" opacity="0.11" fill="url(#linear-gradient)"/>
  </g>
</svg>
