<?xml version="1.0" encoding="utf-8"?>
<!-- Generator: Adobe Illustrator 24.0.0, SVG Export Plug-In . SVG Version: 6.00 Build 0)  -->
<svg version="1.1" id="_001-chevron" xmlns="http://www.w3.org/2000/svg" xmlns:xlink="http://www.w3.org/1999/xlink" x="0px"
	 y="0px" viewBox="0 0 40 80" style="enable-background:new 0 0 40 80;" xml:space="preserve">
<style type="text/css">
	.st0{opacity:0.5;}
	.st1{fill:#0468F7;}
</style>
<g id="_001-chevron-2" class="st0">
	<g id="Group_115">
		<path id="Path_8297" class="st1" d="M2.7,46.6l32,32.5c0,0,0,0,0,0c1.2,1.2,3.1,1.2,4.3,0c1.2-1.2,1.2-3.2,0-4.4l-32-32.5
			c-1.2-1.2-1.2-3.2,0-4.4l32-32.5c1.2-1.2,1.2-3.2,0-4.4c0,0,0,0,0,0c-1.2-1.2-3.1-1.2-4.3,0l-32,32.5C-0.9,37.1-0.9,42.9,2.7,46.6
			z"/>
	</g>
</g>
</svg>
