<svg xmlns="http://www.w3.org/2000/svg" width="34.4" height="41.354" viewBox="0 0 34.4 41.354">
  <g id="Group_2384" data-name="Group 2384" transform="translate(-138.6 -466.246)">
    <g id="_002-piggy-bank" data-name="002-piggy-bank" transform="translate(105.6 469.246)">
      <g id="Group_2229" data-name="Group 2229" transform="translate(34.4)">
        <path id="Path_8313" data-name="Path 8313" d="M43.8,18.809A9.4,9.4,0,1,0,34.4,9.4,9.4,9.4,0,0,0,43.8,18.809Z" transform="translate(-34.8 -2)" fill="none" stroke="#c645ff" stroke-width="2"/>
        <path id="Path_8314" data-name="Path 8314" d="M82.688,122.977h-1.1a12.293,12.293,0,0,0-4.031-5.712,1.051,1.051,0,0,0-.031-.218,4.423,4.423,0,0,1,.661-3.572.893.893,0,0,0-.864-1.362,6.6,6.6,0,0,0-3.619,1.518,3.516,3.516,0,0,0-1.105,1.821,11.315,11.315,0,0,1-17.883,6.327A11,11,0,0,0,54.011,129h0a.136.136,0,0,0,.008.039,11.233,11.233,0,0,0,.934,2.482,13.027,13.027,0,0,0,2.389,3.611,6.887,6.887,0,0,1,1.852,4.428v.42h0a.815.815,0,0,0,.809.755h4.918a.809.809,0,0,0,.809-.809v-1.214a16.918,16.918,0,0,0,2.187.148,15.706,15.706,0,0,0,1.72-.093v1.16a.809.809,0,0,0,.809.809h4.934a.809.809,0,0,0,.809-.809v-1.214a4.854,4.854,0,0,1,1.673-3.393l.163-.14c.016-.016.031-.023.047-.039h0a12.171,12.171,0,0,0,3.6-5.494H82.7a1.5,1.5,0,0,0,1.494-1.494v-3.681A1.518,1.518,0,0,0,82.688,122.977Z" transform="translate(-52.198 -103.382)" fill="none" stroke="#c645ff" stroke-width="2"/>
        <circle id="Ellipse_118" data-name="Ellipse 118" cx="1.5" cy="1.5" r="1.5" transform="translate(22 17.506)" fill="#c645ff"/>
      </g>
    </g>
    <path id="Path_8393" data-name="Path 8393" d="M40.517,13.121c.086-.311.171-.615.265-.926.109-.358.21-.4.537-.226a5.256,5.256,0,0,0,1.774.529,2.188,2.188,0,0,0,1.16-.156.906.906,0,0,0,.218-1.588,2.84,2.84,0,0,0-.661-.389A15.708,15.708,0,0,1,42,9.556a2.564,2.564,0,0,1-1.447-2.451,2.694,2.694,0,0,1,1.969-2.5c.482-.179.482-.171.49-.677V3.416c.008-.381.078-.444.451-.459h.35c.809,0,.809,0,.809.809,0,.568,0,.576.568.661a5.05,5.05,0,0,1,1.253.374.374.374,0,0,1,.241.49c-.1.35-.195.7-.311,1.043-.109.327-.21.374-.521.226a4,4,0,0,0-1.992-.4,1.37,1.37,0,0,0-.529.109.753.753,0,0,0-.187,1.339A3.24,3.24,0,0,0,44,8.093a15.9,15.9,0,0,1,1.58.716,2.828,2.828,0,0,1,.911,4.3,3.026,3.026,0,0,1-1.572,1,.439.439,0,0,0-.381.5c.016.28,0,.553,0,.833a.345.345,0,0,1-.374.389c-.3.008-.6.008-.895,0a.363.363,0,0,1-.389-.412c0-.2,0-.4-.008-.607-.008-.444-.016-.467-.451-.537a5.437,5.437,0,0,1-1.6-.459C40.447,13.634,40.408,13.533,40.517,13.121Z" transform="translate(105.236 467.357)" fill="#c645ff"/>
  </g>
</svg>
