<svg xmlns="http://www.w3.org/2000/svg" width="32" height="30.156" viewBox="0 0 32 30.156">
  <g id="Vector" transform="translate(-0.223 -0.042)" fill="none">
    <path d="M14.572,1.1,10.394,9.073l-8.736,1.14c-1.567.225-1.9,1.943-.76,3.039l6.077,6.077L5.456,28.065c-.269,1.557,1.651,2.627,3.039,1.9l7.6-3.8,7.977,3.8a1.791,1.791,0,0,0,2.659-1.9l-1.519-8.736,6.457-6.077a1.769,1.769,0,0,0-1.14-3.039l-8.736-1.14L17.991,1.1A1.912,1.912,0,0,0,14.572,1.1Z" stroke="none"/>
    <path d="M 16.27772903442383 2.150825500488281 L 11.68339347839355 10.92183303833008 L 2.583871841430664 12.10873031616211 L 9.123773574829102 18.64861297607422 L 7.46455192565918 28.18914413452148 C 7.485511779785156 28.19437980651855 7.507843017578125 28.19772338867188 7.530023574829102 28.19772338867188 C 7.552234649658203 28.19772338867188 7.563804626464844 28.19417381286621 7.565473556518555 28.19329261779785 L 7.60040283203125 28.1754035949707 L 16.07022285461426 23.94048309326172 L 24.69398498535156 28.04703712463379 L 23.05283355712891 18.61043167114258 L 29.91687965393066 12.15014457702637 L 20.45138359069824 10.91551399230957 L 16.27772903442383 2.150825500488281 M 16.2773551940918 0.04179000854492188 C 16.95835494995117 0.04186439514160156 17.63982009887695 0.3956565856933594 17.99082374572754 1.096443176269531 L 21.78921508789062 9.07307243347168 L 30.52553367614746 10.21259307861328 C 32.09275436401367 10.43758392333984 32.80158233642578 12.15596389770508 31.66504287719727 13.25131225585938 L 25.20777320861816 19.32874298095703 L 26.72713470458984 28.0650520324707 C 26.99631309509277 29.62222290039062 25.45602798461914 30.68659400939941 24.06825256347656 29.96425247192383 L 16.09162330627441 26.16585350036621 L 8.494832992553711 29.96425247192383 C 7.10706901550293 30.69251251220703 5.186933517456055 29.62222480773926 5.456113815307617 28.0650520324707 L 6.975473403930664 19.32874298095703 L 0.8980331420898438 13.25131225585938 C -0.238494873046875 12.15596389770508 0.09049224853515625 10.43758392333984 1.657712936401367 10.21259307861328 L 10.39402389526367 9.07307243347168 L 14.57226371765137 1.096443176269531 C 14.92411231994629 0.3910675048828125 15.60050010681152 0.04171562194824219 16.2773551940918 0.04179000854492188 Z" stroke="none" fill="#c645ff"/>
  </g>
</svg>
