<svg xmlns="http://www.w3.org/2000/svg" xmlns:xlink="http://www.w3.org/1999/xlink" width="969.971" height="336.356" viewBox="0 0 969.971 336.356">
  <defs>
    <linearGradient id="linear-gradient" x1="0.5" x2="0.5" y2="1" gradientUnits="objectBoundingBox">
      <stop offset="0" stop-color="#0069f7"/>
      <stop offset="0.112" stop-color="#3d5ef9"/>
      <stop offset="0.37" stop-color="#7753fc"/>
      <stop offset="0.627" stop-color="#a24cfe"/>
      <stop offset="0.802" stop-color="#bc47ff"/>
      <stop offset="0.892" stop-color="#c645ff"/>
      <stop offset="1" stop-color="#c645ff"/>
    </linearGradient>
    <linearGradient id="linear-gradient-45" y1="0.554" x2="1" y2="0.552" gradientUnits="objectBoundingBox">
      <stop offset="0" stop-color="#fff"/>
      <stop offset="1" stop-color="#fff" stop-opacity="0"/>
    </linearGradient>
  </defs>
  <g id="Group_18140" data-name="Group 18140" transform="translate(81.05 -425.203)">
    <path id="Path_10960" data-name="Path 10960" d="M21.5.01c2.18-.182,3.8,2.169,3.618,5.251L7.909,296.331c-.182,3.082-2.1,5.729-4.278,5.911s-3.8-2.169-3.618-5.251L17.222,5.921C17.4,2.839,19.32.192,21.5.01Z" transform="translate(34.653 464.861) rotate(-11)" opacity="0.1" fill="url(#linear-gradient)"/>
    <path id="Path_10962" data-name="Path 10962" d="M21.5.01c2.18-.182,3.8,2.169,3.618,5.251L7.909,296.331c-.182,3.082-2.1,5.729-4.278,5.911s-3.8-2.169-3.618-5.251L17.222,5.921C17.4,2.839,19.32.192,21.5.01Z" transform="translate(54.965 464.861) rotate(-11)" opacity="0.1" fill="url(#linear-gradient)"/>
    <path id="Path_10963" data-name="Path 10963" d="M21.5.01c2.18-.182,3.8,2.169,3.618,5.251L7.909,296.331c-.182,3.082-2.1,5.729-4.278,5.911s-3.8-2.169-3.618-5.251L17.222,5.921C17.4,2.839,19.32.192,21.5.01Z" transform="translate(-81.05 464.861) rotate(-11)" opacity="0.1" fill="url(#linear-gradient)"/>
    <path id="Path_10966" data-name="Path 10966" d="M21.5.01c2.18-.182,3.8,2.169,3.618,5.251L7.909,296.331c-.182,3.082-2.1,5.729-4.278,5.911s-3.8-2.169-3.618-5.251L17.222,5.921C17.4,2.839,19.32.192,21.5.01Z" transform="translate(75.282 464.861) rotate(-11)" opacity="0.1" fill="url(#linear-gradient)"/>
    <path id="Path_10967" data-name="Path 10967" d="M21.5.01c2.18-.182,3.8,2.169,3.618,5.251L7.909,296.331c-.182,3.082-2.1,5.729-4.278,5.911s-3.8-2.169-3.618-5.251L17.222,5.921C17.4,2.839,19.32.192,21.5.01Z" transform="translate(-60.734 464.861) rotate(-11)" opacity="0.1" fill="url(#linear-gradient)"/>
    <path id="Path_10968" data-name="Path 10968" d="M21.5.01c2.18-.182,3.8,2.169,3.618,5.251L7.909,296.331c-.182,3.082-2.1,5.729-4.278,5.911s-3.8-2.169-3.618-5.251L17.222,5.921C17.4,2.839,19.32.192,21.5.01Z" transform="translate(95.594 464.861) rotate(-11)" opacity="0.1" fill="url(#linear-gradient)"/>
    <path id="Path_10969" data-name="Path 10969" d="M21.5.01c2.18-.182,3.8,2.169,3.618,5.251L7.909,296.331c-.182,3.082-2.1,5.729-4.278,5.911s-3.8-2.169-3.618-5.251L17.222,5.921C17.4,2.839,19.32.192,21.5.01Z" transform="translate(-40.421 464.861) rotate(-11)" opacity="0.1" fill="url(#linear-gradient)"/>
    <path id="Path_10970" data-name="Path 10970" d="M21.5.01c2.18-.182,3.8,2.169,3.618,5.251L7.909,296.331c-.182,3.082-2.1,5.729-4.278,5.911s-3.8-2.169-3.618-5.251L17.222,5.921C17.4,2.839,19.32.192,21.5.01Z" transform="translate(115.907 464.861) rotate(-11)" opacity="0.1" fill="url(#linear-gradient)"/>
    <path id="Path_10971" data-name="Path 10971" d="M21.5.01c2.18-.182,3.8,2.169,3.618,5.251L7.909,296.331c-.182,3.082-2.1,5.729-4.278,5.911s-3.8-2.169-3.618-5.251L17.222,5.921C17.4,2.839,19.32.192,21.5.01Z" transform="translate(-5.976 464.861) rotate(-11)" opacity="0.1" fill="url(#linear-gradient)"/>
    <path id="Path_10972" data-name="Path 10972" d="M21.5.01c2.18-.182,3.8,2.169,3.618,5.251L7.909,296.331c-.182,3.082-2.1,5.729-4.278,5.911s-3.8-2.169-3.618-5.251L17.222,5.921C17.4,2.839,19.32.192,21.5.01Z" transform="translate(136.223 464.861) rotate(-11)" opacity="0.1" fill="url(#linear-gradient)"/>
    <path id="Path_10973" data-name="Path 10973" d="M21.5.01c2.18-.182,3.8,2.169,3.618,5.251L7.909,296.331c-.182,3.082-2.1,5.729-4.278,5.911s-3.8-2.169-3.618-5.251L17.222,5.921C17.4,2.839,19.32.192,21.5.01Z" transform="translate(14.34 464.861) rotate(-11)" opacity="0.1" fill="url(#linear-gradient)"/>
    <path id="Path_10974" data-name="Path 10974" d="M21.5.01c2.18-.182,3.8,2.169,3.618,5.251L7.909,296.331c-.182,3.082-2.1,5.729-4.278,5.911s-3.8-2.169-3.618-5.251L17.222,5.921C17.4,2.839,19.32.192,21.5.01Z" transform="translate(156.536 464.861) rotate(-11)" opacity="0.1" fill="url(#linear-gradient)"/>
    <path id="Path_10975" data-name="Path 10975" d="M21.5.01c2.18-.182,3.8,2.169,3.618,5.251L7.909,296.331c-.182,3.082-2.1,5.729-4.278,5.911s-3.8-2.169-3.618-5.251L17.222,5.921C17.4,2.839,19.32.192,21.5.01Z" transform="translate(176.848 464.861) rotate(-11)" opacity="0.11" fill="url(#linear-gradient)"/>
    <path id="Path_10976" data-name="Path 10976" d="M21.5.01c2.18-.182,3.8,2.169,3.618,5.251L7.909,296.331c-.182,3.082-2.1,5.729-4.278,5.911s-3.8-2.169-3.618-5.251L17.222,5.921C17.4,2.839,19.32.192,21.5.01Z" transform="translate(197.165 464.861) rotate(-11)" opacity="0.11" fill="url(#linear-gradient)"/>
    <path id="Path_10977" data-name="Path 10977" d="M21.5.01c2.18-.182,3.8,2.169,3.618,5.251L7.909,296.331c-.182,3.082-2.1,5.729-4.278,5.911s-3.8-2.169-3.618-5.251L17.222,5.921C17.4,2.839,19.32.192,21.5.01Z" transform="translate(217.477 464.861) rotate(-11)" opacity="0.11" fill="url(#linear-gradient)"/>
    <path id="Path_10978" data-name="Path 10978" d="M21.5.01c2.18-.182,3.8,2.169,3.618,5.251L7.909,296.331c-.182,3.082-2.1,5.729-4.278,5.911s-3.8-2.169-3.618-5.251L17.222,5.921C17.4,2.839,19.32.192,21.5.01Z" transform="translate(237.79 464.861) rotate(-11)" opacity="0.11" fill="url(#linear-gradient)"/>
    <path id="Path_10979" data-name="Path 10979" d="M21.5.01c2.18-.182,3.8,2.169,3.618,5.251L7.909,296.331c-.182,3.082-2.1,5.729-4.278,5.911s-3.8-2.169-3.618-5.251L17.222,5.921C17.4,2.839,19.32.192,21.5.01Z" transform="translate(258.106 464.861) rotate(-11)" opacity="0.11" fill="url(#linear-gradient)"/>
    <path id="Path_10980" data-name="Path 10980" d="M21.5.01c2.18-.182,3.8,2.169,3.618,5.251L7.909,296.331c-.182,3.082-2.1,5.729-4.278,5.911s-3.8-2.169-3.618-5.251L17.222,5.921C17.4,2.839,19.32.192,21.5.01Z" transform="translate(278.418 464.861) rotate(-11)" opacity="0.11" fill="url(#linear-gradient)"/>
    <path id="Path_10981" data-name="Path 10981" d="M21.5.01c2.18-.182,3.8,2.169,3.618,5.251L7.909,296.331c-.182,3.082-2.1,5.729-4.278,5.911s-3.8-2.169-3.618-5.251L17.222,5.921C17.4,2.839,19.32.192,21.5.01Z" transform="translate(298.731 464.861) rotate(-11)" opacity="0.11" fill="url(#linear-gradient)"/>
    <path id="Path_10982" data-name="Path 10982" d="M21.5.01c2.18-.182,3.8,2.169,3.618,5.251L7.909,296.331c-.182,3.082-2.1,5.729-4.278,5.911s-3.8-2.169-3.618-5.251L17.222,5.921C17.4,2.839,19.32.192,21.5.01Z" transform="translate(319.047 464.861) rotate(-11)" opacity="0.11" fill="url(#linear-gradient)"/>
    <path id="Path_10983" data-name="Path 10983" d="M21.5.01c2.18-.182,3.8,2.169,3.618,5.251L7.909,296.331c-.182,3.082-2.1,5.729-4.278,5.911s-3.8-2.169-3.618-5.251L17.222,5.921C17.4,2.839,19.32.192,21.5.01Z" transform="translate(339.36 464.861) rotate(-11)" opacity="0.11" fill="url(#linear-gradient)"/>
    <path id="Path_10984" data-name="Path 10984" d="M21.5.01c2.18-.182,3.8,2.169,3.618,5.251L7.909,296.331c-.182,3.082-2.1,5.729-4.278,5.911s-3.8-2.169-3.618-5.251L17.222,5.921C17.4,2.839,19.32.192,21.5.01Z" transform="translate(359.672 464.861) rotate(-11)" opacity="0.11" fill="url(#linear-gradient)"/>
    <path id="Path_10985" data-name="Path 10985" d="M21.5.01c2.18-.182,3.8,2.169,3.618,5.251L7.909,296.331c-.182,3.082-2.1,5.729-4.278,5.911s-3.8-2.169-3.618-5.251L17.222,5.921C17.4,2.839,19.32.192,21.5.01Z" transform="translate(379.989 464.861) rotate(-11)" opacity="0.11" fill="url(#linear-gradient)"/>
    <path id="Path_10986" data-name="Path 10986" d="M21.5.01c2.18-.182,3.8,2.169,3.618,5.251L7.909,296.331c-.182,3.082-2.1,5.729-4.278,5.911s-3.8-2.169-3.618-5.251L17.222,5.921C17.4,2.839,19.32.192,21.5.01Z" transform="translate(400.301 464.861) rotate(-11)" opacity="0.11" fill="url(#linear-gradient)"/>
    <path id="Path_10987" data-name="Path 10987" d="M21.5.01c2.18-.182,3.8,2.169,3.618,5.251L7.909,296.331c-.182,3.082-2.1,5.729-4.278,5.911s-3.8-2.169-3.618-5.251L17.222,5.921C17.4,2.839,19.32.192,21.5.01Z" transform="translate(420.614 464.861) rotate(-11)" opacity="0.11" fill="url(#linear-gradient)"/>
    <path id="Path_10988" data-name="Path 10988" d="M21.5.01c2.18-.182,3.8,2.169,3.618,5.251L7.909,296.331c-.182,3.082-2.1,5.729-4.278,5.911s-3.8-2.169-3.618-5.251L17.222,5.921C17.4,2.839,19.32.192,21.5.01Z" transform="translate(440.93 464.861) rotate(-11)" opacity="0.11" fill="url(#linear-gradient)"/>
    <path id="Path_10989" data-name="Path 10989" d="M21.5.01c2.18-.182,3.8,2.169,3.618,5.251L7.909,296.331c-.182,3.082-2.1,5.729-4.278,5.911s-3.8-2.169-3.618-5.251L17.222,5.921C17.4,2.839,19.32.192,21.5.01Z" transform="translate(461.243 464.861) rotate(-11)" opacity="0.11" fill="url(#linear-gradient)"/>
    <path id="Path_10990" data-name="Path 10990" d="M21.5.01c2.18-.182,3.8,2.169,3.618,5.251L7.909,296.331c-.182,3.082-2.1,5.729-4.278,5.911s-3.8-2.169-3.618-5.251L17.222,5.921C17.4,2.839,19.32.192,21.5.01Z" transform="translate(481.555 464.861) rotate(-11)" opacity="0.11" fill="url(#linear-gradient)"/>
    <path id="Path_10991" data-name="Path 10991" d="M21.5.01c2.18-.182,3.8,2.169,3.618,5.251L7.909,296.331c-.182,3.082-2.1,5.729-4.278,5.911s-3.8-2.169-3.618-5.251L17.222,5.921C17.4,2.839,19.32.192,21.5.01Z" transform="translate(501.872 464.861) rotate(-11)" opacity="0.11" fill="url(#linear-gradient)"/>
    <path id="Path_10992" data-name="Path 10992" d="M21.5.01c2.18-.182,3.8,2.169,3.618,5.251L7.909,296.331c-.182,3.082-2.1,5.729-4.278,5.911s-3.8-2.169-3.618-5.251L17.222,5.921C17.4,2.839,19.32.192,21.5.01Z" transform="translate(522.184 464.861) rotate(-11)" opacity="0.11" fill="url(#linear-gradient)"/>
    <path id="Path_10993" data-name="Path 10993" d="M21.5.01c2.18-.182,3.8,2.169,3.618,5.251L7.909,296.331c-.182,3.082-2.1,5.729-4.278,5.911s-3.8-2.169-3.618-5.251L17.222,5.921C17.4,2.839,19.32.192,21.5.01Z" transform="translate(542.497 464.861) rotate(-11)" opacity="0.11" fill="url(#linear-gradient)"/>
    <path id="Path_10994" data-name="Path 10994" d="M21.5.01c2.18-.182,3.8,2.169,3.618,5.251L7.909,296.331c-.182,3.082-2.1,5.729-4.278,5.911s-3.8-2.169-3.618-5.251L17.222,5.921C17.4,2.839,19.32.192,21.5.01Z" transform="translate(562.813 464.861) rotate(-11)" opacity="0.11" fill="url(#linear-gradient)"/>
    <path id="Path_10995" data-name="Path 10995" d="M21.5.01c2.18-.182,3.8,2.169,3.618,5.251L7.909,296.331c-.182,3.082-2.1,5.729-4.278,5.911s-3.8-2.169-3.618-5.251L17.222,5.921C17.4,2.839,19.32.192,21.5.01Z" transform="translate(583.125 464.861) rotate(-11)" opacity="0.11" fill="url(#linear-gradient)"/>
    <path id="Path_10996" data-name="Path 10996" d="M21.5.01c2.18-.182,3.8,2.169,3.618,5.251L7.909,296.331c-.182,3.082-2.1,5.729-4.278,5.911s-3.8-2.169-3.618-5.251L17.222,5.921C17.4,2.839,19.32.192,21.5.01Z" transform="translate(603.438 464.861) rotate(-11)" opacity="0.11" fill="url(#linear-gradient)"/>
    <path id="Path_10997" data-name="Path 10997" d="M21.5.01c2.18-.182,3.8,2.169,3.618,5.251L7.909,296.331c-.182,3.082-2.1,5.729-4.278,5.911s-3.8-2.169-3.618-5.251L17.222,5.921C17.4,2.839,19.32.192,21.5.01Z" transform="translate(623.754 464.861) rotate(-11)" opacity="0.11" fill="url(#linear-gradient)"/>
    <path id="Path_10998" data-name="Path 10998" d="M21.5.01c2.18-.182,3.8,2.169,3.618,5.251L7.909,296.331c-.182,3.082-2.1,5.729-4.278,5.911s-3.8-2.169-3.618-5.251L17.222,5.921C17.4,2.839,19.32.192,21.5.01Z" transform="translate(644.067 464.861) rotate(-11)" opacity="0.11" fill="url(#linear-gradient)"/>
    <path id="Path_10999" data-name="Path 10999" d="M21.5.01c2.18-.182,3.8,2.169,3.618,5.251L7.909,296.331c-.182,3.082-2.1,5.729-4.278,5.911s-3.8-2.169-3.618-5.251L17.222,5.921C17.4,2.839,19.32.192,21.5.01Z" transform="translate(664.379 464.861) rotate(-11)" opacity="0.11" fill="url(#linear-gradient)"/>
    <path id="Path_11000" data-name="Path 11000" d="M21.5.01c2.18-.182,3.8,2.169,3.618,5.251L7.909,296.331c-.182,3.082-2.1,5.729-4.278,5.911s-3.8-2.169-3.618-5.251L17.222,5.921C17.4,2.839,19.32.192,21.5.01Z" transform="translate(684.696 464.861) rotate(-11)" opacity="0.11" fill="url(#linear-gradient)"/>
    <path id="Path_11001" data-name="Path 11001" d="M21.5.01c2.18-.182,3.8,2.169,3.618,5.251L7.909,296.331c-.182,3.082-2.1,5.729-4.278,5.911s-3.8-2.169-3.618-5.251L17.222,5.921C17.4,2.839,19.32.192,21.5.01Z" transform="translate(705.008 464.861) rotate(-11)" opacity="0.11" fill="url(#linear-gradient)"/>
    <path id="Path_11002" data-name="Path 11002" d="M21.5.01c2.18-.182,3.8,2.169,3.618,5.251L7.909,296.331c-.182,3.082-2.1,5.729-4.278,5.911s-3.8-2.169-3.618-5.251L17.222,5.921C17.4,2.839,19.32.192,21.5.01Z" transform="translate(725.321 464.861) rotate(-11)" opacity="0.11" fill="url(#linear-gradient)"/>
    <path id="Path_11003" data-name="Path 11003" d="M21.5.01c2.18-.182,3.8,2.169,3.618,5.251L7.909,296.331c-.182,3.082-2.1,5.729-4.278,5.911s-3.8-2.169-3.618-5.251L17.222,5.921C17.4,2.839,19.32.192,21.5.01Z" transform="translate(745.637 464.861) rotate(-11)" opacity="0.11" fill="url(#linear-gradient)"/>
    <path id="Path_11004" data-name="Path 11004" d="M21.5.01c2.18-.182,3.8,2.169,3.618,5.251L7.909,296.331c-.182,3.082-2.1,5.729-4.278,5.911s-3.8-2.169-3.618-5.251L17.222,5.921C17.4,2.839,19.32.192,21.5.01Z" transform="translate(765.95 464.861) rotate(-11)" opacity="0.11" fill="url(#linear-gradient)"/>
    <path id="Path_11005" data-name="Path 11005" d="M21.5.01c2.18-.182,3.8,2.169,3.618,5.251L7.909,296.331c-.182,3.082-2.1,5.729-4.278,5.911s-3.8-2.169-3.618-5.251L17.222,5.921C17.4,2.839,19.32.192,21.5.01Z" transform="translate(786.262 464.861) rotate(-11)" opacity="0.11" fill="url(#linear-gradient)"/>
    <path id="Path_11006" data-name="Path 11006" d="M21.5.01c2.18-.182,3.8,2.169,3.618,5.251L7.909,296.331c-.182,3.082-2.1,5.729-4.278,5.911s-3.8-2.169-3.618-5.251L17.222,5.921C17.4,2.839,19.32.192,21.5.01Z" transform="translate(806.579 464.861) rotate(-11)" opacity="0.11" fill="url(#linear-gradient)"/>
    <rect id="Rectangle_5372" data-name="Rectangle 5372" width="644.269" height="336.356" transform="translate(-81.05 425.203)" fill="url(#linear-gradient-45)"/>
  </g>
</svg>
