<svg xmlns="http://www.w3.org/2000/svg" width="40" height="40" viewBox="0 0 40 40">
  <g id="Group_2597" data-name="Group 2597" transform="translate(-901 -6890)">
    <g id="Ellipse_126" data-name="Ellipse 126" transform="translate(901 6890)" fill="none" stroke="#c645ff" stroke-width="4">
      <circle cx="20" cy="20" r="20" stroke="none"/>
      <circle cx="20" cy="20" r="18" fill="none"/>
    </g>
    <path id="FontAwsome_check_" data-name="FontAwsome (check)" d="M6.124,78.279.264,72.419a.9.9,0,0,1,0-1.275L1.539,69.87a.9.9,0,0,1,1.275,0l3.947,3.947,8.454-8.454a.9.9,0,0,1,1.275,0l1.275,1.275a.9.9,0,0,1,0,1.275L7.4,78.279a.9.9,0,0,1-1.275,0Z" transform="translate(912.026 6838.22)" fill="#c645ff"/>
  </g>
</svg>
