<svg xmlns="http://www.w3.org/2000/svg" width="15.5" height="15.5" viewBox="0 0 15.5 15.5">
  <path id="clock" d="M8-13.75A7.749,7.749,0,0,0,.25-6,7.749,7.749,0,0,0,8,1.75,7.749,7.749,0,0,0,15.75-6,7.749,7.749,0,0,0,8-13.75Zm0,14A6.248,6.248,0,0,1,1.75-6,6.248,6.248,0,0,1,8-12.25,6.248,6.248,0,0,1,14.25-6,6.248,6.248,0,0,1,8,.25ZM9.931-3.013a.378.378,0,0,0,.525-.081l.588-.809a.375.375,0,0,0-.081-.525L8.875-5.947v-4.428A.376.376,0,0,0,8.5-10.75h-1a.376.376,0,0,0-.375.375v5.131a.377.377,0,0,0,.153.3Z" transform="translate(-0.25 13.75)" fill="#15bc8a"/>
</svg>
