<svg xmlns="http://www.w3.org/2000/svg" width="32" height="29.998" viewBox="0 0 32 29.998">
  <g id="_001-home" data-name="001-home" transform="translate(0 -16.017)">
    <path id="Path_8755" data-name="Path 8755" d="M64.125,210.964H42.875A2.878,2.878,0,0,1,40,208.089V192.963a1,1,0,0,1,2,0v15.126a.876.876,0,0,0,.875.875h21.25a.876.876,0,0,0,.875-.875V192.963a1,1,0,0,1,2,0v15.126A2.878,2.878,0,0,1,64.125,210.964Z" transform="translate(-37.5 -164.949)" fill="#c645ff"/>
    <path id="Path_8756" data-name="Path 8756" d="M31,31.513a1,1,0,0,1-.707-.293L17.856,18.784a2.628,2.628,0,0,0-3.712,0L1.707,31.22A1,1,0,0,1,.293,29.806L12.73,17.369a4.63,4.63,0,0,1,6.541,0L31.707,29.806A1,1,0,0,1,31,31.513Z" fill="#c645ff"/>
    <path id="Path_8757" data-name="Path 8757" d="M185,300.983h-8a1,1,0,0,1-1-1v-8.875a3.129,3.129,0,0,1,3.125-3.125h3.75A3.129,3.129,0,0,1,186,291.108v8.875A1,1,0,0,1,185,300.983Zm-7-2h6v-7.875a1.126,1.126,0,0,0-1.125-1.125h-3.75A1.126,1.126,0,0,0,178,291.108Z" transform="translate(-165 -254.968)" fill="#c645ff"/>
  </g>
</svg>
