<svg xmlns="http://www.w3.org/2000/svg" xmlns:xlink="http://www.w3.org/1999/xlink" width="178.566" height="20" viewBox="0 0 178.566 20">
  <defs>
    <linearGradient id="linear-gradient" x1="-0.438" y1="1.131" x2="8.054" y2="-4.62" gradientUnits="objectBoundingBox">
      <stop offset="0" stop-color="#0069f7"/>
      <stop offset="0.12" stop-color="#3d5ef9"/>
      <stop offset="0.25" stop-color="#7753fc"/>
      <stop offset="0.36" stop-color="#a24cfe"/>
      <stop offset="0.44" stop-color="#bc47ff"/>
      <stop offset="0.49" stop-color="#c645ff"/>
    </linearGradient>
    <linearGradient id="linear-gradient-2" x1="-1.409" y1="1.736" x2="7.361" y2="-4.014" xlink:href="#linear-gradient"/>
    <linearGradient id="linear-gradient-3" x1="-1.705" y1="2.446" x2="5.326" y2="-3.305" xlink:href="#linear-gradient"/>
    <linearGradient id="linear-gradient-4" x1="-3.536" y1="2.93" x2="5.952" y2="-2.82" xlink:href="#linear-gradient"/>
    <linearGradient id="linear-gradient-5" x1="1.814" y1="1" x2="-0.47" y2="0.5" gradientUnits="objectBoundingBox">
      <stop offset="0" stop-color="#120638"/>
      <stop offset="0.112" stop-color="#373a3f"/>
      <stop offset="0.37" stop-color="#373a3f"/>
      <stop offset="0.627" stop-color="#a24cfe"/>
      <stop offset="0.802" stop-color="#bc47ff"/>
      <stop offset="0.892" stop-color="#c645ff"/>
      <stop offset="1" stop-color="#c645ff"/>
    </linearGradient>
    <linearGradient id="linear-gradient-7" x1="1.574" y1="0.909" x2="-0.351" y2="0.5" xlink:href="#linear-gradient-5"/>
  </defs>
  <g id="Group_17724" data-name="Group 17724" transform="translate(-187.054 -412.654)">
    <g id="Group_16207" data-name="Group 16207" transform="translate(187.054 415.607)">
      <path id="Path_1" data-name="Path 1" d="M179.018,175.954h6.045v4.34h-6.332a4.8,4.8,0,0,1-4.755-5.116,4.735,4.735,0,0,1,4.755-5.024h7.335V168.32h-7.335a6.4,6.4,0,0,0-6.6,6.772c0,4.071,2.793,7.06,6.6,7.06h8.2v-7.915h-8.52Z" transform="translate(-76.989 -168.234)" fill="#120638"/>
      <path id="Path_2" data-name="Path 2" d="M151.486,12.11V7.776h9.168l.611-1.711h-9.78V1.97h9.987L160.862.13H149.64V13.956h11.546l.611-1.846Z" transform="translate(-37.324 -0.051)" fill="#120638"/>
      <path id="Path_3" data-name="Path 3" d="M234.837,179.231l-10.47-10.709a.862.862,0,0,0-.788-.269H221.8l.727,1.9v11.931h1.766V171.034l10.427,10.745a1.394,1.394,0,0,0,.953.477c.532,0,.929-.416.929-1.125V168.18h-1.766Z" transform="translate(-96.3 -168.18)" fill="#120638"/>
      <rect id="Rectangle_1" data-name="Rectangle 1" width="1.846" height="13.832" transform="translate(143.03 0.073)" fill="#120638"/>
      <path id="Path_4" data-name="Path 4" d="M270.789,176.026c0,3.117-1.406,4.468-5.5,4.468s-5.5-1.351-5.5-4.468V168.3H257.88v7.726c0,4.279,2.1,6.3,7.335,6.3s7.335-2.017,7.335-6.3V168.3h-1.834Z" transform="translate(-110.327 -168.227)" fill="#120638"/>
      <path id="Path_5" data-name="Path 5" d="M295.221,174.233h-6.448a1.931,1.931,0,0,1-2.133-2.035,1.956,1.956,0,0,1,2.151-2.054h9.26l.611-1.834h-9.871c-2.647,0-4.071,1.62-4.071,3.79a3.768,3.768,0,0,0,4.034,3.857h6.467c1.522,0,2.359.727,2.359,2.151a2.1,2.1,0,0,1-2.359,2.188H284.928v1.834h10.293c2.757,0,4.107-1.693,4.107-3.955C299.328,175.571,297.9,174.233,295.221,174.233Z" transform="translate(-120.762 -168.23)" fill="#120638"/>
      <g id="Group_16299" data-name="Group 16299" transform="translate(0 0.257)">
        <path id="Path_6" data-name="Path 6" d="M66.6,172.072c0-2.341-1.149-3.472-3.331-3.472H50.59v13.649h4.1v-4.175h2.09a21.509,21.509,0,0,0,2.647-.134l2.555,4.309h4.407l-3.136-5.287A5.111,5.111,0,0,0,66.6,172.072Zm-6.112,2.61a13.148,13.148,0,0,1-3.551.354H54.673v-3.2h7.17c.471,0,.611.2.611.611a2.364,2.364,0,0,1-1.956,2.237Z" transform="translate(-50.59 -168.6)" fill="url(#linear-gradient)"/>
        <path id="Path_7" data-name="Path 7" d="M35.865,8.708H45.871l.678-2.928H35.865V3.543H47.057L46.335.42H31.77V14.069H46.549l.721-3.117H35.865Z" transform="translate(-12.352 -0.42)" fill="url(#linear-gradient-2)"/>
        <path id="Path_8" data-name="Path 8" d="M116.754,168.6l.611,1.051L110,182.249h4.4l1.29-2.207h7.946l1.29,2.207h4.407L121.277,168.6Zm.666,8.441,2.225-3.838,2.219,3.838Z" transform="translate(-73.687 -168.6)" fill="url(#linear-gradient-3)"/>
        <path id="Path_9" data-name="Path 9" d="M98.705.42h-4.1V14.069h13.569l.758-3.276H98.705Z" transform="translate(-36.782 -0.42)" fill="url(#linear-gradient-4)"/>
      </g>
    </g>
    <g id="Group_16381" data-name="Group 16381" transform="translate(263.585 412.654)">
      <g id="Group_16209" data-name="Group 16209" transform="translate(4.118 16.242)">
        <path id="Path_10311" data-name="Path 10311" d="M189.065,426.671a15.618,15.618,0,0,1-2.776.292,14.869,14.869,0,0,1-2.735-.292l.215,1.379a11.164,11.164,0,0,0,2.507.292,12.182,12.182,0,0,0,2.574-.292Z" transform="translate(-183.554 -426.671)" fill="url(#linear-gradient-5)"/>
        <path id="Path_10313" data-name="Path 10313" d="M219.263,480a16.9,16.9,0,0,1-1.868.117,18.715,18.715,0,0,1-1.927-.117l.591,1.379a5.245,5.245,0,0,0,1.335.117,4.433,4.433,0,0,0,1.277-.117Z" transform="translate(-214.611 -477.742)" fill="url(#linear-gradient-5)"/>
      </g>
      <path id="Path_10342" data-name="Path 10342" d="M7.031,15.651a12.791,12.791,0,0,1-2.838-.392L11.365,7.08a.442.442,0,0,0,.081-.379.317.317,0,0,0-.195-.231L8.818,5.953,11.6,2.03l.109.113a7.227,7.227,0,0,1,1.517,2.505v0a6.733,6.733,0,0,1,.5,3.022,6.978,6.978,0,0,1-1.012,3.021c-.253.438-.579.9-.957,1.431l-.008.012c-.134.189-.245.341-.339.469l0,0a5.9,5.9,0,0,0-.573.883l-.069.136a5.106,5.106,0,0,0-.5,1.246c-.022.116-.041.231-.044.244l-.01,0c-.2.067-.378.123-.5.158l-.1.03A7.885,7.885,0,0,1,7.031,15.651Zm-3.8-1.307h0a5.524,5.524,0,0,0-.329-.86,4.868,4.868,0,0,0-.544-.844v0l-.051-.068c-.092-.124-.2-.265-.312-.431-.423-.6-.749-1.082-.968-1.443A6.97,6.97,0,0,1,.019,7.673a6.7,6.7,0,0,1,.5-3.021v0A7.228,7.228,0,0,1,2.039,2.143,6.53,6.53,0,0,1,8.148.125c.113.023.227.048.338.077L3.75,7.97a.442.442,0,0,0-.074.347.211.211,0,0,0,.19.2l2.45.521-3.08,5.308Z" transform="translate(0 0)" fill="url(#linear-gradient-7)"/>
    </g>
  </g>
</svg>
