<svg id="g3256" xmlns="http://www.w3.org/2000/svg" xmlns:xlink="http://www.w3.org/1999/xlink" width="95.311" height="130" viewBox="0 0 95.311 130">
  <defs>
    <linearGradient id="linear-gradient" y1="0.5" x2="1" y2="0.5" gradientUnits="objectBoundingBox">
      <stop offset="0" stop-color="#0069f7"/>
      <stop offset="0.112" stop-color="#3d5ef9"/>
      <stop offset="0.37" stop-color="#7753fc"/>
      <stop offset="0.627" stop-color="#a24cfe"/>
      <stop offset="0.802" stop-color="#bc47ff"/>
      <stop offset="0.892" stop-color="#c645ff"/>
      <stop offset="1" stop-color="#c645ff"/>
    </linearGradient>
    <linearGradient id="linear-gradient-2" x1="-1.425" y1="-0.028" x2="2.425" y2="-0.028" xlink:href="#linear-gradient"/>
  </defs>
  <path id="path1603" d="M82.031,228.559c-.866,1.355-1.634,2.831-2.46,2.74-3.986-1.355-4.76-3.28-8.337-4.676a3.93,3.93,0,0,0-2.338.539,4.167,4.167,0,0,0-1.518,1.719,9.857,9.857,0,0,0-.824,4.567,17.543,17.543,0,0,0,2.062,7.052,55.167,55.167,0,0,0,4.936,8.12A61.737,61.737,0,0,0,83.687,259.8c-6.91,4.6-14.452,13.26-21.028,23.863C54.822,296.3,48.638,311.6,48.7,325.913A31.367,31.367,0,0,0,53.9,343.565a20.138,20.138,0,0,0,16.838,8.819H121.68c6.5-.2,12.176-3.718,16.113-8.654a28.582,28.582,0,0,0,6.221-17.859c-.131-14.295-6.4-29.592-14.278-42.224a99.753,99.753,0,0,0-14.087-18.028c1.737.3,3.552.55,5.369.693,3.761.3,7.5.225,10.739-.979a8.953,8.953,0,0,0,6.015-8.258,7.212,7.212,0,0,0-2.338-5.417,9.421,9.421,0,0,0-5.1-2.058c-3.695-.482-7.922.22-12.035,1.3-1.275.334-2.515.714-3.729,1.111.825-1.287,1.631-2.615,2.391-3.989,3.316-5.995,5.856-12.408,5.856-17.832a2.706,2.706,0,0,0-1.7-2.518c-4.174-1.667-7.755-1.772-10.617-.8a14.7,14.7,0,0,0-6.279,4.517c-1.376,1.569-2.4,2.833-2.8,3.158-.037-.021,0,.041-.339-.3-2.353-2.349-3.647-6.479-6.2-9.538a6.52,6.52,0,0,0-2.56-1.957,5.152,5.152,0,0,0-1.83-.364c-3.889.408-6.716,3.864-8.464,6.176Zm15.214,9.522a6.34,6.34,0,0,0,3.5,1.957,5.235,5.235,0,0,0,3.655-.92c1.8-1.25,2.716-2.809,3.9-4.158A9.425,9.425,0,0,1,112.242,232c.978-.333,2.794.169,4.38.439a38.469,38.469,0,0,1-4.4,12.955c-4.522,8.087-13.341,16.409-22.53,12.094-3.363-2.1-8.128-7.021-11.76-12.056a50.12,50.12,0,0,1-4.438-7.279,14.01,14.01,0,0,1-1.539-4.92A1.377,1.377,0,0,1,72,233c.348.268.618.477,1.037.8,1.54,1.183,3.455,2.737,6.221,2.9a6.6,6.6,0,0,0,4.216-1.28c1.2-.889,2.1-2.741,3.255-4.025a31.723,31.723,0,0,1,3.57-3.587c.393.007,4.35,7.6,6.951,10.278Zm30.338,16.806c2.708-.235,4.508.74,4.772,2.185s-.573,2.469-2.481,3.179a21.981,21.981,0,0,1-8.437.64,72.236,72.236,0,0,1-10.114-1.74,56.168,56.168,0,0,1,8.358-3.015,56.732,56.732,0,0,1,7.9-1.248Zm-25.847,7.856a30.582,30.582,0,0,1-4.988,10.866,2.712,2.712,0,1,0,4.258,3.359c3.256-4.144,3.04-6.214,3.957-9.6a47.634,47.634,0,0,0,10.236,15.51c2.559,2.559,6.4-1.276,3.841-3.835a41.343,41.343,0,0,1-6.538-8.712,96.278,96.278,0,0,1,12.638,16.187c7.515,12.044,13.335,26.695,13.452,39.41a23.4,23.4,0,0,1-5.036,14.415c-3.153,3.953-7.395,6.478-12.035,6.618H70.737a14.217,14.217,0,0,1-12.4-6.5,26.428,26.428,0,0,1-4.216-14.574c-.059-12.7,5.668-27.328,13.135-39.368C74.317,275.137,83.13,266.13,88.8,263.076c3.8,1.512,8.238,1.063,12.934-.334Z" transform="translate(-48.704 -222.384)" fill="url(#linear-gradient)"/>
  <path id="path4408-9" d="M65.558,228.865a2.947,2.947,0,0,0-2.909,3v3.041c-5.8,1.119-10.5,5.437-10.5,11.148,0,6.659,6.367,11.43,13.453,11.43,4.513,0,7.56,2.811,7.56,5.537s-3.048,5.565-7.56,5.565-7.56-2.839-7.56-5.565c0-3.926-5.893-3.926-5.893,0,0,5.711,4.695,10.028,10.5,11.148v3.478c0,3.926,5.887,3.926,5.887,0v-3.473c5.814-1.113,10.521-5.435,10.521-11.154,0-6.659-6.367-11.43-13.453-11.43-4.513,0-7.56-2.811-7.56-5.537,0-2.6,2.795-5.823,7.557-5.826s7.564,3.22,7.564,5.826c0,3.926,5.893,3.926,5.893,0,0-5.719-4.707-10.042-10.521-11.154v-3.036a2.947,2.947,0,0,0-2.978-3Z" transform="translate(-17.948 -168.048)" fill="url(#linear-gradient-2)"/>
</svg>
