<svg id="quality" xmlns="http://www.w3.org/2000/svg" xmlns:xlink="http://www.w3.org/1999/xlink" width="130" height="129.998" viewBox="0 0 130 129.998">
  <defs>
    <linearGradient id="linear-gradient" x1="0.461" y1="1.387" x2="0.5" y2="-0.529" gradientUnits="objectBoundingBox">
      <stop offset="0" stop-color="#0069f7"/>
      <stop offset="0.112" stop-color="#3d5ef9"/>
      <stop offset="0.37" stop-color="#7753fc"/>
      <stop offset="0.627" stop-color="#a24cfe"/>
      <stop offset="0.802" stop-color="#bc47ff"/>
      <stop offset="0.892" stop-color="#c645ff"/>
      <stop offset="1" stop-color="#c645ff"/>
    </linearGradient>
  </defs>
  <path id="Path_8416" data-name="Path 8416" d="M133.446,91.06a42.408,42.408,0,1,0,42.408,42.408A42.456,42.456,0,0,0,133.446,91.06Zm0,77.105a34.7,34.7,0,1,1,34.7-34.7A34.737,34.737,0,0,1,133.446,168.165Z" transform="translate(-68.452 -68.469)" fill="url(#linear-gradient)"/>
  <path id="Path_8417" data-name="Path 8417" d="M204.343,197.15l-19.7,19.7L172.39,204.593a3.721,3.721,0,1,0-5.263,5.263l14.886,14.886a3.721,3.721,0,0,0,5.263,0l22.329-22.329a3.721,3.721,0,1,0-5.262-5.263Z" transform="translate(-123.372 -145.946)" fill="url(#linear-gradient)"/>
  <path id="Path_8418" data-name="Path 8418" d="M124.548,38.3l-13.3-7.961-2.982-12.352A11.374,11.374,0,0,0,96.281,9.284L81.14,10.456,72.4,2.744a11.377,11.377,0,0,0-14.815,0l-8.739,7.712L33.708,9.284a11.371,11.371,0,0,0-11.952,8.571L17.6,31.085,5.453,38.3A11.376,11.376,0,0,0,.875,52.394l5.18,12.554L.875,77.5a11.376,11.376,0,0,0,4.578,14.09L18.728,99.5l2.995,12.4A11.37,11.37,0,0,0,32.8,120.647c.8,0-.1.03,15.886-1.195l8.9,7.806a11.376,11.376,0,0,0,14.815,0l8.9-7.806,14.983,1.16a11.377,11.377,0,0,0,11.985-8.708l2.982-12.352c16.258-9.732,12.811-7.66,13.3-7.961a11.376,11.376,0,0,0,4.578-14.09l-5.18-12.554,5.18-12.554A11.376,11.376,0,0,0,124.548,38.3Zm-8.242,28.1,5.78,14.006a3.792,3.792,0,0,1-1.51,4.687l-14.609,8.745a3.807,3.807,0,0,0-1.746,2.373l-3.358,13.9a3.79,3.79,0,0,1-4,2.9l-16.582-1.283a3.81,3.81,0,0,0-2.805.934l-10.035,8.806a3.791,3.791,0,0,1-4.9,0l-10.035-8.806a3.808,3.808,0,0,0-2.805-.934L33.121,113.02a3.791,3.791,0,0,1-4-2.9l-3.371-13.96A3.808,3.808,0,0,0,24,93.78L9.422,85.092a3.792,3.792,0,0,1-1.507-4.685L13.695,66.4a3.806,3.806,0,0,0,0-2.905L7.914,49.489a3.792,3.792,0,0,1,1.505-4.684l13.327-7.917a3.807,3.807,0,0,0,1.688-2.133c4.911-15.659,4.634-14.74,4.691-14.976a3.787,3.787,0,0,1,4-2.9l16.746,1.3a3.808,3.808,0,0,0,2.813-.942l9.866-8.708a3.791,3.791,0,0,1,4.895,0l9.867,8.708a3.81,3.81,0,0,0,2.813.942l16.746-1.3a3.792,3.792,0,0,1,4,2.9l3.358,13.9a3.808,3.808,0,0,0,1.746,2.373L120.575,44.8a3.791,3.791,0,0,1,1.51,4.687L116.305,63.5A3.808,3.808,0,0,0,116.306,66.4Z" transform="translate(0 -0.003)" fill="url(#linear-gradient)"/>
</svg>
