<svg xmlns="http://www.w3.org/2000/svg" width="20" height="16.275" viewBox="0 0 20 16.275">
  <path id="_x30_4.Twitter" d="M29.9,19.425a8.411,8.411,0,0,1-2.35.65,4,4,0,0,0,1.8-2.275,8.634,8.634,0,0,1-2.6,1,4.1,4.1,0,0,0-7.1,2.8,3.749,3.749,0,0,0,.1.925,11.541,11.541,0,0,1-8.425-4.275,4.114,4.114,0,0,0,1.25,5.475,3.937,3.937,0,0,1-1.85-.5A4.143,4.143,0,0,0,14,27.3a4.5,4.5,0,0,1-1.85.075,4.117,4.117,0,0,0,3.825,2.85,8.26,8.26,0,0,1-6.075,1.7,11.65,11.65,0,0,0,17.95-9.8,3.692,3.692,0,0,0-.025-.525A8.138,8.138,0,0,0,29.9,19.425Z" transform="translate(-9.9 -17.5)" fill="#373a3f"/>
</svg>
