<svg xmlns="http://www.w3.org/2000/svg" xmlns:xlink="http://www.w3.org/1999/xlink" width="80.004" height="80" viewBox="0 0 80.004 80">
  <defs>
    <linearGradient id="linear-gradient" x1="0.5" x2="0.5" y2="1" gradientUnits="objectBoundingBox">
      <stop offset="0" stop-color="#0468f7"/>
      <stop offset="1" stop-color="#c645ff"/>
    </linearGradient>
    <clipPath id="clip-path">
      <rect id="Rectangle_4906" data-name="Rectangle 4906" width="80.004" height="80" fill="url(#linear-gradient)"/>
    </clipPath>
  </defs>
  <g id="Group_16333" data-name="Group 16333" clip-path="url(#clip-path)">
    <path id="Path_10384" data-name="Path 10384" d="M102.32,52.147c-1.553,0-2.983,0-4.414,0a2.392,2.392,0,0,1-2.481-1.63,2.324,2.324,0,0,1,.963-2.735q11.5-9.207,23-18.408a2.421,2.421,0,0,1,3.462-.011q11.474,9.171,22.934,18.358a2.445,2.445,0,0,1,1.019,2.868,2.471,2.471,0,0,1-2.618,1.559c-1.378,0-2.755,0-4.263,0v1.02q0,12.156,0,24.313c0,1.5-.559,2.378-1.74,2.718a3.38,3.38,0,0,1-.923.1q-16.141.007-32.282,0a2.411,2.411,0,0,1-2.654-2.667q-.005-12.235,0-24.469ZM114.051,75.57c0-3.844,0-7.6,0-11.347a2.415,2.415,0,0,1,2.7-2.7q4.26-.01,8.521,0c2.088,0,2.913.834,2.914,2.951q0,5.082,0,10.164c0,.3.025.6.038.908h6.9V52.194h-28V75.57Zm7.075-41.539L104.448,47.377H137.8L121.125,34.031M118.86,75.566h4.526V66.255H118.86Z" transform="translate(-75.996 -22.841)" fill="url(#linear-gradient)"/>
    <path id="Path_10385" data-name="Path 10385" d="M11.294,73.484c0,1.369.008,2.7,0,4.021a2.346,2.346,0,1,1-4.686,0C6.6,76.23,6.6,74.953,6.6,73.676a1.9,1.9,0,0,0-.057-.262c-1.368,0-2.763.013-4.158,0a2.339,2.339,0,0,1-.049-4.678c1.379-.028,2.76-.006,4.206-.006V8.018c-.823.81-1.582,1.568-2.353,2.314a2.347,2.347,0,0,1-2.484.7A2.3,2.3,0,0,1,.615,7.266C2.841,4.962,5.142,2.728,7.444.5a2.626,2.626,0,0,1,3.163.063c2.208,2.177,4.407,4.363,6.576,6.579a2.281,2.281,0,0,1-.007,3.242,2.313,2.313,0,0,1-3.3.077c-.827-.778-1.573-1.642-2.355-2.468l-.176.127V68.678H71.818l.137-.175c-.8-.764-1.639-1.495-2.4-2.3a2.334,2.334,0,0,1,1.1-3.952,2.2,2.2,0,0,1,2.222.622q3.29,3.288,6.535,6.62a2.6,2.6,0,0,1-.038,3.34q-3.213,3.254-6.468,6.466a2.347,2.347,0,1,1-3.3-3.342c.777-.805,1.6-1.567,2.529-2.473Z" transform="translate(0 0)" fill="url(#linear-gradient)"/>
  </g>
</svg>
