<svg id="Group_16330" data-name="Group 16330" xmlns="http://www.w3.org/2000/svg" xmlns:xlink="http://www.w3.org/1999/xlink" width="74.931" height="80" viewBox="0 0 74.931 80">
  <defs>
    <linearGradient id="linear-gradient" x1="0.5" x2="0.5" y2="1" gradientUnits="objectBoundingBox">
      <stop offset="0" stop-color="#0468f7"/>
      <stop offset="1" stop-color="#c645ff"/>
    </linearGradient>
    <clipPath id="clip-path">
      <rect id="Rectangle_4904" data-name="Rectangle 4904" width="74.931" height="80" fill="url(#linear-gradient)"/>
    </clipPath>
  </defs>
  <g id="Group_16329" data-name="Group 16329" clip-path="url(#clip-path)">
    <path id="Path_10369" data-name="Path 10369" d="M74.928,28.491V28.4c0-.094,0-.19,0-.284V23.657q0-5.364,0-10.728a5.4,5.4,0,0,0-5.706-5.744c-1.48-.015-2.933-.012-4.472-.008l-1.124,0c.007-.65.013-1.266-.015-1.9A5.133,5.133,0,0,0,60.367.448a5.022,5.022,0,0,0-5.515.913,5.182,5.182,0,0,0-1.775,4.126c0,.54,0,1.079,0,1.634h-.589V6.966l-1.081.142-.093.013H46.944c0-.162,0-.326.007-.5a12.455,12.455,0,0,0-.1-2.274A5.2,5.2,0,0,0,41.288.04a5.258,5.258,0,0,0-4.84,5.305c0,.593,0,1.187,0,1.775H30.311c0-.555,0-1.094,0-1.634a5.18,5.18,0,0,0-1.775-4.126A5.021,5.021,0,0,0,23.022.448a5.133,5.133,0,0,0-3.243,4.831c-.027.635-.022,1.251-.015,1.9l-1.124,0c-1.539,0-2.992-.007-4.472.008A5.4,5.4,0,0,0,8.462,12.93c0,9.194,0,22.018,0,32.378v5.345a15.538,15.538,0,0,0-5.977,5.361,13.541,13.541,0,0,0-1.952,4.38l-.006.021c-.135.506-.246,1.015-.353,1.508-.049.226-.1.451-.15.675L0,62.7v3.565l.027.112c.058.239.112.48.166.729,0,.119,0,.237,0,.357v.178l.323.836c.059.215.118.4.178.58a15.432,15.432,0,0,0,7.148,8.922l.072.04c.188.1.38.2.567.294a16.472,16.472,0,0,0,4.035,1.373c.238.051.478.1.71.141.02.005.075.028.116.045.059.024.118.048.177.069L13.68,80h3.7l.157-.056c.059-.021.118-.045.177-.069l.1-.042c.244-.044.484-.092.713-.142a16.479,16.479,0,0,0,4.037-1.372c.194-.1.386-.194.582-.3l.052-.029a14.844,14.844,0,0,0,6.3-6.814c.151-.286.175-.32.6-.315,11.977.022,24.153.019,35.93.017h3.058a5.448,5.448,0,0,0,5.837-5.786q0-18.3,0-36.6M19.777,12.727a5.357,5.357,0,0,0,4.71,5.186,5.193,5.193,0,0,0,5.631-3.938,12.253,12.253,0,0,0,.222-2.29c0-.029,0-.059,0-.088h6.1c0,.378,0,.752,0,1.126a5.218,5.218,0,0,0,5.259,5.206h.022a5.212,5.212,0,0,0,5.213-5.186c.005-.385.005-.771,0-1.167h.446l.015.021h5.639c0,.029,0,.058,0,.088a12.243,12.243,0,0,0,.222,2.291A5.2,5.2,0,0,0,58.9,17.912a5.356,5.356,0,0,0,4.71-5.186c.016-.4.016-.785.012-1.186H64.69c1.551,0,3.064,0,4.578,0,1,0,1.289.293,1.3,1.289.015,1.5.011,3.021.007,4.5l0,1.2H12.817l0-1.184c0-1.478-.009-3.007.007-4.507.01-1,.3-1.285,1.3-1.289,1.513-.006,3.027,0,4.578,0h1.067c0,.4,0,.789.012,1.186M57.425,7.893c0-.811,0-1.65,0-2.472.005-.466.16-1.024.871-1.041a.921.921,0,0,1,.674.22,1.1,1.1,0,0,1,.269.776c.023,2.366.023,4.79,0,7.206a.916.916,0,0,1-.9,1.034.838.838,0,0,1-.6-.231,1.176,1.176,0,0,1-.318-.842c-.01-.819-.007-1.655,0-2.464q0-.549,0-1.1t0-1.09m-16.68,0c0-.772-.005-1.571.005-2.352.007-.526.175-1.154.932-1.16h.011c.814,0,.942.7.945,1.114.019,2.347.019,4.694,0,6.975a1.267,1.267,0,0,1-.334.908.839.839,0,0,1-.615.238c-.681-.009-.931-.647-.938-1.19-.011-.8-.008-1.619-.006-2.41q0-.536,0-1.072t0-1.052M24.415,4.6a.916.916,0,0,1,.674-.22c.71.017.865.575.871,1.041.009.821.007,1.66,0,2.472q0,.545,0,1.09t0,1.075c0,.816,0,1.66,0,2.485a1.176,1.176,0,0,1-.318.842.817.817,0,0,1-.584.231h-.015a.917.917,0,0,1-.9-1.034c-.023-2.414-.023-4.838,0-7.206h0a1.1,1.1,0,0,1,.27-.777m6.624,58c-.051-.225-.1-.45-.15-.675-.108-.493-.219-1-.353-1.506l0-.015a13.542,13.542,0,0,0-1.945-4.374,15.74,15.74,0,0,0-7.579-6.083c-.065-.032-.132-.061-.2-.09s-.167-.06-.251-.086l-.092-.029A15.2,15.2,0,0,0,16.972,49l-.073-.007c-.218-.019-.435-.035-.651-.045l-.207-.007h-.049c-.154,0-.311-.007-.46-.008s-.308,0-.465.008h-.046l-.206.007c-.217.01-.435.025-.671.046L14.1,49c-.428.04-.857.1-1.282.174,0-6.528,0-15.97,0-22.963V22.9H70.573v.078q0,9.761,0,19.523l0,.293q0,11.065,0,22.131h0c0,1.39-.189,1.582-1.553,1.583H31c.01-.043.02-.086.031-.129l.027-.112V62.7ZM15.832,75.7c-.08,0-.159,0-.238,0h-.126c-.079,0-.158,0-.242,0l-.143-.007a10.128,10.128,0,0,1-1.595-.2,12.44,12.44,0,0,1-2.571-.829A11.059,11.059,0,0,1,4.358,64.014,11.161,11.161,0,0,1,7.1,57.082a11.451,11.451,0,0,1,4.563-3.127l.5-.131a17.7,17.7,0,0,1,2-.449,9.349,9.349,0,0,1,2.742,0,17.665,17.665,0,0,1,2,.449l.5.131a11.451,11.451,0,0,1,4.563,3.127A11.157,11.157,0,0,1,26.7,64.011a11.059,11.059,0,0,1-6.548,10.652,12.461,12.461,0,0,1-2.582.834,10.1,10.1,0,0,1-1.592.2Z" transform="translate(0 0)" fill="url(#linear-gradient)"/>
    <path id="Path_10370" data-name="Path 10370" d="M61.78,269.855a4.122,4.122,0,0,0-3.286-3.359c-.388-.071-.8-.04-1.178-.139a1.678,1.678,0,0,1-1.232-2.086,1.7,1.7,0,0,1,2.131-1.164,1.627,1.627,0,0,1,1.206,1.507c.107.891.683,1.416,1.374,1.312.729-.11,1.1-.706,1.021-1.616a3.383,3.383,0,0,0-1.646-2.847,2.069,2.069,0,0,1-1.28-2.342c.067-.659-.421-1.057-1.1-1.1a1.134,1.134,0,0,0-1.243,1.066c-.036.395.037.8-.03,1.189a.981.981,0,0,1-.4.638,4.125,4.125,0,0,0,1.606,7.924,1.718,1.718,0,0,1,1.683,1.5,1.692,1.692,0,1,1-3.369.277c-.121-.836-.656-1.343-1.339-1.267a1.248,1.248,0,0,0-1.065,1.428,3.4,3.4,0,0,0,1.449,2.872,2.456,2.456,0,0,1,1.5,2.635c-.072.615.521,1.016,1.206.981a1.1,1.1,0,0,0,1.111-1.035,3.209,3.209,0,0,0,.011-.794,1.071,1.071,0,0,1,.726-1.268,3.96,3.96,0,0,0,2.138-4.31" transform="translate(-42.206 -203.163)" fill="url(#linear-gradient)"/>
    <path id="Path_10371" data-name="Path 10371" d="M149.091,146.724c1.323.029,2.648.027,3.971,0a2.068,2.068,0,0,0,2.2-2.188c.018-.661,0-1.324,0-1.986s.015-1.324,0-1.986a2.049,2.049,0,0,0-2.13-2.177c-1.349-.041-2.7-.037-4.05,0a2.008,2.008,0,0,0-2.147,2.069c-.053,1.4-.054,2.808,0,4.209a2.007,2.007,0,0,0,2.155,2.06m.335-5.843h3.358v3.331h-3.358Z" transform="translate(-115.665 -108.944)" fill="url(#linear-gradient)"/>
    <path id="Path_10372" data-name="Path 10372" d="M205.958,144.542a2.054,2.054,0,0,0,2.139,2.167q2.024.051,4.05,0a1.984,1.984,0,0,0,2.128-2c.065-1.453.064-2.913,0-4.366a1.935,1.935,0,0,0-1.993-1.961c-1.427-.056-2.86-.056-4.288,0a2.022,2.022,0,0,0-2.031,2.107c-.025.688,0,1.377,0,2.065,0,.662-.016,1.324,0,1.986m2.476-3.663H211.8v3.337h-3.365Z" transform="translate(-162.164 -108.931)" fill="url(#linear-gradient)"/>
    <path id="Path_10373" data-name="Path 10373" d="M90.169,146.71c1.375.043,2.754.039,4.129,0a2.028,2.028,0,0,0,2.115-2.176c.011-.662,0-1.324,0-1.986s.008-1.324,0-1.985a2.024,2.024,0,0,0-2.106-2.185c-1.375-.043-2.754-.045-4.129,0a1.972,1.972,0,0,0-2.059,2.134c-.025,1.376-.028,2.754.005,4.13a1.956,1.956,0,0,0,2.045,2.063m.418-5.827h3.385v3.354H90.586Z" transform="translate(-69.369 -108.936)" fill="url(#linear-gradient)"/>
    <path id="Path_10374" data-name="Path 10374" d="M267.063,146.7c1.4.046,2.807.045,4.208,0a1.965,1.965,0,0,0,2.032-2.078c.025-.687,0-1.376.006-2.065s.019-1.377,0-2.065a1.96,1.96,0,0,0-2-2.111c-1.427-.058-2.86-.057-4.287,0a1.988,1.988,0,0,0-2.008,2.113c-.017,1.35-.015,2.7,0,4.05a2.01,2.01,0,0,0,2.051,2.156m.4-5.845h3.4v3.336h-3.4Z" transform="translate(-208.662 -108.929)" fill="url(#linear-gradient)"/>
    <path id="Path_10375" data-name="Path 10375" d="M153.2,243.017c-.688-.012-1.377,0-2.065,0s-1.377-.01-2.065,0a1.893,1.893,0,0,0-2.059,1.86,43.523,43.523,0,0,0,.011,4.6,1.871,1.871,0,0,0,2.022,1.81c1.376.014,2.753.011,4.13,0a1.967,1.967,0,0,0,2.124-1.981c.051-1.428.047-2.86,0-4.288a1.969,1.969,0,0,0-2.1-2m-.375,5.863h-3.354v-3.43h3.354Z" transform="translate(-115.711 -191.347)" fill="url(#linear-gradient)"/>
    <path id="Path_10376" data-name="Path 10376" d="M153.171,190.7c-.688-.016-1.377,0-2.065,0s-1.377-.015-2.065,0a1.941,1.941,0,0,0-2.051,1.891,44.755,44.755,0,0,0,0,4.522,1.878,1.878,0,0,0,2.044,1.879c1.4.031,2.806.033,4.209,0A1.945,1.945,0,0,0,155.281,197c.047-1.428.047-2.86,0-4.288a2.008,2.008,0,0,0-2.11-2.017m-.377,5.855h-3.347v-3.409h3.347Z" transform="translate(-115.696 -150.148)" fill="url(#linear-gradient)"/>
    <path id="Path_10377" data-name="Path 10377" d="M208,251.273c.688.011,1.377,0,2.065,0s1.377.007,2.065,0a1.9,1.9,0,0,0,2.072-1.846,42.788,42.788,0,0,0,0-4.6A1.862,1.862,0,0,0,212.192,243q-2.1-.027-4.209,0a1.948,1.948,0,0,0-2.065,1.956c-.05,1.454-.053,2.913,0,4.367A1.961,1.961,0,0,0,208,251.273m.38-5.842h3.37v3.416h-3.37Z" transform="translate(-162.111 -191.332)" fill="url(#linear-gradient)"/>
    <path id="Path_10378" data-name="Path 10378" d="M207.953,198.975c.714.03,1.429.006,2.144.007.688,0,1.377.022,2.065,0a1.887,1.887,0,0,0,2.05-1.875,43.528,43.528,0,0,0,0-4.522,1.949,1.949,0,0,0-2.124-1.9c-1.35-.015-2.7-.018-4.05,0a2,2,0,0,0-2.117,2.007q-.069,2.142,0,4.288a1.961,1.961,0,0,0,2.031,2m.44-5.832h3.361v3.4h-3.361Z" transform="translate(-162.117 -150.134)" fill="url(#linear-gradient)"/>
    <path id="Path_10379" data-name="Path 10379" d="M266.858,198.93c1.506.049,3.017.05,4.524,0a1.865,1.865,0,0,0,1.888-1.94c.034-.713.006-1.429.006-2.143h-.007c0-.767.033-1.536-.008-2.3a1.908,1.908,0,0,0-1.88-1.881c-1.481-.044-2.964-.042-4.446,0A1.941,1.941,0,0,0,265,192.588q-.058,2.221,0,4.446a1.892,1.892,0,0,0,1.862,1.9m.57-5.819h3.389V196.5h-3.389Z" transform="translate(-208.637 -150.107)" fill="url(#linear-gradient)"/>
    <path id="Path_10380" data-name="Path 10380" d="M96.424,192.719a1.984,1.984,0,0,0-1.979-2.054q-2.182-.054-4.366,0a1.909,1.909,0,0,0-1.93,1.914q-.064,2.221,0,4.445a1.856,1.856,0,0,0,1.912,1.915q2.181.066,4.366.006a1.961,1.961,0,0,0,2-2.1c.014-.688,0-1.376,0-2.064s.015-1.377,0-2.064M93.96,196.5H90.584v-3.388H93.96Z" transform="translate(-69.384 -150.109)" fill="url(#linear-gradient)"/>
    <path id="Path_10381" data-name="Path 10381" d="M266.939,251.281c1.482.024,2.964.026,4.445,0a1.845,1.845,0,0,0,1.861-1.8c.051-1.559.051-3.122,0-4.681a1.843,1.843,0,0,0-1.872-1.78c-.74-.026-1.482,0-2.222,0v0c-.715,0-1.429-.013-2.143,0a1.944,1.944,0,0,0-2.015,1.916q-.058,2.221,0,4.445a1.928,1.928,0,0,0,1.946,1.9m.478-5.834h3.391v3.4h-3.391Z" transform="translate(-208.633 -191.345)" fill="url(#linear-gradient)"/>
  </g>
</svg>
