<svg id="Group_16332" data-name="Group 16332" xmlns="http://www.w3.org/2000/svg" xmlns:xlink="http://www.w3.org/1999/xlink" width="79.963" height="80" viewBox="0 0 79.963 80">
  <defs>
    <linearGradient id="linear-gradient" x1="0.5" x2="0.5" y2="1" gradientUnits="objectBoundingBox">
      <stop offset="0" stop-color="#0468f7"/>
      <stop offset="1" stop-color="#c645ff"/>
    </linearGradient>
    <clipPath id="clip-path">
      <rect id="Rectangle_4905" data-name="Rectangle 4905" width="79.963" height="80" fill="url(#linear-gradient)"/>
    </clipPath>
  </defs>
  <g id="Group_16331" data-name="Group 16331" clip-path="url(#clip-path)">
    <path id="Path_10382" data-name="Path 10382" d="M97.784,27.054a2,2,0,0,1-2.043,1.106c-4.425-.035-8.85-.007-13.275-.027a1.2,1.2,0,0,0-1.089.544,12.636,12.636,0,0,1-7.648,5.146,6.167,6.167,0,0,1-2.011.155,1.894,1.894,0,0,0-1.748.719q-7.3,7.336-14.623,14.641c-1.224,1.224-1.978,1.216-3.219-.024L23.412,20.606c-1.322-1.322-1.32-1.916.013-3.249Q31.653,9.13,39.881.9C41.09-.3,41.749-.3,42.966.915c1.454,1.454,2.92,2.9,4.352,4.372a.917.917,0,0,0,1.145.268c2.558-.936,5.1-1.922,7.709-2.707a11.623,11.623,0,0,1,8.516.726c3.467,1.654,6.847,3.491,10.243,5.289a9.858,9.858,0,0,0,4.406,1.329c.445-1.782.706-1.982,2.526-1.984q1.6,0,3.2-.014a1.82,1.82,0,0,0,.281-.075c0-.338-.018-.716,0-1.091a1.576,1.576,0,0,1,1.722-1.691c2.993-.015,5.987.013,8.98-.019a2.126,2.126,0,0,1,1.733.965ZM50.249,8.223c1.873,1.865,3.608,3.619,5.38,5.335a3.4,3.4,0,0,0,1.236.732c1.594.547,3.207,1.037,4.814,1.547,1.83.581,3.665,1.143,5.488,1.745A1.553,1.553,0,0,1,68.261,19.6a1.6,1.6,0,0,1-2.016,1c-.2-.05-.394-.131-.591-.194q-6.6-2.087-13.209-4.169a2.867,2.867,0,0,0-3.192.852,2.811,2.811,0,0,0-.568,3.048A4.145,4.145,0,0,0,51.5,22.521c3.857,1.308,7.72,2.594,11.562,3.943a3.718,3.718,0,0,1,1.47,1.049,8.957,8.957,0,0,0,8.963,3.109c2.578-.517,4.364-2.307,5.79-4.443a1.262,1.262,0,0,0,.153-.666c.009-3.825,0-7.649.015-11.474,0-.481-.126-.706-.641-.736A12.843,12.843,0,0,1,73.5,11.668c-3.3-1.756-6.6-3.5-9.95-5.166a8.65,8.65,0,0,0-6.228-.681c-2.343.646-4.614,1.554-7.073,2.4m12.79,28.865c-1.679-2.9-1.908-3.954-1.667-7.44.012-.169-.088-.464-.2-.505-1.629-.578-3.27-1.122-4.938-1.685-.129.355-.221.622-.321.885A8.914,8.914,0,1,1,45.214,16.581a1.7,1.7,0,0,0,1.115-.83,5.572,5.572,0,0,1,2.686-2.292c.461-.2.943-.344,1.376-.5L47.149,9.732a10.038,10.038,0,0,1-11.434.032l-3.557,3.547a10.049,10.049,0,0,1,.01,11.355l15.887,15.9a10,10,0,0,1,11.463.044l3.522-3.517M94.632,8.506H88.584V24.982h6.048ZM45.345,19.914a5.558,5.558,0,0,0-3.5,5.578,5.671,5.671,0,0,0,5.043,5.365A5.761,5.761,0,0,0,53.046,27c.151-.471.036-.648-.418-.775-.648-.181-1.273-.442-1.915-.648a7.222,7.222,0,0,1-5.368-5.663m37.326,5.067h2.623V11.438H82.671ZM29.786,22.446a6.4,6.4,0,0,0,.015-6.863l-3.455,3.429,3.44,3.434M53.7,46.273l3.387-3.386c-1.71-1.31-5.367-1.191-6.707.066l3.32,3.319M41.291,3.884c-.559.582-1.108,1.172-1.677,1.743s-1.138,1.1-1.726,1.663c2.026,1.4,5.309,1.378,6.894.079L41.291,3.884m23.917,30.87,1.783-1.618-2.757-1.474.975,3.092" transform="translate(-17.821 0)" fill="url(#linear-gradient)"/>
    <path id="Path_10383" data-name="Path 10383" d="M36.857,267.651a10.458,10.458,0,0,1-1.708-.432c-2.659-1.162-5.322-2.321-7.938-3.577-1.567-.752-3.051-1.677-4.569-2.53a9.292,9.292,0,0,0-4.2-1.232,6.335,6.335,0,0,1-.354,1.205,1.541,1.541,0,0,1-1.509.778c-1.348-.008-2.7,0-4.142,0,0,.451.019.833,0,1.213a1.584,1.584,0,0,1-1.658,1.7q-4.567.053-9.136,0C.533,264.755,0,264.091,0,262.923q0-9.565,0-19.131c0-1.31.579-1.879,1.925-1.881q6.676-.007,13.353.008a1.275,1.275,0,0,0,1.159-.565c1.97-2.571,4.393-4.574,7.678-5.082a12.2,12.2,0,0,1,11.178,3.84,3.185,3.185,0,0,0,1.192.792q5.185,1.8,10.4,3.517a7.738,7.738,0,0,1,5.278,4.651c2.75-.76,5.465-1.526,8.19-2.257,1.652-.443,3.3-.939,4.982-1.221a6.122,6.122,0,0,1,5.446,10.087,8.537,8.537,0,0,1-3.63,2.471c-7.725,2.749-15.439,5.53-23.165,8.276-1.313.467-2.668.818-4,1.222ZM18.338,256.58a32.62,32.62,0,0,1,3.4.748,21.931,21.931,0,0,1,3.04,1.375c3.1,1.585,6.162,3.233,9.272,4.791a8.942,8.942,0,0,0,5.754.888,21.677,21.677,0,0,0,3.2-.941q11.586-4.124,23.16-8.283a4.744,4.744,0,0,0,2.551-1.952,2.936,2.936,0,0,0-2.3-4.485,6.154,6.154,0,0,0-1.924.207c-3.806,1.028-7.6,2.107-11.4,3.142a1.249,1.249,0,0,0-.977.93,6.007,6.007,0,0,1-6.972,4.01c-1.742-.38-3.431-1.011-5.137-1.548q-4.639-1.46-9.271-2.947a1.566,1.566,0,0,1-1.128-2.232,1.653,1.653,0,0,1,2.206-.72q6.492,2.054,12.982,4.116a7.127,7.127,0,0,0,1.206.3,2.99,2.99,0,0,0,3.275-3.4c-.3-1.747-1.568-2.541-3.09-3.059-3.832-1.3-7.672-2.582-11.492-3.921a3.538,3.538,0,0,1-1.406-1A9.061,9.061,0,0,0,24.7,239.37c-2.542.37-4.353,2-5.817,4a2.869,2.869,0,0,0-.521,1.555c-.047,3.252-.024,6.5-.024,9.758v1.9M3.164,261.551H9.2V245.133H3.164ZM15.127,245.16H12.486v13.512h2.641Z" transform="translate(0 -187.651)" fill="url(#linear-gradient)"/>
  </g>
</svg>
