<svg xmlns="http://www.w3.org/2000/svg" width="25.787" height="20.857" viewBox="0 0 25.787 20.857">
  <g id="open-book" transform="translate(0 -28.39)">
    <g id="Group_15864" data-name="Group 15864" transform="translate(0 28.39)">
      <path id="Path_9948" data-name="Path 9948" d="M24.922,31.21H23.114V29.339a.865.865,0,0,0-.737-.856,13.287,13.287,0,0,0-3.955.119A8.884,8.884,0,0,0,12.894,31.7,8.885,8.885,0,0,0,7.366,28.6a13.291,13.291,0,0,0-3.955-.119.865.865,0,0,0-.737.856V31.21H.865A.865.865,0,0,0,0,32.075V48.382a.865.865,0,0,0,1.15.817c.065-.022,6.549-2.235,11.384-.03a.865.865,0,0,0,.718,0c4.822-2.2,11.32.008,11.384.03a.865.865,0,0,0,1.15-.817V32.075A.866.866,0,0,0,24.922,31.21ZM1.731,47.224V32.941h.942V44.465a.866.866,0,0,0,.992.856,10.449,10.449,0,0,1,6.553,1.361A21.068,21.068,0,0,0,1.731,47.224Zm10.3-1.322a9.324,9.324,0,0,0-4.663-2.174,13.58,13.58,0,0,0-2.412-.212c-.2,0-.383,0-.55.011V30.133h0c1.663-.075,5.709.1,7.625,3.35Zm1.731-12.418c1.909-3.234,5.961-3.42,7.625-3.348V43.526a13.717,13.717,0,0,0-2.962.2A9.323,9.323,0,0,0,13.759,45.9V33.484Zm1.807,13.2a10.448,10.448,0,0,1,6.555-1.362.865.865,0,0,0,.994-.856V32.941h.942V47.224A21.064,21.064,0,0,0,15.566,46.682Z" transform="translate(0 -28.39)"/>
    </g>
  </g>
</svg>
