<svg id="Group_17846" data-name="Group 17846" xmlns="http://www.w3.org/2000/svg" xmlns:xlink="http://www.w3.org/1999/xlink" width="16" height="20" viewBox="0 0 16 20">
  <defs>
    <clipPath id="clip-path">
      <rect id="Rectangle_5474" data-name="Rectangle 5474" width="16" height="20" fill="none"/>
    </clipPath>
  </defs>
  <g id="Group_17845" data-name="Group 17845" clip-path="url(#clip-path)">
    <path id="Path_11045" data-name="Path 11045" d="M0,10q0-4,0-8A1.865,1.865,0,0,1,1.963,0Q8,0,14.037,0A1.866,1.866,0,0,1,16,2q0,7.985,0,15.969A1.869,1.869,0,0,1,14.015,20Q8,20,1.986,20A1.87,1.87,0,0,1,0,17.975Q0,13.988,0,10m1.236,0q0,3.987,0,7.973c0,.551.219.772.768.772H14.033a.638.638,0,0,0,.731-.719q0-8,0-15.991c0-.558-.216-.784-.756-.784H2c-.547,0-.764.222-.764.775q0,3.987,0,7.973" transform="translate(0 -0.001)"/>
    <path id="Path_11046" data-name="Path 11046" d="M74.523,69.584h4.2a.634.634,0,0,1,.718.728q0,.517,0,1.033c0,.508-.23.742-.728.742H70.531c-.1,0-.192,0-.288,0a.616.616,0,0,1-.639-.652c0-.389,0-.779,0-1.168a.618.618,0,0,1,.672-.683q2.123,0,4.246,0" transform="translate(-66.523 -66.457)"/>
    <path id="Path_11047" data-name="Path 11047" d="M152.936,334.826c0-.2,0-.4,0-.606a.615.615,0,0,1,.614-.632q.618-.015,1.237,0a.611.611,0,0,1,.61.635q.01.617,0,1.234a.611.611,0,0,1-.614.632q-.618.014-1.237,0a.61.61,0,0,1-.611-.633c-.006-.209,0-.419,0-.628" transform="translate(-146.169 -318.592)"/>
    <path id="Path_11048" data-name="Path 11048" d="M155.371,168.018c0,.2,0,.4,0,.606a.612.612,0,0,1-.612.633q-.618.015-1.237,0a.608.608,0,0,1-.613-.63c-.006-.411-.007-.823,0-1.234a.608.608,0,0,1,.611-.634q.618-.017,1.237,0a.612.612,0,0,1,.614.632c.006.209,0,.419,0,.628" transform="translate(-146.138 -159.257)"/>
    <path id="Path_11049" data-name="Path 11049" d="M70.769,169.264c-.2,0-.4.007-.6,0a.607.607,0,0,1-.609-.632q-.009-.617,0-1.234a.6.6,0,0,1,.609-.633q.618-.016,1.237,0a.6.6,0,0,1,.61.633q.013.617,0,1.234a.609.609,0,0,1-.631.634c-.206.006-.412,0-.618,0h0" transform="translate(-66.481 -159.262)"/>
    <path id="Path_11050" data-name="Path 11050" d="M238.8,168.024c0,.2,0,.4,0,.606a.6.6,0,0,1-.606.635q-.629.015-1.259,0a.589.589,0,0,1-.587-.582c-.015-.441-.014-.882,0-1.323a.593.593,0,0,1,.6-.591q.618-.016,1.237,0a.606.606,0,0,1,.613.629c.005.209,0,.419,0,.628" transform="translate(-225.879 -159.266)"/>
    <path id="Path_11051" data-name="Path 11051" d="M72.017,334.885c0,.209.007.419,0,.628a.605.605,0,0,1-.608.612q-.618.015-1.237,0a.606.606,0,0,1-.611-.632q-.01-.617,0-1.234a.609.609,0,0,1,.63-.636q.607-.01,1.215,0a.606.606,0,0,1,.61.609c.009.216,0,.434,0,.651" transform="translate(-66.478 -318.628)"/>
    <path id="Path_11052" data-name="Path 11052" d="M238.807,334.837c0,.209.005.419,0,.628a.6.6,0,0,1-.6.618q-.629.016-1.259,0a.6.6,0,0,1-.593-.6c-.011-.426-.011-.853,0-1.279a.6.6,0,0,1,.6-.618c.419-.011.84-.012,1.259,0a.6.6,0,0,1,.593.625c0,.209,0,.419,0,.628h0" transform="translate(-225.888 -318.586)"/>
    <path id="Path_11053" data-name="Path 11053" d="M154.083,252.777c-.2,0-.4,0-.6,0a.606.606,0,0,1-.627-.615q-.017-.639,0-1.279a.6.6,0,0,1,.595-.6q.629-.015,1.259,0a.6.6,0,0,1,.606.612c.009.419.009.838,0,1.256a.606.606,0,0,1-.618.624c-.206.007-.412,0-.618,0" transform="translate(-146.089 -239.03)"/>
    <path id="Path_11054" data-name="Path 11054" d="M70.813,252.775c-.206,0-.412.006-.618,0a.6.6,0,0,1-.608-.63q-.008-.605,0-1.211a.608.608,0,0,1,.632-.653q.6-.01,1.192,0a.6.6,0,0,1,.631.632q.013.617,0,1.234a.6.6,0,0,1-.632.63c-.2,0-.4,0-.6,0" transform="translate(-66.504 -239.028)"/>
    <path id="Path_11055" data-name="Path 11055" d="M236.4,251.537c0-.209-.005-.419,0-.628a.607.607,0,0,1,.626-.637c.4-.007.81-.008,1.214,0a.6.6,0,0,1,.615.624c.007.419.008.837,0,1.256a.594.594,0,0,1-.6.613c-.419.009-.839.009-1.259,0a.591.591,0,0,1-.593-.6c-.01-.209,0-.419,0-.628h0" transform="translate(-225.942 -239.021)"/>
  </g>
</svg>
