<svg xmlns="http://www.w3.org/2000/svg" width="15" height="20" viewBox="0 0 15.506 25">
  <g id="Path_8321" data-name="Path 8321" transform="translate(-7.323 -2)" fill="none">
    <path d="M22.416,12.077,10.237,26.692a.9.9,0,0,1-1.528-.872l4.04-11.313H9.1a1.8,1.8,0,0,1-1.649-2.475L11.178,3.1A1.782,1.782,0,0,1,12.827,2h4.939a1.8,1.8,0,0,1,1.515,2.734L16.523,9.147h4.52a1.787,1.787,0,0,1,1.372,2.93Z" stroke="none"/>
    <path d="M 12.82314682006836 3.749996185302734 C 12.81027793884277 3.749996185302734 12.79877662658691 3.75767707824707 12.79289817810059 3.77183723449707 L 9.076314926147461 12.6919994354248 C 9.071229934692383 12.70637702941895 9.073175430297852 12.72232055664062 9.081666946411133 12.73506736755371 C 9.090120315551758 12.74775695800781 9.103963851928711 12.75568580627441 9.119075775146484 12.75661659240723 L 15.23324775695801 12.75661659240723 L 11.97918319702148 21.86753845214844 L 21.0710277557373 10.95676612854004 C 21.08008766174316 10.94588661193848 21.08205795288086 10.93057632446289 21.07604789733887 10.9177360534668 C 21.07004737854004 10.90492630004883 21.0570182800293 10.89663696289062 21.0433464050293 10.89663696289062 L 13.36598777770996 10.89663696289062 L 17.78714752197266 3.821403503417969 C 17.79476165771484 3.806938171386719 17.79463958740234 3.7894287109375 17.78665733337402 3.775026321411133 C 17.77866744995117 3.760599136352539 17.76387214660645 3.75120735168457 17.74755668640137 3.749996185302734 L 12.82314682006836 3.749996185302734 M 12.82314682006836 1.999992370605469 C 12.82437896728516 1.999992370605469 12.8255443572998 1.999994277954102 12.8267765045166 1.999996185302734 L 17.76580810546875 1.999996185302734 C 18.41188812255859 2.007846832275391 19.00411605834961 2.361597061157227 19.31731796264648 2.926746368408203 C 19.63050842285156 3.491886138916016 19.61654663085938 4.181587219238281 19.28071784973145 4.733587265014648 L 16.52309799194336 9.146636962890625 L 21.0433464050293 9.146636962890625 C 21.7364387512207 9.146825790405273 22.36688804626465 9.547845840454102 22.66084671020508 10.17550659179688 C 22.9548168182373 10.80316734313965 22.85925674438477 11.5442066192627 22.41568756103516 12.07675743103027 L 22.4161376953125 12.07675743103027 L 10.23709678649902 26.69163703918457 C 9.956439971923828 27.01434516906738 9.486955642700195 27.09399795532227 9.115568161010742 26.88191604614258 C 8.744176864624023 26.66982650756836 8.574197769165039 26.22501754760742 8.709497451782227 25.81930732727051 L 12.74994659423828 14.50661659240723 L 9.104267120361328 14.50661659240723 C 8.509098052978516 14.5007266998291 7.95539665222168 14.20076656341553 7.625356674194336 13.70545673370361 C 7.295328140258789 13.2101469039917 7.231706619262695 12.58363723754883 7.455448150634766 12.03209686279297 L 11.1775074005127 3.098787307739258 C 11.45359420776367 2.433515548706055 12.10309028625488 1.999992370605469 12.82314682006836 1.999992370605469 Z" stroke="none" fill="#120638"/>
  </g>
</svg>
