<svg xmlns="http://www.w3.org/2000/svg" width="25.008" height="25.008" viewBox="0 0 25.008 25.008">
  <path id="home_8_" data-name="home (8)" d="M24.722,11.813,13.195.286a.977.977,0,0,0-1.381,0L.286,11.813a.977.977,0,0,0,1.381,1.382l.254-.254v11.09a.977.977,0,0,0,.977.977H22.11a.977.977,0,0,0,.977-.977V12.941l.253.254a.977.977,0,0,0,1.382-1.382ZM15.369,23.054H9.639V17.323h5.731Zm5.764,0h-3.81V16.346a.977.977,0,0,0-.977-.977H8.662a.977.977,0,0,0-.977.977v6.708H3.875V10.987L12.5,2.358l8.629,8.629Zm0,0" fill="#fff"/>
</svg>
