<svg xmlns="http://www.w3.org/2000/svg" width="20.387" height="26.764" viewBox="0 0 20.387 26.764">
  <g id="guru" transform="translate(-61)">
    <path id="Path_9949" data-name="Path 9949" d="M75.375,104.114H74.068v-.957a1.311,1.311,0,0,1,.62-1.108,6.534,6.534,0,1,0-6.991,0,1.311,1.311,0,0,1,.62,1.108v.957H67.011A6.018,6.018,0,0,0,61,110.125v1.15a.784.784,0,0,0,.784.784H80.6a.784.784,0,0,0,.784-.784v-1.15A6.018,6.018,0,0,0,75.375,104.114Zm-9.148-7.58a4.966,4.966,0,1,1,7.622,4.191,2.881,2.881,0,0,0-1.282,1.821h-.59V98.427l1.339-1.339a.784.784,0,0,0-1.109-1.109l-1.014,1.014L70.18,95.98a.784.784,0,0,0-1.109,1.109l1.339,1.339v4.118h-.59a2.881,2.881,0,0,0-1.282-1.821A4.94,4.94,0,0,1,66.227,96.534Zm6.273,7.58v.784a1.307,1.307,0,1,1-2.614,0v-.784Zm7.318,6.377H62.568v-.366a4.448,4.448,0,0,1,4.443-4.443h1.416a2.874,2.874,0,0,0,5.531,0h1.416a4.448,4.448,0,0,1,4.443,4.443Z" transform="translate(0 -85.295)" fill="#120638"/>
    <path id="Path_9950" data-name="Path 9950" d="M241.784,3.136a.784.784,0,0,0,.784-.784V.784a.784.784,0,1,0-1.568,0V2.352A.784.784,0,0,0,241.784,3.136Z" transform="translate(-170.591)" fill="#120638"/>
    <path id="Path_9951" data-name="Path 9951" d="M141.887,29.327a.784.784,0,0,0,1.358-.784l-.784-1.358a.784.784,0,0,0-1.358.784Z" transform="translate(-75.816 -25.392)" fill="#120638"/>
    <path id="Path_9952" data-name="Path 9952" d="M68.185,101.461l1.358.784a.784.784,0,0,0,.784-1.358l-1.358-.784a.784.784,0,0,0-.784,1.358Z" transform="translate(-6.438 -94.771)" fill="#120638"/>
    <path id="Path_9953" data-name="Path 9953" d="M388.327,101.958a.784.784,0,0,0,1.071.287l1.358-.784a.784.784,0,1,0-.784-1.358l-1.358.784A.784.784,0,0,0,388.327,101.958Z" transform="translate(-310.117 -94.771)" fill="#120638"/>
    <path id="Path_9954" data-name="Path 9954" d="M326.39,29.614a.784.784,0,0,0,1.071-.287l.784-1.358a.784.784,0,0,0-1.358-.784l-.784,1.358A.784.784,0,0,0,326.39,29.614Z" transform="translate(-251.146 -25.392)" fill="#120638"/>
  </g>
</svg>
