<svg xmlns="http://www.w3.org/2000/svg" width="15" height="15" viewBox="0 0 17.645 24.997">
    <g id="light-bulb" transform="translate(-74.995 0.001)">
        <linearGradient id="linear-gradient" x1="0.5" y1="-0.975" x2="0.5" y2="1" gradientUnits="objectBoundingBox">
            <stop offset="0" stop-color="#0468f7"/>
            <stop offset="1" stop-color="#c645ff"/>
        </linearGradient>
        <path id="Path_9170" data-name="Path 9170" d="M90.091,2.618A8.822,8.822,0,0,0,77.244,14.705a5.512,5.512,0,0,1,1.427,3.674v1.593a2.087,2.087,0,0,0,1.47,1.991v.852A2.054,2.054,0,0,0,82.034,25H85.6a2.054,2.054,0,0,0,1.892-2.181v-.852a2.087,2.087,0,0,0,1.47-1.991V18.379a5.512,5.512,0,0,1,1.427-3.674,8.82,8.82,0,0,0-.3-12.087ZM85.6,23.526H82.034c-.195,0-.422-.31-.422-.711v-.76h4.411v.76C86.023,23.215,85.8,23.526,85.6,23.526Zm1.892-3.553a.613.613,0,0,1-.613.613H80.754a.613.613,0,0,1-.613-.613v-.858h7.352Zm1.8-6.248a7.013,7.013,0,0,0-1.762,3.92H80.1a7.014,7.014,0,0,0-1.762-3.92,7.352,7.352,0,1,1,10.957,0Z" transform="translate(0 0)" fill="url(#linear-gradient)"/>
    </g>
</svg>
