<svg xmlns="http://www.w3.org/2000/svg" width="24.996" height="24.996" viewBox="0 0 24.996 24.996">
  <g id="money_5_" data-name="money (5)" transform="translate(-0.001 0)">
    <path id="Path_9148" data-name="Path 9148" d="M285.978,179.335a.732.732,0,1,0-.438-.939A.732.732,0,0,0,285.978,179.335Z" transform="translate(-271.557 -169.228)" fill="#fff"/>
    <path id="Path_9149" data-name="Path 9149" d="M117.333,116.4a.732.732,0,1,0,.438.939A.732.732,0,0,0,117.333,116.4Z" transform="translate(-110.669 -110.671)" fill="#fff"/>
    <path id="Path_9150" data-name="Path 9150" d="M20.758,6.219a14.624,14.624,0,0,0-8.693-3.164A13.274,13.274,0,0,1,4.243.159.732.732,0,0,0,3.1.48L.046,8.786a.732.732,0,0,0,.232.826A14.792,14.792,0,0,0,9.02,12.777l.263.01a14.6,14.6,0,0,0-5.043,2.6.732.732,0,0,0-.233.823l3.006,8.306a.732.732,0,0,0,1.144.324,13.274,13.274,0,0,1,7.822-2.9,14.791,14.791,0,0,0,8.742-3.164.732.732,0,0,0,.232-.828L21.9,9.692a.732.732,0,0,0-1.142-.32q-.4.321-.833.608l1.069-2.938a.732.732,0,0,0-.233-.824Zm-11.7,5.094A13.341,13.341,0,0,1,1.607,8.784L4.137,1.9a14.689,14.689,0,0,0,7.888,2.617,13.253,13.253,0,0,1,7.405,2.53l-1.461,4.014a13.258,13.258,0,0,1-4.332,1.118A14.592,14.592,0,0,0,9.059,11.312Zm11.8-.2,2.528,6.835a13.342,13.342,0,0,1-7.452,2.528,14.689,14.689,0,0,0-7.883,2.614L5.566,16.214a13.686,13.686,0,0,1,8.017-2.56H13.6a14.622,14.622,0,0,0,7.259-2.538Z" transform="translate(0 0)" fill="#fff"/>
    <path id="Path_9151" data-name="Path 9151" d="M173.873,117.254a2.2,2.2,0,1,0,1.313,2.816A2.2,2.2,0,0,0,173.873,117.254Zm-.063,2.315a.732.732,0,1,1-.438-.939A.733.733,0,0,1,173.809,119.568Z" transform="translate(-162.579 -111.402)" fill="#fff"/>
    <path id="Path_9152" data-name="Path 9152" d="M196.98,365.687a.732.732,0,1,0,.939.438A.732.732,0,0,0,196.98,365.687Z" transform="translate(-186.904 -347.792)" fill="#fff"/>
    <path id="Path_9153" data-name="Path 9153" d="M366.625,305.5a.732.732,0,1,0-.939-.438A.732.732,0,0,0,366.625,305.5Z" transform="translate(-347.791 -289.234)" fill="#fff"/>
    <path id="Path_9154" data-name="Path 9154" d="M252.5,305a2.2,2.2,0,1,0,2.816,1.313A2.2,2.2,0,0,0,252.5,305Zm1,2.753a.732.732,0,1,1,.438-.939A.733.733,0,0,1,253.5,307.748Z" transform="translate(-238.799 -289.979)" fill="#fff"/>
  </g>
</svg>
