<svg id="percentage_1_" data-name="percentage (1)" xmlns="http://www.w3.org/2000/svg" width="25" height="25" viewBox="0 0 25 25">
  <g id="Group_14260" data-name="Group 14260">
    <g id="Group_14259" data-name="Group 14259">
      <path id="Path_9159" data-name="Path 9159" d="M24.087,7.8A12.5,12.5,0,0,0,17.2.913a12.574,12.574,0,0,0-9.414,0A12.479,12.479,0,0,0,0,12.491,12.578,12.578,0,0,0,.913,17.2,12.5,12.5,0,0,0,7.8,24.087a12.575,12.575,0,0,0,9.414,0A12.48,12.48,0,0,0,25,12.509,12.576,12.576,0,0,0,24.087,7.8ZM22.54,16.585a10.812,10.812,0,0,1-10.031,6.748,10.91,10.91,0,0,1-4.086-.792,10.828,10.828,0,0,1-5.963-5.963,10.908,10.908,0,0,1,0-8.163A10.812,10.812,0,0,1,12.492,1.667a10.909,10.909,0,0,1,4.086.792,10.828,10.828,0,0,1,5.963,5.963,10.907,10.907,0,0,1,0,8.163Z" fill="#fff"/>
    </g>
  </g>
  <g id="Group_14262" data-name="Group 14262" transform="translate(7.07 7.07)">
    <g id="Group_14261" data-name="Group 14261">
      <path id="Path_9160" data-name="Path 9160" d="M155.409,145.027a.816.816,0,0,0-1.154,0l-9.229,9.229a.816.816,0,0,0,1.154,1.154l9.229-9.229A.816.816,0,0,0,155.409,145.027Z" transform="translate(-144.787 -144.788)" fill="#fff"/>
    </g>
  </g>
  <g id="Group_14264" data-name="Group 14264" transform="translate(7.333 5.166)">
    <g id="Group_14263" data-name="Group 14263">
      <path id="Path_9161" data-name="Path 9161" d="M154.9,107.331a2.453,2.453,0,1,0,.179.921A2.444,2.444,0,0,0,154.9,107.331Zm-1.512,1.228a.821.821,0,0,1-.449.449.821.821,0,0,1-.615,0,.821.821,0,0,1-.449-.449.822.822,0,0,1,0-.615.821.821,0,0,1,.449-.449.822.822,0,0,1,.615,0,.821.821,0,0,1,.449.449.821.821,0,0,1,0,.615Z" transform="translate(-150.189 -105.804)" fill="#fff"/>
    </g>
  </g>
  <g id="Group_14266" data-name="Group 14266" transform="translate(13.316 14.403)">
    <g id="Group_14265" data-name="Group 14265">
      <path id="Path_9162" data-name="Path 9162" d="M277.419,296.509a2.453,2.453,0,1,0,.179.92A2.444,2.444,0,0,0,277.419,296.509Zm-1.512,1.228a.821.821,0,0,1-.449.449.814.814,0,0,1-.884-.179.811.811,0,0,1-.239-.577.818.818,0,0,1,.06-.307.82.82,0,0,1,.449-.449.817.817,0,0,1,1.063,1.063Z" transform="translate(-272.704 -294.982)" fill="#fff"/>
    </g>
  </g>
</svg>
