<svg xmlns="http://www.w3.org/2000/svg" width="25.075" height="24" viewBox="0 0 25.075 24">
  <path id="FontAwsome_star_" data-name="FontAwsome (star)" d="M44.29,8.026l-6.848-1L34.382.822a1.5,1.5,0,0,0-2.69,0L28.631,7.028l-6.848,1a1.5,1.5,0,0,0-.83,2.559l4.954,4.828-1.172,6.819a1.5,1.5,0,0,0,2.175,1.579l6.126-3.22,6.126,3.22a1.5,1.5,0,0,0,2.175-1.579l-1.172-6.819,4.954-4.828a1.5,1.5,0,0,0-.83-2.559Zm-6.538,6.6,1.111,6.487-5.826-3.061-5.826,3.061,1.111-6.487-4.715-4.593,6.515-.947L33.037,3.18l2.915,5.906,6.515.947-4.715,4.593Z" transform="translate(-20.5 0.013)"/>
</svg>
