<svg xmlns="http://www.w3.org/2000/svg" xmlns:xlink="http://www.w3.org/1999/xlink" width="25.004" height="25.004" viewBox="0 0 25.004 25.004">
    <defs>
        <linearGradient id="linear-gradient" x1="0.5" y1="-0.975" x2="0.5" y2="1" gradientUnits="objectBoundingBox">
            <stop offset="0" stop-color="#ffffff"/>
            <stop offset="1" stop-color="#ffffff"/>
        </linearGradient>
    </defs>
    <path id="user" d="M21.342,3.662a12.5,12.5,0,0,0-17.68,17.68,12.5,12.5,0,0,0,17.68-17.68ZM5.426,20.965A7.153,7.153,0,0,1,12.5,14.671a7.126,7.126,0,0,1,7.076,6.294,11.014,11.014,0,0,1-14.152,0Zm7.076-7.8a3.8,3.8,0,1,1,3.8-3.8A3.8,3.8,0,0,1,12.5,13.162Zm8.337,6.565a8.612,8.612,0,0,0-5.391-6,5.262,5.262,0,1,0-5.89,0,8.6,8.6,0,0,0-5.394,6,11.037,11.037,0,1,1,16.675,0Zm0,0" fill="url(#linear-gradient)"/>
</svg>
