<svg xmlns="http://www.w3.org/2000/svg" xmlns:xlink="http://www.w3.org/1999/xlink" width="78.435" height="78.435" viewBox="0 0 78.435 78.435">
  <defs>
    <linearGradient id="linear-gradient" x1="0.5" y1="1" x2="0.5" gradientUnits="objectBoundingBox">
      <stop offset="0" stop-color="#0468f7"/>
      <stop offset="1" stop-color="#c645ff"/>
    </linearGradient>
  </defs>
  <path id="financial" d="M17.307,94.435h75.82a1.307,1.307,0,0,0,1.307-1.307V87.9a1.307,1.307,0,0,0-1.307-1.307H91.82V83.977h1.307a1.307,1.307,0,0,0,1.307-1.307V77.44a1.307,1.307,0,0,0-1.307-1.307H89.206V72.211A1.307,1.307,0,0,0,87.9,70.9H85.654A10.451,10.451,0,0,0,73.519,54.01V34.3a1.307,1.307,0,0,0-.383-.924L56.142,16.383A1.307,1.307,0,0,0,55.217,16H17.307A1.307,1.307,0,0,0,16,17.307v75.82A1.307,1.307,0,0,0,17.307,94.435Zm32.681-7.843V83.977h18.3v2.614ZM52.6,81.362V78.748H70.9v2.614ZM70.9,91.82H52.6V89.206H70.9Zm0-5.229V83.977h18.3v2.614ZM91.82,91.82h-18.3V89.206h18.3Zm0-13.072v2.614h-18.3V78.748Zm-5.229-5.229v2.614H68.29V73.519Zm-7.843-18.3A7.843,7.843,0,1,1,70.9,63.061,7.843,7.843,0,0,1,78.748,55.217ZM56.525,20.463,69.056,32.994H56.525Zm-37.91-1.849h35.3V34.3a1.307,1.307,0,0,0,1.307,1.307H70.9V56.155a10.433,10.433,0,0,0,.937,14.75H66.982a1.307,1.307,0,0,0-1.307,1.307v3.922H51.3a1.307,1.307,0,0,0-1.307,1.307v3.922H48.681a1.307,1.307,0,0,0-1.307,1.307V87.9a1.307,1.307,0,0,0,1.307,1.307h1.307V91.82H18.614Zm3.922,28.759a1.307,1.307,0,0,1,1.307-1.307H65.675a1.307,1.307,0,1,1,0,2.614H23.843A1.307,1.307,0,0,1,22.536,47.374Zm0,6.536A1.307,1.307,0,0,1,23.843,52.6H65.675a1.307,1.307,0,1,1,0,2.614H23.843A1.307,1.307,0,0,1,22.536,53.91Zm0,6.536a1.307,1.307,0,0,1,1.307-1.307H63.061a1.307,1.307,0,1,1,0,2.614H23.843A1.307,1.307,0,0,1,22.536,60.446ZM63.061,68.29H23.843a1.307,1.307,0,0,1,0-2.614H63.061a1.307,1.307,0,1,1,0,2.614ZM40.838,74.826H23.843a1.307,1.307,0,1,1,0-2.614H40.838a1.307,1.307,0,1,1,0,2.614Zm-18.3-33.988V25.151a1.307,1.307,0,0,1,2.614,0v9.917l3-3a1.307,1.307,0,0,1,1.849,0l1.69,1.69,4.3-4.3a1.307,1.307,0,0,1,1.849,0l1.69,1.69,3.38-3.38h-.766a1.307,1.307,0,0,1,0-2.614h3.922a1.307,1.307,0,0,1,1.307,1.307V30.38a1.307,1.307,0,1,1-2.614,0v-.766l-4.3,4.3a1.307,1.307,0,0,1-1.849,0l-1.69-1.69-4.3,4.3a1.307,1.307,0,0,1-1.849,0l-1.69-1.69-3.922,3.922v.766H46.067a1.307,1.307,0,0,1,0,2.614H23.843A1.307,1.307,0,0,1,22.536,40.838Zm54.9,23.53h1.307a2.612,2.612,0,0,1-1.307-4.875v-.354a1.307,1.307,0,1,1,2.614,0,1.307,1.307,0,1,1,0,2.614H78.748a2.612,2.612,0,0,1,1.307,4.875v.354a1.307,1.307,0,1,1-2.614,0,1.307,1.307,0,1,1,0-2.614Z" transform="translate(-16 -16)" fill="url(#linear-gradient)"/>
</svg>
