<svg xmlns="http://www.w3.org/2000/svg" xmlns:xlink="http://www.w3.org/1999/xlink" width="72.89" height="66" viewBox="0 0 72.89 66">
  <defs>
    <linearGradient id="linear-gradient" x1="0.5" x2="0.5" y2="1" gradientUnits="objectBoundingBox">
      <stop offset="0" stop-color="#0468f7"/>
      <stop offset="1" stop-color="#c645ff"/>
    </linearGradient>
  </defs>
  <g id="Line" transform="translate(385 43.823)">
    <path id="Path_8991" data-name="Path 8991" d="M73.216,65H69.9V63.5a1.664,1.664,0,0,0-3.312,0V65H56.654V63.5a1.664,1.664,0,0,0-3.312,0V65H43.4V63.5a1.664,1.664,0,0,0-3.312,0V65H30.155V63.5a1.664,1.664,0,0,0-3.312,0V65H16.906V63.5a1.664,1.664,0,0,0-3.312,0V65H5.312V56.135C7.979,42.95,14.339,24.5,20.218,24.5a5,5,0,0,1,1.938.405c1.209,3.42,2.236,7.305,3.18,10.86C28.217,46.625,30.7,56,36.78,56c4.853,0,7.039-4.755,8.513-10.635,4.819-.72,7.4-4.125,9.523-6.93.547-.72,1.043-1.38,1.54-1.965,1.259,4.71,2.832,9,6.923,9a6.3,6.3,0,0,0,4.588-2.34,93.548,93.548,0,0,1,3.693,13.14,1.652,1.652,0,0,0,1.921,1.2,1.517,1.517,0,0,0,1.325-1.74,90.06,90.06,0,0,0-4.7-15.855,55.845,55.845,0,0,0,4.77-15.15A1.546,1.546,0,0,0,73.464,23a1.658,1.658,0,0,0-1.9,1.275A58.651,58.651,0,0,1,68.247,36.11c-1.822-3.285-4.041-5.61-6.625-5.61a9.363,9.363,0,0,0-3.312.585C57.134,26.765,55.494,23,51.685,23c-5.349,0-6.757,7.4-8.281,15.225-.265,1.35-.547,2.79-.845,4.2-3.61-.63-6.509-5.22-9.324-9.675-2.451-3.885-4.969-7.86-8.281-9.885C22.686,16.805,19.837,12.5,15.249,12.5c-3.577,0-7.337,4.185-9.937,7.845V3.5A1.584,1.584,0,0,0,3.656,2,1.584,1.584,0,0,0,2,3.5v63A1.584,1.584,0,0,0,3.656,68H73.216a1.507,1.507,0,1,0,0-3ZM66.491,39.77c-1.06,1.695-2.153,2.73-3.213,2.73-1.971,0-3.213-4.8-4.14-8.415a5.378,5.378,0,0,1,2.484-.585C63.063,33.5,64.8,36.005,66.491,39.77ZM51.685,26c1.656,0,2.865,3.6,3.743,6.915a25.878,25.878,0,0,0-3.312,3.825c-1.805,2.385-3.428,4.5-6.062,5.355.232-1.11.447-2.235.662-3.36C47.71,33.365,49.135,26,51.685,26ZM30.37,34.25c3.18,5.04,6.476,10.215,11.593,11.1C40.771,49.565,39.247,53,36.78,53,33.3,53,30.668,43.055,28.5,35.075c-.547-2.025-1.077-4.02-1.656-6A56.943,56.943,0,0,1,30.37,34.25ZM15.249,15.5c2.2,0,4.041,2.49,5.6,6h-.629c-6.84,0-11.858,11.475-14.906,21.33V26.33C7.846,21.875,12.616,15.5,15.249,15.5Z" transform="translate(-387 -45.823)" fill="url(#linear-gradient)"/>
    <path id="Path_8992" data-name="Path 8992" d="M25.969,15.249h-4.14a1.656,1.656,0,1,0,0,3.312h1.656v1.656a1.656,1.656,0,1,0,3.312,0V18.562a4.161,4.161,0,0,0-.828-8.281H24.313a.828.828,0,0,1,0-1.656h4.14a1.656,1.656,0,1,0,0-3.312H26.8V3.656a1.656,1.656,0,1,0-3.312,0V5.312a4.161,4.161,0,0,0,.828,8.281h1.656a.828.828,0,0,1,0,1.656Z" transform="translate(-373.696 -45.823)" fill="url(#linear-gradient)"/>
  </g>
</svg>
