<svg xmlns="http://www.w3.org/2000/svg" xmlns:xlink="http://www.w3.org/1999/xlink" width="86.24" height="86.24" viewBox="0 0 86.24 86.24">
  <defs>
    <linearGradient id="linear-gradient" x1="0.5" x2="0.5" y2="1" gradientUnits="objectBoundingBox">
      <stop offset="0" stop-color="#0468f7"/>
      <stop offset="1" stop-color="#c645ff"/>
    </linearGradient>
  </defs>
  <g id="mansion" transform="translate(-1 -1)">
    <path id="Path_8988" data-name="Path 8988" d="M85.849,23.256a1.391,1.391,0,0,0,1.391-1.391V16.3a1.391,1.391,0,0,0-1.391-1.391H83.485L62.975,1.234A1.4,1.4,0,0,0,62.2,1H26.037a1.4,1.4,0,0,0-.772.234L4.756,14.91H2.391A1.391,1.391,0,0,0,1,16.3v5.564a1.391,1.391,0,0,0,1.391,1.391H3.782V56.014A5.551,5.551,0,0,0,1,60.812a4.173,4.173,0,0,0,4.173,4.173H16.3a4.173,4.173,0,0,0,4.173-4.173,5.493,5.493,0,0,0-.184-1.391h1.575v4.173a1.391,1.391,0,0,0,1.391,1.391h5.564a1.391,1.391,0,0,0,1.391-1.391V59.421h4.9L30.381,71.258C11.207,73.351,1,79.755,1,85.849A1.391,1.391,0,0,0,2.391,87.24H19.083a1.391,1.391,0,0,0,1.391-1.391c0-2.9,9-6.955,23.647-6.955s23.647,4.051,23.647,6.955a1.391,1.391,0,0,0,1.391,1.391H85.849a1.391,1.391,0,0,0,1.391-1.391c0-6.094-10.207-12.5-29.376-14.591L53.129,59.421h4.9v4.173a1.391,1.391,0,0,0,1.391,1.391h5.564a1.391,1.391,0,0,0,1.391-1.391V59.421H67.95a5.492,5.492,0,0,0-.184,1.391,4.173,4.173,0,0,0,4.173,4.173H83.067a4.173,4.173,0,0,0,4.173-4.173,5.551,5.551,0,0,0-2.782-4.8V23.256Zm-1.391-2.782H61.646l-3.793-2.782H84.458ZM24.647,28.819V26.037H63.594v2.782ZM44.12,11.071,60.735,23.256H54.3l-9.375-6.7a1.391,1.391,0,0,0-1.616,0l-9.375,6.7H27.5Zm5.4,12.185H38.725l5.4-3.854ZM26.455,3.782H61.785L78.477,14.91H54.06L44.942,8.223a1.391,1.391,0,0,0-1.644,0L34.18,14.91H9.763ZM3.782,17.692H30.387l-3.793,2.782H3.782ZM16.3,62.2H5.173a1.391,1.391,0,0,1-1.391-1.391A2.782,2.782,0,0,1,6.522,58.03h0c.036,0,.184.022.218.024a1.353,1.353,0,0,0,1.2-.556,1.391,1.391,0,0,0,.193-1.308,2.475,2.475,0,0,1,.16-2.18,2.91,2.91,0,0,1,1.865-1.483,2.683,2.683,0,0,1,1.97.328,1.391,1.391,0,0,0,1.4,0,2.667,2.667,0,0,1,2-.317,2.853,2.853,0,0,1,2.116,2.178,2.747,2.747,0,0,1-.675,2.383,1.391,1.391,0,0,0,0,1.861,2.753,2.753,0,0,1,.721,1.851A1.391,1.391,0,0,1,16.3,62.2Zm3.97-5.564a5.537,5.537,0,0,0,.106-2.434,5.636,5.636,0,0,0-4.215-4.382,5.389,5.389,0,0,0-3.338.278,5.414,5.414,0,0,0-3.256-.293,5.586,5.586,0,0,0-3,1.844v-28.4H22.8l-.366.268a1.391,1.391,0,0,0-.569,1.123h0V56.639ZM24.647,62.2V31.6h2.782V62.2Zm27.819-5.564H49.684V45.511a5.564,5.564,0,1,0-11.128,0V56.639H35.774V45.511a8.346,8.346,0,0,1,16.692,0Zm-5.564,0H41.338V45.511a2.782,2.782,0,1,1,5.564,0Zm37.26,27.819H70.319c-1.835-5.425-14.36-8.346-26.2-8.346s-24.364,2.921-26.2,8.346H4.078C6.4,78.942,22.2,73.331,44.12,73.331S81.836,78.942,84.162,84.458ZM54.75,70.966c-3.308-.268-6.846-.417-10.63-.417s-7.322.149-10.63.417l4.617-11.545H50.133Zm.5-14.327V45.511a11.128,11.128,0,1,0-22.256,0V56.639H30.21V31.6H58.03V56.639ZM60.812,62.2V31.6h2.782V62.2Zm22.256,0H71.94a1.391,1.391,0,0,1-1.391-1.391,2.753,2.753,0,0,1,.725-1.851,1.391,1.391,0,0,0,0-1.861,2.747,2.747,0,0,1-.675-2.383,2.853,2.853,0,0,1,2.116-2.178,2.691,2.691,0,0,1,.616-.072,2.733,2.733,0,0,1,1.391.389,1.391,1.391,0,0,0,1.4,0,2.669,2.669,0,0,1,1.964-.327,2.91,2.91,0,0,1,1.865,1.483,2.475,2.475,0,0,1,.16,2.18A1.391,1.391,0,0,0,80.3,57.5a1.355,1.355,0,0,0,1.2.556c.035,0,.139-.019.178-.024a2.782,2.782,0,0,1,2.782,2.782,1.391,1.391,0,0,1-1.4,1.39ZM81.676,51.652a5.586,5.586,0,0,0-3-1.842,5.394,5.394,0,0,0-3.256.291,5.379,5.379,0,0,0-3.338-.278A5.636,5.636,0,0,0,67.864,54.2a5.537,5.537,0,0,0,.106,2.434H66.376V24.647h0a1.391,1.391,0,0,0-.569-1.123l-.366-.268H81.676Z" transform="translate(0)" fill="url(#linear-gradient)"/>
    <path id="Path_8989" data-name="Path 8989" d="M11.173,19A4.173,4.173,0,0,0,7,23.173v8.346A1.391,1.391,0,0,0,8.391,32.91h5.564a1.391,1.391,0,0,0,1.391-1.391V23.173A4.173,4.173,0,0,0,11.173,19Zm1.391,11.128H9.782V23.173a1.391,1.391,0,0,1,2.782,0Z" transform="translate(2.346 7.037)" fill="url(#linear-gradient)"/>
    <path id="Path_8990" data-name="Path 8990" d="M52.391,32.91h5.564a1.391,1.391,0,0,0,1.391-1.391V23.173a4.173,4.173,0,1,0-8.346,0v8.346A1.391,1.391,0,0,0,52.391,32.91Zm1.391-9.737a1.391,1.391,0,1,1,2.782,0v6.955H53.782Z" transform="translate(19.549 7.037)" fill="url(#linear-gradient)"/>
  </g>
</svg>
