<svg xmlns="http://www.w3.org/2000/svg" xmlns:xlink="http://www.w3.org/1999/xlink" width="68.834" height="80.863" viewBox="0 0 68.834 80.863">
  <defs>
    <linearGradient id="linear-gradient" x1="0.5" y1="-0.364" x2="0.5" y2="1" gradientUnits="objectBoundingBox">
      <stop offset="0" stop-color="#0468f7"/>
      <stop offset="1" stop-color="#c645ff"/>
    </linearGradient>
  </defs>
  <g id="traffic" transform="translate(-38.084)">
    <path id="Path_8987" data-name="Path 8987" d="M106.437,14.69,91.749.446a1.583,1.583,0,0,0-2.2,0L74.856,14.69a1.582,1.582,0,0,0,1.1,2.719h4.556v4.008a20.634,20.634,0,0,0-16.024,0V1.583A1.583,1.583,0,0,0,62.906,0H45.8a1.583,1.583,0,0,0-1.583,1.583V63.455H39.667a1.582,1.582,0,0,0-1.1,2.718L53.253,80.417a1.583,1.583,0,0,0,2.2,0l14.69-14.244a1.582,1.582,0,0,0-1.1-2.719H64.489V59.447a20.633,20.633,0,0,0,16.024,0V79.281A1.583,1.583,0,0,0,82.1,80.864H99.2a1.583,1.583,0,0,0,1.583-1.583L100.774,33.4a1.583,1.583,0,1,0-3.165,0l.006,44.3H83.678V57.77a20.62,20.62,0,0,0,0-34.676V15.826A1.583,1.583,0,0,0,82.1,14.244H79.862L90.647,3.787,101.43,14.244H99.2a1.583,1.583,0,0,0-1.583,1.582l-.005,17.512a1.583,1.583,0,0,0,1.582,1.583h0a1.583,1.583,0,0,0,1.583-1.582l0-15.93h4.556a1.583,1.583,0,0,0,1.1-2.719ZM62.906,66.62H65.14L54.355,77.077,43.571,66.62H45.8a1.583,1.583,0,0,0,1.583-1.583V3.165H61.324V23.094a20.62,20.62,0,0,0,0,34.676v7.268a1.582,1.582,0,0,0,1.582,1.583ZM89.971,40.432A17.47,17.47,0,1,1,72.5,22.962,17.49,17.49,0,0,1,89.971,40.432Z" fill="url(#linear-gradient)"/>
    <path id="FontAwsome_dollar-sign_" data-name="FontAwsome (dollar-sign)" d="M9.267,10.3,4.5,8.905a1.3,1.3,0,0,1,.366-2.551H7.793A2.694,2.694,0,0,1,9.3,6.818a.688.688,0,0,0,.861-.088l1.536-1.5a.715.715,0,0,0-.079-1.081A6.24,6.24,0,0,0,7.8,2.824V.706A.708.708,0,0,0,7.1,0H5.683a.708.708,0,0,0-.706.706V2.824h-.11A4.835,4.835,0,0,0,.057,8.1a5.052,5.052,0,0,0,3.7,4.263l4.523,1.324a1.3,1.3,0,0,1-.366,2.551H4.986a2.694,2.694,0,0,1-1.509-.463.688.688,0,0,0-.861.088l-1.536,1.5a.715.715,0,0,0,.079,1.081A6.24,6.24,0,0,0,4.977,19.77v2.118a.708.708,0,0,0,.706.706H7.1a.708.708,0,0,0,.706-.706V19.761a4.985,4.985,0,0,0,4.665-3.208,4.846,4.846,0,0,0-3.2-6.253Z" transform="translate(66.111 29.135)" fill="url(#linear-gradient)"/>
  </g>
</svg>
