<svg xmlns="http://www.w3.org/2000/svg" xmlns:xlink="http://www.w3.org/1999/xlink" width="86.85" height="65.317" viewBox="0 0 86.85 65.317">
  <defs>
    <linearGradient id="linear-gradient" x1="0.5" y1="-0.436" x2="0.5" y2="1" gradientUnits="objectBoundingBox">
      <stop offset="0" stop-color="#0468f7"/>
      <stop offset="1" stop-color="#c645ff"/>
    </linearGradient>
    <linearGradient id="linear-gradient-2" x1="-0.319" y1="-0.513" xlink:href="#linear-gradient"/>
  </defs>
  <g id="united-states" transform="translate(0 -88.178)">
    <path id="Path_8945" data-name="Path 8945" d="M82.858,88.178H3.992C1.791,88.178,0,90.232,0,92.757v56.158c0,2.525,1.791,4.579,3.992,4.579H82.858c2.2,0,3.992-2.054,3.992-4.579V92.757C86.849,90.232,85.059,88.178,82.858,88.178ZM2.544,135.667H12.17a1.473,1.473,0,0,0,0-2.919H2.544v-6H84.305v6H12.15a1.473,1.473,0,0,0,0,2.919H84.305v5.995H2.544Zm43.512-26.742H84.305v6H46.057Zm0,8.914H84.305v6H46.057ZM84.305,92.757v4.335H81.5a1.473,1.473,0,0,0,0,2.919h2.807v5.995H46.057v-5.995H81.586a1.473,1.473,0,0,0,0-2.919H46.057V91.1h36.8A1.567,1.567,0,0,1,84.305,92.757ZM3.992,91.1H43.512v32.737H2.544V92.757A1.567,1.567,0,0,1,3.992,91.1Zm78.866,59.479H3.992a1.567,1.567,0,0,1-1.447-1.66v-4.335H84.305v4.335a1.567,1.567,0,0,1-1.447,1.66Z" fill="url(#linear-gradient)"/>
    <g id="Group_13990" data-name="Group 13990" transform="translate(5.427 94.864)">
      <path id="Path_8946" data-name="Path 8946" d="M33.38,118.436a1.268,1.268,0,1,0,0-2.536h-.014a1.268,1.268,0,0,0,.014,2.536Z" transform="translate(-32.105 -115.9)" fill="url(#linear-gradient-2)"/>
      <path id="Path_8947" data-name="Path 8947" d="M33.38,182.565a1.268,1.268,0,0,0,0-2.536h-.014a1.268,1.268,0,0,0,.014,2.536Z" transform="translate(-32.105 -169.188)" fill="url(#linear-gradient-2)"/>
      <path id="Path_8948" data-name="Path 8948" d="M33.38,246.694a1.268,1.268,0,0,0,0-2.536h-.014a1.268,1.268,0,0,0,.014,2.536Z" transform="translate(-32.105 -222.476)" fill="url(#linear-gradient-2)"/>
      <path id="Path_8949" data-name="Path 8949" d="M33.38,150.5a1.268,1.268,0,1,0,0-2.536h-.014a1.268,1.268,0,0,0,.014,2.536Z" transform="translate(-32.105 -142.543)" fill="url(#linear-gradient-2)"/>
      <path id="Path_8950" data-name="Path 8950" d="M33.38,214.63a1.268,1.268,0,1,0,0-2.536h-.014a1.268,1.268,0,0,0,.014,2.536Z" transform="translate(-32.105 -195.832)" fill="url(#linear-gradient-2)"/>
      <path id="Path_8951" data-name="Path 8951" d="M225.767,118.436a1.268,1.268,0,1,0,0-2.536h-.014a1.268,1.268,0,0,0,.014,2.536Z" transform="translate(-191.968 -115.9)" fill="url(#linear-gradient-2)"/>
      <path id="Path_8952" data-name="Path 8952" d="M225.767,182.565a1.268,1.268,0,1,0,0-2.536h-.014a1.268,1.268,0,0,0,.014,2.536Z" transform="translate(-191.968 -169.188)" fill="url(#linear-gradient-2)"/>
      <path id="Path_8953" data-name="Path 8953" d="M225.767,246.694a1.268,1.268,0,1,0,0-2.536h-.014a1.268,1.268,0,0,0,.014,2.536Z" transform="translate(-191.968 -222.476)" fill="url(#linear-gradient-2)"/>
      <path id="Path_8954" data-name="Path 8954" d="M225.767,150.5a1.268,1.268,0,1,0,0-2.536h-.014a1.268,1.268,0,0,0,.014,2.536Z" transform="translate(-191.968 -142.543)" fill="url(#linear-gradient-2)"/>
      <path id="Path_8955" data-name="Path 8955" d="M225.767,214.63a1.268,1.268,0,1,0,0-2.536h-.014a1.268,1.268,0,0,0,.014,2.536Z" transform="translate(-191.968 -195.832)" fill="url(#linear-gradient-2)"/>
      <path id="Path_8956" data-name="Path 8956" d="M81.476,118.436a1.268,1.268,0,1,0,0-2.536h-.014a1.268,1.268,0,0,0,.014,2.536Z" transform="translate(-72.07 -115.9)" fill="url(#linear-gradient-2)"/>
      <path id="Path_8957" data-name="Path 8957" d="M81.476,182.565a1.268,1.268,0,0,0,0-2.536h-.014a1.268,1.268,0,0,0,.014,2.536Z" transform="translate(-72.07 -169.188)" fill="url(#linear-gradient-2)"/>
      <path id="Path_8958" data-name="Path 8958" d="M81.476,246.694a1.268,1.268,0,0,0,0-2.536h-.014a1.268,1.268,0,0,0,.014,2.536Z" transform="translate(-72.07 -222.476)" fill="url(#linear-gradient-2)"/>
      <path id="Path_8959" data-name="Path 8959" d="M81.476,150.5a1.268,1.268,0,0,0,0-2.536h-.014a1.268,1.268,0,0,0,.014,2.536Z" transform="translate(-72.07 -142.543)" fill="url(#linear-gradient-2)"/>
      <path id="Path_8960" data-name="Path 8960" d="M81.476,214.63a1.268,1.268,0,0,0,0-2.536h-.014a1.268,1.268,0,0,0,.014,2.536Z" transform="translate(-72.07 -195.832)" fill="url(#linear-gradient-2)"/>
      <path id="Path_8961" data-name="Path 8961" d="M57.428,134.468a1.268,1.268,0,1,0,0-2.536h-.014a1.268,1.268,0,0,0,.014,2.536Z" transform="translate(-52.088 -129.222)" fill="url(#linear-gradient-2)"/>
      <path id="Path_8962" data-name="Path 8962" d="M57.428,198.6a1.268,1.268,0,1,0,0-2.536h-.014a1.268,1.268,0,0,0,.014,2.536Z" transform="translate(-52.088 -182.51)" fill="url(#linear-gradient-2)"/>
      <path id="Path_8963" data-name="Path 8963" d="M57.428,166.533a1.268,1.268,0,0,0,0-2.536h-.014a1.268,1.268,0,0,0,.014,2.536Z" transform="translate(-52.088 -155.866)" fill="url(#linear-gradient-2)"/>
      <path id="Path_8964" data-name="Path 8964" d="M57.428,230.662a1.268,1.268,0,1,0,0-2.536h-.014a1.268,1.268,0,0,0,.014,2.536Z" transform="translate(-52.088 -209.154)" fill="url(#linear-gradient-2)"/>
      <path id="Path_8965" data-name="Path 8965" d="M129.573,118.436a1.268,1.268,0,1,0,0-2.536h-.014a1.268,1.268,0,0,0,.014,2.536Z" transform="translate(-112.036 -115.9)" fill="url(#linear-gradient-2)"/>
      <path id="Path_8966" data-name="Path 8966" d="M129.573,182.565a1.268,1.268,0,0,0,0-2.536h-.014a1.268,1.268,0,0,0,.014,2.536Z" transform="translate(-112.036 -169.188)" fill="url(#linear-gradient-2)"/>
      <path id="Path_8967" data-name="Path 8967" d="M129.573,246.694a1.268,1.268,0,0,0,0-2.536h-.014a1.268,1.268,0,0,0,.014,2.536Z" transform="translate(-112.036 -222.476)" fill="url(#linear-gradient-2)"/>
      <path id="Path_8968" data-name="Path 8968" d="M129.573,150.5a1.268,1.268,0,1,0,0-2.536h-.014a1.268,1.268,0,0,0,.014,2.536Z" transform="translate(-112.036 -142.543)" fill="url(#linear-gradient-2)"/>
      <path id="Path_8969" data-name="Path 8969" d="M129.573,214.63a1.268,1.268,0,0,0,0-2.536h-.014a1.268,1.268,0,0,0,.014,2.536Z" transform="translate(-112.036 -195.832)" fill="url(#linear-gradient-2)"/>
      <path id="Path_8970" data-name="Path 8970" d="M105.525,134.468a1.268,1.268,0,1,0,0-2.536h-.014a1.268,1.268,0,0,0,.014,2.536Z" transform="translate(-92.054 -129.222)" fill="url(#linear-gradient-2)"/>
      <path id="Path_8971" data-name="Path 8971" d="M105.525,198.6a1.268,1.268,0,1,0,0-2.536h-.014a1.268,1.268,0,0,0,.014,2.536Z" transform="translate(-92.054 -182.51)" fill="url(#linear-gradient-2)"/>
      <path id="Path_8972" data-name="Path 8972" d="M105.525,166.533a1.268,1.268,0,0,0,0-2.536h-.014a1.268,1.268,0,0,0,.014,2.536Z" transform="translate(-92.054 -155.866)" fill="url(#linear-gradient-2)"/>
      <path id="Path_8973" data-name="Path 8973" d="M105.525,230.662a1.268,1.268,0,1,0,0-2.536h-.014a1.268,1.268,0,0,0,.014,2.536Z" transform="translate(-92.054 -209.154)" fill="url(#linear-gradient-2)"/>
      <path id="Path_8974" data-name="Path 8974" d="M177.59,118.436a1.268,1.268,0,1,0,0-2.536h-.014a1.268,1.268,0,0,0,.014,2.536Z" transform="translate(-151.936 -115.9)" fill="url(#linear-gradient-2)"/>
      <path id="Path_8975" data-name="Path 8975" d="M177.59,182.565a1.268,1.268,0,1,0,0-2.536h-.014a1.268,1.268,0,0,0,.014,2.536Z" transform="translate(-151.936 -169.188)" fill="url(#linear-gradient-2)"/>
      <path id="Path_8976" data-name="Path 8976" d="M177.59,246.694a1.268,1.268,0,1,0,0-2.536h-.014a1.268,1.268,0,0,0,.014,2.536Z" transform="translate(-151.936 -222.476)" fill="url(#linear-gradient-2)"/>
      <path id="Path_8977" data-name="Path 8977" d="M177.59,150.5a1.268,1.268,0,1,0,0-2.536h-.014a1.268,1.268,0,0,0,.014,2.536Z" transform="translate(-151.936 -142.543)" fill="url(#linear-gradient-2)"/>
      <path id="Path_8978" data-name="Path 8978" d="M177.59,214.63a1.268,1.268,0,1,0,0-2.536h-.014a1.268,1.268,0,0,0,.014,2.536Z" transform="translate(-151.936 -195.832)" fill="url(#linear-gradient-2)"/>
      <path id="Path_8979" data-name="Path 8979" d="M153.542,134.468a1.268,1.268,0,1,0,0-2.536h-.014a1.268,1.268,0,0,0,.014,2.536Z" transform="translate(-131.953 -129.222)" fill="url(#linear-gradient-2)"/>
      <path id="Path_8980" data-name="Path 8980" d="M153.542,198.6a1.268,1.268,0,1,0,0-2.536h-.014a1.268,1.268,0,0,0,.014,2.536Z" transform="translate(-131.953 -182.51)" fill="url(#linear-gradient-2)"/>
      <path id="Path_8981" data-name="Path 8981" d="M153.542,166.533a1.268,1.268,0,0,0,0-2.536h-.014a1.268,1.268,0,0,0,.014,2.536Z" transform="translate(-131.953 -155.866)" fill="url(#linear-gradient-2)"/>
      <path id="Path_8982" data-name="Path 8982" d="M153.542,230.662a1.268,1.268,0,1,0,0-2.536h-.014a1.268,1.268,0,0,0,.014,2.536Z" transform="translate(-131.953 -209.154)" fill="url(#linear-gradient-2)"/>
      <path id="Path_8983" data-name="Path 8983" d="M201.718,134.468a1.268,1.268,0,0,0,0-2.536H201.7a1.268,1.268,0,0,0,.014,2.536Z" transform="translate(-171.985 -129.222)" fill="url(#linear-gradient-2)"/>
      <path id="Path_8984" data-name="Path 8984" d="M201.718,198.6a1.268,1.268,0,0,0,0-2.536H201.7a1.268,1.268,0,0,0,.014,2.536Z" transform="translate(-171.985 -182.51)" fill="url(#linear-gradient-2)"/>
      <path id="Path_8985" data-name="Path 8985" d="M201.718,166.533a1.268,1.268,0,0,0,0-2.536H201.7a1.268,1.268,0,0,0,.014,2.536Z" transform="translate(-171.985 -155.866)" fill="url(#linear-gradient-2)"/>
      <path id="Path_8986" data-name="Path 8986" d="M201.718,230.662a1.268,1.268,0,0,0,0-2.536H201.7a1.268,1.268,0,0,0,.014,2.536Z" transform="translate(-171.985 -209.154)" fill="url(#linear-gradient-2)"/>
    </g>
  </g>
</svg>
