<svg xmlns="http://www.w3.org/2000/svg" width="20" height="20" viewBox="0 0 20 20">
  <g id="briefcase" transform="translate(-339.326 -31.917)">
    <path id="Path_9956" data-name="Path 9956" d="M344.326,35.917v-1.5a2.5,2.5,0,0,1,2.5-2.5h5a2.5,2.5,0,0,1,2.5,2.5v1.5h2.5a2.5,2.5,0,0,1,2.5,2.5v11a2.5,2.5,0,0,1-2.5,2.5h-15a2.5,2.5,0,0,1-2.5-2.5v-11a2.5,2.5,0,0,1,2.5-2.5Zm-3,6.388v7.112a.5.5,0,0,0,.5.5h15a.5.5,0,0,0,.5-.5V42.375l-7.692,2.494a1,1,0,0,1-.625,0Zm16-2.033V38.417a.5.5,0,0,0-.5-.5h-15a.5.5,0,0,0-.5.5V40.2l8,2.668Zm-5-4.355v-1.5a.5.5,0,0,0-.5-.5h-5a.5.5,0,0,0-.5.5v1.5Z"/>
  </g>
</svg>
