<svg class="inline-block view-more-icon" style="fill:#1C4A98;" xmlns="http://www.w3.org/2000/svg" width="20" height="12" viewBox="0 0 20 14.929">
                <defs></defs>
                <g transform="translate(-476.859 -2187.177)">
                  <path d="M4.679-4.778a.82.82,0,0,0,0-1.16l-6.644-6.644a.821.821,0,0,0-1.16,0l-.775.775a.82.82,0,0,0,0,1.159l5.266,5.29L-3.9-.068a.82.82,0,0,0,0,1.159l.775.775a.821.821,0,0,0,1.16,0Z" transform="translate(481 2200)" />
                  <path style="opacity: .6;" d="M4.679-4.778a.82.82,0,0,0,0-1.16l-6.644-6.644a.821.821,0,0,0-1.16,0l-.775.775a.82.82,0,0,0,0,1.159l5.266,5.29L-3.9-.068a.82.82,0,0,0,0,1.159l.775.775a.821.821,0,0,0,1.16,0Z" transform="translate(491.94 2200)" />
                </g>
              </svg>