<svg id="house_15_" data-name="house (15)" xmlns="http://www.w3.org/2000/svg" xmlns:xlink="http://www.w3.org/1999/xlink" width="135.166" height="98.506" viewBox="0 0 135.166 98.506">
  <defs>
    <linearGradient id="linear-gradient" x1="0.5" y1="-0.344" x2="0.5" y2="1" gradientUnits="objectBoundingBox">
      <stop offset="0" stop-color="#0468f7"/>
      <stop offset="1" stop-color="#c645ff"/>
    </linearGradient>
  </defs>
  <path id="Path_9183" data-name="Path 9183" d="M230.48,283.227a1.98,1.98,0,0,0-1.98,1.98v4a1.98,1.98,0,1,0,3.96,0v-4A1.98,1.98,0,0,0,230.48,283.227Zm0,0" transform="translate(-168.177 -208.456)" fill="url(#linear-gradient)"/>
  <path id="Path_9184" data-name="Path 9184" d="M96.412,171.563H88.706a3.3,3.3,0,0,0-3.3,3.3v19.876a3.3,3.3,0,0,0,3.3,3.3h7.705a3.3,3.3,0,0,0,3.3-3.3V174.862A3.3,3.3,0,0,0,96.412,171.563Zm-.66,22.516H89.366V175.522h6.385Zm0,0" transform="translate(-62.859 -126.271)" fill="url(#linear-gradient)"/>
  <path id="Path_9185" data-name="Path 9185" d="M383.412,171.563h-7.705a3.3,3.3,0,0,0-3.3,3.3v19.876a3.3,3.3,0,0,0,3.3,3.3h7.705a3.3,3.3,0,0,0,3.3-3.3V174.862A3.3,3.3,0,0,0,383.412,171.563Zm-.66,22.516h-6.385V175.522h6.385Zm0,0" transform="translate(-274.092 -126.271)" fill="url(#linear-gradient)"/>
  <path id="Path_9186" data-name="Path 9186" d="M232.8,111.2h-1.726a7.778,7.778,0,0,0-7.768,7.769v7.526a2.851,2.851,0,0,0,2.848,2.848h11.566a2.851,2.851,0,0,0,2.848-2.848v-7.526A7.778,7.778,0,0,0,232.8,111.2Zm-5.536,14.184v-6.414a3.814,3.814,0,0,1,3.809-3.809H232.8a3.813,3.813,0,0,1,3.808,3.809v6.414Zm0,0" transform="translate(-164.353 -81.843)" fill="url(#linear-gradient)"/>
  <path id="Path_9187" data-name="Path 9187" d="M133.186,94.546h-9.307V36.106h7.987a2.623,2.623,0,0,0,2.288-4.154l-16.2-25.624a4.661,4.661,0,0,0-3.7-2.038H72.565L69.95,1.135a3.034,3.034,0,0,0-4.733,0L62.6,4.29H20.906a4.662,4.662,0,0,0-3.7,2.038L1.012,31.952a2.732,2.732,0,0,0-.171,2.8A2.731,2.731,0,0,0,3.3,36.106h7.987V78.343a10.408,10.408,0,0,0-3.11,9.148h-.84a3.3,3.3,0,0,0-3.3,3.3v3.755H1.98a1.98,1.98,0,1,0,0,3.96H133.186a1.98,1.98,0,0,0,0-3.96Zm-8.127-69.572H89.713l-2.626-3.168h35.97Zm-6.508-10.3,2,3.168H83.8l-2.627-3.168ZM114.239,8.25a.9.9,0,0,1,.383.211l1.426,2.256H77.893L75.849,8.25ZM16.615,14.678H29.832a1.98,1.98,0,0,0,0-3.96H19.117L20.544,8.46a.909.909,0,0,1,.382-.21H59.318l-2.046,2.468H27.859a1.98,1.98,0,1,0,0,3.96h26.13l-2.627,3.168H14.613ZM12.11,21.806h35.97l-2.627,3.168H10.107ZM5.574,32.146,7.6,28.933H42.17l-2.664,3.212Zm38.19,43.19a10.155,10.155,0,0,0-5.039-1.343A10.326,10.326,0,0,0,30,78.867a7.9,7.9,0,0,0-3.651.151A10.509,10.509,0,0,0,18.5,75.441a10.4,10.4,0,0,0-3.256.523V36.106H36.223a2.513,2.513,0,0,0,2,4.257h5.537ZM20.655,87.491h-8.44a6.479,6.479,0,0,1,10.643-6.4A7.863,7.863,0,0,0,20.6,86.611,7.753,7.753,0,0,0,20.655,87.491Zm23.109,7.055H8V91.451H43.764Zm0-7.055h-19.1a3.869,3.869,0,0,1-.1-.881,3.927,3.927,0,0,1,5.6-3.554A1.979,1.979,0,0,0,32.86,81.98a6.273,6.273,0,0,1,10.9-1.48ZM41.122,36.4,67.583,4.485,94.045,36.4H90.553L69.107,10.536a1.98,1.98,0,0,0-3.048,0L44.613,36.4ZM75.967,94.546H59.2V63.816H75.967Zm43.952,0H91.4V70.637a1.98,1.98,0,0,0-3.96,0V94.546H79.927V63.156a3.3,3.3,0,0,0-3.3-3.3H58.539a3.3,3.3,0,0,0-3.3,3.3v31.39H47.724V38.856L67.583,14.9l19.86,23.954V70.674a1.98,1.98,0,0,0,3.96,0V40.363h5.536a2.513,2.513,0,0,0,2-4.257h17.035a1.98,1.98,0,1,0,0-3.96H95.66L93,28.933h34.566l2.03,3.212H116.159a1.98,1.98,0,0,0,0,3.96h3.761Zm0,0" fill="url(#linear-gradient)"/>
</svg>
