<svg xmlns="http://www.w3.org/2000/svg" xmlns:xlink="http://www.w3.org/1999/xlink" width="130.011" height="130.011" viewBox="0 0 130.011 130.011">
  <defs>
    <linearGradient id="linear-gradient" x1="0.5" y1="-0.469" x2="0.5" y2="1" gradientUnits="objectBoundingBox">
      <stop offset="0" stop-color="#0468f7"/>
      <stop offset="1" stop-color="#c645ff"/>
    </linearGradient>
  </defs>
  <g id="Layer_22" data-name="Layer 22" transform="translate(-3.839 -3.839)">
    <path id="Path_9180" data-name="Path 9180" d="M47.358,8A39.358,39.358,0,1,0,86.716,47.358,39.358,39.358,0,0,0,47.358,8Zm0,74.085A34.727,34.727,0,1,1,82.085,47.358,34.727,34.727,0,0,1,47.358,82.085Z" transform="translate(5.473 5.473)" fill="url(#linear-gradient)"/>
    <path id="Path_9181" data-name="Path 9181" d="M130.3,113.141,106.357,89.2A6.945,6.945,0,0,0,98.208,88l-6.32-6.344A48.8,48.8,0,1,0,81.654,91.887L88,98.208a6.946,6.946,0,0,0,1.2,8.149L113.14,130.3A12.131,12.131,0,1,0,130.3,113.14ZM8.842,52.83A43.988,43.988,0,1,1,52.83,96.819,43.988,43.988,0,0,1,8.842,52.83Zm80.1,32.412,5.765,5.765-3.681,3.7-5.788-5.765a46.03,46.03,0,0,0,3.7-3.7Zm32.783,43.988a7.524,7.524,0,0,1-5.325-2.315L92.466,103.093a2.315,2.315,0,0,1,0-3.288l7.339-7.339a2.315,2.315,0,0,1,3.288,0L127.031,116.4a7.524,7.524,0,0,1-5.3,12.826Z" transform="translate(0 0)" fill="url(#linear-gradient)"/>
    <path id="Path_9182" data-name="Path 9182" d="M64.679,30.164,57.733,16.273A2.315,2.315,0,0,0,55.673,15H23.261a2.315,2.315,0,0,0-2.06,1.273L14.255,30.164A2.315,2.315,0,0,0,14,31.206V54.358a2.315,2.315,0,0,0,2.315,2.315h46.3a2.315,2.315,0,0,0,2.315-2.315V31.206A2.315,2.315,0,0,0,64.679,30.164Zm-5.811-1.273H31.642l-4.63-9.261H54.238ZM18.63,31.762l4.63-9.261,4.63,9.261V52.043H18.63ZM41.782,52.043V42.782h9.261v9.261Zm18.521,0h-4.63V40.467a2.315,2.315,0,0,0-2.315-2.315H39.467a2.315,2.315,0,0,0-2.315,2.315V52.043h-4.63V33.521H60.3Z" transform="translate(13.364 14.679)" fill="url(#linear-gradient)"/>
  </g>
</svg>
