<svg xmlns="http://www.w3.org/2000/svg" xmlns:xlink="http://www.w3.org/1999/xlink" width="130.337" height="130.002" viewBox="0 0 130.337 130.002">
  <defs>
    <linearGradient id="linear-gradient" x1="0.5" y1="-0.432" x2="0.5" y2="1" gradientUnits="objectBoundingBox">
      <stop offset="0" stop-color="#0468f7"/>
      <stop offset="1" stop-color="#c645ff"/>
    </linearGradient>
  </defs>
  <g id="Page-1" transform="translate(-0.424)">
    <g id="_026---Idea" data-name="026---Idea" transform="translate(0.424)">
      <path id="Shape" d="M120.993,58.575A4.407,4.407,0,0,0,116.668,55h-4.255l-.313-1.875a4.429,4.429,0,0,0-3.682-3.651c-.419-.066-.842-.11-1.258-.167a13.441,13.441,0,0,0-1.675-9.825,9.016,9.016,0,0,0-6.533-12.062,18.749,18.749,0,0,0-18.317-15.3c-.22,0-.416.029-.626.035A8.964,8.964,0,0,0,66.3,10.444,15.124,15.124,0,0,0,58.07,8a15.3,15.3,0,0,0-12.026,5.923,10.975,10.975,0,0,0-14.027,9.863,9.069,9.069,0,0,0-5.555,8.355,8.961,8.961,0,0,0,.22,1.88,17.733,17.733,0,0,0-2.113,15.2c-.591.082-1.194.154-1.763.238A4.433,4.433,0,0,0,19.1,53.111l-.313,1.882H14.517a4.407,4.407,0,0,0-4.323,3.567L.545,108.1a6.61,6.61,0,0,0,6.5,7.871H53c1.824,3.01,7.368,4.407,12.595,4.407,5.171,0,10.662-1.364,12.54-4.407h46.005a6.61,6.61,0,0,0,6.5-7.868ZM33.125,36.129a4.654,4.654,0,0,1,2.38-8.642,4.57,4.57,0,0,1,3.7,1.869,2.2,2.2,0,0,0,3.539-2.626A8.9,8.9,0,0,0,36.494,23.2a6.7,6.7,0,0,1,6.533-5.3,6.868,6.868,0,0,1,.8.088,14.473,14.473,0,0,0-.463,1.379,2.2,2.2,0,0,0,4.266,1.1,10.715,10.715,0,0,1,1.144-2.759,10.88,10.88,0,0,1,9.294-5.3,10.7,10.7,0,0,1,5.837,1.763,8.957,8.957,0,0,0-.518,2.889,2.2,2.2,0,1,0,4.407,0,4.635,4.635,0,1,1,9.27,0,2.2,2.2,0,0,0,4.407,0c0-.17-.042-.331-.051-.5a14.3,14.3,0,0,1,13.049,11.03,8.941,8.941,0,0,0-2.851,1.421,2.2,2.2,0,1,0,2.644,3.525,4.645,4.645,0,0,1,6.813,6.009,4.7,4.7,0,0,1-2.087,1.93,2.2,2.2,0,0,0,.939,4.187,2.175,2.175,0,0,0,.934-.209,9.05,9.05,0,0,0,1.646-1.029,9.411,9.411,0,0,1-1.864,9.4l-.053.055a9.517,9.517,0,0,1-11.237,2.062,8.746,8.746,0,0,1-1.066-.665,7.5,7.5,0,0,0,.582-7.756A2.2,2.2,0,0,0,84.932,48.5a3.281,3.281,0,0,1-1.062,4.153,3.325,3.325,0,0,1-4.786-1.221A2.2,2.2,0,0,0,75.142,53.4a7.639,7.639,0,0,0,6.866,4.248,7.558,7.558,0,0,0,2.765-.544,13.042,13.042,0,0,0,2.582,1.763,13.573,13.573,0,0,0,10.178.941,14.045,14.045,0,0,1-9.074,5.564,2.2,2.2,0,0,0,.346,4.378,2.344,2.344,0,0,0,.35-.026,18.107,18.107,0,0,0,3.909-1.141,19.7,19.7,0,0,1,1.644,3.783,2.272,2.272,0,0,1,.115.712,2.377,2.377,0,0,1-1.445,2.186,2.494,2.494,0,0,1-2.845-.765,14.064,14.064,0,0,0-6.449-4.286c-4.762-1.6-6.6-3.021-7.379-4.572a21.153,21.153,0,0,0,3.378-.705,2.2,2.2,0,1,0-1.3-4.213,16.7,16.7,0,0,1-3.8.7,16.354,16.354,0,0,1-7.3-1.1,2.2,2.2,0,0,0-2.47.615A9.435,9.435,0,0,1,49.994,49.9,2.21,2.21,0,0,0,46.2,47.633a13.76,13.76,0,0,0-1.26,2.836,3.305,3.305,0,0,1-3.131-3.248v-.055a2.179,2.179,0,0,0-2.2-2.175,2.225,2.225,0,0,0-2.2,2.23,7.668,7.668,0,0,0,6.842,7.6,13.833,13.833,0,0,0,.2,2.2,13.465,13.465,0,0,1-15.234-18.44,8.882,8.882,0,0,0,1.639,1.307,2.2,2.2,0,0,0,2.274-3.774Zm-9.7,17.7c1.016-.15,2.065-.282,3.107-.419a17.79,17.79,0,0,0,19.324,7.84,13.8,13.8,0,0,0,21.62,3.664,21.152,21.152,0,0,0,4.6.833c1.064,4.037,4.14,6.482,10.6,8.648a9.766,9.766,0,0,1,4.486,2.955,7.018,7.018,0,0,0,5.323,2.5,6.692,6.692,0,0,0,2.615-.533,6.784,6.784,0,0,0,4.118-6.238A6.538,6.538,0,0,0,98.891,71a24.086,24.086,0,0,0-1.948-4.484,18.575,18.575,0,0,0,7.322-11.2,13.8,13.8,0,0,0,1.269-1.776c.738.095,1.476.178,2.219.3l7.954,47.845a75.635,75.635,0,0,0-47.911,0V74.1a2.2,2.2,0,1,0-4.407,0v27.591a75.648,75.648,0,0,0-47.911-.018ZM5.331,110.75a2.186,2.186,0,0,1-.463-1.807l9.649-49.537h3.525L11.128,100.96a4.422,4.422,0,0,0,5.687,4.922,73.716,73.716,0,0,1,36.394-2.309l-.657,7.987H7.048a2.219,2.219,0,0,1-1.716-.811Zm60.261,5.218c-5.308,0-8.353-1.569-8.8-2.267l.758-9.144a47.089,47.089,0,0,1,7.091,2.377,2.223,2.223,0,0,0,.952.22,2.19,2.19,0,0,0,.954-.22,46.932,46.932,0,0,1,7.088-2.393l.758,9.157c-.447.7-3.492,2.27-8.8,2.27Zm60.261-5.218a2.219,2.219,0,0,1-1.716.811h-45.5l-.661-8a73.738,73.738,0,0,1,36.409,2.329,4.42,4.42,0,0,0,5.667-4.933l-6.908-41.546h3.525l9.651,49.533a2.186,2.186,0,0,1-.469,1.809Z" transform="translate(-0.424 9.627)" fill="url(#linear-gradient)"/>
      <path id="Shape-2" data-name="Shape" d="M27.082,25.932a2.2,2.2,0,0,0-.156,3.111,13.287,13.287,0,0,0,7.062,4.072,6.564,6.564,0,0,1-5.363,2.765,2.2,2.2,0,1,0,0,4.407A10.927,10.927,0,0,0,38.89,33.221,13.3,13.3,0,0,0,49.768,22.644a2.2,2.2,0,1,0-4.328-.828,8.783,8.783,0,0,1-3.649,5.594,8.994,8.994,0,0,1-11.6-1.322,2.2,2.2,0,0,0-3.111-.156Z" transform="translate(30.784 24.053)" fill="url(#linear-gradient)"/>
      <path id="Shape-3" data-name="Shape" d="M24.4,28.339a2.2,2.2,0,0,0,2.2-2.2,5.729,5.729,0,0,1,5.729-5.729,2.2,2.2,0,0,0,0-4.407A10.147,10.147,0,0,0,22.2,26.136a2.2,2.2,0,0,0,2.2,2.2Z" transform="translate(25.782 19.255)" fill="url(#linear-gradient)"/>
      <path id="Shape-4" data-name="Shape" d="M33.407,4.407V2.2A2.2,2.2,0,1,0,29,2.2v2.2a2.2,2.2,0,1,0,4.407,0Z" transform="translate(33.965)" fill="url(#linear-gradient)"/>
      <path id="Shape-5" data-name="Shape" d="M47.981,7.543l-2.2,2.2a2.2,2.2,0,1,0,3.116,3.116l2.2-2.2a2.2,2.2,0,1,0-3.116-3.116Z" transform="translate(53.346 8.268)" fill="url(#linear-gradient)"/>
      <path id="Shape-6" data-name="Shape" d="M16.3,13.508a2.2,2.2,0,0,0,1.558-3.761l-2.2-2.2a2.2,2.2,0,1,0-3.116,3.116l2.2,2.2a2.2,2.2,0,0,0,1.558.646Z" transform="translate(13.351 8.268)" fill="url(#linear-gradient)"/>
      <path id="Shape-7" data-name="Shape" d="M24.176,11.442a2.234,2.234,0,0,0,.844-.167,2.2,2.2,0,0,0,1.192-2.88L23.681,2.286a2.2,2.2,0,1,0-4.07,1.688l2.53,6.108a2.2,2.2,0,0,0,2.036,1.36Z" transform="translate(22.441 1.063)" fill="url(#linear-gradient)"/>
      <path id="Shape-8" data-name="Shape" d="M43,1.071a2.2,2.2,0,0,0-2.878,1.192L37.587,8.371a2.2,2.2,0,0,0,1.192,2.882,2.234,2.234,0,0,0,.844.167,2.2,2.2,0,0,0,2.036-1.36l2.53-6.108A2.2,2.2,0,0,0,43,1.071Z" transform="translate(44.096 1.086)" fill="url(#linear-gradient)"/>
      <path id="Shape-9" data-name="Shape" d="M51.532,21.372a2.2,2.2,0,0,0,.844-.17l6.106-2.53A2.2,2.2,0,1,0,56.8,14.6l-6.108,2.53a2.2,2.2,0,0,0,.844,4.242Z" transform="translate(58.421 17.369)" fill="url(#linear-gradient)"/>
      <path id="Shape-10" data-name="Shape" d="M13.37,21.2a2.2,2.2,0,1,0,1.688-4.072L8.95,14.6a2.2,2.2,0,1,0-1.686,4.072Z" transform="translate(6.17 17.369)" fill="url(#linear-gradient)"/>
    </g>
  </g>
</svg>
