<svg xmlns="http://www.w3.org/2000/svg" xmlns:xlink="http://www.w3.org/1999/xlink" width="120.004" height="120.005" viewBox="0 0 120.004 120.005">
  <defs>
    <linearGradient id="linear-gradient" x1="0.5" x2="0.5" y2="1" gradientUnits="objectBoundingBox">
      <stop offset="0" stop-color="#0468f7"/>
      <stop offset="1" stop-color="#c645ff"/>
    </linearGradient>
  </defs>
  <g id="XMLID_1948_" transform="translate(-0.002 0)">
    <g id="XMLID_1949_" transform="translate(0.002 -0.001)">
      <g id="XMLID_16_">
        <path id="XMLID_457_" d="M112.037,53.44h-43.5a21.784,21.784,0,0,0,15.1-22.856,2.344,2.344,0,0,0-2.109-2.109,21.723,21.723,0,0,0-17.493,6.278,21.969,21.969,0,0,0-1.691,1.9V26.073A21.7,21.7,0,0,0,77.36,19.7,21.719,21.719,0,0,0,83.639,2.21,2.344,2.344,0,0,0,81.53.1,21.783,21.783,0,0,0,57.866,18.763a21.937,21.937,0,0,0-1.9-2.164,21.715,21.715,0,0,0-17.493-6.278,2.344,2.344,0,0,0-2.109,2.109A21.771,21.771,0,0,0,57.658,36.292V53.439H7.971A7.978,7.978,0,0,0,0,61.408v50.627A7.978,7.978,0,0,0,7.971,120H49.457a2.344,2.344,0,1,0,0-4.688H19.792a17.373,17.373,0,0,0-15.1-15.1V73.229a17.373,17.373,0,0,0,15.1-15.1h80.425a17.373,17.373,0,0,0,15.1,15.1v26.985a17.373,17.373,0,0,0-15.1,15.1H48.705a2.344,2.344,0,0,0,0,4.688h63.332a7.978,7.978,0,0,0,7.969-7.969V61.409a7.978,7.978,0,0,0-7.969-7.969ZM67.352,38.068a17.031,17.031,0,0,1,11.7-5,17.095,17.095,0,0,1-16.7,16.7A17.034,17.034,0,0,1,67.352,38.068Zm0-28.374a17.031,17.031,0,0,1,11.7-5,17.095,17.095,0,0,1-16.7,16.7A17.034,17.034,0,0,1,67.352,9.694ZM45.963,26.608a17.034,17.034,0,0,1-5-11.7A17.094,17.094,0,0,1,57.658,31.6v0A17.035,17.035,0,0,1,45.963,26.608Zm-30.9,88.709H7.971a3.285,3.285,0,0,1-3.281-3.281v-7.087A12.685,12.685,0,0,1,15.058,115.317ZM4.69,68.5V61.409a3.285,3.285,0,0,1,3.281-3.281h7.087A12.685,12.685,0,0,1,4.69,68.5ZM104.95,58.127h7.087a3.285,3.285,0,0,1,3.281,3.281V68.5A12.685,12.685,0,0,1,104.95,58.127Zm7.087,57.189H104.95a12.685,12.685,0,0,1,10.368-10.368v7.087A3.285,3.285,0,0,1,112.037,115.317Z" transform="translate(-0.002 0.001)" fill="url(#linear-gradient)"/>
        <path id="XMLID_737_" d="M212.441,307.223a19.219,19.219,0,1,0-19.219,19.219A19.241,19.241,0,0,0,212.441,307.223Zm-33.751,0a14.532,14.532,0,1,1,14.532,14.532A14.548,14.548,0,0,1,178.69,307.223Z" transform="translate(-133.219 -220.501)" fill="url(#linear-gradient)"/>
        <path id="XMLID_740_" d="M78.009,345.5a7.5,7.5,0,1,0,7.5-7.5A7.509,7.509,0,0,0,78.009,345.5Zm10.313,0a2.813,2.813,0,1,1-2.813-2.813A2.816,2.816,0,0,1,88.322,345.5Z" transform="translate(-59.726 -258.782)" fill="url(#linear-gradient)"/>
        <path id="XMLID_743_" d="M385,345.5a7.5,7.5,0,1,0-7.5,7.5A7.509,7.509,0,0,0,385,345.5Zm-10.313,0a2.813,2.813,0,1,1,2.813,2.813A2.816,2.816,0,0,1,374.683,345.5Z" transform="translate(-283.275 -258.782)" fill="url(#linear-gradient)"/>
      </g>
    </g>
  </g>
</svg>
