<svg xmlns="http://www.w3.org/2000/svg" xmlns:xlink="http://www.w3.org/1999/xlink" width="683.336" height="874.001" viewBox="0 0 683.336 874.001">
  <defs>
    <linearGradient id="linear-gradient" x1="-0.438" y1="1.131" x2="8.054" y2="-4.62" gradientUnits="objectBoundingBox">
      <stop offset="0" stop-color="#0069f7"/>
      <stop offset="0.12" stop-color="#3d5ef9"/>
      <stop offset="0.25" stop-color="#7753fc"/>
      <stop offset="0.36" stop-color="#a24cfe"/>
      <stop offset="0.44" stop-color="#bc47ff"/>
      <stop offset="0.49" stop-color="#c645ff"/>
    </linearGradient>
    <linearGradient id="linear-gradient-2" x1="-1.409" y1="1.736" x2="7.361" y2="-4.014" xlink:href="#linear-gradient"/>
    <linearGradient id="linear-gradient-3" x1="-1.705" y1="2.446" x2="5.326" y2="-3.305" xlink:href="#linear-gradient"/>
    <linearGradient id="linear-gradient-4" x1="-3.536" y1="2.93" x2="5.952" y2="-2.82" xlink:href="#linear-gradient"/>
  </defs>
  <g id="Group_2525" data-name="Group 2525" transform="translate(-140 -8607.999)">
    <rect id="Rectangle_495" data-name="Rectangle 495" width="673.663" height="864.001" transform="translate(140.337 8617.999)" fill="#fff"/>
    <g id="Group_2490" data-name="Group 2490" transform="translate(-12 -3759)">
      <text id="_10_Things" data-name="10 Things" transform="translate(212.337 12595.999)" fill="#120638" font-size="72" font-family="SharpUnity-Extrabold, Sharp Unity" font-weight="800"><tspan x="0" y="0">10 Things</tspan></text>
      <text id="Should_Know" data-name="Should Know" transform="translate(212.337 12750.999)" fill="#120638" font-size="72" font-family="SharpUnity-Extrabold, Sharp Unity" font-weight="800"><tspan x="0" y="0">Should Know</tspan></text>
      <rect id="Rectangle_496" data-name="Rectangle 496" width="450" height="65" transform="translate(212.337 12616.999)" fill="#c645ff"/>
      <text id="First-Time_Homebuyers" data-name="First-Time Homebuyers" transform="translate(225.337 12661.999)" fill="#120638" font-size="36" font-family="SharpUnity-Extrabold, Sharp Unity" font-weight="800"><tspan x="0" y="0">First-Time Homebuyers</tspan></text>
    </g>
    <path id="Path_8325" data-name="Path 8325" d="M-2379.777-13006l195.363,165.059V-13006Z" transform="translate(2998.414 21624)" fill="#c645ff"/>
    <path id="Path_8324" data-name="Path 8324" d="M-2988-12339.75l338.345-41.635,335.6,41.525.053,223.593-674,.105Z" transform="translate(3128 21598.16)" fill="#2b2d30"/>
    <g id="Group_2489" data-name="Group 2489" transform="translate(-12 -3733)">
      <path id="Path_1" data-name="Path 1" d="M192.164,190.523h17.581v12.621H191.329c-8.017,0-13.83-6.364-13.83-14.879s5.866-14.612,13.83-14.612h21.332V168.32H191.329c-11.075,0-19.2,7.857-19.2,19.7s8.124,20.532,19.2,20.532h23.839V185.528H190.387Z" transform="translate(303.929 12899.402)" fill="#fff"/>
      <path id="Path_2" data-name="Path 2" d="M155.009,34.972v-12.6h26.665l1.778-4.977H155.009V5.481h29.047L182.278.13H149.64V40.341h33.58L185,34.972Z" transform="translate(376.371 13067.575)" fill="#fff"/>
      <path id="Path_3" data-name="Path 3" d="M259.718,200.32l-30.452-31.145a2.507,2.507,0,0,0-2.293-.782H221.8l2.115,5.529v34.7h5.137v-32.14l30.327,31.251a4.053,4.053,0,0,0,2.773,1.387c1.547,0,2.7-1.209,2.7-3.271V168.18h-5.137Z" transform="translate(342.556 12899.294)" fill="#fff"/>
      <rect id="Rectangle_1" data-name="Rectangle 1" width="5.369" height="40.229" transform="translate(615.339 13067.687)" fill="#fff"/>
      <path id="Path_4" data-name="Path 4" d="M295.424,190.77c0,9.066-4.089,12.995-16,12.995s-16-3.929-16-12.995V168.3H257.88v22.47c0,12.444,6.1,18.31,21.332,18.31s21.332-5.866,21.332-18.31V168.3h-5.333Z" transform="translate(370.613 12899.387)" fill="#fff"/>
      <path id="Path_5" data-name="Path 5" d="M315.26,185.536H296.506a5.617,5.617,0,0,1-6.2-5.92,5.688,5.688,0,0,1,6.257-5.973h26.932l1.778-5.333H296.559c-7.7,0-11.839,4.711-11.839,11.022s4.48,11.217,11.733,11.217H315.26c4.426,0,6.862,2.115,6.862,6.257,0,3.769-2.382,6.364-6.862,6.364H285.324V208.5H315.26c8.017,0,11.946-4.924,11.946-11.5C327.206,189.429,323.064,185.536,315.26,185.536Z" transform="translate(391.486 12899.395)" fill="#fff"/>
      <path id="Path_6" data-name="Path 6" d="M97.147,178.7c0-6.808-3.342-10.1-9.688-10.1H50.59v39.7H62.5V196.154h6.08a62.57,62.57,0,0,0,7.7-.391L83.708,208.3H96.525l-9.119-15.377C93.236,190.252,97.147,185.843,97.147,178.7ZM79.37,186.288a38.238,38.238,0,0,1-10.328,1.031H62.465V178H83.317c1.369,0,1.778.569,1.778,1.778.142,3.893-3.253,5.831-5.689,6.506Z" transform="translate(209.41 12899.62)" fill="url(#linear-gradient)"/>
      <path id="Path_7" data-name="Path 7" d="M43.68,24.525h29.1l1.973-8.515H43.68V9.5H76.23L74.132.42H31.77v39.7H74.754l2.1-9.066H43.68Z" transform="translate(284.707 13067.8)" fill="url(#linear-gradient-2)"/>
      <path id="Path_8" data-name="Path 8" d="M129.643,168.6l1.778,3.058L110,208.3h12.8l3.751-6.417h23.11l3.751,6.417h12.817L142.8,168.6Zm1.938,24.55,6.471-11.164L144.5,193.15Z" transform="translate(255.611 12899.62)" fill="url(#linear-gradient-3)"/>
      <path id="Path_9" data-name="Path 9" d="M106.52.42H94.61v39.7h39.464l2.2-9.528H106.52Z" transform="translate(333.576 13067.8)" fill="url(#linear-gradient-4)"/>
    </g>
    <text id="FREE_DOWNLOAD_" data-name="FREE
DOWNLOAD!" transform="matrix(0.766, 0.643, -0.643, 0.766, 750.333, 8674.47)" fill="#120638" font-size="24" font-family="SharpUnity-Extrabold, Sharp Unity" font-weight="800"><tspan x="-29" y="0">FREE</tspan><tspan x="-75" y="24">DOWNLOAD!</tspan></text>
  </g>
</svg>
