<svg xmlns="http://www.w3.org/2000/svg" xmlns:xlink="http://www.w3.org/1999/xlink" width="120.015" height="120.015" viewBox="0 0 120.015 120.015">
  <defs>
    <linearGradient id="linear-gradient" x1="0.5" x2="0.5" y2="1" gradientUnits="objectBoundingBox">
      <stop offset="0" stop-color="#0468f7"/>
      <stop offset="1" stop-color="#c645ff"/>
    </linearGradient>
  </defs>
  <g id="rental" transform="translate(-1 -1)">
    <path id="Path_8806" data-name="Path 8806" d="M10.807,39H5V58.357H8.871V50.614h1.936a1.936,1.936,0,0,1,1.936,1.936v5.807h3.871V52.55a5.77,5.77,0,0,0-1.51-3.871A5.782,5.782,0,0,0,10.807,39ZM8.871,46.743V42.871h1.936a1.936,1.936,0,0,1,0,3.871Z" transform="translate(3.743 35.557)" fill="url(#linear-gradient)"/>
    <path id="Path_8807" data-name="Path 8807" d="M13,58.357h7.743V54.486H16.871V50.614h3.871V46.743H16.871V42.871h3.871V39H13Z" transform="translate(11.229 35.557)" fill="url(#linear-gradient)"/>
    <path id="Path_8808" data-name="Path 8808" d="M26.743,48.441,24.383,39H19V58.357h3.871V48.917l2.36,9.441h5.383V39H26.743Z" transform="translate(16.843 35.557)" fill="url(#linear-gradient)"/>
    <path id="Path_8809" data-name="Path 8809" d="M27,42.871h3.871V58.357h3.871V42.871h3.871V39H27Z" transform="translate(24.329 35.557)" fill="url(#linear-gradient)"/>
    <path id="Path_8810" data-name="Path 8810" d="M119.5,41.153,91.485,9.842a14.925,14.925,0,0,0-22.241,0l-2.48,2.772H47.457V4.871h3.871V1H28.1V4.871h3.871v7.743H25L8.743,43.1v4.355h3.871V66.814H6.807A5.814,5.814,0,0,0,1,72.622V95.85a5.814,5.814,0,0,0,5.807,5.807H8.743v19.357H20.357V101.657H51.329v19.357H62.943V101.657h1.936a5.814,5.814,0,0,0,5.807-5.807V93.915H109.4V47.949l1.231,1.384a5.941,5.941,0,0,0,10.383-3.947v-.269a5.936,5.936,0,0,0-1.514-3.964ZM35.843,4.871h7.743v7.743H35.843ZM27.326,16.486H63.3L41.228,41.153a5.911,5.911,0,0,0-1.289,2.433H12.874ZM16.486,47.457H40.107a5.923,5.923,0,0,0,9.99,1.876l1.231-1.384V66.814H16.486Zm0,69.686H12.614V101.657h3.871Zm42.586,0H55.2V101.657h3.871ZM66.814,95.85a1.936,1.936,0,0,1-1.936,1.936H6.807A1.936,1.936,0,0,1,4.871,95.85V72.622a1.936,1.936,0,0,1,1.936-1.936H64.879a1.936,1.936,0,0,1,1.936,1.936Zm2.408-27.042a13.538,13.538,0,0,1,24.692,7.685v13.55H70.686V72.622A5.752,5.752,0,0,0,69.223,68.808ZM97.786,90.043V76.493a17.4,17.4,0,0,0-31.934-9.58,5.785,5.785,0,0,0-.974-.1H55.2V51.329h50.329V90.043Zm7.743-42.586H55.2V43.594L78.589,17.281a2.461,2.461,0,0,1,3.55,0l23.389,26.312Zm11.614-2.071a2.07,2.07,0,0,1-3.618,1.376L85.032,14.711a6.243,6.243,0,0,0-9.334,0L47.2,46.762a2.07,2.07,0,0,1-3.618-1.376v-.269a2.074,2.074,0,0,1,.527-1.382l28.016-31.31a11.054,11.054,0,0,1,16.473,0l28.016,31.31a2.074,2.074,0,0,1,.527,1.382Z" fill="url(#linear-gradient)"/>
    <path id="Path_8811" data-name="Path 8811" d="M37,22.679A9.679,9.679,0,1,0,46.679,13,9.69,9.69,0,0,0,37,22.679Zm15.486,0a5.807,5.807,0,1,1-5.807-5.807A5.814,5.814,0,0,1,52.486,22.679Z" transform="translate(33.686 11.229)" fill="url(#linear-gradient)"/>
    <path id="Path_8812" data-name="Path 8812" d="M11,31h3.871v3.871H11Z" transform="translate(9.357 28.072)" fill="url(#linear-gradient)"/>
    <path id="Path_8813" data-name="Path 8813" d="M15,31h3.871v3.871H15Z" transform="translate(13.1 28.072)" fill="url(#linear-gradient)"/>
    <path id="Path_8814" data-name="Path 8814" d="M19,31h3.871v3.871H19Z" transform="translate(16.843 28.072)" fill="url(#linear-gradient)"/>
  </g>
</svg>
