<svg xmlns="http://www.w3.org/2000/svg" xmlns:xlink="http://www.w3.org/1999/xlink" width="130.502" height="130.5" viewBox="0 0 130.502 130.5">
  <defs>
    <linearGradient id="linear-gradient" x1="0.5" x2="0.5" y2="1" gradientUnits="objectBoundingBox">
      <stop offset="0" stop-color="#0468f7"/>
      <stop offset="1" stop-color="#c645ff"/>
    </linearGradient>
  </defs>
  <g id="residential_1_" data-name="residential (1)" transform="translate(0 -0.003)">
    <g id="Group_13320" data-name="Group 13320" transform="translate(0 0.003)">
      <path id="Path_8801" data-name="Path 8801" d="M183.259,54.308a6.314,6.314,0,0,0,10.1,0l13.577-18.1A22.627,22.627,0,0,0,188.836,0h-1.052a22.628,22.628,0,0,0-18.1,36.2Zm4.526-50.095h1.052a18.417,18.417,0,0,1,14.734,29.468l-13.577,18.1a2.1,2.1,0,0,1-3.367,0l-13.577-18.1A18.417,18.417,0,0,1,187.784,4.213Z" transform="translate(-123.061 -0.003)" fill="url(#linear-gradient)"/>
      <path id="Path_8802" data-name="Path 8802" d="M122.08,214.992a6.293,6.293,0,0,0,2.1.365,6.461,6.461,0,0,0,1.014-.08,6.315,6.315,0,0,0,5.146-7.627,6.443,6.443,0,0,0-2.58-3.811l-5.683-4.06V185.888H109.452v4.87l-9.352-6.68a12.884,12.884,0,0,0-14.977,0l-19.874,14.2-19.874-14.2a12.884,12.884,0,0,0-14.977,0l-9.35,6.679v-4.869H8.419v13.89L2.644,203.9A6.273,6.273,0,0,0,.086,208a6.35,6.35,0,0,0,1.907,5.647,6.169,6.169,0,0,0,3.09,1.588,6.534,6.534,0,0,0,1.24.12,6.253,6.253,0,0,0,2.1-.364v25.622H0v25.258H130.5V240.614H122.08Zm-8.419,34.042v-4.21h4.21v4.21Zm-36.536,0a8.4,8.4,0,0,0-3.455-1.833v-2.376H84.194v4.21Zm-23.75,0H46.306v-4.21H56.831V247.2a8.4,8.4,0,0,0-3.456,1.833Zm-36.536-4.21v4.21h-4.21v-4.21Zm4.21,0h4.21v4.21h-4.21Zm27.363-4.21H27.363V223.776H48.411Zm-18.943,4.21h4.21v4.21h-4.21Zm8.419,0H42.1v4.21h-4.21ZM61.04,236.4h4.21v-4.21H61.04V215.356H69.46v8.419H65.25v4.21h4.21v13.761a8.394,8.394,0,0,0-8.419,0Zm42.1,4.21H82.089V223.776h21.048ZM88.4,244.824h4.21v4.21H88.4Zm8.419,0h4.21v4.21h-4.21Zm8.419,0h4.21v4.21h-4.21Zm2.1-4.21V219.566H77.879v21.048h-4.21V213.748c.152-.137.3-.279.439-.431a6.266,6.266,0,0,0,1.511-5.668,6.118,6.118,0,0,0-.332-1.025l17.176-12.269a.258.258,0,0,1,.3,0l25.111,17.937v28.322Zm6.314-50.516h4.21v6.674l-4.21-3.007ZM87.57,187.5a8.673,8.673,0,0,1,10.083,0l27.664,19.76a2.247,2.247,0,0,1,.919,1.308,2.081,2.081,0,0,1-.512,1.906,2.046,2.046,0,0,1-1.186.64,2.1,2.1,0,0,1-1.578-.364L95.206,190.929a4.464,4.464,0,0,0-5.189,0L72.492,203.447l-3.621-2.587ZM12.629,190.1h4.21v3.666l-4.21,3.007ZM5.881,211.1a2,2,0,0,1-.987-.5,2.117,2.117,0,0,1-.655-1.9,2.09,2.09,0,0,1,.853-1.366L32.846,187.5a8.673,8.673,0,0,1,10.083,0l27.664,19.76a2.247,2.247,0,0,1,.919,1.308A2.082,2.082,0,0,1,71,210.479a2.045,2.045,0,0,1-1.185.64,2.1,2.1,0,0,1-1.578-.364L40.481,190.93a4.463,4.463,0,0,0-5.189,0L7.538,210.755a2.1,2.1,0,0,1-1.657.349Zm6.748,1.187,25.11-17.936a.259.259,0,0,1,.3,0l23.508,16.792H56.831v29.468h-4.21V219.566H23.153v21.048H12.629ZM8.419,244.824v4.21H4.21v-4.21Zm-4.21,8.419H50.788c-.019.072-.041.142-.058.214a8.435,8.435,0,0,0-6.528,8.205H4.21Zm48.411,4.21h2.1v-2.1a4.215,4.215,0,0,1,4.21-4.21h2.1v-2.1a4.21,4.21,0,0,1,8.419,0v2.1h2.1a4.215,4.215,0,0,1,4.21,4.21v2.1h2.1a4.215,4.215,0,0,1,4.21,4.21H48.411a4.215,4.215,0,0,1,4.21-4.21Zm33.677,4.21a8.435,8.435,0,0,0-6.528-8.205c-.017-.072-.039-.142-.058-.214H126.29v8.419H86.3Zm39.992-12.629h-4.21v-4.21h4.21Z" transform="translate(0 -135.372)" fill="url(#linear-gradient)"/>
      <path id="Path_8803" data-name="Path 8803" d="M344.889,247.742a6.315,6.315,0,1,0,6.315,6.315A6.322,6.322,0,0,0,344.889,247.742Zm0,8.419a2.1,2.1,0,1,1,2.1-2.1A2.107,2.107,0,0,1,344.889,256.161Z" transform="translate(-252.276 -184.596)" fill="url(#linear-gradient)"/>
      <path id="Path_8804" data-name="Path 8804" d="M130.183,260.37a6.315,6.315,0,1,0-6.315-6.315A6.322,6.322,0,0,0,130.183,260.37Zm0-8.419a2.1,2.1,0,1,1-2.1,2.1A2.107,2.107,0,0,1,130.183,251.951Z" transform="translate(-92.296 -184.596)" fill="url(#linear-gradient)"/>
      <path id="Path_8805" data-name="Path 8805" d="M212.924,62.5A14.734,14.734,0,1,0,198.19,47.77,14.75,14.75,0,0,0,212.924,62.5Zm0-25.258A10.524,10.524,0,1,1,202.4,47.771,10.536,10.536,0,0,1,212.924,37.246Z" transform="translate(-147.674 -24.617)" fill="url(#linear-gradient)"/>
    </g>
  </g>
</svg>
