<svg xmlns="http://www.w3.org/2000/svg" width="25" height="20" viewBox="0 0 20 16">
	<defs />
	<path fill="#303e55" class="a" d="M9.72,36.2l-6.4,5.424v5.854a.564.564,0,0,0,.556.572l3.891-.01a.564.564,0,0,0,.553-.571V44.05a.564.564,0,0,1,.556-.571h2.222a.564.564,0,0,1,.556.571v3.416a.58.58,0,0,0,.162.405.548.548,0,0,0,.393.168l3.889.011a.564.564,0,0,0,.556-.572V41.621l-6.4-5.42a.414.414,0,0,0-.531,0Zm10.111,3.686-2.9-2.461V32.479a.423.423,0,0,0-.417-.429H14.567a.423.423,0,0,0-.417.429v2.594l-3.108-2.631a1.631,1.631,0,0,0-2.118,0L.136,39.887a.437.437,0,0,0-.056.6L.966,41.6a.413.413,0,0,0,.282.154.409.409,0,0,0,.305-.1l8.167-6.92a.414.414,0,0,1,.531,0l8.167,6.92A.409.409,0,0,0,19,41.6l.885-1.107a.437.437,0,0,0,.093-.315.432.432,0,0,0-.152-.29Z" transform="translate(0.015 -32.05)" />
</svg>
