<svg xmlns="http://www.w3.org/2000/svg" width="11" height="19.995" viewBox="0 0 11 19.995">
	<defs />
	<path fill="#303e55" class="a" d="M8.027,9.115,3.9,7.881a1.152,1.152,0,0,1-.81-1.105A1.139,1.139,0,0,1,4.218,5.624H6.751a2.3,2.3,0,0,1,1.307.41A.586.586,0,0,0,8.8,5.956l1.329-1.328a.642.642,0,0,0-.069-.957A5.328,5.328,0,0,0,6.759,2.5V.625A.62.62,0,0,0,6.147,0H4.925a.62.62,0,0,0-.611.625V2.5h-.1A4.243,4.243,0,0,0,.054,7.17a4.442,4.442,0,0,0,3.2,3.773l3.916,1.172a1.156,1.156,0,0,1,.81,1.105,1.139,1.139,0,0,1-1.127,1.152H4.321a2.3,2.3,0,0,1-1.307-.41.586.586,0,0,0-.745.078L.94,15.367a.642.642,0,0,0,.069.957,5.328,5.328,0,0,0,3.3,1.172V19.37A.62.62,0,0,0,4.925,20H6.147a.62.62,0,0,0,.611-.625V17.488A4.282,4.282,0,0,0,8.027,9.115Z" transform="translate(-0.036)" />
</svg>
