<svg xmlns="http://www.w3.org/2000/svg" width="188.983" height="37.646" viewBox="0 0 188.983 37.646">
  <path id="bankrate-logo-vector" d="M-84.617,251.977v-3.843h-.063a9.516,9.516,0,0,1-8.505,4.473c-7.308,0-13.23-5.481-13.23-12.695,0-7.97,5.733-13.545,13.073-13.545a9.986,9.986,0,0,1,8.663,4.19h.095v-3.528h4.694v24.949Zm.095-12.443a8.623,8.623,0,0,0-8.694-8.915,8.726,8.726,0,0,0-8.505,8.915,8.778,8.778,0,0,0,8.505,8.789A8.752,8.752,0,0,0-84.522,239.534ZM-58.6,251.977V238.368c0-5.261-2.079-7.749-6.206-7.749s-6.584,3.024-6.584,7.718v13.64H-76.08V227.028H-71.7v2.678h.095A8.756,8.756,0,0,1-64.3,226.4c5.985,0,10.4,3.78,10.4,10.679v14.932l-4.694-.031Zm68.483,0v-3.843H9.792a9.526,9.526,0,0,1-8.474,4.5c-7.308,0-13.23-5.481-13.23-12.695,0-7.97,5.7-13.545,13.073-13.545a9.986,9.986,0,0,1,8.663,4.19h.094v-3.528h4.631v24.949H9.887Zm.094-12.443a8.623,8.623,0,0,0-8.694-8.915,8.726,8.726,0,0,0-8.505,8.915,8.778,8.778,0,0,0,8.505,8.789A8.773,8.773,0,0,0,9.981,239.534ZM21.7,251.977V231.312H18.329v-4.284H21.7v-8.379h4.662v8.379h4.1v4.284h-4.1v20.665Zm14.585-10.458a8.588,8.588,0,0,0,8.19,6.8,8,8,0,0,0,7.119-4.19h4.694a12.817,12.817,0,0,1-12,8.474c-7.025,0-12.726-6.206-12.726-12.884,0-7.875,5.954-13.388,12.569-13.388a12.707,12.707,0,0,1,12.947,12.474v.378a14.852,14.852,0,0,1-.126,2.363l-20.665-.032Zm16.129-3.591a8.1,8.1,0,0,0-16.129,0Zm-164.5-4.064a11.584,11.584,0,0,0-2.3-1.8,8.022,8.022,0,0,0,.819-.945,9.953,9.953,0,0,0,1.89-6.615,10.3,10.3,0,0,0-2.93-6.552,10.486,10.486,0,0,0-7.529-2.961H-131.9v37.549h11.5a11.048,11.048,0,0,0,8.442-3.5,11.3,11.3,0,0,0,2.93-7.623A11.035,11.035,0,0,0-112.086,233.863Zm-10.08-14.459a5.689,5.689,0,0,1,6.08,5.387,5.443,5.443,0,0,1-4.6,5.639h-6.9V219.4Zm1.733,28.824h-7.119V234.84h6.489c5.607,0,7.592,3.591,7.592,6.678a6.552,6.552,0,0,1-6.962,6.71Zm104.678-21.2c-4.442-.315-6.143,1.89-6.143,1.89v-1.89H-26.56v24.949h4.694V237.959a9.938,9.938,0,0,1,.473-3.024c1.008-3.056,4.316-4.032,7.56-2.835l1.922-4.1A10.81,10.81,0,0,0-15.755,227.028Zm-34.4-8.379h4.694v33.328h-4.694Zm15.215,33.328L-45.272,239.5l9.261-12.474h5.292L-39.854,239.5l10.427,12.474Z" transform="translate(131.9 -214.992)" fill="#151515"/>
</svg>
