<svg id="Layer_2" data-name="Layer 2" xmlns="http://www.w3.org/2000/svg" width="179.71" height="46.61" viewBox="0 0 179.71 46.61">
  <g id="Layer_1" data-name="Layer 1">
    <path id="Exclusion_9" data-name="Exclusion 9" d="M121.226,45.653H0V0H121.226c3.517,0,6.378,2.531,6.378,5.642V40.011C127.6,43.122,124.743,45.653,121.226,45.653ZM95.9,30.352l-.766,1.076a3.83,3.83,0,0,0,2.808,1.061c1.665,0,2.659-.8,2.659-2.131,0-1.5-1.375-1.826-2.481-2.088l-.01,0-.042-.01c-.687-.164-1.281-.306-1.281-.727s.362-.667.945-.667h.029a2.855,2.855,0,0,1,1.9.725l.788-1.038a3.686,3.686,0,0,0-2.589-.925c-1.483,0-2.519.831-2.519,2.021,0,1.494,1.347,1.8,2.43,2.049l.048.011.054.013c.692.17,1.29.317,1.29.792,0,.367-.357.737-1.155.737H98a2.926,2.926,0,0,1-2.1-.9Zm-6.052,0h0l-.766,1.075A3.865,3.865,0,0,0,91.9,32.488c1.664,0,2.658-.8,2.658-2.131,0-1.5-1.375-1.826-2.48-2.089l-.009,0-.041-.01c-.688-.164-1.283-.306-1.283-.727s.362-.667.945-.667h.029a2.857,2.857,0,0,1,1.9.725l.782-1.038a3.683,3.683,0,0,0-2.589-.925c-1.483,0-2.518.831-2.518,2.021,0,1.494,1.348,1.8,2.43,2.049l.048.011.054.013c.692.17,1.29.317,1.29.792,0,.355-.362.737-1.156.737h-.01a2.926,2.926,0,0,1-2.1-.9Zm-22.043,0-.766,1.075a3.838,3.838,0,0,0,2.809,1.061c1.664,0,2.658-.8,2.658-2.131,0-1.5-1.375-1.826-2.48-2.089l-.009,0-.038-.009c-.69-.164-1.286-.306-1.286-.728s.362-.667.945-.667h.032a2.848,2.848,0,0,1,1.9.725l.787-1.038a3.683,3.683,0,0,0-2.589-.925c-1.483,0-2.518.831-2.518,2.021,0,1.494,1.348,1.8,2.43,2.049l.048.011.054.013c.692.17,1.29.317,1.29.792,0,.355-.362.737-1.156.737h-.01A2.926,2.926,0,0,1,67.808,30.352Zm-7.693-4.63v3.992c0,1.733,1.128,2.768,3.017,2.768,1.9,0,3-1.012,3-2.777V25.722H64.679v3.944a1.558,1.558,0,1,1-3.117,0V25.722Zm23.548,0v6.641l4.7,0V31.116H85.076v-1.5h3.216V28.369H85.076v-1.4H88.37V25.722Zm-5.916,2.31,0,0,3.165,4.328h1.36V25.722H80.86v4.164l-3.079-4.164H76.333v6.641h1.414V28.032Zm-4.211-2.31v6.641h1.414V25.722Zm-20.086,0v6.641l3.6,0a1.748,1.748,0,0,0,1.932-1.792,1.6,1.6,0,0,0-1.268-1.63,1.475,1.475,0,0,0,1.145-1.523,1.71,1.71,0,0,0-1.913-1.693ZM15.932,27.373h7.787l1.4,3.835a1.421,1.421,0,0,0,.429.565,1.157,1.157,0,0,0,.741.228H29L21.613,13.2H18.05L10.653,32h2.731a1.128,1.128,0,0,0,.741-.247,1.251,1.251,0,0,0,.4-.546l1.4-3.834Zm14.131-5.291V24.46h5.018v5.356h2.613V24.46h5.044V22.082H37.694v-5.33H35.081v5.33ZM63.631,14.2h-.085a3.436,3.436,0,1,0,0,6.87,3.041,3.041,0,0,0,2.778-1.63l-1.208-.6a1.778,1.778,0,0,1-1.563.965,2.058,2.058,0,0,1-2.08-2.173,2.058,2.058,0,0,1,2.08-2.173,1.8,1.8,0,0,1,1.554.97l1.215-.6A3.033,3.033,0,0,0,63.631,14.2Zm6.912,0h-.085a3.428,3.428,0,1,0-.036,6.853h.036a3.037,3.037,0,0,0,2.777-1.629l-1.215-.587a1.778,1.778,0,0,1-1.562.965,2.058,2.058,0,0,1-2.081-2.173,2.058,2.058,0,0,1,2.081-2.173,1.8,1.8,0,0,1,1.562.97l1.215-.6A3.032,3.032,0,0,0,70.543,14.2Zm5.024,4.4H76.6l1.3,2.354,1.63.005-1.494-2.535a1.9,1.9,0,0,0,1.449-1.972,2.07,2.07,0,0,0-2.231-2.14H74.153v6.642h1.414V18.6Zm32.693-4.288v6.642h2.618a3.242,3.242,0,0,0,3.525-3.316,3.247,3.247,0,0,0-3.525-3.326Zm-5.876,0v6.642l4.7,0V19.709H103.8v-1.5h3.213V16.962H103.8v-1.4h3.294V14.315Zm-6.274,0v1.245h1.943v5.4h1.423v-5.4h1.932V14.315Zm-2.388,0v6.642h1.414V14.315Zm-7.222,0v6.642H89.12a3.242,3.242,0,0,0,3.525-3.316,3.247,3.247,0,0,0-3.525-3.326Zm-5.875,0v6.642l4.7,0V19.709H82.04v-1.5h3.216V16.962H82.04v-1.4h3.294V14.315ZM54.773,19.832h2.848l.407,1.125h1.614l-2.559-6.642H55.311l-2.57,6.642h1.613l.418-1.124Zm1.912,11.306H54.864V29.595h1.822a.774.774,0,0,1,.856.777A.755.755,0,0,1,56.686,31.137Zm-.049-2.758H54.864V26.932h1.772l.052,0a.724.724,0,0,1,.724.726l0,.007A.708.708,0,0,1,56.636,28.38ZM22.821,24.9H16.829l2.288-6.227c.113-.286.229-.623.345-1s.231-.774.357-1.235c.123.447.241.848.364,1.229s.238.7.351.982L22.821,24.9Zm88.066-5.191h-1.2v-4.15h1.2a1.949,1.949,0,0,1,2.08,2.08l-.007,0A1.983,1.983,0,0,1,110.887,19.711Zm-21.758,0h-1.2v-4.15h1.2a1.949,1.949,0,0,1,2.08,2.08l-.007,0A1.983,1.983,0,0,1,89.129,19.711Zm-31.9-1.127H55.163L56.2,15.727l1.035,2.855Zm19.811-1.233H75.561V15.559h1.483a.9.9,0,1,1,0,1.792Z" transform="translate(42.551 0.478)" fill="#4c4c4c"/>
    <path id="Path_987" data-name="Path 987" d="M353.577,46.61H232.37V0H353.577c3.795,0,6.87,2.742,6.874,6.12V40.49c0,3.378-3.079,6.116-6.874,6.12m-120.134-.956H353.577c3.2,0,5.8-2.313,5.8-5.164V6.12c0-2.851-2.6-5.161-5.8-5.164H233.444Z" transform="translate(-190.296)" fill="#4c4c4c"/>
    <path id="Path_988" data-name="Path 988" d="M62.478,30.876,60.51,33.592a3.673,3.673,0,0,0,.666,4.74l3.65,2.634c.626.453.675.905.378,1.378l.531.395,1.849-2.56a3.464,3.464,0,0,0-.652-4.968L63.25,32.528a.919.919,0,0,1-.243-1.267l-.531-.378m3.16-11.992-3.065,4.239a5.262,5.262,0,0,0,1.05,6.826l5.039,3.7a2.843,2.843,0,0,1,.411,3.638l.427.32,3.476-4.889a5.146,5.146,0,0,0-.981-7.221L66.6,21.586a1.638,1.638,0,0,1-.5-2.368l-.464-.328M57.559,45.476H61.62l.724,2.462h6.638l.724-2.462h4.063l-.532-1.811H58.091l-.532,1.811m1.9,8.238a2.1,2.1,0,0,0,1.152-1.874c0-1.682-1.378-2.368-2.883-2.368h-4.2V58.4h4.164c1.778,0,3.661-.777,3.357-2.823-.181-1.171-.645-1.449-1.588-1.869m-4.038-2.531h2.187a.955.955,0,1,1,.085,1.9H55.426Zm2.439,5.535H55.426V54.679h2.439C59.655,54.679,59.545,56.716,57.865,56.716Zm9.937-3a2.1,2.1,0,0,0,1.152-1.874c0-1.682-1.378-2.368-2.883-2.368h-4.2V58.4h4.164c1.776,0,3.661-.777,3.357-2.823-.181-1.171-.645-1.449-1.588-1.869m-4.031-2.535h2.182a.955.955,0,1,1,.085,1.9H63.771Zm2.434,5.537H63.771V54.679H66.2c1.789,0,1.68,2.037,0,2.037Zm11.523-1.132c-.181-1.171-.645-1.449-1.588-1.869a2.1,2.1,0,0,0,1.152-1.874c0-1.682-1.378-2.368-2.883-2.368h-4.2V58.4h4.164c1.776,0,3.661-.777,3.357-2.823m-5.613-4.4h2.175a.955.955,0,1,1,.085,1.9H72.111Zm2.434,5.537H72.111V54.679h2.434c1.789,0,1.68,2.037,0,2.037Z" transform="translate(-43.838 -15.47)" fill="#4c4c4c"/>
    <path id="Path_990" data-name="Path 990" d="M171.845,42.686v-.022a3.933,3.933,0,0,1,7.865-.022v.022a3.933,3.933,0,1,1-7.865.022Zm7.507-.022v-.022a3.574,3.574,0,1,0-7.148.022v.022a3.574,3.574,0,1,0,7.148-.022Zm-5.117-2.129h1.811a1.678,1.678,0,0,1,1.2.424,1.061,1.061,0,0,1,.326.782v.022a1.194,1.194,0,0,1-1.043,1.184l1.249,1.619h-.739l-1.162-1.521H174.84v1.521h-.6Zm1.749,1.977c.565,0,.956-.261.956-.724v-.022c0-.424-.348-.7-.923-.7h-1.184V42.5ZM43.03,46.61H6.12A6.127,6.127,0,0,1,0,40.49V6.12A6.127,6.127,0,0,1,6.12,0H43.03V46.61M6.12.956A5.169,5.169,0,0,0,.956,6.12V40.49A5.169,5.169,0,0,0,6.12,45.654H42.074V.956Z" fill="#4c4c4c"/>
  </g>
</svg>
