<svg xmlns="http://www.w3.org/2000/svg" width="162.115" height="53.365" viewBox="0 0 162.115 53.365">
  <g id="Group_977" data-name="Group 977" transform="translate(-534 -2184.56)">
    <g id="Group_857" data-name="Group 857" transform="translate(534 2184.56)">
      <g id="Google_2015_logo" transform="translate(0)">
        <path id="Path_1458" data-name="Path 1458" d="M98,38.335A13.377,13.377,0,1,1,84.627,25,13.171,13.171,0,0,1,98,38.335Zm-5.856,0c0-4.8-3.481-8.081-7.521-8.081s-7.521,3.283-7.521,8.081c0,4.75,3.481,8.08,7.521,8.08S92.149,43.079,92.149,38.335Z" transform="translate(-28.629 -10.252)" fill="#666"/>
        <path id="Path_1459" data-name="Path 1459" d="M146,38.335A13.377,13.377,0,1,1,132.627,25,13.171,13.171,0,0,1,146,38.335Zm-5.856,0c0-4.8-3.481-8.081-7.521-8.081s-7.521,3.283-7.521,8.081c0,4.75,3.481,8.08,7.521,8.08S140.149,43.079,140.149,38.335Z" transform="translate(-47.77 -10.252)" fill="#b4b4b4"/>
        <path id="Path_1460" data-name="Path 1460" d="M192.794,25.806V49.747c0,9.848-5.808,13.87-12.674,13.87a12.7,12.7,0,0,1-11.82-7.858l5.1-2.122a7.366,7.366,0,0,0,6.716,4.732c4.395,0,7.119-2.712,7.119-7.816V48.634h-.2a9.079,9.079,0,0,1-7.022,3.03c-6.668,0-12.776-5.808-12.776-13.281,0-7.527,6.109-13.383,12.776-13.383a9.241,9.241,0,0,1,7.022,2.982h.2v-2.17h5.561Zm-5.146,12.578c0-4.7-3.132-8.129-7.119-8.129-4.04,0-7.425,3.433-7.425,8.129,0,4.648,3.385,8.032,7.425,8.032C184.515,46.416,187.648,43.031,187.648,38.383Z" transform="translate(-66.903 -10.252)" fill="#6e6e6e"/>
        <path id="Path_1461" data-name="Path 1461" d="M221.212,3V42.08H215.5V3Z" transform="translate(-86.152 -1.479)" fill="#6d6d6d"/>
        <path id="Path_1462" data-name="Path 1462" d="M248.888,42.72l4.545,3.03a13.273,13.273,0,0,1-11.111,5.91A13.047,13.047,0,0,1,229.09,38.325c0-7.93,5.706-13.335,12.578-13.335,6.92,0,10.305,5.507,11.411,8.483l.607,1.515L235.86,42.371a6.787,6.787,0,0,0,6.463,4.04,7.611,7.611,0,0,0,6.565-3.692Zm-13.991-4.8,11.916-4.948a5.163,5.163,0,0,0-4.948-2.826A7.315,7.315,0,0,0,234.9,37.922Z" transform="translate(-91.571 -10.248)" fill="#666"/>
        <path id="Path_1463" data-name="Path 1463" d="M21.361,25.084V19.427H40.426a18.745,18.745,0,0,1,.283,3.415c0,4.245-1.16,9.493-4.9,13.233-3.637,3.788-8.285,5.808-14.441,5.808A21,21,0,0,1,.36,21.176,21,21,0,0,1,21.367.47,19.73,19.73,0,0,1,35.556,6.176l-3.992,3.992a14.421,14.421,0,0,0-10.2-4.04A14.853,14.853,0,0,0,6.511,21.176a14.853,14.853,0,0,0,14.85,15.049,13.852,13.852,0,0,0,10.455-4.142,11.727,11.727,0,0,0,3.066-7Z" transform="translate(-0.36 -0.47)" fill="#6d6d6d"/>
      </g>
    </g>
  </g>
</svg>
