<svg id="Page-1" xmlns="http://www.w3.org/2000/svg" xmlns:xlink="http://www.w3.org/1999/xlink" width="128.577" height="120.005" viewBox="0 0 128.577 120.005">
  <defs>
    <linearGradient id="linear-gradient" x1="0.326" y1="1.263" x2="0.343" y2="-0.361" gradientUnits="objectBoundingBox">
      <stop offset="0" stop-color="#0069f7"/>
      <stop offset="0.112" stop-color="#3d5ef9"/>
      <stop offset="0.37" stop-color="#7753fc"/>
      <stop offset="0.627" stop-color="#a24cfe"/>
      <stop offset="0.802" stop-color="#bc47ff"/>
      <stop offset="0.892" stop-color="#c645ff"/>
      <stop offset="1" stop-color="#c645ff"/>
    </linearGradient>
  </defs>
  <g id="_049---Building-Contract" data-name="049---Building-Contract" transform="translate(0)">
    <path id="Shape" d="M128.577,105a4.286,4.286,0,0,0-4.286-4.286H113.576V90a4.286,4.286,0,0,0-4.286-4.286H98.575V75a4.286,4.286,0,0,0-4.286-4.286H85.718v-60A10.728,10.728,0,0,0,75,0H21.429a2.43,2.43,0,0,0-1.515.628L.628,19.914A2.389,2.389,0,0,0,0,21.429v79.289a10.728,10.728,0,0,0,10.715,10.715H34.287v4.286A4.286,4.286,0,0,0,38.573,120H64.288a4.239,4.239,0,0,0,2.143-.6,4.239,4.239,0,0,0,2.143.6H94.29a4.239,4.239,0,0,0,2.143-.6,4.239,4.239,0,0,0,2.143.6h25.715a4.286,4.286,0,0,0,4.286-4.286ZM94.29,75V85.718H68.574V75Zm-75-67.687v5.542a6.429,6.429,0,0,1-6.429,6.429H7.316Zm15,97.688v2.143H10.715a6.429,6.429,0,0,1-6.429-6.429V23.572h8.572A10.728,10.728,0,0,0,23.572,12.858V4.286H75a6.429,6.429,0,0,1,6.429,6.429v60H68.574A4.286,4.286,0,0,0,64.288,75V85.718H53.574A4.286,4.286,0,0,0,49.288,90v10.715H38.573A4.286,4.286,0,0,0,34.287,105Zm30,10.715H38.573V105H64.288Zm-10.715-15V90H79.289v10.715ZM94.29,105v10.715H68.574V105Zm-10.715-4.286V90H109.29v10.715Zm15,15V105h25.715v10.715Z" transform="translate(0)" fill="url(#linear-gradient)"/>
    <path id="Shape-2" data-name="Shape" d="M17.286,46.573a2.143,2.143,0,1,0-4.286,0c0,6.465,5.6,11.814,12.858,12.712v2.289a2.143,2.143,0,1,0,4.286,0V59.285C37.4,58.387,43,53.038,43,46.573S37.4,34.759,30.144,33.861V16.745c4.884.8,8.572,4.258,8.572,8.4a2.143,2.143,0,0,0,4.286,0c0-6.465-5.6-11.814-12.858-12.712V10.143a2.143,2.143,0,1,0-4.286,0v2.289C18.6,13.33,13,18.678,13,25.144s5.6,11.814,12.858,12.712V54.971c-4.884-.8-8.572-4.258-8.572-8.4Zm12.858-8.4c4.884.8,8.572,4.258,8.572,8.4s-3.688,7.6-8.572,8.4ZM17.286,25.144c0-4.14,3.688-7.6,8.572-8.4v16.8C20.974,32.745,17.286,29.284,17.286,25.144Z" transform="translate(14.858 9.144)" fill="url(#linear-gradient)"/>
    <path id="Path" d="M7.143,41.286H35A2.143,2.143,0,1,0,35,37H7.143a2.143,2.143,0,1,0,0,4.286Z" transform="translate(5.715 42.289)" fill="url(#linear-gradient)"/>
    <path id="Path-2" data-name="Path" d="M37.144,43.143A2.143,2.143,0,0,0,35,41H7.143a2.143,2.143,0,1,0,0,4.286H35A2.143,2.143,0,0,0,37.144,43.143Z" transform="translate(5.715 46.861)" fill="url(#linear-gradient)"/>
  </g>
</svg>
