<svg id="Page-1_16_" xmlns="http://www.w3.org/2000/svg" xmlns:xlink="http://www.w3.org/1999/xlink" width="143.366" height="120.002" viewBox="0 0 143.366 120.002">
  <defs>
    <linearGradient id="linear-gradient" x1="0.5" x2="0.5" y2="1" gradientUnits="objectBoundingBox">
      <stop offset="0" stop-color="#0468f7"/>
      <stop offset="1" stop-color="#c645ff"/>
    </linearGradient>
    <linearGradient id="linear-gradient-7" x1="0.165" y1="1.049" x2="0.324" y2="0.406" xlink:href="#linear-gradient"/>
    <linearGradient id="linear-gradient-8" x1="-0.486" y1="1.44" x2="0.246" y2="0.198" xlink:href="#linear-gradient"/>
  </defs>
  <g id="_x30_17---House-Demolition" transform="translate(0 0)">
    <path id="Shape_45_" d="M47.271,457.842a7.175,7.175,0,1,0,7.175,7.175A7.175,7.175,0,0,0,47.271,457.842Zm0,9.566a2.392,2.392,0,1,1,2.391-2.391A2.392,2.392,0,0,1,47.271,467.409Z" transform="translate(-30.658 -361.756)" fill="url(#linear-gradient)"/>
    <path id="Shape_44_" d="M128.554,457.842a7.175,7.175,0,1,0,7.175,7.175A7.175,7.175,0,0,0,128.554,457.842Zm0,9.566a2.392,2.392,0,1,1,2.392-2.391A2.392,2.392,0,0,1,128.554,467.409Z" transform="translate(-92.809 -361.756)" fill="url(#linear-gradient)"/>
    <path id="Shape_43_" d="M209.836,457.842a7.175,7.175,0,1,0,7.175,7.175A7.175,7.175,0,0,0,209.836,457.842Zm0,9.566a2.392,2.392,0,1,1,2.391-2.391A2.392,2.392,0,0,1,209.836,467.409Z" transform="translate(-154.958 -361.756)" fill="url(#linear-gradient)"/>
    <path id="Shape_42_" d="M283.944,465.017a7.175,7.175,0,1,0,7.175-7.175A7.175,7.175,0,0,0,283.944,465.017Zm9.566,0a2.391,2.391,0,1,1-2.391-2.392A2.392,2.392,0,0,1,293.51,465.017Z" transform="translate(-217.109 -361.756)" fill="url(#linear-gradient)"/>
    <path id="Path_32_" d="M205.054,150.142a2.392,2.392,0,0,0,1.691-.7l2.392-2.391a2.392,2.392,0,0,0-3.382-3.382l-2.391,2.391a2.392,2.392,0,0,0,1.691,4.083Z" transform="translate(-154.959 -121.021)" fill="url(#linear-gradient)"/>
    <path id="Path_31_" d="M218.606,157.21a2.392,2.392,0,0,0-3.382-3.382l-11.958,11.958a2.391,2.391,0,1,0,3.382,3.382Z" transform="translate(-154.862 -128.789)" fill="url(#linear-gradient)"/>
    <path id="Shape_41_" d="M119.451,109.966V70.948l6.185-3.3a9.571,9.571,0,0,0-9.009-16.889L73.772,73.614,70.29,66.153a7.2,7.2,0,0,0-6.5-4.14H45.312a7.175,7.175,0,0,0-7.175,7.175v28.7H9.438a7.175,7.175,0,0,0-7.175,7.175v19.133a7.175,7.175,0,0,0,7.175,7.175h4.783v4.975a16.741,16.741,0,0,0,2.392,33.291H126.626a2.391,2.391,0,0,0,0-4.783H85.7a16.707,16.707,0,0,0-9.3-28.507v-4.975h7.175a7.175,7.175,0,0,0,7.175-7.175V105.061a7.175,7.175,0,0,0-5.558-6.976l-3.312-7.1,32.786-17.494v36.474a26.308,26.308,0,1,0,4.783,0ZM42.92,69.188A2.392,2.392,0,0,1,45.312,66.8h18.48a2.406,2.406,0,0,1,2.167,1.38L76.625,91.035v.038l.017.024,3.181,6.79h-8.2V93.1a2.391,2.391,0,1,0-4.783,0v4.783H62.053V93.1a2.391,2.391,0,1,0-4.783,0v4.783H42.92Zm43.048,83.7A11.973,11.973,0,0,1,74.011,164.85h-57.4a11.958,11.958,0,0,1,0-23.916h57.4A11.972,11.972,0,0,1,85.969,152.892ZM71.619,136.152H19v-4.783H71.619v4.783Zm14.349-19.133H74.011v-4.783H85.969Zm0-9.566H74.011a4.783,4.783,0,0,0-4.783,4.783v4.783a4.783,4.783,0,0,0,4.783,4.783H85.969v2.391a2.392,2.392,0,0,1-2.391,2.392H9.438a2.392,2.392,0,0,1-2.391-2.392V105.061a2.392,2.392,0,0,1,2.391-2.391H11.83v7.175a2.391,2.391,0,1,0,4.783,0V102.67H21.4v7.175a2.391,2.391,0,1,0,4.783,0V102.67h4.783v7.175a2.391,2.391,0,1,0,4.783,0V102.67H83.577a2.392,2.392,0,0,1,2.391,2.391v2.391ZM75.8,77.955l43.079-22.976a4.788,4.788,0,1,1,4.506,8.449L79.856,86.646Zm41.259,79.721a21.524,21.524,0,1,1,21.524-21.524A21.524,21.524,0,0,1,117.059,157.676Z" transform="translate(-0.001 -49.632)" fill="url(#linear-gradient-7)"/>
    <path id="Shape_40_" d="M465.642,349.072a2.391,2.391,0,1,0,4.783,0c0-4.118-4.044-7.45-9.566-8.205v-2.556a2.392,2.392,0,1,0-4.783,0v2.556c-5.522.756-9.566,4.087-9.566,8.205s4.044,7.45,9.566,8.205v7.1c-2.841-.552-4.783-2-4.783-3.348a2.391,2.391,0,1,0-4.783,0c0,4.118,4.044,7.45,9.566,8.205v2.556a2.392,2.392,0,1,0,4.783,0v-2.556c5.522-.756,9.566-4.087,9.566-8.205s-4.044-7.45-9.566-8.205v-7.1c2.841.555,4.783,2.006,4.783,3.348Zm-14.349,0c0-1.342,1.942-2.793,4.783-3.348v6.7C453.235,351.866,451.293,350.414,451.293,349.072Zm14.349,11.958c0,1.342-1.942,2.793-4.783,3.348v-6.7C463.7,358.237,465.642,359.689,465.642,361.03Z" transform="translate(-341.409 -268.532)" fill="url(#linear-gradient-8)"/>
    <path id="Path_30_" d="M575.609,539.125h-4.783a2.391,2.391,0,0,0,0,4.783h4.783a2.391,2.391,0,0,0,0-4.783Z" transform="translate(-434.634 -423.907)" fill="url(#linear-gradient)"/>
  </g>
</svg>
