<svg xmlns="http://www.w3.org/2000/svg" xmlns:xlink="http://www.w3.org/1999/xlink" width="120" height="120" viewBox="0 0 120 120">
  <defs>
    <linearGradient id="linear-gradient" x1="0.743" y1="1" x2="0.723" gradientUnits="objectBoundingBox">
      <stop offset="0" stop-color="#0069f7"/>
      <stop offset="0.112" stop-color="#3d5ef9"/>
      <stop offset="0.37" stop-color="#7753fc"/>
      <stop offset="0.627" stop-color="#a24cfe"/>
      <stop offset="0.802" stop-color="#bc47ff"/>
      <stop offset="0.892" stop-color="#c645ff"/>
      <stop offset="1" stop-color="#c645ff"/>
    </linearGradient>
    <clipPath id="clip-path">
      <rect id="Rectangle_4724" data-name="Rectangle 4724" width="113.217" height="100" fill="url(#linear-gradient)"/>
    </clipPath>
  </defs>
  <g id="Group_15813" data-name="Group 15813" transform="translate(-1391 -1586)">
    <g id="Group_15812" data-name="Group 15812" transform="translate(1394.54 1596.016)">
      <g id="Group_15803" data-name="Group 15803" transform="translate(0 0)" clip-path="url(#clip-path)">
        <path id="Path_9943" data-name="Path 9943" d="M112.84,41.157a1.537,1.537,0,0,0-.906-.365c-1.929.027-3.854.052-5.79.035a1.728,1.728,0,0,1-1.374-1.17,41.1,41.1,0,0,0-9.243-17.175,2.631,2.631,0,0,1-.318-2.17c1.153-4.729,2.336-9.451,3.517-14.173l.893-3.568a1.266,1.266,0,0,0-.88-1.524A24.515,24.515,0,0,0,73.294,8.092a2.278,2.278,0,0,1-2.408.787C57.655,6.165,45.752,6.89,34.5,11.09c-11.04,4.121-19.078,11.321-23.9,21.4a4.328,4.328,0,0,1-.21.38l-.08.137a.639.639,0,0,1-.793.272,7.094,7.094,0,0,1-4.06-7.1c.276-3.212,2.121-5.255,5.8-6.429a1.266,1.266,0,0,0,.881-1.207V15.467A1.266,1.266,0,0,0,10.7,14.214a12.717,12.717,0,0,0-9.257,6.8A19.571,19.571,0,0,0,.411,23.924c-.115.382-.229.763-.351,1.142A1.258,1.258,0,0,0,0,25.453v2.67a1.282,1.282,0,0,0,.086.461,1.722,1.722,0,0,1,.1.322,12.393,12.393,0,0,0,6.88,9.326,1.522,1.522,0,0,1,.876,1.883L7.7,41.38a42.152,42.152,0,0,0-.79,5.273C5.829,63.4,11.987,75.986,25.736,85.143a2.19,2.19,0,0,1,1.114,2.048c-.028,3.028-.024,6.055-.02,9.084V98.71A1.268,1.268,0,0,0,28.1,99.975h1.347c4.877,0,9.662,0,14.442-.029A1.262,1.262,0,0,0,45,99.267c.9-1.713,1.786-3.493,2.642-5.289a1.7,1.7,0,0,1,1.766-1.057h.009c4.653.035,9.346.035,13.971,0a1.713,1.713,0,0,1,1.748,1.066c.37.777.758,1.548,1.174,2.367.486.966.974,1.931,1.426,2.912a1.269,1.269,0,0,0,1.151.736h.01c3.918-.034,7.835-.03,11.754-.028h4.025a1.266,1.266,0,0,0,1.266-1.263l0-2.842c.005-2.819.01-5.64-.029-8.461a2.517,2.517,0,0,1,1.328-2.4,39.829,39.829,0,0,0,15.021-17.124,2.253,2.253,0,0,1,2.326-1.474c2.227.018,4.449-.013,6.669-.043l.708-.009a1.267,1.267,0,0,0,1.251-1.266V42.059a1.268,1.268,0,0,0-.377-.9M80.5,90.993l0,2.894a.634.634,0,0,1-.634.633H78.048c-1.974.005-3.907.008-5.84-.034-.67-.015-1.136-.819-1.262-1.065-.879-1.705-1.894-3.7-2.865-5.711a1.278,1.278,0,0,0-1.334-.7,67.158,67.158,0,0,1-20.719,0,1.271,1.271,0,0,0-1.336.7c-.436.9-.876,1.779-1.341,2.707-.485.969-.969,1.934-1.437,2.912a1.924,1.924,0,0,1-1.937,1.223h0c-1.039-.019-2.079-.024-3.135-.024q-.927,0-1.874,0l-2.059,0a.633.633,0,0,1-.633-.633c0-.989,0-1.964-.009-2.992-.011-2.485-.022-4.832.042-7.223a2.565,2.565,0,0,0-.025-.489,1.267,1.267,0,0,0-.679-.931c-.056-.034-.135-.081-.241-.137-8.8-4.715-14.591-11.4-17.21-19.875-4.539-14.68-1.638-27.342,8.619-37.634,5.3-5.32,12.167-8.776,20.982-10.566a61.688,61.688,0,0,1,29.9,1.156,1.258,1.258,0,0,0,1.413-.519A19.329,19.329,0,0,1,92.49,5.448a.626.626,0,0,1,.489.247.634.634,0,0,1,.113.538L92.382,9.11c-.423,1.714-.836,3.387-1.253,5.058l-.462,1.857c-.544,2.2-1.091,4.4-1.686,6.587-.028.105-.046.186-.057.248a1.271,1.271,0,0,0,.291,1.058,2.469,2.469,0,0,0,.185.187A34.346,34.346,0,0,1,99.818,42.514l.081.384c.161.743.327,1.51.418,2.3a1.267,1.267,0,0,0,1.257,1.119h.037c1.193-.034,2.389-.025,3.55-.018h.17c.577.005,1.157.009,1.745.009a.633.633,0,0,1,.633.633V60.357a.634.634,0,0,1-.634.633L101.994,61c-.643.006-1.284.013-1.922,0a1.233,1.233,0,0,0-1.232.855,35.254,35.254,0,0,1-7.606,12.845,38.161,38.161,0,0,1-10.078,7.6,1.265,1.265,0,0,0-.676,1.133c.029,2.545.024,5.019.019,7.568" transform="translate(0 0)" fill="url(#linear-gradient)"/>
        <path id="Path_9944" data-name="Path 9944" d="M48.788,47.41h0a12.949,12.949,0,0,0-1.7-.248c-.413-.042-.825-.086-1.231-.151a3.962,3.962,0,1,1,4.351-5.377,1.265,1.265,0,0,0,1.176.8h3.074a1.266,1.266,0,0,0,1.234-1.546,9.566,9.566,0,0,0-5.2-6.293,1.9,1.9,0,0,1-1.262-2.005c.039-1.418.033-2.838.025-4.293a1.265,1.265,0,0,0-1.266-1.26H45.058a1.267,1.267,0,0,0-1.266,1.258c-.008,1.4-.015,2.781.029,4.161a2.052,2.052,0,0,1-1.342,2.181A9.311,9.311,0,0,0,37.126,44a9.444,9.444,0,0,0,7.237,8.249,12.428,12.428,0,0,0,1.564.222c.466.047.932.095,1.388.18a3.921,3.921,0,0,1,3.192,3.894,3.979,3.979,0,0,1-7.665,1.461,1.265,1.265,0,0,0-1.175-.794h-3.09a1.266,1.266,0,0,0-1.233,1.552,9.552,9.552,0,0,0,5.184,6.257,1.979,1.979,0,0,1,1.289,2.1c-.032,1.4-.027,2.806-.022,4.213A1.266,1.266,0,0,0,45.06,72.6h2.923A1.267,1.267,0,0,0,49.25,71.34c.008-1.4.014-2.778-.028-4.154A2.046,2.046,0,0,1,50.563,65,9.37,9.37,0,0,0,48.788,47.41" transform="translate(9.864 7.192)" fill="url(#linear-gradient)"/>
        <path id="Path_9945" data-name="Path 9945" d="M59.576,17.767a54.2,54.2,0,0,0-24.52.019,1.266,1.266,0,0,0-.931,1.589l.815,2.779a1.269,1.269,0,0,0,1.488.882,50.616,50.616,0,0,1,21.8-.014,1.263,1.263,0,0,0,1.485-.886l.8-2.781a1.267,1.267,0,0,0-.939-1.588" transform="translate(9.065 4.355)" fill="url(#linear-gradient)"/>
        <path id="Path_9946" data-name="Path 9946" d="M64.9,32.317h2.784a1.266,1.266,0,0,0,1.266-1.266V28.309a1.266,1.266,0,0,0-1.266-1.266H64.9a1.266,1.266,0,0,0-1.266,1.266v2.742A1.266,1.266,0,0,0,64.9,32.317" transform="translate(16.928 7.194)" fill="url(#linear-gradient)"/>
      </g>
    </g>
    <rect id="Rectangle_4726" data-name="Rectangle 4726" width="120" height="120" transform="translate(1391 1586)" fill="#120638" opacity="0"/>
  </g>
</svg>
