<svg version="1.2" baseProfile="tiny-ps" xmlns="http://www.w3.org/2000/svg" viewBox="0 0 1920 800" width="1920" height="800">
	<title>ca-privacy-notice-svg</title>
	<defs>
		<clipPath clipPathUnits="userSpaceOnUse" id="cp1">
			<path d="m0-10h1920v800c0 0-228.4-26.17-535.4-26.17c-307 0-483.8 26.17-692.6 26.17c-480 0-692-26.17-692-26.17v-773.83z" />
		</clipPath>
		<radialGradient id="grd1" gradientUnits="userSpaceOnUse"  cx="1920" cy="653.7" r="481">
			<stop offset="0" stop-color="#f7725a" stop-opacity=".5" />
			<stop offset="1" stop-color="#f7725a" stop-opacity="0" />
		</radialGradient>
		<radialGradient id="grd2" gradientUnits="userSpaceOnUse"  cx="0" cy="643.7" r="481">
			<stop offset="0" stop-color="#0468f7"  />
			<stop offset="1" stop-color="#0468f7" stop-opacity="0" />
		</radialGradient>
	</defs>
	<style>
		tspan { white-space:pre }
		.s0 { fill: #120638 } 
		.s1 { fill: url(#grd1) } 
		.s2 { fill: url(#grd2) } 
	</style>
	<g id="Group_2390">
		<path id="BG_-_Dark_Purple-2" class="s0" d="m0-0.29h1920v800.29c0 0-228.4-35-535.4-35c-307 0-483.8 35-692.6 35c-480 0-692-35-692-35v-765.29z" />
		<g id="Clip-Path: Mask_Group_28" clip-path="url(#cp1)">
			<g id="Mask_Group_28">
				<g id="Group_32" style="opacity: .5">
					<path id="Ellipse_3" class="s1" d="m1920 294.11c265.65 0 481 161.01 481 359.63c0 198.62-215.35 359.63-481 359.63c-8.26 0-16.51-0.15-24.76-0.46c-8.25-0.31-16.49-0.79-24.73-1.42c-8.23-0.63-16.45-1.42-24.65-2.37c-8.2-0.95-16.38-2.06-24.54-3.32c-218.19-33.93-382.31-178.66-382.31-352.05c0-198.62 215.35-359.63 481-359.63z" />
				</g>
				<g id="Group_32-2" style="opacity: .5">
					<path id="Ellipse_3-2" class="s2" d="m0 284.11c265.65 0 481 161.01 481 359.63c0 198.62-215.35 359.63-481 359.63c-8.26 0-16.51-0.15-24.76-0.46c-8.25-0.31-16.49-0.79-24.73-1.42c-8.23-0.63-16.45-1.42-24.65-2.37c-8.2-0.95-16.38-2.06-24.54-3.32c-218.19-33.93-382.31-178.66-382.31-352.05c0-198.62 215.35-359.63 481-359.63z" />
				</g>
			</g>
		</g>
	</g>
</svg>