<svg xmlns="http://www.w3.org/2000/svg" width="34.22" height="37.96" viewBox="0 0 49.213 53.362">
  <g id="Equalhousinglender" opacity="0.7">
    <rect id="Rectangle_353" data-name="Rectangle 353" width="49.212" height="53.362" fill="none"/>
    <path id="Path_5280" data-name="Path 5280" d="M25.345,51.489h-.019l-2.793-5.74H20.985V53.99h1.371V48.114h.02l2.871,5.876h1.471V45.749H25.345v5.74ZM18.771,39.967,17.5,44.373h.783l.248-.907h1.311l.228.907h.806l-1.251-4.406h-.857Zm-.04,2.737.455-1.742H19.2l.44,1.742Zm-5.118-.533c0-2.07-1.237-2.319-1.709-2.319S10.2,40.1,10.2,42.171,11.436,44.49,11.9,44.49a1.575,1.575,0,0,0,.912-.3l.42.5.391-.5-.386-.455a2.893,2.893,0,0,0,.372-1.57Zm-.906.945-.377-.437-.38.5.356.416a.733.733,0,0,1-.4.117c-.4,0-.965-.306-.965-1.539s.565-1.541.965-1.541.966.306.966,1.541a2.379,2.379,0,0,1-.163.948Zm8.649-3.15v4.406h2.508v-.8H22.1V39.967h-.743Zm7.879,4.405h.74V39.966h-.74v1.668H27.848V39.966h-.743v4.406h.743V42.4h1.388v1.975ZM15.3,50.4H18.73V48.941H15.3V47.207h3.733V45.75H13.859v8.241H19.2V52.535H15.3V50.4ZM9.668,40.749v-.78H7.055v4.406h2.7v-.78H7.781V42.454H9.514v-.778H7.781v-.927H9.668Zm-.982,5H7.217v8.241h4.969V52.5h-3.5v-6.75Zm5.5-5.782v2.921a1.857,1.857,0,0,0,.277,1.068,1.37,1.37,0,0,0,1.129.534c.9,0,1.46-.5,1.46-1.657V39.967H16.3v2.9c0,.534-.209.84-.717.84-.346,0-.634-.27-.634-.883v-2.86h-.757Zm27.186,4.405h.743V39.966h-.743v4.405Zm7.911,7.761c0-1.541-.315-1.792-.893-2.091a2,2,0,0,0,1.089-1.964,2.171,2.171,0,0,0-2.214-2.33H43.708v8.241h1.44V50.764h1.52c1.086,0,1.146.437,1.146,1.562a6.436,6.436,0,0,0,.156,1.665H49.6v-.217c-.317-.144-.317-.442-.317-1.645Zm-2.41-2.757H45.149v-2.2h1.833a.964.964,0,0,1,1.029,1.079c0,.818-.373,1.125-1.138,1.125Zm-7.463-5.648a.676.676,0,0,1-.754-.709h-.711a1.367,1.367,0,0,0,1.52,1.472,1.33,1.33,0,0,0,1.4-1.443,1.108,1.108,0,0,0-.931-1.183l-.866-.264a.435.435,0,0,1-.375-.46c0-.4.335-.527.618-.527a.65.65,0,0,1,.728.662h.712a1.34,1.34,0,0,0-1.386-1.422A1.257,1.257,0,0,0,38,41.208c0,.969.554,1.13,1.128,1.295l.38.11c.377.112.645.2.645.547.007.471-.386.572-.739.572Zm6.257.644V39.966h-.693v3.069h-.009l-1.412-3.069h-.783v4.406h.694V41.231h.009l1.45,3.141h.742ZM48,40.615a.849.849,0,0,1,.779.722h.74a1.529,1.529,0,0,0-1.557-1.482c-1.2-.007-1.739,1.128-1.739,2.331,0,1.544.776,2.307,1.633,2.307a1.257,1.257,0,0,0,1.109-.67l.074.554h.5V42H48.051v.743h.826c-.154.89-.7.969-.86.969-.505,0-1.034-.311-1.034-1.514,0-1.132.487-1.583,1.017-1.583ZM37.4,42.832V39.966h-.757v2.9c0,.534-.208.84-.717.84-.348,0-.634-.27-.634-.883v-2.86h-.757v2.921a1.847,1.847,0,0,0,.278,1.068,1.367,1.367,0,0,0,1.128.534c.9,0,1.461-.494,1.461-1.655Zm.553,7.568h3.43V48.941h-3.43V47.207h3.733V45.75H36.516v8.241h5.339V52.535h-3.9V50.4Zm-3.993-8.229c0-2.07-1.239-2.319-1.708-2.319s-1.709.25-1.709,2.319,1.237,2.319,1.709,2.319S33.963,44.238,33.963,42.171Zm-2.673,0c0-1.235.565-1.541.965-1.541s.965.306.965,1.541-.565,1.539-.965,1.539-.965-.307-.965-1.54Zm.6,3.578H28.784v8.241h3.049c2.321,0,2.919-2.549,2.919-4.316,0-1.56-.489-3.925-2.862-3.925Zm-.235,6.819H30.225V47.174h1.412c.627,0,1.616.195,1.616,2.628,0,1.357-.4,2.767-1.6,2.767ZM27.928,3.35,5.1,15.033v4.755l2.525.034V36.849H48.054l-.021-17.061H50.75V15.034L27.927,3.351Zm15.624,29H12.128V17.207l15.8-8.151,15.623,8.151V32.352Zm-23.1-11.165H35.263V17.1H20.456v4.089Zm0,7.355H35.2v-4.09H20.456Z" transform="translate(-3.435 -2.254)" fill="#fff"/>
  </g>
</svg>
