<svg xmlns="http://www.w3.org/2000/svg" width="48.8" height="30" viewBox="0 0 65.107 40.021">
  <g id="fdic-member" opacity="0.7">
    <path id="Path_5282" data-name="Path 5282" d="M18.323,53.452h8.9c8.024,0,13.142,4.934,13.142,12.635,0,8.531-5.671,12.681-14.71,12.681H18.323Zm8.349,5.807c-.323,0-.738.046-1.291.046v13.65c4.519,0,8.024-1.8,8.024-7.009C33.4,61.472,30.545,59.259,26.672,59.259Zm41.27,1.564V54.136a13.838,13.838,0,0,0-5.672-1.153A13.054,13.054,0,0,0,48.9,66.033c0,7.424,5.856,12.866,13.235,12.866a9.09,9.09,0,0,0,5.81-1.614V70.6A9.516,9.516,0,0,1,62.5,72.442a6.468,6.468,0,0,1-6.64-6.732,6.588,6.588,0,0,1,6.64-6.779,9.721,9.721,0,0,1,5.442,1.891ZM2.834,48.376v1.2H7.768v-1.2c-1.43-.046-1.66-.231-1.66-1.2V41.136l2.951,8.439H10.3l3.182-8.439v5.9c0,1.245,0,1.245-1.752,1.337v1.2h5.718v-1.2c-1.66,0-1.706-.184-1.706-1.06v-5.9c0-.968.138-1.291,1.706-1.291V38.877H12.564l-2.49,6.779L7.768,38.877H2.834v1.245c1.384,0,1.614,0,1.614,1.2v5.672C4.448,48.1,4.448,48.376,2.834,48.376Zm23.926,0v1.2h4.565v-1.2c-1.107-.046-1.107-.184-1.107-1.706V45.379c0-1.245.553-2.26,1.706-2.26.922,0,1.2.6,1.2,1.43v2.721c0,.922-.046,1.107-1.153,1.107v1.2h4.1v-1.2c-.968,0-1.06-.092-1.06-1.014V45.471c0-1.291.6-2.4,1.8-2.4.922,0,1.107.553,1.107,1.66V47.5c0,.784,0,.876-1.107.876v1.2h4.519v-1.2c-1.384,0-1.476.046-1.476-.738v-3.09c0-1.753-.415-2.767-2.214-2.767a3.359,3.359,0,0,0-2.628,1.337A2.365,2.365,0,0,0,32.8,41.736a3.1,3.1,0,0,0-2.582,1.476V41.967H26.76v1.107c1.383,0,1.522.046,1.522,1.153v2.536C28.282,48.376,28.282,48.376,26.76,48.376Zm-23.7,5.076V78.768h6.963l.046-9.684h6.779V63.229H10.111l-.046-3.92h7.286V53.452ZM41.884,38.88h3.228V42.8a3.236,3.236,0,0,1,2.306-1.014c1.845,0,3.09,1.66,3.09,3.966,0,2.49-1.245,4.1-3.367,4.1a2.907,2.907,0,0,1-2.352-1.061l-.646.876h-.968v-8.3c0-1.245-.093-1.383-1.291-1.383Zm6.458,6.867c0-1.752-.646-2.628-1.568-2.628-1.2,0-1.706.968-1.706,2.767,0,1.568.6,2.628,1.66,2.628C47.6,48.514,48.342,47.684,48.342,45.747Zm11.986,2.629v1.2h4.98v-1.2c-1.383,0-1.521.046-1.521-1.06v-1.66c0-1.522.507-2.905,1.89-2.905a1.234,1.234,0,0,1,.461.092,1.183,1.183,0,0,0-.784,1.061,1.006,1.006,0,0,0,1.061,1.014,1.251,1.251,0,0,0,1.244-1.384,1.7,1.7,0,0,0-1.752-1.752,2.838,2.838,0,0,0-2.167,1.245V41.966H60.329v1.107c1.2,0,1.522,0,1.522,1.014v3.136C61.85,48.284,61.85,48.376,60.329,48.376Zm-6.271-2.394c0,1.476.692,2.49,1.937,2.49,1.107,0,1.614-.646,1.8-1.66h1.383a3.16,3.16,0,0,1-3.367,3,3.619,3.619,0,0,1-3.874-3.92c0-2.352,1.476-4.1,3.69-4.1,2.168,0,3.551,1.66,3.551,4.2Zm1.568-3c-.922,0-1.476.646-1.476,1.8h2.905C57.055,43.578,56.594,42.978,55.626,42.978Zm-35.136,3c0,1.476.738,2.49,1.983,2.49,1.107,0,1.614-.646,1.8-1.66h1.337a3.119,3.119,0,0,1-3.32,3,3.654,3.654,0,0,1-3.92-3.92,3.789,3.789,0,0,1,3.735-4.1c2.167,0,3.5,1.66,3.5,4.2Zm1.614-3c-.922,0-1.476.646-1.476,1.8h2.859C23.487,43.532,23.025,42.978,22.1,42.978Zm19,35.79h6.964V53.452H41.1V78.768Z" transform="translate(-2.834 -38.877)" fill="#fff" fill-rule="evenodd"/>
  </g>
</svg>
