<svg id="Group_14454" data-name="Group 14454" xmlns="http://www.w3.org/2000/svg" xmlns:xlink="http://www.w3.org/1999/xlink" width="128.574" height="120" viewBox="0 0 128.574 120">
  <defs>
    <linearGradient id="linear-gradient" x1="1" y1="1" x2="1" gradientUnits="objectBoundingBox">
      <stop offset="0" stop-color="#0468f7"/>
      <stop offset="1" stop-color="#c645ff"/>
    </linearGradient>
    <clipPath id="clip-path">
      <rect id="Rectangle_4129" data-name="Rectangle 4129" width="128.574" height="120.001" fill="url(#linear-gradient)"/>
    </clipPath>
  </defs>
  <g id="Group_14453" data-name="Group 14453" clip-path="url(#clip-path)">
    <path id="Path_9200" data-name="Path 9200" d="M224.992,66.835c-.006-1.751-.79-2.517-2.536-2.548-.714-.012-1.428,0-2.143,0H214.35V42.857c1.211,0,2.36,0,3.509,0,2.164-.009,2.85-.7,2.851-2.908,0-7.946-.028-15.892.025-23.837.011-1.621-.271-2.9-2.113-3.384,2.593-3.356,2.14-7.177,2.02-10.906A1.917,1.917,0,0,0,218.508.015Q210-.012,201.5.019a2.079,2.079,0,0,0-2.2,2.189c-.045,1.114-.012,2.232-.013,3.348,0,4.756-2.525,7.3-7.246,7.3q-16.338,0-32.676,0c-2.267,0-2.931.672-2.932,2.96q0,10.647,0,21.293v1.462c-1.542,0-2.879-.026-4.214.008a1.985,1.985,0,0,0-2.167,1.93c-.106,2.168-.03,4.344-.03,6.539h4.336V42.935h16.98v4.236H158.654v4.307h12.706v4.26H165.1v4.307h6.238V64.3h-1.982v4.3h12.674v4.307h-8.367v4.259h8.393v4.307h-8.419v4.26h8.4v4.307h-14.8v4.307h10.544v4.26h-4.143v4.259h4.121v4.307h-4.1v4.307h4.126v4.26h-6.247v4.212c.285.017.462.037.64.037q22.967,0,45.934,0c1.829,0,2.594-.776,2.6-2.62q.014-10.781,0-21.561V94.283c.5,0,.849,0,1.2,0,2.478-.021,3.086-.624,3.088-3.075q0-5.491,0-10.981c0-4.464.01-8.928-.005-13.392m-4.341,5.951H203.679V68.664h16.973Zm-10.743-8.613h-17.02V60.1h17.02ZM192.916,51.5h16.973v4.119H192.916ZM203.63,77.212H220.6v4.12H203.63Zm12.737-47.281H199.394V25.81h16.973ZM203.545,4.387h12.717c.949,4.886-1.976,8.463-6.93,8.472-2.539,0-5.079,0-7.9,0a12.349,12.349,0,0,0,2.111-8.472m-4.152,12.851h16.973v4.122H199.394Zm-.05,17.12h16.972v4.119H199.344Zm10.593,12.716H192.964V42.95h16.973ZM182.191,17.228H194.93V38.466H182.191Zm-21.379,21.28v-21.3H177.79v4.173H165.083v4.3H177.76v4.3H165.066V34.24h12.711v4.268Zm14.974,4.458h12.69v21.26h-12.69ZM194.927,115.6H182.239V94.341h12.688Zm4.287-25.711H186.522V68.631h12.692Zm17.1,25.727H199.346v-4.123h16.973Zm.05-8.549H199.4V102.95h16.972Zm.006-8.578h-17.02V94.385h17.02Zm4.278-8.564H203.68v-4.12h16.973Z" transform="translate(-96.427 0)" fill="url(#linear-gradient)"/>
    <path id="Path_9201" data-name="Path 9201" d="M69.467,162.875a2.659,2.659,0,0,1-.912-2.214c.031-10.758.059-21.515.006-32.273A21.266,21.266,0,0,0,53.6,108.183c-1.72-.538-3.528-.8-5.344-1.2.2-.537.405-1.077.617-1.612a35.41,35.41,0,0,0,2.544-12.916,2.144,2.144,0,0,0-2.359-2.443q-12.655-.026-25.31,0a2.089,2.089,0,0,0-2.3,2.358,27.731,27.731,0,0,0,.413,5.059c.706,3.25,1.638,6.451,2.483,9.7-.095.015-.4.064-.7.108C11.67,108.983,4.293,117.521,4.293,129.641c0,9.865-.016,19.73.014,29.594a6.031,6.031,0,0,1-1.728,4.476,8.451,8.451,0,0,0-2.47,5.227c-.165,1.906-.091,3.834-.1,5.752C0,177.253.6,177.854,3.139,177.854H60.721c3.214,0,6.428.014,9.642-.006a2.188,2.188,0,0,0,2.492-2.454c.024-1.428-.045-2.859.016-4.285a9.919,9.919,0,0,0-3.4-8.234M47.022,94.359a33.77,33.77,0,0,1-3.287,12.235,1.169,1.169,0,0,1-.89.527q-6.422.051-12.844,0a1.065,1.065,0,0,1-.825-.427,33.766,33.766,0,0,1-3.33-12.34Zm21.543,79.113H4.305a18.322,18.322,0,0,1,.055-3.688,7.373,7.373,0,0,1,1.457-3.2,10.852,10.852,0,0,0,2.776-7.451c-.039-10-.019-20-.014-30,.005-10.26,7.468-17.7,17.754-17.709q10.177-.008,20.355,0a17.131,17.131,0,0,1,17.6,17.6q.013,15.6-.006,31.2c0,.088-.023.176-.055.412H55.81V165h7.607a5.121,5.121,0,0,1,5.139,4.908c.056,1.154.009,2.313.009,3.566" transform="translate(0 -57.859)" fill="url(#linear-gradient)"/>
    <path id="Path_9202" data-name="Path 9202" d="M83.241,207.208c-1.16-.009-2.319,0-3.479,0-2.27-.015-3.666-1.206-3.7-3.147-.037-2,1.383-3.268,3.7-3.277,2.627-.01,5.253,0,7.966,0v-4.33H83.488v-4.132H79.206v4.107c-.371.048-.635.073-.895.116a7.507,7.507,0,0,0,1.174,14.949c1.159.01,2.319,0,3.478,0,2.32.014,3.766,1.271,3.743,3.247-.022,1.928-1.443,3.163-3.68,3.178-1.561.011-3.122,0-4.683,0H72.889v4.315h6.419v3.3h4.2v-3.268c.451-.055.712-.075.969-.119a7.506,7.506,0,0,0-1.233-14.944" transform="translate(-46.139 -123.637)" fill="url(#linear-gradient)"/>
  </g>
</svg>
