<svg xmlns="http://www.w3.org/2000/svg" xmlns:xlink="http://www.w3.org/1999/xlink" width="120" height="120" viewBox="0 0 120 120">
  <defs>
    <linearGradient id="linear-gradient" x1="0.831" y1="1" x2="0.831" gradientUnits="objectBoundingBox">
      <stop offset="0" stop-color="#0468f7"/>
      <stop offset="1" stop-color="#c645ff"/>
    </linearGradient>
    <clipPath id="clip-path">
      <rect id="Rectangle_4128" data-name="Rectangle 4128" width="120" height="120" transform="translate(0 0)" fill="url(#linear-gradient)"/>
    </clipPath>
  </defs>
  <g id="Group_14452" data-name="Group 14452" transform="translate(0 0)">
    <g id="Group_14451" data-name="Group 14451" clip-path="url(#clip-path)">
      <path id="Path_9198" data-name="Path 9198" d="M119.236,87.815a12.147,12.147,0,0,0-5.341-6.285c2.9-4.454,2.78-8.307-.294-11.29-2.978-2.889-6.871-2.993-10.96-.233L94.713,64.7c-1.459-.977-3.415-1.654-4.235-3.015-.789-1.311-.386-3.331-.538-5.037A34.27,34.27,0,0,0,74.89,30.477c-.158-.112-.315-.226-.535-.383.278-.155.517-.268.734-.412a1.907,1.907,0,0,0,.852-2.236,1.791,1.791,0,0,0-1.788-1.418c-1.16-.041-2.323-.01-3.69-.01.3-.422.477-.7.688-.947,2.258-2.641,4.531-5.268,6.781-7.915,1.986-2.337,1.61-4.872-.981-6.55-.98-.635-2-1.218-3.035-1.757-1-.518-2.039-.948-3.108-1.438.151-.437.316-.827.42-1.233a3.876,3.876,0,0,0-2.741-4.86C66.55.764,64.55.43,62.578,0H57.422c-1.523.3-3.06.554-4.567.924-3.9.957-4.841,2.624-3.752,6.372-2.027,1.108-4.087,2.128-6.036,3.326-2.632,1.618-2.978,4.194-.99,6.529q3.3,3.88,6.626,7.743c.249.291.487.591.917,1.113-1.136,0-2.045,0-2.954,0-1.6,0-2.346.413-2.617,1.434-.288,1.087.114,1.8,1.568,2.644-.227.171-.419.321-.618.463Q29.915,41.374,30.037,59.94a2.575,2.575,0,0,1-1.34,2.517c-3.8,2.456-7.535,5.008-11.353,7.563a8.291,8.291,0,0,0-6.532-1.9A7.91,7.91,0,0,0,6.145,70.58c-2.8,2.989-2.822,6.613-.039,10.948A12.185,12.185,0,0,0,.762,87.812c-.3.791-.51,1.614-.762,2.423v10.781c.981,2.323,2.776,3.088,5.224,3.034,4.6-.1,9.213-.029,13.82-.03,3.534,0,4.938-1.418,4.94-4.988,0-1.913-.065-3.828.013-5.738a12.374,12.374,0,0,0-6.138-11.8c1.461-1.737,2.534-3.748,2.024-5.958-.479-2.075.531-2.844,1.981-3.757,2.931-1.845,5.776-3.826,8.745-5.81,1.725,6.691,5.856,10.875,12.579,12.65-.286,1.748-.557,3.506-.883,5.254-.036.191-.361.408-.591.471-4.972,1.354-7.918,7.841-3.64,13.073-.036.068-.055.164-.112.2A12.214,12.214,0,0,0,32,109.052c.06,1.989.089,3.986-.01,5.972-.122,2.457.814,4.144,3.169,4.977H52.969c2.334-.955,3.2-2.719,3.063-5.189-.118-2.063-.022-4.137-.025-6.206-.006-4.856-1.584-7.76-5.948-11.024A23.4,23.4,0,0,0,51.744,93.8a7.7,7.7,0,0,0-4.507-9.034,1.113,1.113,0,0,1-.778-1.5c.258-1.25.455-2.513.659-3.661,4.385.127,8.666.347,12.947.347,4.241,0,8.482-.222,12.831-.35l.775,4.678c-5.606,2.093-7.5,8.373-3.62,13.148-.035.068-.053.162-.11.2a12.253,12.253,0,0,0-5.958,11.447c.053,1.912.1,3.831-.015,5.737-.151,2.472.73,4.233,3.062,5.19H84.844c2.356-.832,3.3-2.524,3.167-4.977a51.7,51.7,0,0,1,0-5.268c.258-5.214-1.513-9.4-6.146-12.257a8.636,8.636,0,0,0,2.1-5.214,7.856,7.856,0,0,0-5.259-7.772,1.5,1.5,0,0,1-1.18-1.461c-.168-1.463-.469-2.911-.723-4.422,6.642-1.757,10.831-5.889,12.559-12.583.293.155.56.268.8.427,3.179,2.123,6.363,4.24,9.518,6.4.306.209.661.747.593,1.039a8.018,8.018,0,0,0,1.891,7.553c-.475.331-.936.619-1.361.952a11.531,11.531,0,0,0-4.741,9.008c-.095,2.847-.068,5.7-.024,8.548A3.88,3.88,0,0,0,100.021,104c5.309.055,10.618.031,15.927.01,2.054-.008,3.243-1.261,4.052-2.993V90.234c-.253-.807-.467-1.628-.764-2.419M11.995,71.994a3.994,3.994,0,0,1,3.973,4.033,3.919,3.919,0,0,1-4.031,3.942A3.975,3.975,0,0,1,7.993,76.03a4.061,4.061,0,0,1,4-4.037m7.951,19.649c.081,2.725.015,5.453.015,8.318H4.1a5.4,5.4,0,0,1-.1-.786,76.845,76.845,0,0,1,.244-8.754,7.7,7.7,0,0,1,8.143-6.4,7.878,7.878,0,0,1,7.561,7.625M45.094,14.554a2.579,2.579,0,0,1-.211-.507l5.785-2.993c.445,1.118.813,2.047,1.185,2.973.672,1.676,1.639,2.294,2.86,1.83s1.525-1.621.874-3.258c-.964-2.424-1.937-4.845-2.933-7.332,3.41-1.652,10.582-1.684,14.668-.056-.21.555-.415,1.122-.638,1.681-.807,2.028-1.634,4.047-2.427,6.08a2.054,2.054,0,0,0,.972,2.859c1.132.474,2.184-.064,2.754-1.425.434-1.038.848-2.084,1.357-3.337l5.893,3.041c-.942,1.117-1.733,2.066-2.536,3.005-2.334,2.728-4.654,5.469-7.032,8.159a2.23,2.23,0,0,1-1.444.7c-2.809.066-5.621.05-8.431.013a1.8,1.8,0,0,1-1.218-.437c-3.186-3.643-6.329-7.323-9.478-11m6.872,92.957c.138,2.761.026,5.535.026,8.4H36.148a78.993,78.993,0,0,1,.075-9.474c.492-4.033,4.288-6.654,8.5-6.382a7.88,7.88,0,0,1,7.246,7.456M48.008,91.923a4.03,4.03,0,0,1-3.962,4.063,3.988,3.988,0,1,1-.028-7.975,4.019,4.019,0,0,1,3.99,3.912m35.928,15.632c.1,2.762.019,5.53.019,8.409H68.076a8.53,8.53,0,0,1-.084-.926,76.244,76.244,0,0,1,.229-8.524c.537-4.1,4.267-6.751,8.54-6.457a7.85,7.85,0,0,1,7.176,7.5M79.971,91.992a3.969,3.969,0,0,1-4,4,3.991,3.991,0,1,1,.107-7.98,3.959,3.959,0,0,1,3.89,3.983M85.543,64.26c-.872,6-4.565,9.582-11.136,10.665-4.755.783-9.613.947-14.33,1.378-4.811-.425-9.523-.523-14.116-1.318-7.714-1.335-11.2-5.09-11.792-12.9-.82-10.839,2.7-20.125,11.346-27.01A23.093,23.093,0,0,1,75.731,36.1c8.333,7.541,11.414,17.133,9.812,28.163m22.474,7.735A4.056,4.056,0,0,1,112,76.042a3.989,3.989,0,0,1-4.078,3.929,3.913,3.913,0,0,1-3.894-4.075,3.99,3.99,0,0,1,3.986-3.9M116,99.957H100.242c0-3.319-.372-6.629.095-9.817.579-3.945,4.484-6.5,8.342-6.095a7.944,7.944,0,0,1,7.312,7.771c.06,2.683.011,5.368.011,8.141" fill="url(#linear-gradient)"/>
      <path id="Path_9199" data-name="Path 9199" d="M180.409,144.669c-.6-.156-1.236-.15-1.846-.267a1.934,1.934,0,0,1-1.657-2.188c.112-1.039.943-1.765,2.436-1.734.305.253.905.695,1.438,1.207a2.006,2.006,0,0,0,2.652.318,1.881,1.881,0,0,0,.494-2.686,24.127,24.127,0,0,0-2.164-2.088,3.827,3.827,0,0,1-.965-1.256,1.98,1.98,0,0,0-1.978-1.517,1.741,1.741,0,0,0-1.847,1.483,1.734,1.734,0,0,1-1.095,1.337,5.962,5.962,0,0,0,1.59,10.974c.566.131,1.166.116,1.734.242a1.847,1.847,0,0,1,1.586,1.65,1.965,1.965,0,0,1-3.3,1.731c-.232-.2-.386-.492-.6-.715a2.028,2.028,0,0,0-2.663-.258,1.871,1.871,0,0,0-.475,2.6,9.723,9.723,0,0,0,2.172,2.068,1.947,1.947,0,0,1,1.054,1.364,1.741,1.741,0,0,0,1.852,1.474,1.722,1.722,0,0,0,1.889-1.421,1.949,1.949,0,0,1,1.165-1.422,5.7,5.7,0,0,0,2.9-5.824,5.761,5.761,0,0,0-4.374-5.073" transform="translate(-118.853 -92.439)" fill="url(#linear-gradient)"/>
    </g>
  </g>
</svg>
