<svg xmlns="http://www.w3.org/2000/svg" xmlns:xlink="http://www.w3.org/1999/xlink" width="1550" height="1044" viewBox="0 0 1550 1044">
  <defs>
    <linearGradient id="linear-gradient" x1="0.5" x2="0.5" y2="1" gradientUnits="objectBoundingBox">
      <stop offset="0" stop-color="#0468f7"/>
      <stop offset="1" stop-color="#c645ff"/>
    </linearGradient>
    <linearGradient id="linear-gradient-193" x1="0.02" y1="0.022" x2="0.951" y2="0.982" gradientUnits="objectBoundingBox">
      <stop offset="0" stop-color="#fff"/>
      <stop offset="1" stop-color="#f2f3f5"/>
    </linearGradient>
    <filter id="Rectangle_3581" x="118" y="54" width="1319" height="932" filterUnits="userSpaceOnUse">
      <feOffset input="SourceAlpha"/>
      <feGaussianBlur stdDeviation="20" result="blur"/>
      <feFlood flood-opacity="0.102"/>
      <feComposite operator="in" in2="blur"/>
      <feComposite in="SourceGraphic"/>
    </filter>
    <filter id="Rectangle_3582" x="203.5" y="222.5" width="1148" height="322" filterUnits="userSpaceOnUse">
      <feOffset dy="2" input="SourceAlpha"/>
      <feGaussianBlur stdDeviation="7.5" result="blur-2"/>
      <feFlood flood-opacity="0.102"/>
      <feComposite operator="in" in2="blur-2"/>
      <feComposite in="SourceGraphic"/>
    </filter>
    <filter id="Rectangle_3583" x="203.5" y="539.5" width="386" height="322" filterUnits="userSpaceOnUse">
      <feOffset dy="2" input="SourceAlpha"/>
      <feGaussianBlur stdDeviation="7.5" result="blur-3"/>
      <feFlood flood-opacity="0.102"/>
      <feComposite operator="in" in2="blur-3"/>
      <feComposite in="SourceGraphic"/>
    </filter>
    <filter id="Rectangle_3609" x="584.5" y="539.5" width="386" height="322" filterUnits="userSpaceOnUse">
      <feOffset dy="2" input="SourceAlpha"/>
      <feGaussianBlur stdDeviation="7.5" result="blur-4"/>
      <feFlood flood-opacity="0.102"/>
      <feComposite operator="in" in2="blur-4"/>
      <feComposite in="SourceGraphic"/>
    </filter>
    <filter id="Rectangle_3610" x="965.5" y="539.5" width="386" height="322" filterUnits="userSpaceOnUse">
      <feOffset dy="2" input="SourceAlpha"/>
      <feGaussianBlur stdDeviation="7.5" result="blur-5"/>
      <feFlood flood-opacity="0.102"/>
      <feComposite operator="in" in2="blur-5"/>
      <feComposite in="SourceGraphic"/>
    </filter>
    <linearGradient id="linear-gradient-194" x1="-0.438" y1="1.131" x2="8.054" y2="-4.62" gradientUnits="objectBoundingBox">
      <stop offset="0" stop-color="#0069f7"/>
      <stop offset="0.12" stop-color="#3d5ef9"/>
      <stop offset="0.25" stop-color="#7753fc"/>
      <stop offset="0.36" stop-color="#a24cfe"/>
      <stop offset="0.44" stop-color="#bc47ff"/>
      <stop offset="0.49" stop-color="#c645ff"/>
    </linearGradient>
    <linearGradient id="linear-gradient-195" x1="-1.409" y1="1.736" x2="7.361" y2="-4.014" xlink:href="#linear-gradient-194"/>
    <linearGradient id="linear-gradient-196" x1="-1.705" y1="2.446" x2="5.326" y2="-3.305" xlink:href="#linear-gradient-194"/>
    <linearGradient id="linear-gradient-197" x1="-3.536" y1="2.93" x2="5.952" y2="-2.82" xlink:href="#linear-gradient-194"/>
    <filter id="Path_8783" x="236.645" y="311.1" width="1081.479" height="173.848" filterUnits="userSpaceOnUse">
      <feOffset input="SourceAlpha"/>
      <feGaussianBlur stdDeviation="3" result="blur-6"/>
      <feFlood flood-color="#c645ff" flood-opacity="0.4"/>
      <feComposite operator="in" in2="blur-6"/>
      <feComposite in="SourceGraphic"/>
    </filter>
    <filter id="Path_8786" x="617.9" y="718.48" width="319.391" height="54.85" filterUnits="userSpaceOnUse">
      <feOffset input="SourceAlpha"/>
      <feGaussianBlur stdDeviation="3" result="blur-7"/>
      <feFlood flood-color="#c645ff" flood-opacity="0.4"/>
      <feComposite operator="in" in2="blur-7"/>
      <feComposite in="SourceGraphic"/>
    </filter>
    <linearGradient id="linear-gradient-198" x1="1.57" y1="1.881" x2="0.35" y2="0.599" xlink:href="#linear-gradient"/>
    <linearGradient id="linear-gradient-199" x1="0.656" y1="1.243" x2="0" y2="-0.299" xlink:href="#linear-gradient"/>
    <linearGradient id="linear-gradient-200" x1="0.5" y1="-0.055" x2="0.5" y2="1.994" gradientUnits="objectBoundingBox">
      <stop offset="0" stop-color="#0069f7"/>
      <stop offset="0.112" stop-color="#3d5ef9"/>
      <stop offset="0.37" stop-color="#7753fc"/>
      <stop offset="0.627" stop-color="#a24cfe"/>
      <stop offset="0.802" stop-color="#bc47ff"/>
      <stop offset="0.892" stop-color="#c645ff"/>
      <stop offset="1" stop-color="#c645ff"/>
    </linearGradient>
    <linearGradient id="linear-gradient-201" y1="-3.59" xlink:href="#linear-gradient"/>
    <filter id="Rectangle_3647" x="410" y="707" width="43" height="98" filterUnits="userSpaceOnUse">
      <feOffset input="SourceAlpha"/>
      <feGaussianBlur stdDeviation="3" result="blur-8"/>
      <feFlood flood-color="#c645ff" flood-opacity="0.4"/>
      <feComposite operator="in" in2="blur-8"/>
      <feComposite in="SourceGraphic"/>
    </filter>
    <filter id="Union_17" x="346.002" y="317.498" width="79.998" height="41.83" filterUnits="userSpaceOnUse">
      <feOffset dy="2" input="SourceAlpha"/>
      <feGaussianBlur stdDeviation="2.5" result="blur-9"/>
      <feFlood flood-opacity="0.102"/>
      <feComposite operator="in" in2="blur-9"/>
      <feComposite in="SourceGraphic"/>
    </filter>
    <filter id="Union_19" x="823.502" y="659.498" width="82.002" height="41.83" filterUnits="userSpaceOnUse">
      <feOffset dy="2" input="SourceAlpha"/>
      <feGaussianBlur stdDeviation="2.5" result="blur-10"/>
      <feFlood flood-opacity="0.102"/>
      <feComposite operator="in" in2="blur-10"/>
      <feComposite in="SourceGraphic"/>
    </filter>
    <filter id="Union_18" x="1062.998" y="419.5" width="87.004" height="41.83" filterUnits="userSpaceOnUse">
      <feOffset dy="2" input="SourceAlpha"/>
      <feGaussianBlur stdDeviation="2.5" result="blur-11"/>
      <feFlood flood-opacity="0.102"/>
      <feComposite operator="in" in2="blur-11"/>
      <feComposite in="SourceGraphic"/>
    </filter>
    <filter id="Union_20" x="820.002" y="739.672" width="89" height="41.828" filterUnits="userSpaceOnUse">
      <feOffset dy="2" input="SourceAlpha"/>
      <feGaussianBlur stdDeviation="2.5" result="blur-12"/>
      <feFlood flood-opacity="0.102"/>
      <feComposite operator="in" in2="blur-12"/>
      <feComposite in="SourceGraphic"/>
    </filter>
  </defs>
  <g id="Group_14443" data-name="Group 14443" transform="translate(-185 -7162)">
    <g id="Group_13136" data-name="Group 13136" transform="translate(780 587)">
      <g id="Group_13126" data-name="Group 13126">
        <path id="Union_5" data-name="Union 5" d="M17.5,37.5v-15H2.5a2.5,2.5,0,1,1,0-5h15V2.5a2.5,2.5,0,1,1,5,0v15h15a2.5,2.5,0,0,1,0,5h-15v15a2.5,2.5,0,0,1-5,0Z" transform="translate(255 7159)" opacity="0.195" fill="url(#linear-gradient)"/>
        <path id="Union_8" data-name="Union 8" d="M17.5,37.5v-15H2.5a2.5,2.5,0,1,1,0-5h15V2.5a2.5,2.5,0,1,1,5,0v15h15a2.5,2.5,0,0,1,0,5h-15v15a2.5,2.5,0,0,1-5,0Z" transform="translate(375 7159)" opacity="0.195" fill="url(#linear-gradient)"/>
        <path id="Union_10" data-name="Union 10" d="M17.5,37.5v-15H2.5a2.5,2.5,0,1,1,0-5h15V2.5a2.5,2.5,0,1,1,5,0v15h15a2.5,2.5,0,0,1,0,5h-15v15a2.5,2.5,0,0,1-5,0Z" transform="translate(495 7159)" opacity="0.195" fill="url(#linear-gradient)"/>
        <path id="Union_12" data-name="Union 12" d="M17.5,37.5v-15H2.5a2.5,2.5,0,1,1,0-5h15V2.5a2.5,2.5,0,1,1,5,0v15h15a2.5,2.5,0,0,1,0,5h-15v15a2.5,2.5,0,0,1-5,0Z" transform="translate(615 7159)" opacity="0.195" fill="url(#linear-gradient)"/>
        <path id="Union_14" data-name="Union 14" d="M17.5,37.5v-15H2.5a2.5,2.5,0,1,1,0-5h15V2.5a2.5,2.5,0,1,1,5,0v15h15a2.5,2.5,0,0,1,0,5h-15v15a2.5,2.5,0,0,1-5,0Z" transform="translate(735 7159)" opacity="0.195" fill="url(#linear-gradient)"/>
        <path id="Union_16" data-name="Union 16" d="M17.5,37.5v-15H2.5a2.5,2.5,0,1,1,0-5h15V2.5a2.5,2.5,0,1,1,5,0v15h15a2.5,2.5,0,0,1,0,5h-15v15a2.5,2.5,0,0,1-5,0Z" transform="translate(855 7159)" opacity="0.195" fill="url(#linear-gradient)"/>
        <path id="Union_6" data-name="Union 6" d="M17.5,37.5v-15H2.5a2.5,2.5,0,1,1,0-5h15V2.5a2.5,2.5,0,1,1,5,0v15h15a2.5,2.5,0,0,1,0,5h-15v15a2.5,2.5,0,0,1-5,0Z" transform="translate(315 7159)" opacity="0.195" fill="url(#linear-gradient)"/>
        <path id="Union_7" data-name="Union 7" d="M17.5,37.5v-15H2.5a2.5,2.5,0,1,1,0-5h15V2.5a2.5,2.5,0,1,1,5,0v15h15a2.5,2.5,0,0,1,0,5h-15v15a2.5,2.5,0,0,1-5,0Z" transform="translate(435 7159)" opacity="0.195" fill="url(#linear-gradient)"/>
        <path id="Union_9" data-name="Union 9" d="M17.5,37.5v-15H2.5a2.5,2.5,0,1,1,0-5h15V2.5a2.5,2.5,0,1,1,5,0v15h15a2.5,2.5,0,0,1,0,5h-15v15a2.5,2.5,0,0,1-5,0Z" transform="translate(555 7159)" opacity="0.195" fill="url(#linear-gradient)"/>
        <path id="Union_11" data-name="Union 11" d="M17.5,37.5v-15H2.5a2.5,2.5,0,1,1,0-5h15V2.5a2.5,2.5,0,1,1,5,0v15h15a2.5,2.5,0,0,1,0,5h-15v15a2.5,2.5,0,0,1-5,0Z" transform="translate(675 7159)" opacity="0.195" fill="url(#linear-gradient)"/>
        <path id="Union_13" data-name="Union 13" d="M17.5,37.5v-15H2.5a2.5,2.5,0,1,1,0-5h15V2.5a2.5,2.5,0,1,1,5,0v15h15a2.5,2.5,0,0,1,0,5h-15v15a2.5,2.5,0,0,1-5,0Z" transform="translate(795 7159)" opacity="0.195" fill="url(#linear-gradient)"/>
        <path id="Union_15" data-name="Union 15" d="M17.5,37.5v-15H2.5a2.5,2.5,0,1,1,0-5h15V2.5a2.5,2.5,0,1,1,5,0v15h15a2.5,2.5,0,0,1,0,5h-15v15a2.5,2.5,0,0,1-5,0Z" transform="translate(915 7159)" opacity="0.195" fill="url(#linear-gradient)"/>
      </g>
      <g id="Group_13133" data-name="Group 13133" transform="translate(0 240)">
        <path id="Union_5-2" data-name="Union 5" d="M17.5,37.5v-15H2.5a2.5,2.5,0,1,1,0-5h15V2.5a2.5,2.5,0,1,1,5,0v15h15a2.5,2.5,0,0,1,0,5h-15v15a2.5,2.5,0,0,1-5,0Z" transform="translate(255 7159)" opacity="0.195" fill="url(#linear-gradient)"/>
        <path id="Union_8-2" data-name="Union 8" d="M17.5,37.5v-15H2.5a2.5,2.5,0,1,1,0-5h15V2.5a2.5,2.5,0,1,1,5,0v15h15a2.5,2.5,0,0,1,0,5h-15v15a2.5,2.5,0,0,1-5,0Z" transform="translate(375 7159)" opacity="0.195" fill="url(#linear-gradient)"/>
        <path id="Union_10-2" data-name="Union 10" d="M17.5,37.5v-15H2.5a2.5,2.5,0,1,1,0-5h15V2.5a2.5,2.5,0,1,1,5,0v15h15a2.5,2.5,0,0,1,0,5h-15v15a2.5,2.5,0,0,1-5,0Z" transform="translate(495 7159)" opacity="0.195" fill="url(#linear-gradient)"/>
        <path id="Union_12-2" data-name="Union 12" d="M17.5,37.5v-15H2.5a2.5,2.5,0,1,1,0-5h15V2.5a2.5,2.5,0,1,1,5,0v15h15a2.5,2.5,0,0,1,0,5h-15v15a2.5,2.5,0,0,1-5,0Z" transform="translate(615 7159)" opacity="0.195" fill="url(#linear-gradient)"/>
        <path id="Union_14-2" data-name="Union 14" d="M17.5,37.5v-15H2.5a2.5,2.5,0,1,1,0-5h15V2.5a2.5,2.5,0,1,1,5,0v15h15a2.5,2.5,0,0,1,0,5h-15v15a2.5,2.5,0,0,1-5,0Z" transform="translate(735 7159)" opacity="0.195" fill="url(#linear-gradient)"/>
        <path id="Union_16-2" data-name="Union 16" d="M17.5,37.5v-15H2.5a2.5,2.5,0,1,1,0-5h15V2.5a2.5,2.5,0,1,1,5,0v15h15a2.5,2.5,0,0,1,0,5h-15v15a2.5,2.5,0,0,1-5,0Z" transform="translate(855 7159)" opacity="0.195" fill="url(#linear-gradient)"/>
        <path id="Union_6-2" data-name="Union 6" d="M17.5,37.5v-15H2.5a2.5,2.5,0,1,1,0-5h15V2.5a2.5,2.5,0,1,1,5,0v15h15a2.5,2.5,0,0,1,0,5h-15v15a2.5,2.5,0,0,1-5,0Z" transform="translate(315 7159)" opacity="0.195" fill="url(#linear-gradient)"/>
        <path id="Union_7-2" data-name="Union 7" d="M17.5,37.5v-15H2.5a2.5,2.5,0,1,1,0-5h15V2.5a2.5,2.5,0,1,1,5,0v15h15a2.5,2.5,0,0,1,0,5h-15v15a2.5,2.5,0,0,1-5,0Z" transform="translate(435 7159)" opacity="0.195" fill="url(#linear-gradient)"/>
        <path id="Union_9-2" data-name="Union 9" d="M17.5,37.5v-15H2.5a2.5,2.5,0,1,1,0-5h15V2.5a2.5,2.5,0,1,1,5,0v15h15a2.5,2.5,0,0,1,0,5h-15v15a2.5,2.5,0,0,1-5,0Z" transform="translate(555 7159)" opacity="0.195" fill="url(#linear-gradient)"/>
        <path id="Union_11-2" data-name="Union 11" d="M17.5,37.5v-15H2.5a2.5,2.5,0,1,1,0-5h15V2.5a2.5,2.5,0,1,1,5,0v15h15a2.5,2.5,0,0,1,0,5h-15v15a2.5,2.5,0,0,1-5,0Z" transform="translate(675 7159)" opacity="0.195" fill="url(#linear-gradient)"/>
        <path id="Union_13-2" data-name="Union 13" d="M17.5,37.5v-15H2.5a2.5,2.5,0,1,1,0-5h15V2.5a2.5,2.5,0,1,1,5,0v15h15a2.5,2.5,0,0,1,0,5h-15v15a2.5,2.5,0,0,1-5,0Z" transform="translate(795 7159)" opacity="0.195" fill="url(#linear-gradient)"/>
        <path id="Union_15-2" data-name="Union 15" d="M17.5,37.5v-15H2.5a2.5,2.5,0,1,1,0-5h15V2.5a2.5,2.5,0,1,1,5,0v15h15a2.5,2.5,0,0,1,0,5h-15v15a2.5,2.5,0,0,1-5,0Z" transform="translate(915 7159)" opacity="0.195" fill="url(#linear-gradient)"/>
      </g>
      <g id="Group_13127" data-name="Group 13127" transform="translate(0 60)">
        <path id="Union_5-3" data-name="Union 5" d="M17.5,37.5v-15H2.5a2.5,2.5,0,1,1,0-5h15V2.5a2.5,2.5,0,1,1,5,0v15h15a2.5,2.5,0,0,1,0,5h-15v15a2.5,2.5,0,0,1-5,0Z" transform="translate(255 7159)" opacity="0.195" fill="url(#linear-gradient)"/>
        <path id="Union_8-3" data-name="Union 8" d="M17.5,37.5v-15H2.5a2.5,2.5,0,1,1,0-5h15V2.5a2.5,2.5,0,1,1,5,0v15h15a2.5,2.5,0,0,1,0,5h-15v15a2.5,2.5,0,0,1-5,0Z" transform="translate(375 7159)" opacity="0.195" fill="url(#linear-gradient)"/>
        <path id="Union_10-3" data-name="Union 10" d="M17.5,37.5v-15H2.5a2.5,2.5,0,1,1,0-5h15V2.5a2.5,2.5,0,1,1,5,0v15h15a2.5,2.5,0,0,1,0,5h-15v15a2.5,2.5,0,0,1-5,0Z" transform="translate(495 7159)" opacity="0.195" fill="url(#linear-gradient)"/>
        <path id="Union_12-3" data-name="Union 12" d="M17.5,37.5v-15H2.5a2.5,2.5,0,1,1,0-5h15V2.5a2.5,2.5,0,1,1,5,0v15h15a2.5,2.5,0,0,1,0,5h-15v15a2.5,2.5,0,0,1-5,0Z" transform="translate(615 7159)" opacity="0.195" fill="url(#linear-gradient)"/>
        <path id="Union_14-3" data-name="Union 14" d="M17.5,37.5v-15H2.5a2.5,2.5,0,1,1,0-5h15V2.5a2.5,2.5,0,1,1,5,0v15h15a2.5,2.5,0,0,1,0,5h-15v15a2.5,2.5,0,0,1-5,0Z" transform="translate(735 7159)" opacity="0.195" fill="url(#linear-gradient)"/>
        <path id="Union_16-3" data-name="Union 16" d="M17.5,37.5v-15H2.5a2.5,2.5,0,1,1,0-5h15V2.5a2.5,2.5,0,1,1,5,0v15h15a2.5,2.5,0,0,1,0,5h-15v15a2.5,2.5,0,0,1-5,0Z" transform="translate(855 7159)" opacity="0.195" fill="url(#linear-gradient)"/>
        <path id="Union_6-3" data-name="Union 6" d="M17.5,37.5v-15H2.5a2.5,2.5,0,1,1,0-5h15V2.5a2.5,2.5,0,1,1,5,0v15h15a2.5,2.5,0,0,1,0,5h-15v15a2.5,2.5,0,0,1-5,0Z" transform="translate(315 7159)" opacity="0.195" fill="url(#linear-gradient)"/>
        <path id="Union_7-3" data-name="Union 7" d="M17.5,37.5v-15H2.5a2.5,2.5,0,1,1,0-5h15V2.5a2.5,2.5,0,1,1,5,0v15h15a2.5,2.5,0,0,1,0,5h-15v15a2.5,2.5,0,0,1-5,0Z" transform="translate(435 7159)" opacity="0.195" fill="url(#linear-gradient)"/>
        <path id="Union_9-3" data-name="Union 9" d="M17.5,37.5v-15H2.5a2.5,2.5,0,1,1,0-5h15V2.5a2.5,2.5,0,1,1,5,0v15h15a2.5,2.5,0,0,1,0,5h-15v15a2.5,2.5,0,0,1-5,0Z" transform="translate(555 7159)" opacity="0.195" fill="url(#linear-gradient)"/>
        <path id="Union_11-3" data-name="Union 11" d="M17.5,37.5v-15H2.5a2.5,2.5,0,1,1,0-5h15V2.5a2.5,2.5,0,1,1,5,0v15h15a2.5,2.5,0,0,1,0,5h-15v15a2.5,2.5,0,0,1-5,0Z" transform="translate(675 7159)" opacity="0.195" fill="url(#linear-gradient)"/>
        <path id="Union_13-3" data-name="Union 13" d="M17.5,37.5v-15H2.5a2.5,2.5,0,1,1,0-5h15V2.5a2.5,2.5,0,1,1,5,0v15h15a2.5,2.5,0,0,1,0,5h-15v15a2.5,2.5,0,0,1-5,0Z" transform="translate(795 7159)" opacity="0.195" fill="url(#linear-gradient)"/>
        <path id="Union_15-3" data-name="Union 15" d="M17.5,37.5v-15H2.5a2.5,2.5,0,1,1,0-5h15V2.5a2.5,2.5,0,1,1,5,0v15h15a2.5,2.5,0,0,1,0,5h-15v15a2.5,2.5,0,0,1-5,0Z" transform="translate(915 7159)" opacity="0.195" fill="url(#linear-gradient)"/>
      </g>
      <g id="Group_13132" data-name="Group 13132" transform="translate(0 300)">
        <path id="Union_5-4" data-name="Union 5" d="M17.5,37.5v-15H2.5a2.5,2.5,0,1,1,0-5h15V2.5a2.5,2.5,0,1,1,5,0v15h15a2.5,2.5,0,0,1,0,5h-15v15a2.5,2.5,0,0,1-5,0Z" transform="translate(255 7159)" opacity="0.195" fill="url(#linear-gradient)"/>
        <path id="Union_8-4" data-name="Union 8" d="M17.5,37.5v-15H2.5a2.5,2.5,0,1,1,0-5h15V2.5a2.5,2.5,0,1,1,5,0v15h15a2.5,2.5,0,0,1,0,5h-15v15a2.5,2.5,0,0,1-5,0Z" transform="translate(375 7159)" opacity="0.195" fill="url(#linear-gradient)"/>
        <path id="Union_10-4" data-name="Union 10" d="M17.5,37.5v-15H2.5a2.5,2.5,0,1,1,0-5h15V2.5a2.5,2.5,0,1,1,5,0v15h15a2.5,2.5,0,0,1,0,5h-15v15a2.5,2.5,0,0,1-5,0Z" transform="translate(495 7159)" opacity="0.195" fill="url(#linear-gradient)"/>
        <path id="Union_12-4" data-name="Union 12" d="M17.5,37.5v-15H2.5a2.5,2.5,0,1,1,0-5h15V2.5a2.5,2.5,0,1,1,5,0v15h15a2.5,2.5,0,0,1,0,5h-15v15a2.5,2.5,0,0,1-5,0Z" transform="translate(615 7159)" opacity="0.195" fill="url(#linear-gradient)"/>
        <path id="Union_14-4" data-name="Union 14" d="M17.5,37.5v-15H2.5a2.5,2.5,0,1,1,0-5h15V2.5a2.5,2.5,0,1,1,5,0v15h15a2.5,2.5,0,0,1,0,5h-15v15a2.5,2.5,0,0,1-5,0Z" transform="translate(735 7159)" opacity="0.195" fill="url(#linear-gradient)"/>
        <path id="Union_16-4" data-name="Union 16" d="M17.5,37.5v-15H2.5a2.5,2.5,0,1,1,0-5h15V2.5a2.5,2.5,0,1,1,5,0v15h15a2.5,2.5,0,0,1,0,5h-15v15a2.5,2.5,0,0,1-5,0Z" transform="translate(855 7159)" opacity="0.195" fill="url(#linear-gradient)"/>
        <path id="Union_6-4" data-name="Union 6" d="M17.5,37.5v-15H2.5a2.5,2.5,0,1,1,0-5h15V2.5a2.5,2.5,0,1,1,5,0v15h15a2.5,2.5,0,0,1,0,5h-15v15a2.5,2.5,0,0,1-5,0Z" transform="translate(315 7159)" opacity="0.195" fill="url(#linear-gradient)"/>
        <path id="Union_7-4" data-name="Union 7" d="M17.5,37.5v-15H2.5a2.5,2.5,0,1,1,0-5h15V2.5a2.5,2.5,0,1,1,5,0v15h15a2.5,2.5,0,0,1,0,5h-15v15a2.5,2.5,0,0,1-5,0Z" transform="translate(435 7159)" opacity="0.195" fill="url(#linear-gradient)"/>
        <path id="Union_9-4" data-name="Union 9" d="M17.5,37.5v-15H2.5a2.5,2.5,0,1,1,0-5h15V2.5a2.5,2.5,0,1,1,5,0v15h15a2.5,2.5,0,0,1,0,5h-15v15a2.5,2.5,0,0,1-5,0Z" transform="translate(555 7159)" opacity="0.195" fill="url(#linear-gradient)"/>
        <path id="Union_11-4" data-name="Union 11" d="M17.5,37.5v-15H2.5a2.5,2.5,0,1,1,0-5h15V2.5a2.5,2.5,0,1,1,5,0v15h15a2.5,2.5,0,0,1,0,5h-15v15a2.5,2.5,0,0,1-5,0Z" transform="translate(675 7159)" opacity="0.195" fill="url(#linear-gradient)"/>
        <path id="Union_13-4" data-name="Union 13" d="M17.5,37.5v-15H2.5a2.5,2.5,0,1,1,0-5h15V2.5a2.5,2.5,0,1,1,5,0v15h15a2.5,2.5,0,0,1,0,5h-15v15a2.5,2.5,0,0,1-5,0Z" transform="translate(795 7159)" opacity="0.195" fill="url(#linear-gradient)"/>
        <path id="Union_15-4" data-name="Union 15" d="M17.5,37.5v-15H2.5a2.5,2.5,0,1,1,0-5h15V2.5a2.5,2.5,0,1,1,5,0v15h15a2.5,2.5,0,0,1,0,5h-15v15a2.5,2.5,0,0,1-5,0Z" transform="translate(915 7159)" opacity="0.195" fill="url(#linear-gradient)"/>
      </g>
      <g id="Group_13128" data-name="Group 13128" transform="translate(0 120)">
        <path id="Union_5-5" data-name="Union 5" d="M17.5,37.5v-15H2.5a2.5,2.5,0,1,1,0-5h15V2.5a2.5,2.5,0,1,1,5,0v15h15a2.5,2.5,0,0,1,0,5h-15v15a2.5,2.5,0,0,1-5,0Z" transform="translate(255 7159)" opacity="0.195" fill="url(#linear-gradient)"/>
        <path id="Union_8-5" data-name="Union 8" d="M17.5,37.5v-15H2.5a2.5,2.5,0,1,1,0-5h15V2.5a2.5,2.5,0,1,1,5,0v15h15a2.5,2.5,0,0,1,0,5h-15v15a2.5,2.5,0,0,1-5,0Z" transform="translate(375 7159)" opacity="0.195" fill="url(#linear-gradient)"/>
        <path id="Union_10-5" data-name="Union 10" d="M17.5,37.5v-15H2.5a2.5,2.5,0,1,1,0-5h15V2.5a2.5,2.5,0,1,1,5,0v15h15a2.5,2.5,0,0,1,0,5h-15v15a2.5,2.5,0,0,1-5,0Z" transform="translate(495 7159)" opacity="0.195" fill="url(#linear-gradient)"/>
        <path id="Union_12-5" data-name="Union 12" d="M17.5,37.5v-15H2.5a2.5,2.5,0,1,1,0-5h15V2.5a2.5,2.5,0,1,1,5,0v15h15a2.5,2.5,0,0,1,0,5h-15v15a2.5,2.5,0,0,1-5,0Z" transform="translate(615 7159)" opacity="0.195" fill="url(#linear-gradient)"/>
        <path id="Union_14-5" data-name="Union 14" d="M17.5,37.5v-15H2.5a2.5,2.5,0,1,1,0-5h15V2.5a2.5,2.5,0,1,1,5,0v15h15a2.5,2.5,0,0,1,0,5h-15v15a2.5,2.5,0,0,1-5,0Z" transform="translate(735 7159)" opacity="0.195" fill="url(#linear-gradient)"/>
        <path id="Union_16-5" data-name="Union 16" d="M17.5,37.5v-15H2.5a2.5,2.5,0,1,1,0-5h15V2.5a2.5,2.5,0,1,1,5,0v15h15a2.5,2.5,0,0,1,0,5h-15v15a2.5,2.5,0,0,1-5,0Z" transform="translate(855 7159)" opacity="0.195" fill="url(#linear-gradient)"/>
        <path id="Union_6-5" data-name="Union 6" d="M17.5,37.5v-15H2.5a2.5,2.5,0,1,1,0-5h15V2.5a2.5,2.5,0,1,1,5,0v15h15a2.5,2.5,0,0,1,0,5h-15v15a2.5,2.5,0,0,1-5,0Z" transform="translate(315 7159)" opacity="0.195" fill="url(#linear-gradient)"/>
        <path id="Union_7-5" data-name="Union 7" d="M17.5,37.5v-15H2.5a2.5,2.5,0,1,1,0-5h15V2.5a2.5,2.5,0,1,1,5,0v15h15a2.5,2.5,0,0,1,0,5h-15v15a2.5,2.5,0,0,1-5,0Z" transform="translate(435 7159)" opacity="0.195" fill="url(#linear-gradient)"/>
        <path id="Union_9-5" data-name="Union 9" d="M17.5,37.5v-15H2.5a2.5,2.5,0,1,1,0-5h15V2.5a2.5,2.5,0,1,1,5,0v15h15a2.5,2.5,0,0,1,0,5h-15v15a2.5,2.5,0,0,1-5,0Z" transform="translate(555 7159)" opacity="0.195" fill="url(#linear-gradient)"/>
        <path id="Union_11-5" data-name="Union 11" d="M17.5,37.5v-15H2.5a2.5,2.5,0,1,1,0-5h15V2.5a2.5,2.5,0,1,1,5,0v15h15a2.5,2.5,0,0,1,0,5h-15v15a2.5,2.5,0,0,1-5,0Z" transform="translate(675 7159)" opacity="0.195" fill="url(#linear-gradient)"/>
        <path id="Union_13-5" data-name="Union 13" d="M17.5,37.5v-15H2.5a2.5,2.5,0,1,1,0-5h15V2.5a2.5,2.5,0,1,1,5,0v15h15a2.5,2.5,0,0,1,0,5h-15v15a2.5,2.5,0,0,1-5,0Z" transform="translate(795 7159)" opacity="0.195" fill="url(#linear-gradient)"/>
        <path id="Union_15-5" data-name="Union 15" d="M17.5,37.5v-15H2.5a2.5,2.5,0,1,1,0-5h15V2.5a2.5,2.5,0,1,1,5,0v15h15a2.5,2.5,0,0,1,0,5h-15v15a2.5,2.5,0,0,1-5,0Z" transform="translate(915 7159)" opacity="0.195" fill="url(#linear-gradient)"/>
      </g>
      <g id="Group_13131" data-name="Group 13131" transform="translate(0 360)">
        <path id="Union_5-6" data-name="Union 5" d="M17.5,37.5v-15H2.5a2.5,2.5,0,1,1,0-5h15V2.5a2.5,2.5,0,1,1,5,0v15h15a2.5,2.5,0,0,1,0,5h-15v15a2.5,2.5,0,0,1-5,0Z" transform="translate(255 7159)" opacity="0.195" fill="url(#linear-gradient)"/>
        <path id="Union_8-6" data-name="Union 8" d="M17.5,37.5v-15H2.5a2.5,2.5,0,1,1,0-5h15V2.5a2.5,2.5,0,1,1,5,0v15h15a2.5,2.5,0,0,1,0,5h-15v15a2.5,2.5,0,0,1-5,0Z" transform="translate(375 7159)" opacity="0.195" fill="url(#linear-gradient)"/>
        <path id="Union_10-6" data-name="Union 10" d="M17.5,37.5v-15H2.5a2.5,2.5,0,1,1,0-5h15V2.5a2.5,2.5,0,1,1,5,0v15h15a2.5,2.5,0,0,1,0,5h-15v15a2.5,2.5,0,0,1-5,0Z" transform="translate(495 7159)" opacity="0.195" fill="url(#linear-gradient)"/>
        <path id="Union_12-6" data-name="Union 12" d="M17.5,37.5v-15H2.5a2.5,2.5,0,1,1,0-5h15V2.5a2.5,2.5,0,1,1,5,0v15h15a2.5,2.5,0,0,1,0,5h-15v15a2.5,2.5,0,0,1-5,0Z" transform="translate(615 7159)" opacity="0.195" fill="url(#linear-gradient)"/>
        <path id="Union_14-6" data-name="Union 14" d="M17.5,37.5v-15H2.5a2.5,2.5,0,1,1,0-5h15V2.5a2.5,2.5,0,1,1,5,0v15h15a2.5,2.5,0,0,1,0,5h-15v15a2.5,2.5,0,0,1-5,0Z" transform="translate(735 7159)" opacity="0.195" fill="url(#linear-gradient)"/>
        <path id="Union_16-6" data-name="Union 16" d="M17.5,37.5v-15H2.5a2.5,2.5,0,1,1,0-5h15V2.5a2.5,2.5,0,1,1,5,0v15h15a2.5,2.5,0,0,1,0,5h-15v15a2.5,2.5,0,0,1-5,0Z" transform="translate(855 7159)" opacity="0.195" fill="url(#linear-gradient)"/>
        <path id="Union_6-6" data-name="Union 6" d="M17.5,37.5v-15H2.5a2.5,2.5,0,1,1,0-5h15V2.5a2.5,2.5,0,1,1,5,0v15h15a2.5,2.5,0,0,1,0,5h-15v15a2.5,2.5,0,0,1-5,0Z" transform="translate(315 7159)" opacity="0.195" fill="url(#linear-gradient)"/>
        <path id="Union_7-6" data-name="Union 7" d="M17.5,37.5v-15H2.5a2.5,2.5,0,1,1,0-5h15V2.5a2.5,2.5,0,1,1,5,0v15h15a2.5,2.5,0,0,1,0,5h-15v15a2.5,2.5,0,0,1-5,0Z" transform="translate(435 7159)" opacity="0.195" fill="url(#linear-gradient)"/>
        <path id="Union_9-6" data-name="Union 9" d="M17.5,37.5v-15H2.5a2.5,2.5,0,1,1,0-5h15V2.5a2.5,2.5,0,1,1,5,0v15h15a2.5,2.5,0,0,1,0,5h-15v15a2.5,2.5,0,0,1-5,0Z" transform="translate(555 7159)" opacity="0.195" fill="url(#linear-gradient)"/>
        <path id="Union_11-6" data-name="Union 11" d="M17.5,37.5v-15H2.5a2.5,2.5,0,1,1,0-5h15V2.5a2.5,2.5,0,1,1,5,0v15h15a2.5,2.5,0,0,1,0,5h-15v15a2.5,2.5,0,0,1-5,0Z" transform="translate(675 7159)" opacity="0.195" fill="url(#linear-gradient)"/>
        <path id="Union_13-6" data-name="Union 13" d="M17.5,37.5v-15H2.5a2.5,2.5,0,1,1,0-5h15V2.5a2.5,2.5,0,1,1,5,0v15h15a2.5,2.5,0,0,1,0,5h-15v15a2.5,2.5,0,0,1-5,0Z" transform="translate(795 7159)" opacity="0.195" fill="url(#linear-gradient)"/>
        <path id="Union_15-6" data-name="Union 15" d="M17.5,37.5v-15H2.5a2.5,2.5,0,1,1,0-5h15V2.5a2.5,2.5,0,1,1,5,0v15h15a2.5,2.5,0,0,1,0,5h-15v15a2.5,2.5,0,0,1-5,0Z" transform="translate(915 7159)" opacity="0.195" fill="url(#linear-gradient)"/>
      </g>
      <g id="Group_13129" data-name="Group 13129" transform="translate(0 180)">
        <path id="Union_5-7" data-name="Union 5" d="M17.5,37.5v-15H2.5a2.5,2.5,0,1,1,0-5h15V2.5a2.5,2.5,0,1,1,5,0v15h15a2.5,2.5,0,0,1,0,5h-15v15a2.5,2.5,0,0,1-5,0Z" transform="translate(255 7159)" opacity="0.195" fill="url(#linear-gradient)"/>
        <path id="Union_8-7" data-name="Union 8" d="M17.5,37.5v-15H2.5a2.5,2.5,0,1,1,0-5h15V2.5a2.5,2.5,0,1,1,5,0v15h15a2.5,2.5,0,0,1,0,5h-15v15a2.5,2.5,0,0,1-5,0Z" transform="translate(375 7159)" opacity="0.195" fill="url(#linear-gradient)"/>
        <path id="Union_10-7" data-name="Union 10" d="M17.5,37.5v-15H2.5a2.5,2.5,0,1,1,0-5h15V2.5a2.5,2.5,0,1,1,5,0v15h15a2.5,2.5,0,0,1,0,5h-15v15a2.5,2.5,0,0,1-5,0Z" transform="translate(495 7159)" opacity="0.195" fill="url(#linear-gradient)"/>
        <path id="Union_12-7" data-name="Union 12" d="M17.5,37.5v-15H2.5a2.5,2.5,0,1,1,0-5h15V2.5a2.5,2.5,0,1,1,5,0v15h15a2.5,2.5,0,0,1,0,5h-15v15a2.5,2.5,0,0,1-5,0Z" transform="translate(615 7159)" opacity="0.195" fill="url(#linear-gradient)"/>
        <path id="Union_14-7" data-name="Union 14" d="M17.5,37.5v-15H2.5a2.5,2.5,0,1,1,0-5h15V2.5a2.5,2.5,0,1,1,5,0v15h15a2.5,2.5,0,0,1,0,5h-15v15a2.5,2.5,0,0,1-5,0Z" transform="translate(735 7159)" opacity="0.195" fill="url(#linear-gradient)"/>
        <path id="Union_16-7" data-name="Union 16" d="M17.5,37.5v-15H2.5a2.5,2.5,0,1,1,0-5h15V2.5a2.5,2.5,0,1,1,5,0v15h15a2.5,2.5,0,0,1,0,5h-15v15a2.5,2.5,0,0,1-5,0Z" transform="translate(855 7159)" opacity="0.195" fill="url(#linear-gradient)"/>
        <path id="Union_6-7" data-name="Union 6" d="M17.5,37.5v-15H2.5a2.5,2.5,0,1,1,0-5h15V2.5a2.5,2.5,0,1,1,5,0v15h15a2.5,2.5,0,0,1,0,5h-15v15a2.5,2.5,0,0,1-5,0Z" transform="translate(315 7159)" opacity="0.195" fill="url(#linear-gradient)"/>
        <path id="Union_7-7" data-name="Union 7" d="M17.5,37.5v-15H2.5a2.5,2.5,0,1,1,0-5h15V2.5a2.5,2.5,0,1,1,5,0v15h15a2.5,2.5,0,0,1,0,5h-15v15a2.5,2.5,0,0,1-5,0Z" transform="translate(435 7159)" opacity="0.195" fill="url(#linear-gradient)"/>
        <path id="Union_9-7" data-name="Union 9" d="M17.5,37.5v-15H2.5a2.5,2.5,0,1,1,0-5h15V2.5a2.5,2.5,0,1,1,5,0v15h15a2.5,2.5,0,0,1,0,5h-15v15a2.5,2.5,0,0,1-5,0Z" transform="translate(555 7159)" opacity="0.195" fill="url(#linear-gradient)"/>
        <path id="Union_11-7" data-name="Union 11" d="M17.5,37.5v-15H2.5a2.5,2.5,0,1,1,0-5h15V2.5a2.5,2.5,0,1,1,5,0v15h15a2.5,2.5,0,0,1,0,5h-15v15a2.5,2.5,0,0,1-5,0Z" transform="translate(675 7159)" opacity="0.195" fill="url(#linear-gradient)"/>
        <path id="Union_13-7" data-name="Union 13" d="M17.5,37.5v-15H2.5a2.5,2.5,0,1,1,0-5h15V2.5a2.5,2.5,0,1,1,5,0v15h15a2.5,2.5,0,0,1,0,5h-15v15a2.5,2.5,0,0,1-5,0Z" transform="translate(795 7159)" opacity="0.195" fill="url(#linear-gradient)"/>
        <path id="Union_15-7" data-name="Union 15" d="M17.5,37.5v-15H2.5a2.5,2.5,0,1,1,0-5h15V2.5a2.5,2.5,0,1,1,5,0v15h15a2.5,2.5,0,0,1,0,5h-15v15a2.5,2.5,0,0,1-5,0Z" transform="translate(915 7159)" opacity="0.195" fill="url(#linear-gradient)"/>
      </g>
      <g id="Group_13130" data-name="Group 13130" transform="translate(0 420)">
        <path id="Union_5-8" data-name="Union 5" d="M17.5,37.5v-15H2.5a2.5,2.5,0,1,1,0-5h15V2.5a2.5,2.5,0,1,1,5,0v15h15a2.5,2.5,0,0,1,0,5h-15v15a2.5,2.5,0,0,1-5,0Z" transform="translate(255 7159)" opacity="0.195" fill="url(#linear-gradient)"/>
        <path id="Union_8-8" data-name="Union 8" d="M17.5,37.5v-15H2.5a2.5,2.5,0,1,1,0-5h15V2.5a2.5,2.5,0,1,1,5,0v15h15a2.5,2.5,0,0,1,0,5h-15v15a2.5,2.5,0,0,1-5,0Z" transform="translate(375 7159)" opacity="0.195" fill="url(#linear-gradient)"/>
        <path id="Union_10-8" data-name="Union 10" d="M17.5,37.5v-15H2.5a2.5,2.5,0,1,1,0-5h15V2.5a2.5,2.5,0,1,1,5,0v15h15a2.5,2.5,0,0,1,0,5h-15v15a2.5,2.5,0,0,1-5,0Z" transform="translate(495 7159)" opacity="0.195" fill="url(#linear-gradient)"/>
        <path id="Union_12-8" data-name="Union 12" d="M17.5,37.5v-15H2.5a2.5,2.5,0,1,1,0-5h15V2.5a2.5,2.5,0,1,1,5,0v15h15a2.5,2.5,0,0,1,0,5h-15v15a2.5,2.5,0,0,1-5,0Z" transform="translate(615 7159)" opacity="0.195" fill="url(#linear-gradient)"/>
        <path id="Union_14-8" data-name="Union 14" d="M17.5,37.5v-15H2.5a2.5,2.5,0,1,1,0-5h15V2.5a2.5,2.5,0,1,1,5,0v15h15a2.5,2.5,0,0,1,0,5h-15v15a2.5,2.5,0,0,1-5,0Z" transform="translate(735 7159)" opacity="0.195" fill="url(#linear-gradient)"/>
        <path id="Union_16-8" data-name="Union 16" d="M17.5,37.5v-15H2.5a2.5,2.5,0,1,1,0-5h15V2.5a2.5,2.5,0,1,1,5,0v15h15a2.5,2.5,0,0,1,0,5h-15v15a2.5,2.5,0,0,1-5,0Z" transform="translate(855 7159)" opacity="0.195" fill="url(#linear-gradient)"/>
        <path id="Union_6-8" data-name="Union 6" d="M17.5,37.5v-15H2.5a2.5,2.5,0,1,1,0-5h15V2.5a2.5,2.5,0,1,1,5,0v15h15a2.5,2.5,0,0,1,0,5h-15v15a2.5,2.5,0,0,1-5,0Z" transform="translate(315 7159)" opacity="0.195" fill="url(#linear-gradient)"/>
        <path id="Union_7-8" data-name="Union 7" d="M17.5,37.5v-15H2.5a2.5,2.5,0,1,1,0-5h15V2.5a2.5,2.5,0,1,1,5,0v15h15a2.5,2.5,0,0,1,0,5h-15v15a2.5,2.5,0,0,1-5,0Z" transform="translate(435 7159)" opacity="0.195" fill="url(#linear-gradient)"/>
        <path id="Union_9-8" data-name="Union 9" d="M17.5,37.5v-15H2.5a2.5,2.5,0,1,1,0-5h15V2.5a2.5,2.5,0,1,1,5,0v15h15a2.5,2.5,0,0,1,0,5h-15v15a2.5,2.5,0,0,1-5,0Z" transform="translate(555 7159)" opacity="0.195" fill="url(#linear-gradient)"/>
        <path id="Union_11-8" data-name="Union 11" d="M17.5,37.5v-15H2.5a2.5,2.5,0,1,1,0-5h15V2.5a2.5,2.5,0,1,1,5,0v15h15a2.5,2.5,0,0,1,0,5h-15v15a2.5,2.5,0,0,1-5,0Z" transform="translate(675 7159)" opacity="0.195" fill="url(#linear-gradient)"/>
        <path id="Union_13-8" data-name="Union 13" d="M17.5,37.5v-15H2.5a2.5,2.5,0,1,1,0-5h15V2.5a2.5,2.5,0,1,1,5,0v15h15a2.5,2.5,0,0,1,0,5h-15v15a2.5,2.5,0,0,1-5,0Z" transform="translate(795 7159)" opacity="0.195" fill="url(#linear-gradient)"/>
        <path id="Union_15-8" data-name="Union 15" d="M17.5,37.5v-15H2.5a2.5,2.5,0,1,1,0-5h15V2.5a2.5,2.5,0,1,1,5,0v15h15a2.5,2.5,0,0,1,0,5h-15v15a2.5,2.5,0,0,1-5,0Z" transform="translate(915 7159)" opacity="0.195" fill="url(#linear-gradient)"/>
      </g>
    </g>
    <g id="Group_13134" data-name="Group 13134" transform="translate(-70 3)">
      <g id="Group_13126-2" data-name="Group 13126">
        <path id="Union_5-9" data-name="Union 5" d="M17.5,37.5v-15H2.5a2.5,2.5,0,1,1,0-5h15V2.5a2.5,2.5,0,1,1,5,0v15h15a2.5,2.5,0,0,1,0,5h-15v15a2.5,2.5,0,0,1-5,0Z" transform="translate(255 7159)" opacity="0.195" fill="url(#linear-gradient)"/>
        <path id="Union_8-9" data-name="Union 8" d="M17.5,37.5v-15H2.5a2.5,2.5,0,1,1,0-5h15V2.5a2.5,2.5,0,1,1,5,0v15h15a2.5,2.5,0,0,1,0,5h-15v15a2.5,2.5,0,0,1-5,0Z" transform="translate(375 7159)" opacity="0.195" fill="url(#linear-gradient)"/>
        <path id="Union_10-9" data-name="Union 10" d="M17.5,37.5v-15H2.5a2.5,2.5,0,1,1,0-5h15V2.5a2.5,2.5,0,1,1,5,0v15h15a2.5,2.5,0,0,1,0,5h-15v15a2.5,2.5,0,0,1-5,0Z" transform="translate(495 7159)" opacity="0.195" fill="url(#linear-gradient)"/>
        <path id="Union_12-9" data-name="Union 12" d="M17.5,37.5v-15H2.5a2.5,2.5,0,1,1,0-5h15V2.5a2.5,2.5,0,1,1,5,0v15h15a2.5,2.5,0,0,1,0,5h-15v15a2.5,2.5,0,0,1-5,0Z" transform="translate(615 7159)" opacity="0.195" fill="url(#linear-gradient)"/>
        <path id="Union_14-9" data-name="Union 14" d="M17.5,37.5v-15H2.5a2.5,2.5,0,1,1,0-5h15V2.5a2.5,2.5,0,1,1,5,0v15h15a2.5,2.5,0,0,1,0,5h-15v15a2.5,2.5,0,0,1-5,0Z" transform="translate(735 7159)" opacity="0.195" fill="url(#linear-gradient)"/>
        <path id="Union_16-9" data-name="Union 16" d="M17.5,37.5v-15H2.5a2.5,2.5,0,1,1,0-5h15V2.5a2.5,2.5,0,1,1,5,0v15h15a2.5,2.5,0,0,1,0,5h-15v15a2.5,2.5,0,0,1-5,0Z" transform="translate(855 7159)" opacity="0.195" fill="url(#linear-gradient)"/>
        <path id="Union_6-9" data-name="Union 6" d="M17.5,37.5v-15H2.5a2.5,2.5,0,1,1,0-5h15V2.5a2.5,2.5,0,1,1,5,0v15h15a2.5,2.5,0,0,1,0,5h-15v15a2.5,2.5,0,0,1-5,0Z" transform="translate(315 7159)" opacity="0.195" fill="url(#linear-gradient)"/>
        <path id="Union_7-9" data-name="Union 7" d="M17.5,37.5v-15H2.5a2.5,2.5,0,1,1,0-5h15V2.5a2.5,2.5,0,1,1,5,0v15h15a2.5,2.5,0,0,1,0,5h-15v15a2.5,2.5,0,0,1-5,0Z" transform="translate(435 7159)" opacity="0.195" fill="url(#linear-gradient)"/>
        <path id="Union_9-9" data-name="Union 9" d="M17.5,37.5v-15H2.5a2.5,2.5,0,1,1,0-5h15V2.5a2.5,2.5,0,1,1,5,0v15h15a2.5,2.5,0,0,1,0,5h-15v15a2.5,2.5,0,0,1-5,0Z" transform="translate(555 7159)" opacity="0.195" fill="url(#linear-gradient)"/>
        <path id="Union_11-9" data-name="Union 11" d="M17.5,37.5v-15H2.5a2.5,2.5,0,1,1,0-5h15V2.5a2.5,2.5,0,1,1,5,0v15h15a2.5,2.5,0,0,1,0,5h-15v15a2.5,2.5,0,0,1-5,0Z" transform="translate(675 7159)" opacity="0.195" fill="url(#linear-gradient)"/>
        <path id="Union_13-9" data-name="Union 13" d="M17.5,37.5v-15H2.5a2.5,2.5,0,1,1,0-5h15V2.5a2.5,2.5,0,1,1,5,0v15h15a2.5,2.5,0,0,1,0,5h-15v15a2.5,2.5,0,0,1-5,0Z" transform="translate(795 7159)" opacity="0.195" fill="url(#linear-gradient)"/>
        <path id="Union_15-9" data-name="Union 15" d="M17.5,37.5v-15H2.5a2.5,2.5,0,1,1,0-5h15V2.5a2.5,2.5,0,1,1,5,0v15h15a2.5,2.5,0,0,1,0,5h-15v15a2.5,2.5,0,0,1-5,0Z" transform="translate(915 7159)" opacity="0.195" fill="url(#linear-gradient)"/>
      </g>
      <g id="Group_13133-2" data-name="Group 13133" transform="translate(0 240)">
        <path id="Union_5-10" data-name="Union 5" d="M17.5,37.5v-15H2.5a2.5,2.5,0,1,1,0-5h15V2.5a2.5,2.5,0,1,1,5,0v15h15a2.5,2.5,0,0,1,0,5h-15v15a2.5,2.5,0,0,1-5,0Z" transform="translate(255 7159)" opacity="0.195" fill="url(#linear-gradient)"/>
        <path id="Union_8-10" data-name="Union 8" d="M17.5,37.5v-15H2.5a2.5,2.5,0,1,1,0-5h15V2.5a2.5,2.5,0,1,1,5,0v15h15a2.5,2.5,0,0,1,0,5h-15v15a2.5,2.5,0,0,1-5,0Z" transform="translate(375 7159)" opacity="0.195" fill="url(#linear-gradient)"/>
        <path id="Union_10-10" data-name="Union 10" d="M17.5,37.5v-15H2.5a2.5,2.5,0,1,1,0-5h15V2.5a2.5,2.5,0,1,1,5,0v15h15a2.5,2.5,0,0,1,0,5h-15v15a2.5,2.5,0,0,1-5,0Z" transform="translate(495 7159)" opacity="0.195" fill="url(#linear-gradient)"/>
        <path id="Union_12-10" data-name="Union 12" d="M17.5,37.5v-15H2.5a2.5,2.5,0,1,1,0-5h15V2.5a2.5,2.5,0,1,1,5,0v15h15a2.5,2.5,0,0,1,0,5h-15v15a2.5,2.5,0,0,1-5,0Z" transform="translate(615 7159)" opacity="0.195" fill="url(#linear-gradient)"/>
        <path id="Union_14-10" data-name="Union 14" d="M17.5,37.5v-15H2.5a2.5,2.5,0,1,1,0-5h15V2.5a2.5,2.5,0,1,1,5,0v15h15a2.5,2.5,0,0,1,0,5h-15v15a2.5,2.5,0,0,1-5,0Z" transform="translate(735 7159)" opacity="0.195" fill="url(#linear-gradient)"/>
        <path id="Union_16-10" data-name="Union 16" d="M17.5,37.5v-15H2.5a2.5,2.5,0,1,1,0-5h15V2.5a2.5,2.5,0,1,1,5,0v15h15a2.5,2.5,0,0,1,0,5h-15v15a2.5,2.5,0,0,1-5,0Z" transform="translate(855 7159)" opacity="0.195" fill="url(#linear-gradient)"/>
        <path id="Union_6-10" data-name="Union 6" d="M17.5,37.5v-15H2.5a2.5,2.5,0,1,1,0-5h15V2.5a2.5,2.5,0,1,1,5,0v15h15a2.5,2.5,0,0,1,0,5h-15v15a2.5,2.5,0,0,1-5,0Z" transform="translate(315 7159)" opacity="0.195" fill="url(#linear-gradient)"/>
        <path id="Union_7-10" data-name="Union 7" d="M17.5,37.5v-15H2.5a2.5,2.5,0,1,1,0-5h15V2.5a2.5,2.5,0,1,1,5,0v15h15a2.5,2.5,0,0,1,0,5h-15v15a2.5,2.5,0,0,1-5,0Z" transform="translate(435 7159)" opacity="0.195" fill="url(#linear-gradient)"/>
        <path id="Union_9-10" data-name="Union 9" d="M17.5,37.5v-15H2.5a2.5,2.5,0,1,1,0-5h15V2.5a2.5,2.5,0,1,1,5,0v15h15a2.5,2.5,0,0,1,0,5h-15v15a2.5,2.5,0,0,1-5,0Z" transform="translate(555 7159)" opacity="0.195" fill="url(#linear-gradient)"/>
        <path id="Union_11-10" data-name="Union 11" d="M17.5,37.5v-15H2.5a2.5,2.5,0,1,1,0-5h15V2.5a2.5,2.5,0,1,1,5,0v15h15a2.5,2.5,0,0,1,0,5h-15v15a2.5,2.5,0,0,1-5,0Z" transform="translate(675 7159)" opacity="0.195" fill="url(#linear-gradient)"/>
        <path id="Union_13-10" data-name="Union 13" d="M17.5,37.5v-15H2.5a2.5,2.5,0,1,1,0-5h15V2.5a2.5,2.5,0,1,1,5,0v15h15a2.5,2.5,0,0,1,0,5h-15v15a2.5,2.5,0,0,1-5,0Z" transform="translate(795 7159)" opacity="0.195" fill="url(#linear-gradient)"/>
        <path id="Union_15-10" data-name="Union 15" d="M17.5,37.5v-15H2.5a2.5,2.5,0,1,1,0-5h15V2.5a2.5,2.5,0,1,1,5,0v15h15a2.5,2.5,0,0,1,0,5h-15v15a2.5,2.5,0,0,1-5,0Z" transform="translate(915 7159)" opacity="0.195" fill="url(#linear-gradient)"/>
      </g>
      <g id="Group_13127-2" data-name="Group 13127" transform="translate(0 60)">
        <path id="Union_5-11" data-name="Union 5" d="M17.5,37.5v-15H2.5a2.5,2.5,0,1,1,0-5h15V2.5a2.5,2.5,0,1,1,5,0v15h15a2.5,2.5,0,0,1,0,5h-15v15a2.5,2.5,0,0,1-5,0Z" transform="translate(255 7159)" opacity="0.195" fill="url(#linear-gradient)"/>
        <path id="Union_8-11" data-name="Union 8" d="M17.5,37.5v-15H2.5a2.5,2.5,0,1,1,0-5h15V2.5a2.5,2.5,0,1,1,5,0v15h15a2.5,2.5,0,0,1,0,5h-15v15a2.5,2.5,0,0,1-5,0Z" transform="translate(375 7159)" opacity="0.195" fill="url(#linear-gradient)"/>
        <path id="Union_10-11" data-name="Union 10" d="M17.5,37.5v-15H2.5a2.5,2.5,0,1,1,0-5h15V2.5a2.5,2.5,0,1,1,5,0v15h15a2.5,2.5,0,0,1,0,5h-15v15a2.5,2.5,0,0,1-5,0Z" transform="translate(495 7159)" opacity="0.195" fill="url(#linear-gradient)"/>
        <path id="Union_12-11" data-name="Union 12" d="M17.5,37.5v-15H2.5a2.5,2.5,0,1,1,0-5h15V2.5a2.5,2.5,0,1,1,5,0v15h15a2.5,2.5,0,0,1,0,5h-15v15a2.5,2.5,0,0,1-5,0Z" transform="translate(615 7159)" opacity="0.195" fill="url(#linear-gradient)"/>
        <path id="Union_14-11" data-name="Union 14" d="M17.5,37.5v-15H2.5a2.5,2.5,0,1,1,0-5h15V2.5a2.5,2.5,0,1,1,5,0v15h15a2.5,2.5,0,0,1,0,5h-15v15a2.5,2.5,0,0,1-5,0Z" transform="translate(735 7159)" opacity="0.195" fill="url(#linear-gradient)"/>
        <path id="Union_16-11" data-name="Union 16" d="M17.5,37.5v-15H2.5a2.5,2.5,0,1,1,0-5h15V2.5a2.5,2.5,0,1,1,5,0v15h15a2.5,2.5,0,0,1,0,5h-15v15a2.5,2.5,0,0,1-5,0Z" transform="translate(855 7159)" opacity="0.195" fill="url(#linear-gradient)"/>
        <path id="Union_6-11" data-name="Union 6" d="M17.5,37.5v-15H2.5a2.5,2.5,0,1,1,0-5h15V2.5a2.5,2.5,0,1,1,5,0v15h15a2.5,2.5,0,0,1,0,5h-15v15a2.5,2.5,0,0,1-5,0Z" transform="translate(315 7159)" opacity="0.195" fill="url(#linear-gradient)"/>
        <path id="Union_7-11" data-name="Union 7" d="M17.5,37.5v-15H2.5a2.5,2.5,0,1,1,0-5h15V2.5a2.5,2.5,0,1,1,5,0v15h15a2.5,2.5,0,0,1,0,5h-15v15a2.5,2.5,0,0,1-5,0Z" transform="translate(435 7159)" opacity="0.195" fill="url(#linear-gradient)"/>
        <path id="Union_9-11" data-name="Union 9" d="M17.5,37.5v-15H2.5a2.5,2.5,0,1,1,0-5h15V2.5a2.5,2.5,0,1,1,5,0v15h15a2.5,2.5,0,0,1,0,5h-15v15a2.5,2.5,0,0,1-5,0Z" transform="translate(555 7159)" opacity="0.195" fill="url(#linear-gradient)"/>
        <path id="Union_11-11" data-name="Union 11" d="M17.5,37.5v-15H2.5a2.5,2.5,0,1,1,0-5h15V2.5a2.5,2.5,0,1,1,5,0v15h15a2.5,2.5,0,0,1,0,5h-15v15a2.5,2.5,0,0,1-5,0Z" transform="translate(675 7159)" opacity="0.195" fill="url(#linear-gradient)"/>
        <path id="Union_13-11" data-name="Union 13" d="M17.5,37.5v-15H2.5a2.5,2.5,0,1,1,0-5h15V2.5a2.5,2.5,0,1,1,5,0v15h15a2.5,2.5,0,0,1,0,5h-15v15a2.5,2.5,0,0,1-5,0Z" transform="translate(795 7159)" opacity="0.195" fill="url(#linear-gradient)"/>
        <path id="Union_15-11" data-name="Union 15" d="M17.5,37.5v-15H2.5a2.5,2.5,0,1,1,0-5h15V2.5a2.5,2.5,0,1,1,5,0v15h15a2.5,2.5,0,0,1,0,5h-15v15a2.5,2.5,0,0,1-5,0Z" transform="translate(915 7159)" opacity="0.195" fill="url(#linear-gradient)"/>
      </g>
      <g id="Group_13132-2" data-name="Group 13132" transform="translate(0 300)">
        <path id="Union_5-12" data-name="Union 5" d="M17.5,37.5v-15H2.5a2.5,2.5,0,1,1,0-5h15V2.5a2.5,2.5,0,1,1,5,0v15h15a2.5,2.5,0,0,1,0,5h-15v15a2.5,2.5,0,0,1-5,0Z" transform="translate(255 7159)" opacity="0.195" fill="url(#linear-gradient)"/>
        <path id="Union_8-12" data-name="Union 8" d="M17.5,37.5v-15H2.5a2.5,2.5,0,1,1,0-5h15V2.5a2.5,2.5,0,1,1,5,0v15h15a2.5,2.5,0,0,1,0,5h-15v15a2.5,2.5,0,0,1-5,0Z" transform="translate(375 7159)" opacity="0.195" fill="url(#linear-gradient)"/>
        <path id="Union_10-12" data-name="Union 10" d="M17.5,37.5v-15H2.5a2.5,2.5,0,1,1,0-5h15V2.5a2.5,2.5,0,1,1,5,0v15h15a2.5,2.5,0,0,1,0,5h-15v15a2.5,2.5,0,0,1-5,0Z" transform="translate(495 7159)" opacity="0.195" fill="url(#linear-gradient)"/>
        <path id="Union_12-12" data-name="Union 12" d="M17.5,37.5v-15H2.5a2.5,2.5,0,1,1,0-5h15V2.5a2.5,2.5,0,1,1,5,0v15h15a2.5,2.5,0,0,1,0,5h-15v15a2.5,2.5,0,0,1-5,0Z" transform="translate(615 7159)" opacity="0.195" fill="url(#linear-gradient)"/>
        <path id="Union_14-12" data-name="Union 14" d="M17.5,37.5v-15H2.5a2.5,2.5,0,1,1,0-5h15V2.5a2.5,2.5,0,1,1,5,0v15h15a2.5,2.5,0,0,1,0,5h-15v15a2.5,2.5,0,0,1-5,0Z" transform="translate(735 7159)" opacity="0.195" fill="url(#linear-gradient)"/>
        <path id="Union_16-12" data-name="Union 16" d="M17.5,37.5v-15H2.5a2.5,2.5,0,1,1,0-5h15V2.5a2.5,2.5,0,1,1,5,0v15h15a2.5,2.5,0,0,1,0,5h-15v15a2.5,2.5,0,0,1-5,0Z" transform="translate(855 7159)" opacity="0.195" fill="url(#linear-gradient)"/>
        <path id="Union_6-12" data-name="Union 6" d="M17.5,37.5v-15H2.5a2.5,2.5,0,1,1,0-5h15V2.5a2.5,2.5,0,1,1,5,0v15h15a2.5,2.5,0,0,1,0,5h-15v15a2.5,2.5,0,0,1-5,0Z" transform="translate(315 7159)" opacity="0.195" fill="url(#linear-gradient)"/>
        <path id="Union_7-12" data-name="Union 7" d="M17.5,37.5v-15H2.5a2.5,2.5,0,1,1,0-5h15V2.5a2.5,2.5,0,1,1,5,0v15h15a2.5,2.5,0,0,1,0,5h-15v15a2.5,2.5,0,0,1-5,0Z" transform="translate(435 7159)" opacity="0.195" fill="url(#linear-gradient)"/>
        <path id="Union_9-12" data-name="Union 9" d="M17.5,37.5v-15H2.5a2.5,2.5,0,1,1,0-5h15V2.5a2.5,2.5,0,1,1,5,0v15h15a2.5,2.5,0,0,1,0,5h-15v15a2.5,2.5,0,0,1-5,0Z" transform="translate(555 7159)" opacity="0.195" fill="url(#linear-gradient)"/>
        <path id="Union_11-12" data-name="Union 11" d="M17.5,37.5v-15H2.5a2.5,2.5,0,1,1,0-5h15V2.5a2.5,2.5,0,1,1,5,0v15h15a2.5,2.5,0,0,1,0,5h-15v15a2.5,2.5,0,0,1-5,0Z" transform="translate(675 7159)" opacity="0.195" fill="url(#linear-gradient)"/>
        <path id="Union_13-12" data-name="Union 13" d="M17.5,37.5v-15H2.5a2.5,2.5,0,1,1,0-5h15V2.5a2.5,2.5,0,1,1,5,0v15h15a2.5,2.5,0,0,1,0,5h-15v15a2.5,2.5,0,0,1-5,0Z" transform="translate(795 7159)" opacity="0.195" fill="url(#linear-gradient)"/>
        <path id="Union_15-12" data-name="Union 15" d="M17.5,37.5v-15H2.5a2.5,2.5,0,1,1,0-5h15V2.5a2.5,2.5,0,1,1,5,0v15h15a2.5,2.5,0,0,1,0,5h-15v15a2.5,2.5,0,0,1-5,0Z" transform="translate(915 7159)" opacity="0.195" fill="url(#linear-gradient)"/>
      </g>
      <g id="Group_13128-2" data-name="Group 13128" transform="translate(0 120)">
        <path id="Union_5-13" data-name="Union 5" d="M17.5,37.5v-15H2.5a2.5,2.5,0,1,1,0-5h15V2.5a2.5,2.5,0,1,1,5,0v15h15a2.5,2.5,0,0,1,0,5h-15v15a2.5,2.5,0,0,1-5,0Z" transform="translate(255 7159)" opacity="0.195" fill="url(#linear-gradient)"/>
        <path id="Union_8-13" data-name="Union 8" d="M17.5,37.5v-15H2.5a2.5,2.5,0,1,1,0-5h15V2.5a2.5,2.5,0,1,1,5,0v15h15a2.5,2.5,0,0,1,0,5h-15v15a2.5,2.5,0,0,1-5,0Z" transform="translate(375 7159)" opacity="0.195" fill="url(#linear-gradient)"/>
        <path id="Union_10-13" data-name="Union 10" d="M17.5,37.5v-15H2.5a2.5,2.5,0,1,1,0-5h15V2.5a2.5,2.5,0,1,1,5,0v15h15a2.5,2.5,0,0,1,0,5h-15v15a2.5,2.5,0,0,1-5,0Z" transform="translate(495 7159)" opacity="0.195" fill="url(#linear-gradient)"/>
        <path id="Union_12-13" data-name="Union 12" d="M17.5,37.5v-15H2.5a2.5,2.5,0,1,1,0-5h15V2.5a2.5,2.5,0,1,1,5,0v15h15a2.5,2.5,0,0,1,0,5h-15v15a2.5,2.5,0,0,1-5,0Z" transform="translate(615 7159)" opacity="0.195" fill="url(#linear-gradient)"/>
        <path id="Union_14-13" data-name="Union 14" d="M17.5,37.5v-15H2.5a2.5,2.5,0,1,1,0-5h15V2.5a2.5,2.5,0,1,1,5,0v15h15a2.5,2.5,0,0,1,0,5h-15v15a2.5,2.5,0,0,1-5,0Z" transform="translate(735 7159)" opacity="0.195" fill="url(#linear-gradient)"/>
        <path id="Union_16-13" data-name="Union 16" d="M17.5,37.5v-15H2.5a2.5,2.5,0,1,1,0-5h15V2.5a2.5,2.5,0,1,1,5,0v15h15a2.5,2.5,0,0,1,0,5h-15v15a2.5,2.5,0,0,1-5,0Z" transform="translate(855 7159)" opacity="0.195" fill="url(#linear-gradient)"/>
        <path id="Union_6-13" data-name="Union 6" d="M17.5,37.5v-15H2.5a2.5,2.5,0,1,1,0-5h15V2.5a2.5,2.5,0,1,1,5,0v15h15a2.5,2.5,0,0,1,0,5h-15v15a2.5,2.5,0,0,1-5,0Z" transform="translate(315 7159)" opacity="0.195" fill="url(#linear-gradient)"/>
        <path id="Union_7-13" data-name="Union 7" d="M17.5,37.5v-15H2.5a2.5,2.5,0,1,1,0-5h15V2.5a2.5,2.5,0,1,1,5,0v15h15a2.5,2.5,0,0,1,0,5h-15v15a2.5,2.5,0,0,1-5,0Z" transform="translate(435 7159)" opacity="0.195" fill="url(#linear-gradient)"/>
        <path id="Union_9-13" data-name="Union 9" d="M17.5,37.5v-15H2.5a2.5,2.5,0,1,1,0-5h15V2.5a2.5,2.5,0,1,1,5,0v15h15a2.5,2.5,0,0,1,0,5h-15v15a2.5,2.5,0,0,1-5,0Z" transform="translate(555 7159)" opacity="0.195" fill="url(#linear-gradient)"/>
        <path id="Union_11-13" data-name="Union 11" d="M17.5,37.5v-15H2.5a2.5,2.5,0,1,1,0-5h15V2.5a2.5,2.5,0,1,1,5,0v15h15a2.5,2.5,0,0,1,0,5h-15v15a2.5,2.5,0,0,1-5,0Z" transform="translate(675 7159)" opacity="0.195" fill="url(#linear-gradient)"/>
        <path id="Union_13-13" data-name="Union 13" d="M17.5,37.5v-15H2.5a2.5,2.5,0,1,1,0-5h15V2.5a2.5,2.5,0,1,1,5,0v15h15a2.5,2.5,0,0,1,0,5h-15v15a2.5,2.5,0,0,1-5,0Z" transform="translate(795 7159)" opacity="0.195" fill="url(#linear-gradient)"/>
        <path id="Union_15-13" data-name="Union 15" d="M17.5,37.5v-15H2.5a2.5,2.5,0,1,1,0-5h15V2.5a2.5,2.5,0,1,1,5,0v15h15a2.5,2.5,0,0,1,0,5h-15v15a2.5,2.5,0,0,1-5,0Z" transform="translate(915 7159)" opacity="0.195" fill="url(#linear-gradient)"/>
      </g>
      <g id="Group_13131-2" data-name="Group 13131" transform="translate(0 360)">
        <path id="Union_5-14" data-name="Union 5" d="M17.5,37.5v-15H2.5a2.5,2.5,0,1,1,0-5h15V2.5a2.5,2.5,0,1,1,5,0v15h15a2.5,2.5,0,0,1,0,5h-15v15a2.5,2.5,0,0,1-5,0Z" transform="translate(255 7159)" opacity="0.195" fill="url(#linear-gradient)"/>
        <path id="Union_8-14" data-name="Union 8" d="M17.5,37.5v-15H2.5a2.5,2.5,0,1,1,0-5h15V2.5a2.5,2.5,0,1,1,5,0v15h15a2.5,2.5,0,0,1,0,5h-15v15a2.5,2.5,0,0,1-5,0Z" transform="translate(375 7159)" opacity="0.195" fill="url(#linear-gradient)"/>
        <path id="Union_10-14" data-name="Union 10" d="M17.5,37.5v-15H2.5a2.5,2.5,0,1,1,0-5h15V2.5a2.5,2.5,0,1,1,5,0v15h15a2.5,2.5,0,0,1,0,5h-15v15a2.5,2.5,0,0,1-5,0Z" transform="translate(495 7159)" opacity="0.195" fill="url(#linear-gradient)"/>
        <path id="Union_12-14" data-name="Union 12" d="M17.5,37.5v-15H2.5a2.5,2.5,0,1,1,0-5h15V2.5a2.5,2.5,0,1,1,5,0v15h15a2.5,2.5,0,0,1,0,5h-15v15a2.5,2.5,0,0,1-5,0Z" transform="translate(615 7159)" opacity="0.195" fill="url(#linear-gradient)"/>
        <path id="Union_14-14" data-name="Union 14" d="M17.5,37.5v-15H2.5a2.5,2.5,0,1,1,0-5h15V2.5a2.5,2.5,0,1,1,5,0v15h15a2.5,2.5,0,0,1,0,5h-15v15a2.5,2.5,0,0,1-5,0Z" transform="translate(735 7159)" opacity="0.195" fill="url(#linear-gradient)"/>
        <path id="Union_16-14" data-name="Union 16" d="M17.5,37.5v-15H2.5a2.5,2.5,0,1,1,0-5h15V2.5a2.5,2.5,0,1,1,5,0v15h15a2.5,2.5,0,0,1,0,5h-15v15a2.5,2.5,0,0,1-5,0Z" transform="translate(855 7159)" opacity="0.195" fill="url(#linear-gradient)"/>
        <path id="Union_6-14" data-name="Union 6" d="M17.5,37.5v-15H2.5a2.5,2.5,0,1,1,0-5h15V2.5a2.5,2.5,0,1,1,5,0v15h15a2.5,2.5,0,0,1,0,5h-15v15a2.5,2.5,0,0,1-5,0Z" transform="translate(315 7159)" opacity="0.195" fill="url(#linear-gradient)"/>
        <path id="Union_7-14" data-name="Union 7" d="M17.5,37.5v-15H2.5a2.5,2.5,0,1,1,0-5h15V2.5a2.5,2.5,0,1,1,5,0v15h15a2.5,2.5,0,0,1,0,5h-15v15a2.5,2.5,0,0,1-5,0Z" transform="translate(435 7159)" opacity="0.195" fill="url(#linear-gradient)"/>
        <path id="Union_9-14" data-name="Union 9" d="M17.5,37.5v-15H2.5a2.5,2.5,0,1,1,0-5h15V2.5a2.5,2.5,0,1,1,5,0v15h15a2.5,2.5,0,0,1,0,5h-15v15a2.5,2.5,0,0,1-5,0Z" transform="translate(555 7159)" opacity="0.195" fill="url(#linear-gradient)"/>
        <path id="Union_11-14" data-name="Union 11" d="M17.5,37.5v-15H2.5a2.5,2.5,0,1,1,0-5h15V2.5a2.5,2.5,0,1,1,5,0v15h15a2.5,2.5,0,0,1,0,5h-15v15a2.5,2.5,0,0,1-5,0Z" transform="translate(675 7159)" opacity="0.195" fill="url(#linear-gradient)"/>
        <path id="Union_13-14" data-name="Union 13" d="M17.5,37.5v-15H2.5a2.5,2.5,0,1,1,0-5h15V2.5a2.5,2.5,0,1,1,5,0v15h15a2.5,2.5,0,0,1,0,5h-15v15a2.5,2.5,0,0,1-5,0Z" transform="translate(795 7159)" opacity="0.195" fill="url(#linear-gradient)"/>
        <path id="Union_15-14" data-name="Union 15" d="M17.5,37.5v-15H2.5a2.5,2.5,0,1,1,0-5h15V2.5a2.5,2.5,0,1,1,5,0v15h15a2.5,2.5,0,0,1,0,5h-15v15a2.5,2.5,0,0,1-5,0Z" transform="translate(915 7159)" opacity="0.195" fill="url(#linear-gradient)"/>
      </g>
      <g id="Group_13129-2" data-name="Group 13129" transform="translate(0 180)">
        <path id="Union_5-15" data-name="Union 5" d="M17.5,37.5v-15H2.5a2.5,2.5,0,1,1,0-5h15V2.5a2.5,2.5,0,1,1,5,0v15h15a2.5,2.5,0,0,1,0,5h-15v15a2.5,2.5,0,0,1-5,0Z" transform="translate(255 7159)" opacity="0.195" fill="url(#linear-gradient)"/>
        <path id="Union_8-15" data-name="Union 8" d="M17.5,37.5v-15H2.5a2.5,2.5,0,1,1,0-5h15V2.5a2.5,2.5,0,1,1,5,0v15h15a2.5,2.5,0,0,1,0,5h-15v15a2.5,2.5,0,0,1-5,0Z" transform="translate(375 7159)" opacity="0.195" fill="url(#linear-gradient)"/>
        <path id="Union_10-15" data-name="Union 10" d="M17.5,37.5v-15H2.5a2.5,2.5,0,1,1,0-5h15V2.5a2.5,2.5,0,1,1,5,0v15h15a2.5,2.5,0,0,1,0,5h-15v15a2.5,2.5,0,0,1-5,0Z" transform="translate(495 7159)" opacity="0.195" fill="url(#linear-gradient)"/>
        <path id="Union_12-15" data-name="Union 12" d="M17.5,37.5v-15H2.5a2.5,2.5,0,1,1,0-5h15V2.5a2.5,2.5,0,1,1,5,0v15h15a2.5,2.5,0,0,1,0,5h-15v15a2.5,2.5,0,0,1-5,0Z" transform="translate(615 7159)" opacity="0.195" fill="url(#linear-gradient)"/>
        <path id="Union_14-15" data-name="Union 14" d="M17.5,37.5v-15H2.5a2.5,2.5,0,1,1,0-5h15V2.5a2.5,2.5,0,1,1,5,0v15h15a2.5,2.5,0,0,1,0,5h-15v15a2.5,2.5,0,0,1-5,0Z" transform="translate(735 7159)" opacity="0.195" fill="url(#linear-gradient)"/>
        <path id="Union_16-15" data-name="Union 16" d="M17.5,37.5v-15H2.5a2.5,2.5,0,1,1,0-5h15V2.5a2.5,2.5,0,1,1,5,0v15h15a2.5,2.5,0,0,1,0,5h-15v15a2.5,2.5,0,0,1-5,0Z" transform="translate(855 7159)" opacity="0.195" fill="url(#linear-gradient)"/>
        <path id="Union_6-15" data-name="Union 6" d="M17.5,37.5v-15H2.5a2.5,2.5,0,1,1,0-5h15V2.5a2.5,2.5,0,1,1,5,0v15h15a2.5,2.5,0,0,1,0,5h-15v15a2.5,2.5,0,0,1-5,0Z" transform="translate(315 7159)" opacity="0.195" fill="url(#linear-gradient)"/>
        <path id="Union_7-15" data-name="Union 7" d="M17.5,37.5v-15H2.5a2.5,2.5,0,1,1,0-5h15V2.5a2.5,2.5,0,1,1,5,0v15h15a2.5,2.5,0,0,1,0,5h-15v15a2.5,2.5,0,0,1-5,0Z" transform="translate(435 7159)" opacity="0.195" fill="url(#linear-gradient)"/>
        <path id="Union_9-15" data-name="Union 9" d="M17.5,37.5v-15H2.5a2.5,2.5,0,1,1,0-5h15V2.5a2.5,2.5,0,1,1,5,0v15h15a2.5,2.5,0,0,1,0,5h-15v15a2.5,2.5,0,0,1-5,0Z" transform="translate(555 7159)" opacity="0.195" fill="url(#linear-gradient)"/>
        <path id="Union_11-15" data-name="Union 11" d="M17.5,37.5v-15H2.5a2.5,2.5,0,1,1,0-5h15V2.5a2.5,2.5,0,1,1,5,0v15h15a2.5,2.5,0,0,1,0,5h-15v15a2.5,2.5,0,0,1-5,0Z" transform="translate(675 7159)" opacity="0.195" fill="url(#linear-gradient)"/>
        <path id="Union_13-15" data-name="Union 13" d="M17.5,37.5v-15H2.5a2.5,2.5,0,1,1,0-5h15V2.5a2.5,2.5,0,1,1,5,0v15h15a2.5,2.5,0,0,1,0,5h-15v15a2.5,2.5,0,0,1-5,0Z" transform="translate(795 7159)" opacity="0.195" fill="url(#linear-gradient)"/>
        <path id="Union_15-15" data-name="Union 15" d="M17.5,37.5v-15H2.5a2.5,2.5,0,1,1,0-5h15V2.5a2.5,2.5,0,1,1,5,0v15h15a2.5,2.5,0,0,1,0,5h-15v15a2.5,2.5,0,0,1-5,0Z" transform="translate(915 7159)" opacity="0.195" fill="url(#linear-gradient)"/>
      </g>
      <g id="Group_13130-2" data-name="Group 13130" transform="translate(0 420)">
        <path id="Union_5-16" data-name="Union 5" d="M17.5,37.5v-15H2.5a2.5,2.5,0,1,1,0-5h15V2.5a2.5,2.5,0,1,1,5,0v15h15a2.5,2.5,0,0,1,0,5h-15v15a2.5,2.5,0,0,1-5,0Z" transform="translate(255 7159)" opacity="0.195" fill="url(#linear-gradient)"/>
        <path id="Union_8-16" data-name="Union 8" d="M17.5,37.5v-15H2.5a2.5,2.5,0,1,1,0-5h15V2.5a2.5,2.5,0,1,1,5,0v15h15a2.5,2.5,0,0,1,0,5h-15v15a2.5,2.5,0,0,1-5,0Z" transform="translate(375 7159)" opacity="0.195" fill="url(#linear-gradient)"/>
        <path id="Union_10-16" data-name="Union 10" d="M17.5,37.5v-15H2.5a2.5,2.5,0,1,1,0-5h15V2.5a2.5,2.5,0,1,1,5,0v15h15a2.5,2.5,0,0,1,0,5h-15v15a2.5,2.5,0,0,1-5,0Z" transform="translate(495 7159)" opacity="0.195" fill="url(#linear-gradient)"/>
        <path id="Union_12-16" data-name="Union 12" d="M17.5,37.5v-15H2.5a2.5,2.5,0,1,1,0-5h15V2.5a2.5,2.5,0,1,1,5,0v15h15a2.5,2.5,0,0,1,0,5h-15v15a2.5,2.5,0,0,1-5,0Z" transform="translate(615 7159)" opacity="0.195" fill="url(#linear-gradient)"/>
        <path id="Union_14-16" data-name="Union 14" d="M17.5,37.5v-15H2.5a2.5,2.5,0,1,1,0-5h15V2.5a2.5,2.5,0,1,1,5,0v15h15a2.5,2.5,0,0,1,0,5h-15v15a2.5,2.5,0,0,1-5,0Z" transform="translate(735 7159)" opacity="0.195" fill="url(#linear-gradient)"/>
        <path id="Union_16-16" data-name="Union 16" d="M17.5,37.5v-15H2.5a2.5,2.5,0,1,1,0-5h15V2.5a2.5,2.5,0,1,1,5,0v15h15a2.5,2.5,0,0,1,0,5h-15v15a2.5,2.5,0,0,1-5,0Z" transform="translate(855 7159)" opacity="0.195" fill="url(#linear-gradient)"/>
        <path id="Union_6-16" data-name="Union 6" d="M17.5,37.5v-15H2.5a2.5,2.5,0,1,1,0-5h15V2.5a2.5,2.5,0,1,1,5,0v15h15a2.5,2.5,0,0,1,0,5h-15v15a2.5,2.5,0,0,1-5,0Z" transform="translate(315 7159)" opacity="0.195" fill="url(#linear-gradient)"/>
        <path id="Union_7-16" data-name="Union 7" d="M17.5,37.5v-15H2.5a2.5,2.5,0,1,1,0-5h15V2.5a2.5,2.5,0,1,1,5,0v15h15a2.5,2.5,0,0,1,0,5h-15v15a2.5,2.5,0,0,1-5,0Z" transform="translate(435 7159)" opacity="0.195" fill="url(#linear-gradient)"/>
        <path id="Union_9-16" data-name="Union 9" d="M17.5,37.5v-15H2.5a2.5,2.5,0,1,1,0-5h15V2.5a2.5,2.5,0,1,1,5,0v15h15a2.5,2.5,0,0,1,0,5h-15v15a2.5,2.5,0,0,1-5,0Z" transform="translate(555 7159)" opacity="0.195" fill="url(#linear-gradient)"/>
        <path id="Union_11-16" data-name="Union 11" d="M17.5,37.5v-15H2.5a2.5,2.5,0,1,1,0-5h15V2.5a2.5,2.5,0,1,1,5,0v15h15a2.5,2.5,0,0,1,0,5h-15v15a2.5,2.5,0,0,1-5,0Z" transform="translate(675 7159)" opacity="0.195" fill="url(#linear-gradient)"/>
        <path id="Union_13-16" data-name="Union 13" d="M17.5,37.5v-15H2.5a2.5,2.5,0,1,1,0-5h15V2.5a2.5,2.5,0,1,1,5,0v15h15a2.5,2.5,0,0,1,0,5h-15v15a2.5,2.5,0,0,1-5,0Z" transform="translate(795 7159)" opacity="0.195" fill="url(#linear-gradient)"/>
        <path id="Union_15-16" data-name="Union 15" d="M17.5,37.5v-15H2.5a2.5,2.5,0,1,1,0-5h15V2.5a2.5,2.5,0,1,1,5,0v15h15a2.5,2.5,0,0,1,0,5h-15v15a2.5,2.5,0,0,1-5,0Z" transform="translate(915 7159)" opacity="0.195" fill="url(#linear-gradient)"/>
      </g>
    </g>
    <g id="Group_14294" data-name="Group 14294" transform="translate(0 -776)">
      <g id="Group_13135" data-name="Group 13135" transform="translate(18567 25610)">
        <g transform="matrix(1, 0, 0, 1, -18382, -17672)" filter="url(#Rectangle_3581)">
          <rect id="Rectangle_3581-2" data-name="Rectangle 3581" width="1199" height="812" rx="20" transform="translate(178 114)" fill="url(#linear-gradient-193)"/>
        </g>
        <g transform="matrix(1, 0, 0, 1, -18382, -17672)" filter="url(#Rectangle_3582)">
          <g id="Rectangle_3582-2" data-name="Rectangle 3582" transform="translate(226 243)" fill="#fff" stroke="#ddd" stroke-width="1">
            <rect width="1103" height="277" rx="10" stroke="none"/>
            <rect x="0.5" y="0.5" width="1102" height="276" rx="9.5" fill="none"/>
          </g>
        </g>
        <g transform="matrix(1, 0, 0, 1, -18382, -17672)" filter="url(#Rectangle_3583)">
          <g id="Rectangle_3583-2" data-name="Rectangle 3583" transform="translate(226 560)" fill="#fff" stroke="#ddd" stroke-width="1">
            <rect width="341" height="277" rx="10" stroke="none"/>
            <rect x="0.5" y="0.5" width="340" height="276" rx="9.5" fill="none"/>
          </g>
        </g>
        <g transform="matrix(1, 0, 0, 1, -18382, -17672)" filter="url(#Rectangle_3609)">
          <g id="Rectangle_3609-2" data-name="Rectangle 3609" transform="translate(607 560)" fill="#fff" stroke="#ddd" stroke-width="1">
            <rect width="341" height="277" rx="10" stroke="none"/>
            <rect x="0.5" y="0.5" width="340" height="276" rx="9.5" fill="none"/>
          </g>
        </g>
        <g transform="matrix(1, 0, 0, 1, -18382, -17672)" filter="url(#Rectangle_3610)">
          <g id="Rectangle_3610-2" data-name="Rectangle 3610" transform="translate(988 560)" fill="#fff" stroke="#ddd" stroke-width="1">
            <rect width="341" height="277" rx="10" stroke="none"/>
            <rect x="0.5" y="0.5" width="340" height="276" rx="9.5" fill="none"/>
          </g>
        </g>
        <g id="Group_13123" data-name="Group 13123" transform="translate(-18156 -17518)">
          <path id="Path_1" data-name="Path 1" d="M182.328,179.622h8.95v6.425H181.9c-4.081,0-7.04-3.24-7.04-7.574s2.986-7.438,7.04-7.438h10.859V168.32H181.9c-5.638,0-9.773,4-9.773,10.026S176.265,188.8,181.9,188.8h12.135V177.079H181.423Z" transform="translate(-62.147 -168.193)" fill="#120638"/>
          <path id="Path_2" data-name="Path 2" d="M152.373,17.866V11.45h13.574l.9-2.534H152.373V2.854h14.786l-.9-2.724H149.64V20.6h17.094l.9-2.733Z" transform="translate(-14.229 -0.012)" fill="#120638"/>
          <path id="Path_3" data-name="Path 3" d="M241.1,184.541l-15.5-15.854a1.276,1.276,0,0,0-1.167-.4H221.8l1.077,2.814v17.664h2.615V172.406l15.438,15.908a2.063,2.063,0,0,0,1.412.706c.787,0,1.375-.615,1.375-1.665V168.18H241.1Z" transform="translate(-66.871 -168.18)" fill="#120638"/>
          <rect id="Rectangle_1" data-name="Rectangle 1" width="2.733" height="20.478" transform="translate(180.882 0.109)" fill="#120638"/>
          <path id="Path_4" data-name="Path 4" d="M276.992,179.738c0,4.615-2.081,6.615-8.144,6.615s-8.144-2-8.144-6.615V168.3H257.88v11.438c0,6.334,3.1,9.321,10.859,9.321s10.859-2.986,10.859-9.321V168.3h-2.715Z" transform="translate(-70.302 -168.191)" fill="#120638"/>
          <path id="Path_5" data-name="Path 5" d="M300.266,177.079H290.72a2.859,2.859,0,0,1-3.158-3.013,2.9,2.9,0,0,1,3.185-3.04h13.709l.9-2.715H290.747c-3.918,0-6.027,2.4-6.027,5.61a5.578,5.578,0,0,0,5.972,5.71h9.574c2.253,0,3.493,1.077,3.493,3.185,0,1.918-1.213,3.24-3.493,3.24H285.028v2.715h15.239c4.081,0,6.081-2.507,6.081-5.855C306.347,179.06,304.239,177.079,300.266,177.079Z" transform="translate(-72.854 -168.192)" fill="#120638"/>
          <path id="Path_6" data-name="Path 6" d="M74.29,173.74c0-3.466-1.7-5.14-4.932-5.14H50.59v20.207h6.063v-6.181h3.095a31.849,31.849,0,0,0,3.918-.2l3.783,6.38h6.524l-4.642-7.827C72.3,179.622,74.29,177.378,74.29,173.74ZM65.24,177.6a19.464,19.464,0,0,1-5.258.525H56.635v-4.742H67.249c.7,0,.9.29.9.9.072,1.982-1.656,2.968-2.9,3.312Z" transform="translate(-50.59 -168.22)" fill="url(#linear-gradient-194)"/>
          <path id="Path_7" data-name="Path 7" d="M37.833,12.691H52.646l1-4.335H37.833V5.044H54.4L53.334.42H31.77V20.627H53.651l1.068-4.615H37.833Z" transform="translate(-3.021 -0.04)" fill="url(#linear-gradient-195)"/>
          <path id="Path_8" data-name="Path 8" d="M120,168.6l.9,1.556L110,188.807h6.515l1.909-3.267h11.764l1.909,3.267h6.524L126.7,168.6Zm.986,12.5,3.294-5.683,3.285,5.683Z" transform="translate(-56.239 -168.22)" fill="url(#linear-gradient-196)"/>
          <path id="Path_9" data-name="Path 9" d="M100.673.42H94.61V20.627H114.7l1.122-4.85H100.673Z" transform="translate(-8.997 -0.04)" fill="url(#linear-gradient-197)"/>
        </g>
        <text id="Interest_Rates" data-name="Interest Rates" transform="translate(-18037 -17396)" fill="#373a3f" font-size="14" font-family="SFProText-Bold, SF Pro Text" font-weight="700"><tspan x="-99" y="0">Interest Rates</tspan></text>
        <rect id="Rectangle_3584" data-name="Rectangle 3584" width="1103" height="1" transform="translate(-18156 -17373)" fill="#ddd"/>
        <rect id="Rectangle_3639" data-name="Rectangle 3639" width="1063" height="1" transform="translate(-18136 -17193)" fill="#ddd" opacity="0"/>
        <g transform="matrix(1, 0, 0, 1, -18382, -17672)" filter="url(#Path_8783)">
          <path id="Path_8783-2" data-name="Path 8783" d="M-17093-17163.436l-68.027-8.445-49.57-3.148-94.793,3.148-69.074-8.42-115.311-11.469h-65.9l-52-18.58-51.578-6.01-55.2-19.381-120.555-28.818-88.047-2.609-85.086-12.15-70.426-8.66-77.437-29.377" transform="translate(18402 17638.39)" fill="none" stroke="#c645ff" stroke-width="2"/>
        </g>
        <g transform="matrix(1, 0, 0, 1, -18382, -17672)" filter="url(#Path_8786)">
          <path id="Path_8786-2" data-name="Path 8786" d="M-18156-17282.457l19.264-1.914,14.035-.715,26.842.715,19.559-1.91,32.65-2.6h18.66l14.727-4.211,14.6-1.361,15.629-4.4,34.137-6.535,24.932-.59,24.092-2.756,19.943-1.963,21.928-6.66" transform="translate(18783 18045.79)" fill="none" stroke="#c645ff" stroke-width="2"/>
        </g>
        <path id="Path_8796" data-name="Path 8796" d="M-18156-17222.852l19.264-5.186,14.035-1.934,26.842,1.934,19.559-5.168,32.65-7.049h18.66l14.727-11.4,14.6-3.686,15.629-11.906,34.137-17.7,24.932-1.6,24.092-7.463,19.943-5.316,21.928-18.035" transform="translate(401.004 314.188)" fill="none" stroke="#c6c6c6" stroke-width="1"/>
        <rect id="Rectangle_3611" data-name="Rectangle 3611" width="341" height="1" transform="translate(-18156 -17056)" fill="#ddd"/>
        <rect id="Rectangle_3640" data-name="Rectangle 3640" width="341" height="1" transform="translate(-18156 -16876)" fill="#ddd"/>
        <rect id="Rectangle_3612" data-name="Rectangle 3612" width="341" height="1" transform="translate(-17775 -17057)" fill="#ddd"/>
        <rect id="Rectangle_3638" data-name="Rectangle 3638" width="301" height="1" transform="translate(-17755 -16876)" fill="#ddd" opacity="0"/>
        <rect id="Rectangle_3613" data-name="Rectangle 3613" width="341" height="1" transform="translate(-17394 -17057)" fill="#ddd"/>
        <text id="Payment_Comparison" data-name="Payment Comparison" transform="translate(-17986 -17079)" fill="#373a3f" font-size="14" font-family="SFProText-Bold, SF Pro Text" font-weight="700"><tspan x="-149" y="0">Payment Comparison</tspan></text>
        <text id="Old_Payment" data-name="Old Payment" transform="translate(-18007 -16859)" fill="#373a3f" font-size="8" font-family="SFProText-Regular, SF Pro Text"><tspan x="-47" y="0">Old Payment</tspan></text>
        <text id="New_Payment" data-name="New Payment" transform="translate(-17923 -16859)" fill="#c645ff" font-size="8" font-family="SFProText-Bold, SF Pro Text" font-weight="700"><tspan x="-54" y="0">New Payment</tspan></text>
        <text id="Total_paid_over_life_of_loan" data-name="Total paid over life of loan" transform="translate(-17575 -17079)" fill="#373a3f" font-size="14" font-family="SFProText-Bold, SF Pro Text" font-weight="700"><tspan x="-180" y="0">Total paid over life of loan</tspan></text>
        <text id="Monthly_Payment" data-name="Monthly Payment" transform="translate(-17252 -17079)" fill="#373a3f" font-size="14" font-family="SFProText-Bold, SF Pro Text" font-weight="700"><tspan x="-122" y="0">Monthly Payment</tspan></text>
        <g id="Group_12864" data-name="Group 12864" transform="translate(-18040.645 -17957.432)">
          <g id="Ring_Chart6" data-name="Ring Chart6" transform="translate(747.626 932)">
            <path id="Path_1514" data-name="Path 1514" d="M-53.987-123.5a69.516,69.516,0,0,1,65.768,47A69.516,69.516,0,0,1-11.381.945,69.516,69.516,0,0,1-92.153,4.118a69.516,69.516,0,0,1-29.166-75.39l32.712,8.4a35.743,35.743,0,0,0,15,38.763A35.743,35.743,0,0,0-32.08-25.741a35.743,35.743,0,0,0,11.909-39.82A35.743,35.743,0,0,0-53.987-89.727Z" transform="translate(123.508 123.5)" fill="url(#linear-gradient-198)"/>
            <path id="Path_1515" data-name="Path 1515" d="M-119.62-71.272A69.516,69.516,0,0,1-52.288-123.5v33.773a35.743,35.743,0,0,0-34.62,26.854Z" transform="translate(121.809 123.5)" fill="url(#linear-gradient-199)"/>
          </g>
        </g>
        <path id="Rectangle_3641" data-name="Rectangle 3641" d="M2,0H23a2,2,0,0,1,2,2V139a0,0,0,0,1,0,0H0a0,0,0,0,1,0,0V2A2,2,0,0,1,2,0Z" transform="translate(-18043 -17015)" fill="url(#linear-gradient-200)"/>
        <g transform="matrix(1, 0, 0, 1, -18382, -17672)" filter="url(#Rectangle_3647)">
          <path id="Rectangle_3647-2" data-name="Rectangle 3647" d="M2,0H23a2,2,0,0,1,2,2V80a0,0,0,0,1,0,0H0a0,0,0,0,1,0,0V2A2,2,0,0,1,2,0Z" transform="translate(419 716)" fill="url(#linear-gradient-201)"/>
        </g>
      </g>
      <g id="Ellipse_134" data-name="Ellipse 134" transform="translate(566 8291)" fill="#fff" stroke="#92969b" stroke-width="2">
        <circle cx="5" cy="5" r="5" stroke="none"/>
        <circle cx="5" cy="5" r="4" fill="none"/>
      </g>
      <g id="Ellipse_135" data-name="Ellipse 135" transform="translate(1289 8399)" fill="#fff" stroke="#c645ff" stroke-width="2">
        <circle cx="5" cy="5" r="5" stroke="none"/>
        <circle cx="5" cy="5" r="4" fill="none"/>
      </g>
      <g transform="matrix(1, 0, 0, 1, 185, 7938)" filter="url(#Union_17)">
        <g id="Union_17-2" data-name="Union 17" transform="translate(-19431.5 -23073)" fill="#fff">
          <path d="M 19817.5 23422.328125 C 19817.404296875 23422.328125 19817.310546875 23422.28125 19817.234375 23422.19921875 L 19814.943359375 23419.662109375 L 19814.794921875 23419.498046875 L 19814.572265625 23419.498046875 L 19787 23419.498046875 C 19786.173828125 23419.498046875 19785.501953125 23418.826171875 19785.501953125 23418 L 19785.501953125 23398.001953125 C 19785.501953125 23397.171875 19786.173828125 23396.498046875 19787 23396.498046875 L 19848 23396.498046875 C 19848.826171875 23396.498046875 19849.5 23397.171875 19849.5 23398.001953125 L 19849.5 23418 C 19849.5 23418.826171875 19848.826171875 23419.498046875 19848 23419.498046875 L 19820.423828125 23419.498046875 L 19820.201171875 23419.498046875 L 19820.052734375 23419.6640625 L 19817.767578125 23422.19921875 C 19817.69140625 23422.28125 19817.59765625 23422.328125 19817.5 23422.328125 Z" stroke="none"/>
          <path d="M 19817.5 23421.748046875 L 19819.978515625 23418.998046875 L 19848 23418.998046875 C 19848.55078125 23418.998046875 19849 23418.55078125 19849 23418 L 19849 23398.001953125 C 19849 23397.44921875 19848.55078125 23396.998046875 19848 23396.998046875 L 19787 23396.998046875 C 19786.44921875 23396.998046875 19786.001953125 23397.44921875 19786.001953125 23398.001953125 L 19786.001953125 23418 C 19786.001953125 23418.55078125 19786.44921875 23418.998046875 19787 23418.998046875 L 19815.015625 23418.998046875 L 19815.314453125 23419.328125 L 19817.5 23421.748046875 M 19817.5 23422.828125 C 19817.26953125 23422.828125 19817.0390625 23422.728515625 19816.86328125 23422.533203125 L 19814.572265625 23419.998046875 L 19787 23419.998046875 C 19785.89453125 23419.998046875 19785.001953125 23419.10546875 19785.001953125 23418 L 19785.001953125 23398.001953125 C 19785.001953125 23396.896484375 19785.89453125 23395.998046875 19787 23395.998046875 L 19848 23395.998046875 C 19849.10546875 23395.998046875 19850 23396.896484375 19850 23398.001953125 L 19850 23418 C 19850 23419.10546875 19849.10546875 23419.998046875 19848 23419.998046875 L 19820.423828125 23419.998046875 L 19818.138671875 23422.533203125 C 19817.962890625 23422.728515625 19817.73046875 23422.828125 19817.5 23422.828125 Z" stroke="none" fill="#e6e6e6"/>
        </g>
      </g>
      <g transform="matrix(1, 0, 0, 1, 185, 7938)" filter="url(#Union_19)">
        <g id="Union_19-2" data-name="Union 19" transform="translate(-18954 -22731)" fill="#fff">
          <path d="M 19818.5 23422.328125 C 19818.392578125 23422.328125 19818.291015625 23422.28125 19818.2109375 23422.1953125 L 19815.849609375 23419.658203125 L 19815.701171875 23419.498046875 L 19815.484375 23419.498046875 L 19787 23419.498046875 C 19786.173828125 23419.498046875 19785.501953125 23418.826171875 19785.501953125 23418 L 19785.501953125 23398.001953125 C 19785.501953125 23397.171875 19786.173828125 23396.498046875 19787 23396.498046875 L 19850 23396.498046875 C 19850.830078125 23396.498046875 19851.50390625 23397.171875 19851.50390625 23398.001953125 L 19851.50390625 23418 C 19851.50390625 23418.826171875 19850.830078125 23419.498046875 19850 23419.498046875 L 19821.515625 23419.498046875 L 19821.298828125 23419.498046875 L 19821.150390625 23419.658203125 L 19818.791015625 23422.193359375 C 19818.708984375 23422.28125 19818.607421875 23422.328125 19818.5 23422.328125 Z" stroke="none"/>
          <path d="M 19818.5 23421.76953125 L 19821.080078125 23418.998046875 L 19850 23418.998046875 C 19850.552734375 23418.998046875 19851.00390625 23418.55078125 19851.00390625 23418 L 19851.00390625 23398.001953125 C 19851.00390625 23397.44921875 19850.552734375 23396.998046875 19850 23396.998046875 L 19787 23396.998046875 C 19786.44921875 23396.998046875 19786.001953125 23397.44921875 19786.001953125 23398.001953125 L 19786.001953125 23418 C 19786.001953125 23418.55078125 19786.44921875 23418.998046875 19787 23418.998046875 L 19815.919921875 23418.998046875 L 19816.216796875 23419.31640625 L 19818.5 23421.76953125 M 19818.5 23422.828125 C 19818.26171875 23422.828125 19818.0234375 23422.728515625 19817.84375 23422.533203125 L 19815.484375 23419.998046875 L 19787 23419.998046875 C 19785.89453125 23419.998046875 19785.001953125 23419.10546875 19785.001953125 23418 L 19785.001953125 23398.001953125 C 19785.001953125 23396.896484375 19785.89453125 23395.998046875 19787 23395.998046875 L 19850 23395.998046875 C 19851.103515625 23395.998046875 19852.00390625 23396.896484375 19852.00390625 23398.001953125 L 19852.00390625 23418 C 19852.00390625 23419.10546875 19851.103515625 23419.998046875 19850 23419.998046875 L 19821.515625 23419.998046875 L 19819.15625 23422.533203125 C 19818.9765625 23422.728515625 19818.73828125 23422.828125 19818.5 23422.828125 Z" stroke="none" fill="#e6e6e6"/>
        </g>
      </g>
      <g transform="matrix(1, 0, 0, 1, 185, 7938)" filter="url(#Union_18)">
        <g id="Union_18-2" data-name="Union 18" transform="translate(-18714.5 -22971)" fill="#c645ff">
          <path d="M 19821 23422.330078125 C 19820.8671875 23422.330078125 19820.740234375 23422.27734375 19820.642578125 23422.1796875 L 19818.111328125 23419.646484375 L 19817.96484375 23419.5 L 19817.7578125 23419.5 L 19787.001953125 23419.5 C 19786.171875 23419.5 19785.498046875 23418.828125 19785.498046875 23418.001953125 L 19785.498046875 23397.998046875 C 19785.498046875 23397.171875 19786.171875 23396.5 19787.001953125 23396.5 L 19854.998046875 23396.5 C 19855.828125 23396.5 19856.501953125 23397.171875 19856.501953125 23397.998046875 L 19856.501953125 23418.001953125 C 19856.501953125 23418.828125 19855.828125 23419.5 19854.998046875 23419.5 L 19824.2421875 23419.5 L 19824.03515625 23419.5 L 19823.888671875 23419.646484375 L 19821.35546875 23422.181640625 C 19821.259765625 23422.27734375 19821.1328125 23422.330078125 19821 23422.330078125 Z" stroke="none"/>
          <path d="M 19821 23421.830078125 C 19821.001953125 23421.828125 19821.001953125 23421.828125 19821.00390625 23421.826171875 L 19823.828125 23419 L 19854.998046875 23419 C 19855.55078125 23419 19856.001953125 23418.552734375 19856.001953125 23418.001953125 L 19856.001953125 23397.998046875 C 19856.001953125 23397.447265625 19855.55078125 23397 19854.998046875 23397 L 19787.001953125 23397 C 19786.44921875 23397 19785.998046875 23397.447265625 19785.998046875 23397.998046875 L 19785.998046875 23418.001953125 C 19785.998046875 23418.552734375 19786.44921875 23419 19787.001953125 23419 L 19818.171875 23419 L 19820.99609375 23421.826171875 C 19820.998046875 23421.828125 19820.998046875 23421.828125 19821 23421.830078125 M 19821 23422.830078125 C 19820.744140625 23422.830078125 19820.48828125 23422.73046875 19820.291015625 23422.53515625 L 19817.7578125 23420 L 19787.001953125 23420 C 19785.896484375 23420 19784.998046875 23419.107421875 19784.998046875 23418.001953125 L 19784.998046875 23397.998046875 C 19784.998046875 23396.892578125 19785.896484375 23396 19787.001953125 23396 L 19854.998046875 23396 C 19856.103515625 23396 19857.001953125 23396.892578125 19857.001953125 23397.998046875 L 19857.001953125 23418.001953125 C 19857.001953125 23419.107421875 19856.103515625 23420 19854.998046875 23420 L 19824.2421875 23420 L 19821.708984375 23422.53515625 C 19821.51171875 23422.73046875 19821.255859375 23422.830078125 19821 23422.830078125 Z" stroke="none" fill="#c645ff"/>
        </g>
      </g>
      <g transform="matrix(1, 0, 0, 1, 185, 7938)" filter="url(#Union_20)">
        <g id="Union_20-2" data-name="Union 20" transform="translate(-18957.5 -22648)" fill="#c645ff">
          <path d="M 19857 23419.5 L 19786.998046875 23419.5 C 19786.171875 23419.5 19785.498046875 23418.828125 19785.498046875 23418.001953125 L 19785.498046875 23398 C 19785.498046875 23397.173828125 19786.171875 23396.501953125 19786.998046875 23396.501953125 L 19818.662109375 23396.501953125 L 19818.865234375 23396.501953125 L 19819.009765625 23396.361328125 L 19821.623046875 23393.822265625 C 19821.72265625 23393.724609375 19821.857421875 23393.671875 19822.001953125 23393.671875 C 19822.14453125 23393.671875 19822.279296875 23393.724609375 19822.376953125 23393.8203125 L 19824.986328125 23396.359375 L 19825.1328125 23396.501953125 L 19825.3359375 23396.501953125 L 19857 23396.501953125 C 19857.826171875 23396.501953125 19858.498046875 23397.173828125 19858.498046875 23398 L 19858.498046875 23418.001953125 C 19858.498046875 23418.828125 19857.826171875 23419.5 19857 23419.5 Z" stroke="none"/>
          <path d="M 19857 23419 C 19857.55078125 23419 19857.998046875 23418.552734375 19857.998046875 23418.001953125 L 19857.998046875 23398 C 19857.998046875 23397.44921875 19857.55078125 23397.001953125 19857 23397.001953125 L 19824.9296875 23397.001953125 L 19822.02734375 23394.1796875 C 19822.0234375 23394.173828125 19822.01171875 23394.171875 19822.001953125 23394.171875 C 19821.998046875 23394.171875 19821.98046875 23394.171875 19821.97265625 23394.1796875 L 19819.068359375 23397.001953125 L 19786.998046875 23397.001953125 C 19786.447265625 23397.001953125 19785.998046875 23397.44921875 19785.998046875 23398 L 19785.998046875 23418.001953125 C 19785.998046875 23418.552734375 19786.447265625 23419 19786.998046875 23419 L 19857 23419 M 19857 23420 L 19786.998046875 23420 C 19785.892578125 23420 19784.998046875 23419.107421875 19784.998046875 23418.001953125 L 19784.998046875 23398 C 19784.998046875 23396.89453125 19785.892578125 23396.001953125 19786.998046875 23396.001953125 L 19818.662109375 23396.001953125 L 19821.275390625 23393.462890625 C 19821.474609375 23393.267578125 19821.73828125 23393.171875 19822.001953125 23393.171875 C 19822.265625 23393.171875 19822.52734375 23393.267578125 19822.7265625 23393.462890625 L 19825.3359375 23396.001953125 L 19857 23396.001953125 C 19858.10546875 23396.001953125 19858.998046875 23396.89453125 19858.998046875 23398 L 19858.998046875 23418.001953125 C 19858.998046875 23419.107421875 19858.10546875 23420 19857 23420 Z" stroke="none" fill="#c645ff"/>
        </g>
      </g>
      <text id="Old_Rate" data-name="Old Rate" transform="translate(593.5 8276)" fill="#120638" font-size="11" font-family="SFProText-Medium, SF Pro Text" font-weight="500"><tspan x="-45" y="0">Old Rate</tspan></text>
      <text id="Old_Loan" data-name="Old Loan" transform="translate(1073 8619)" fill="#120638" font-size="11" font-family="SFProText-Medium, SF Pro Text" font-weight="500"><tspan x="-46" y="0">Old Loan</tspan></text>
      <text id="New_Rate" data-name="New Rate" transform="translate(1317.498 8378.915)" fill="#fff" font-size="11" font-family="SFProText-Bold, SF Pro Text" font-weight="700"><tspan x="-52" y="0">New Rate</tspan></text>
      <text id="New_Loan" data-name="New Loan" transform="translate(1076.502 8701.915)" fill="#fff" font-size="11" font-family="SFProText-Bold, SF Pro Text" font-weight="700"><tspan x="-53" y="0">New Loan</tspan></text>
    </g>
  </g>
</svg>
