<svg xmlns="http://www.w3.org/2000/svg" width="16" height="18" viewBox="0 0 20 20">
  <defs />
  <path fill="#1C4A98" class="a"
        d="M4.25-3.75a10,10,0,0,0-10-10,10,10,0,0,0-10,10,10,10,0,0,0,10,10A10,10,0,0,0,4.25-3.75Zm-9.732-6.694c2.273,0,4.7,1.774,4.7,4.113,0,3.106-3.354,3.153-3.354,4.3v.054a.484.484,0,0,1-.484.484H-6.879a.484.484,0,0,1-.484-.484v-.161c0-1.656,1.255-2.317,2.2-2.849.813-.456,1.312-.766,1.312-1.37,0-.8-1.019-1.329-1.843-1.329-1.1,0-1.59.53-2.311,1.443a.484.484,0,0,1-.672.086l-1.4-1.061a.485.485,0,0,1-.109-.656A5.223,5.223,0,0,1-5.482-10.444Zm-.268,10A1.857,1.857,0,0,1-3.9,1.411,1.857,1.857,0,0,1-5.75,3.266,1.857,1.857,0,0,1-7.6,1.411,1.857,1.857,0,0,1-5.75-.444Z"
        transform="translate(15.75 13.75)" />
</svg>