<svg xmlns="http://www.w3.org/2000/svg" width="243.911" height="35.802" viewBox="0 0 243.911 35.802">
  <path id="Path_1464" data-name="Path 1464" d="M97.621,4.837V28.592c0,4.712,2.934,7.205,7.254,7.205a15.253,15.253,0,0,0,4.326-.677V31.226a11.371,11.371,0,0,1-3.317.488,3.359,3.359,0,0,1-3.684-3.643V14.607h6.357V10.75H102.2V8.228c0-2.412-1.437-3.636-3.267-3.636A3.785,3.785,0,0,0,97.621,4.837Zm92.094,9.136v-.1c0-2.412-1.278-3.636-3.109-3.636a3.787,3.787,0,0,0-1.313.245v24.8h4.577V18.31c1.363-1.843,4.118-4,6.535-4,2.674,0,4.009,1.732,4.009,4.253V35.283h4.578V18.31c1.578-2.133,4.117-4,6.534-4,2.675,0,4.009,1.732,4.009,4.253V35.283h4.577V18.311c0-4.622-2.09-8.075-7.75-8.075-3.446,0-6,1.848-8.058,4.1-.693-1.652-2.255-4.1-7.077-4.1A10.106,10.106,0,0,0,189.715,13.973Zm-15.993-.1c0-2.412-1.356-3.636-3.187-3.636a3.787,3.787,0,0,0-1.313.245v24.8H173.8v-14.5a9.379,9.379,0,0,1,8.435-5.921V10.235c-4.341,0-6.827,2.1-8.513,5.214Zm-145.665,0c0-2.412-1.356-3.636-3.187-3.636a3.785,3.785,0,0,0-1.312.245v24.8h4.577v-14.5a9.379,9.379,0,0,1,8.435-5.921V10.235c-4.342,0-6.828,2.1-8.514,5.214Zm106.227,8.893a39.494,39.494,0,0,0,7.475-12.2l-4.23-1.546a36.03,36.03,0,0,1-11.6,15.792V.58h-4.577v34.7h4.577V30.161a50.418,50.418,0,0,0,5.06-4.108l4.179,7.068a4.88,4.88,0,0,0,4.515,2.675,4.226,4.226,0,0,0,2.122-.514Zm-129.5.226c0-5.709,2.974-8.675,7.478-8.675a11.868,11.868,0,0,1,6.373,1.738,3.492,3.492,0,0,0,1.01-2.434c0-1.624-1.919-3.385-7.567-3.385C5.5,10.235,0,14.659,0,23.042,0,31.22,4.993,35.8,11.576,35.8a19.108,19.108,0,0,0,8.02-1.741V29.509a15.2,15.2,0,0,1-7.265,2.206C8.012,31.714,4.787,28.756,4.787,22.991Zm72.5-7.3A10.5,10.5,0,0,0,72.2,14.316c-4.23,0-7.132,2.936-7.132,9.005,0,5.4,2.714,8.389,8.541,8.389a13.021,13.021,0,0,0,3.683-.526Zm4.524,18.867A28.152,28.152,0,0,1,73.608,35.8c-9.443,0-13.088-5.27-13.088-12.35,0-8.95,5.09-13.224,10.854-13.224a13.2,13.2,0,0,1,5.917,1.294V.58h4.524ZM41.569,21.466c.2-3.61,2.531-7.308,7.6-7.308,2.263,0,3.625,1.292,3.625,2.856C52.794,20.512,46.4,21.466,41.569,21.466Zm.031,3.551c6.813,0,15.83-1.03,15.83-8.226,0-3.6-3-6.556-8.034-6.556-8.5,0-12.589,5.971-12.589,13.166,0,6.9,4.453,12.4,12.4,12.4,4.421,0,7.724-1.2,7.724-3.714A3.617,3.617,0,0,0,56,29.8a11.72,11.72,0,0,1-6.522,1.911C44.277,31.714,42.128,28.347,41.6,25.017ZM87.4,35.283V10.75h4.578V35.283ZM89.718,5.812a2.92,2.92,0,0,1-2.932-2.88A2.964,2.964,0,0,1,89.718,0,2.92,2.92,0,0,1,92.6,2.932,2.875,2.875,0,0,1,89.718,5.812ZM239.333,28.545a9.075,9.075,0,0,1-6.818,3.174c-2.595,0-3.958-1.658-3.958-3.4,0-2.52,2.01-4.638,10.775-5.484Zm-5.326-18.31c-5.849,0-8.13,1.574-8.13,3.382a3.435,3.435,0,0,0,1.013,2.428,11.8,11.8,0,0,1,6.463-1.738c4.42,0,5.98,2.093,5.98,4.353v.679c-10.235,1.08-15.481,3.012-15.481,9.133a7.208,7.208,0,0,0,7.542,7.326,11.324,11.324,0,0,0,8.049-3.323v2.809h4.469V18.509C243.911,13.057,239.973,10.235,234.007,10.235Zm-75,18.31a9.076,9.076,0,0,1-6.818,3.174c-2.6,0-3.957-1.658-3.957-3.4,0-2.52,2.009-4.638,10.775-5.484Zm-5.326-18.31c-5.849,0-8.13,1.574-8.13,3.382a3.434,3.434,0,0,0,1.013,2.428,11.8,11.8,0,0,1,6.463-1.738c4.42,0,5.98,2.093,5.98,4.353v.679c-10.235,1.08-15.482,3.012-15.482,9.133a7.208,7.208,0,0,0,7.542,7.326,11.325,11.325,0,0,0,8.049-3.323v2.809h4.469V18.509C163.585,13.057,159.647,10.235,153.681,10.235Z" fill="#5e5e5e"/>
</svg>
