<svg xmlns="http://www.w3.org/2000/svg" xmlns:xlink="http://www.w3.org/1999/xlink" width="256" height="76.373" viewBox="0 0 256 76.373">
  <defs>
    <linearGradient id="linear-gradient" x1="0.009" y1="1.007" x2="1.015" y2="0.017" gradientUnits="objectBoundingBox">
      <stop offset="0" stop-color="#4f4f4f"/>
      <stop offset="1" stop-color="#7e7e7e"/>
    </linearGradient>
  </defs>
  <g id="lendingtree" transform="translate(-21.6 -19.996)">
    <g id="Group_470" data-name="Group 470" transform="translate(21.6 47.433)">
      <path id="Path_977" data-name="Path 977" d="M271.721,90.42c0-4.675-1.079-8.313-3.2-10.812s-5.339-3.8-9.483-3.8-7.454,1.316-9.751,3.907-3.425,6.363-3.425,11.263a15.767,15.767,0,0,0,1.859,7.972,11.708,11.708,0,0,0,5.016,4.772,15.669,15.669,0,0,0,6.972,1.505,19.149,19.149,0,0,0,5.375-.689,14.743,14.743,0,0,0,4.394-2.145,1.4,1.4,0,0,0,.609-1.109,2.108,2.108,0,0,0-.189-.823L268.765,98.1c-.268-.713-.731-.817-.981-.817a1.481,1.481,0,0,0-.8.3,11.543,11.543,0,0,1-6.521,1.926,8.443,8.443,0,0,1-5.8-1.828,6.588,6.588,0,0,1-2.029-4.815H269.7c.756-.006,2.017-.323,2.017-2.45Zm-19.076-2.663A7.076,7.076,0,0,1,254.3,83.21a6.1,6.1,0,0,1,4.778-1.828,5.665,5.665,0,0,1,4.577,1.78,7.4,7.4,0,0,1,1.524,4.614ZM230.857,75.812c-4.175,0-7.454,1.316-9.751,3.907s-3.425,6.363-3.425,11.263a15.773,15.773,0,0,0,1.859,7.972,11.714,11.714,0,0,0,5.016,4.772,15.663,15.663,0,0,0,6.942,1.505,19.148,19.148,0,0,0,5.375-.689,14.761,14.761,0,0,0,4.394-2.145,1.4,1.4,0,0,0,.609-1.109,2.09,2.09,0,0,0-.189-.823L240.553,98.1c-.268-.713-.731-.817-.981-.817a1.481,1.481,0,0,0-.8.3,11.543,11.543,0,0,1-6.521,1.926,8.443,8.443,0,0,1-5.8-1.828,6.588,6.588,0,0,1-2.029-4.815h17.065c.756,0,2.017-.317,2.017-2.438,0-4.675-1.079-8.313-3.2-10.812s-5.3-3.809-9.453-3.809Zm6.125,11.945H224.464a7.082,7.082,0,0,1,1.658-4.547,6.1,6.1,0,0,1,4.778-1.828,5.665,5.665,0,0,1,4.577,1.78,7.4,7.4,0,0,1,1.505,4.6ZM218.7,78.591a1.548,1.548,0,0,0,0-.853,1.432,1.432,0,0,0-.53-.731c-1.024-.78-4.193-.939-4.985-.939a26,26,0,0,0-7.155,1.359,1.158,1.158,0,0,0-1.054-.609h-3.181a1.6,1.6,0,0,0-1.4.536,2.517,2.517,0,0,0-.329,1.457v23.068a2.736,2.736,0,0,0,.549,1.828l.067.067a2.243,2.243,0,0,0,1.688.609h2.487a2.182,2.182,0,0,0,1.792-.683,2.828,2.828,0,0,0,.518-1.828V82.979a19.777,19.777,0,0,1,5.333-.926,5.442,5.442,0,0,1,.707.03,5,5,0,0,1,2.066.555l.463.14h.1a.981.981,0,0,0,.969-.835l1.828-3.346Zm-21.733-1.274a1.932,1.932,0,0,0-1.658-.609h-4.876V69.62a2.779,2.779,0,0,0-.457-1.719,1.9,1.9,0,0,0-1.609-.664H185.4a1.9,1.9,0,0,0-1.609.67,2.773,2.773,0,0,0-.457,1.719V94.942c0,8.252,5.1,9.971,7.764,10.306a1.4,1.4,0,0,0,1.579-1.39v-3.773a1.4,1.4,0,0,0-.756-1.219,2.633,2.633,0,0,1-.811-.683c-.512-.609-.683-1.828-.683-3.437V82.924H195.3a2,2,0,0,0,1.652-.573,2.834,2.834,0,0,0,.414-1.755V79.084a2.986,2.986,0,0,0-.4-1.767ZM174.671,76.9a19.606,19.606,0,0,0-6.253-1.03c-4.614,0-8.2,1.316-10.665,3.919s-3.7,6.338-3.7,11.135c0,4.236,1.048,7.576,3.108,9.922A12.427,12.427,0,0,0,170.4,103.56a8.625,8.625,0,0,0,2.407-1.633,7.761,7.761,0,0,1-1.329,4.419,5.336,5.336,0,0,1-4.315,1.609,16.376,16.376,0,0,1-5.217-.847.969.969,0,0,0-1.3.884l-.116,4.077a.963.963,0,0,0,.725.969,28.078,28.078,0,0,0,6.43.914c4.163,0,7.271-1.365,9.245-4.053s2.919-6.308,2.919-10.891V79.2a49.228,49.228,0,0,0-5.186-2.3Zm-1.828,5.954v9.636a5.644,5.644,0,0,1-1.53,4.2,5.485,5.485,0,0,1-4.01,1.505,5.8,5.8,0,0,1-4.693-1.828c-1.036-1.219-1.566-3.23-1.566-5.857,0-5.717,2.31-8.5,7.07-8.5a14.366,14.366,0,0,1,2.822.268,8.216,8.216,0,0,1,1.92.573Zm-30.619-6.984a25.951,25.951,0,0,0-7.7,1.109l-1.3.335a1.158,1.158,0,0,0-1.067-.609h-3.181a1.6,1.6,0,0,0-1.4.536,2.511,2.511,0,0,0-.329,1.457V101.97a2.737,2.737,0,0,0,.549,1.828,2.2,2.2,0,0,0,1.761.67h2.487a2.182,2.182,0,0,0,1.792-.683,2.834,2.834,0,0,0,.518-1.828V82.918a24,24,0,0,1,5.826-.939,4.158,4.158,0,0,1,3.114.993,5.208,5.208,0,0,1,.945,3.547v15.462a2.73,2.73,0,0,0,.549,1.828,2.2,2.2,0,0,0,1.761.67h2.535a2.121,2.121,0,0,0,1.743-.683,2.834,2.834,0,0,0,.518-1.828v-15.9c0-3.352-.841-5.918-2.5-7.624a8.837,8.837,0,0,0-6.613-2.578ZM121.49,76.7H119a2.2,2.2,0,0,0-1.755.67,2.828,2.828,0,0,0-.549,1.883V101.97a2.737,2.737,0,0,0,.549,1.828,2.194,2.194,0,0,0,1.761.67H121.5a2.182,2.182,0,0,0,1.792-.683,2.834,2.834,0,0,0,.512-1.828v-22.7a2.834,2.834,0,0,0-.549-1.883A2.2,2.2,0,0,0,121.49,76.7Zm-8.868-11.665c-2.066.92-6.369,4.479-6.369,5.394v7.313a10.529,10.529,0,0,0-6.783-1.956,11.141,11.141,0,0,0-6.424,1.871,11.86,11.86,0,0,0-4.163,5.229,19.058,19.058,0,0,0-1.426,7.588c0,9.806,4.735,14.779,14.078,14.779a20.381,20.381,0,0,0,6.521-1.06,46.539,46.539,0,0,0,5.211-2.346V65.707a.683.683,0,0,0-.152-.451c-.128-.14-.317-.3-.494-.219Zm-6.369,21.94V98.106a8.368,8.368,0,0,1-4.571,1.091c-2.438,0-4.266-.658-5.424-1.956s-1.786-3.535-1.786-6.594a11.183,11.183,0,0,1,1.633-6.472,5.416,5.416,0,0,1,4.815-2.249,5.8,5.8,0,0,1,3.894,1.28,4.734,4.734,0,0,1,1.432,3.742ZM75.647,75.866a25.945,25.945,0,0,0-7.7,1.109l-.152.043-1.146.293a1.146,1.146,0,0,0-1.067-.609H62.391a1.6,1.6,0,0,0-1.4.536,2.5,2.5,0,0,0-.329,1.457V101.97a2.737,2.737,0,0,0,.549,1.828,2.194,2.194,0,0,0,1.761.67h2.487a2.182,2.182,0,0,0,1.792-.683,2.834,2.834,0,0,0,.518-1.828V82.918a24,24,0,0,1,5.826-.939,4.158,4.158,0,0,1,3.114.993,5.155,5.155,0,0,1,.945,3.547v15.462a2.736,2.736,0,0,0,.549,1.828,2.2,2.2,0,0,0,1.761.67H82.5a2.121,2.121,0,0,0,1.743-.683,2.828,2.828,0,0,0,.518-1.828v-15.9c0-3.352-.841-5.918-2.5-7.624a8.837,8.837,0,0,0-6.607-2.578Zm-30.394-.055c-4.175,0-7.454,1.316-9.751,3.907s-3.419,6.363-3.419,11.263a15.773,15.773,0,0,0,1.859,7.972,11.72,11.72,0,0,0,5.016,4.772,15.669,15.669,0,0,0,6.96,1.505,19.143,19.143,0,0,0,5.375-.689,14.767,14.767,0,0,0,4.394-2.145,1.4,1.4,0,0,0,.609-1.109,2.109,2.109,0,0,0-.189-.823L54.974,98.1c-.274-.713-.731-.817-.981-.817a1.481,1.481,0,0,0-.8.3,11.543,11.543,0,0,1-6.521,1.926,8.443,8.443,0,0,1-5.8-1.828,6.582,6.582,0,0,1-2.029-4.815H55.912c.756,0,2.017-.317,2.017-2.438.006-4.705-1.067-8.325-3.175-10.8S49.4,75.812,45.253,75.812Zm6.156,11.945H38.86a7.076,7.076,0,0,1,1.658-4.547A6.1,6.1,0,0,1,45.3,81.382a5.665,5.665,0,0,1,4.577,1.78,7.4,7.4,0,0,1,1.53,4.6Zm-22,10.4c-.512-.609-.683-1.828-.683-3.437V68.193a2.779,2.779,0,0,0-.457-1.719,1.9,1.9,0,0,0-1.609-.664H23.672a1.9,1.9,0,0,0-1.609.67,2.773,2.773,0,0,0-.457,1.719V94.949c0,8.252,5.1,9.971,7.764,10.306a1.4,1.4,0,0,0,1.615-1.4V100.08a1.4,1.4,0,0,0-.756-1.219A2.633,2.633,0,0,1,29.407,98.154Z" transform="translate(-21.6 -65.015)" fill="#101f30"/>
    </g>
    <path id="Path_978" data-name="Path 978" d="M212.6,20c-1.828.274-13.792,1.554-22.611,3.754-12.567,3.133-12.341,13.621-12.341,17.766V55.524c0,.213.158.219.268.079a127.609,127.609,0,0,1,17.741-19.149s.049-.049-.037,0a57.545,57.545,0,0,0-10.8,4.644v-1.78c-.049-7.143,4.157-9.069,9.142-10.464a86.3,86.3,0,0,1,11.714-1.786s-.609,4.449-1.432,13.512c-.561,6.6-5.424,8.063-12.207,8.063h-3.815c-3.047,4.394-3.456,7.033-3.456,7.033h7.478c14.243,0,17.424-6.277,18.107-15.566.859-11.805,2.048-18.649,2.4-19.941A.134.134,0,0,0,212.6,20Z" transform="translate(-60.944 0)" fill="url(#linear-gradient)"/>
    <path id="Path_979" data-name="Path 979" d="M437.487,85.122a2.736,2.736,0,0,0-1.091-1.085,2.974,2.974,0,0,0-2.907,0,2.737,2.737,0,0,0-1.091,1.085,2.95,2.95,0,0,0,0,2.944,2.773,2.773,0,0,0,1.085,1.085,2.95,2.95,0,0,0,2.931,0,2.773,2.773,0,0,0,1.073-1.085A2.95,2.95,0,0,0,437.487,85.122ZM437,87.779a2.261,2.261,0,0,1-.871.878,2.359,2.359,0,0,1-2.353,0,2.237,2.237,0,0,1-.871-.878,2.371,2.371,0,0,1,0-2.371,2.206,2.206,0,0,1,.878-.872,2.389,2.389,0,0,1,2.328,0,2.2,2.2,0,0,1,.878.872,2.371,2.371,0,0,1,0,2.371Z" transform="translate(-160.281 -24.862)" fill="#101f30"/>
    <path id="Path_980" data-name="Path 980" d="M436.939,88.011a1.5,1.5,0,0,0-.2-.232.743.743,0,0,0-.207-.11.957.957,0,0,0,.609-.286.786.786,0,0,0,.213-.549.835.835,0,0,0-.11-.427.744.744,0,0,0-.28-.286,1.176,1.176,0,0,0-.469-.122H434.94v2.98h.609V87.761h.158a.664.664,0,0,1,.421.128,2.01,2.01,0,0,1,.421.609l.25.481h.75l-.353-.609q-.219-.311-.256-.36Zm-.518-.792a2.962,2.962,0,0,1-.652.043h-.244v-.792h.244a2.875,2.875,0,0,1,.646.043.39.39,0,0,1,.2.14.366.366,0,0,1,.073.219.384.384,0,0,1-.274.372Z" transform="translate(-161.427 -25.777)" fill="#101f30"/>
  </g>
</svg>
