<svg xmlns="http://www.w3.org/2000/svg" width="232.096" height="48.466" viewBox="0 0 232.096 48.466">
  <g id="zillow-logo_logotyp.us" data-name="zillow-logo@logotyp.us" transform="translate(-89.066 -160.035)">
    <path id="Path_981" data-name="Path 981" d="M123.073,34.42c0-8.968,7.234-15.608,16.08-15.608,8.762,0,16,6.641,16,15.608a15.645,15.645,0,0,1-16,15.644c-8.846-.011-16.08-6.652-16.08-15.644ZM68.455,8.148V9.966a2.086,2.086,0,0,1-.278,1.163L51.053,40.286a.074.074,0,0,0,.062.121H69.352v8.677H36.511v-1.7a2.616,2.616,0,0,1,.509-1.659L53.951,16.97c.035-.06.011-.121-.062-.121H37.032v-8.7ZM173.968,49.072H165.2l-9.538-29.509h9.428l2.728,8.932c.908,2.957,2.435,8.507,2.435,8.507a.069.069,0,0,0,.132,0s1.575-5.66,2.474-8.507l2.86-8.932h6.956l2.811,8.932c.945,3.054,2.424,8.507,2.424,8.507.022.073.108.073.145,0,0,0,1.527-5.515,2.435-8.507l2.728-8.932h8.761L192.5,49.072h-8.615l-2.351-7.416c-.9-2.908-2.485-8.556-2.485-8.556a.067.067,0,0,0-.132,0s-1.588,5.537-2.545,8.507Zm-88.995,0H75.435V19.563h9.538ZM92.207,3.966h9.538V49.072H92.207Zm16.6,0h9.538V49.072h-9.538ZM146,34.42c0-4.387-3.14-7.381-6.848-7.381-3.792,0-6.932,2.994-6.932,7.381,0,4.424,3.14,7.379,6.932,7.379C142.861,41.8,146,38.844,146,34.42Zm60.724-21.934a3.563,3.563,0,1,0,3.563,3.563A3.569,3.569,0,0,0,206.725,12.486Zm0,6.436a2.872,2.872,0,1,1,2.873-2.873A2.872,2.872,0,0,1,206.725,18.922Zm.207-5.006a1.455,1.455,0,0,1,.544,2.787l.813,1.333h-.776L206.76,16.8h-.666v1.236h-.679v-4.12Zm-.037.606h-.8v1.672h.8a.839.839,0,0,0,0-1.672ZM80.2,4.779a5.413,5.413,0,0,1,5.429,5.356,5.429,5.429,0,0,1-10.858,0A5.411,5.411,0,0,1,80.2,4.779Z" transform="translate(110.874 158.437)" fill="#5e5e5e"/>
    <path id="Path_982" data-name="Path 982" d="M11.752,42.536a.36.36,0,0,1-.475-.073L7.213,37.621c-.109-.135-.122-.208.024-.414,3.141-4.6,9.551-11.765,13.639-14.793.073-.049.049-.11-.037-.073A179.835,179.835,0,0,0,0,31.465V47.911H43.566V32.073c-5.937,1.009-23.723,6.3-31.814,10.462ZM29.465,12.949a.4.4,0,0,1,.449.17c.754.838,3.165,3.783,3.82,4.586a.271.271,0,0,1-.06.389,86.914,86.914,0,0,0-13.3,13.017c-.06.086-.011.086.037.073A151.258,151.258,0,0,1,43.577,24.3V17.255L21.814.04l-21.8,17.2v7.7c6.751-4.013,22.372-10.23,29.452-11.993Z" transform="translate(89.066 159.995)" fill="#5e5e5e"/>
  </g>
</svg>
